ply
format ascii 1.0
element vertex 636
property float x
property float y
property float z
element face 212
property list uchar int vertex_indices
end_header
8.56831 -7.0725 -17.0391
25.8938 -23.4357 -20.2709
-7.29104 -6.43797 -21.1463
8.56831 -7.0725 -17.0391
-7.29104 -6.43797 -21.1463
-4.53621 -3.7006 -19.0302
8.56831 -7.0725 -17.0391
-4.53621 -3.7006 -19.0302
1.63228 0.685545 -15.1506
8.56831 -7.0725 -17.0391
1.63228 0.685545 -15.1506
27.1427 -2.47377 -9.59745
8.56831 -7.0725 -17.0391
27.1427 -2.47377 -9.59745
25.8938 -23.4357 -20.2709
21.1027 25.6615 -25.6572
10.1287 13.8746 -28.1091
10.7394 12.9706 -17.406
21.1027 25.6615 -25.6572
10.7394 12.9706 -17.406
29.0697 32.8309 -14.4769
21.1027 25.6615 -25.6572
29.0697 32.8309 -14.4769
29.1391 33.3024 -17.1497
21.1027 25.6615 -25.6572
29.1391 33.3024 -17.1497
25.7661 31.9714 -33.429
21.1027 25.6615 -25.6572
25.7661 31.9714 -33.429
22.6639 28.7216 -34.6785
21.1027 25.6615 -25.6572
22.6639 28.7216 -34.6785
20.2117 25.9586 -34.3515
21.1027 25.6615 -25.6572
20.2117 25.9586 -34.3515
10.1287 13.8746 -28.1091
19.9356 20.4373 -20.8902
6.94175 10.0552 -26.1361
1.63227 0.685535 -15.1506
19.9356 20.4373 -20.8902
1.63227 0.685535 -15.1506
30.5442 21.2435 3.03311
19.9356 20.4373 -20.8902
30.5442 21.2435 3.03311
32.638 31.5696 -18.2789
19.9356 20.4373 -20.8902
32.638 31.5696 -18.2789
26.3588 31.5696 -33.6608
19.9356 20.4373 -20.8902
26.3588 31.5696 -33.6608
21.4983 27.5005 -35.148
19.9356 20.4373 -20.8902
21.4983 27.5005 -35.148
6.94175 10.0552 -26.1361
-0.0369826 10.1744 -26.7531
6.94175 10.0552 -26.1361
4.7155 7.08128 -22.686
-0.0369826 10.1744 -26.7531
4.7155 7.08128 -22.686
-14.0928 5.73515 -22.3299
-0.0369826 10.1744 -26.7531
-14.0928 5.73515 -22.3299
-14.737 6.07115 -22.7803
-0.0369826 10.1744 -26.7531
-14.737 6.07115 -22.7803
7.40164 17.4476 -35.056
-0.0369826 10.1744 -26.7531
7.40164 17.4476 -35.056
9.549 14.6562 -31.5306
-0.0369826 10.1744 -26.7531
9.549 14.6562 -31.5306
6.94175 10.0552 -26.1361
4.4617 -11.965 -11.9848
6.76575 -23.8423 -13.8734
13.2987 -20.7977 -7.18967
4.4617 -11.965 -11.9848
13.2987 -20.7977 -7.18967
11.1267 -7.41926 -4.69398
4.4617 -11.965 -11.9848
11.1267 -7.41926 -4.69398
-1.29089 -0.942295 -13.3775
4.4617 -11.965 -11.9848
-1.29089 -0.942295 -13.3775
-7.59172 -6.82355 -20.7892
4.4617 -11.965 -11.9848
-7.59172 -6.82355 -20.7892
6.76575 -23.8423 -13.8734
-19.0254 -33.4311 -20.1456
-28.6109 -36.7199 -10.8727
-22.29 -55.2594 -16.0587
-19.0254 -33.4311 -20.1456
-22.29 -55.2594 -16.0587
-20.0044 -56.7037 -18.1698
-19.0254 -33.4311 -20.1456
-20.0044 -56.7037 -18.1698
-4.409 -53.0667 -33.1796
-19.0254 -33.4311 -20.1456
-4.409 -53.0667 -33.1796
-11.6609 -17.6081 -27.8662
-19.0254 -33.4311 -20.1456
-11.6609 -17.6081 -27.8662
-17.1043 0.314718 -23.488
-19.0254 -33.4311 -20.1456
-17.1043 0.314718 -23.488
-29.098 -14.9745 -11.3843
-19.0254 -33.4311 -20.1456
-29.098 -14.9745 -11.3843
-28.6109 -36.7199 -10.8727
-30.7879 -30.7249 -0.837355
-26.7316 -43.1943 7.91903
-20.0954 -61.6962 -17.8592
-30.7879 -30.7249 -0.837355
-20.0954 -61.6962 -17.8592
-36.5386 -13.4675 -4.36847
-30.7879 -30.7249 -0.837355
-36.5386 -13.4675 -4.36847
-37.0023 -12.4057 2.31172
-30.7879 -30.7249 -0.837355
-37.0023 -12.4057 2.31172
-33.5717 -22.861 7.81012
-30.7879 -30.7249 -0.837355
-33.5717 -22.861 7.81012
-26.7316 -43.1943 7.91903
18.1868 -15.6798 27.6454
11.8064 -23.9795 41.4994
12.4392 -24.864 41.2097
18.1868 -15.6798 27.6454
12.4392 -24.864 41.2097
27.1294 -30.7028 25.1546
18.1868 -15.6798 27.6454
27.1294 -30.7028 25.1546
29.9094 -24.7181 17.6144
18.1868 -15.6798 27.6454
29.9094 -24.7181 17.6144
23.023 -0.86976 11.7346
18.1868 -15.6798 27.6454
23.023 -0.86976 11.7346
4.81326 11.0555 28.6595
18.1868 -15.6798 27.6454
4.81326 11.0555 28.6595
11.8064 -23.9795 41.4994
12.1802 25.6857 26.3614
9.76163 12.3941 32.47
29.7683 28.8834 17.5035
12.1802 25.6857 26.3614
29.7683 28.8834 17.5035
5.18693 39.8403 24.0134
12.1802 25.6857 26.3614
5.18693 39.8403 24.0134
4.004 21.6249 31.4588
12.1802 25.6857 26.3614
4.004 21.6249 31.4588
9.76163 12.3941 32.47
28.6568 41.5868 -0.843025
32.78 33.3012 10.1619
33.3218 34.9528 3.03706
28.6568 41.5868 -0.843025
33.3218 34.9528 3.03706
29.9967 43.2435 -10.87
28.6568 41.5868 -0.843025
29.9967 43.2435 -10.87
24.8486 48.2182 -7.81331
28.6568 41.5868 -0.843025
24.8486 48.2182 -7.81331
22.3368 48.2182 1.26926
28.6568 41.5868 -0.843025
22.3368 48.2182 1.26926
32.78 33.3012 10.1619
16.5247 44.5463 9.92312
5.76696 39.5818 23.8598
29.7683 28.8833 17.5035
16.5247 44.5463 9.92312
29.7683 28.8833 17.5035
32.78 33.3012 10.1619
16.5247 44.5463 9.92312
32.78 33.3012 10.1619
17.0844 55.7207 -3.20334
16.5247 44.5463 9.92312
17.0844 55.7207 -3.20334
15.6654 56.2234 -2.68008
16.5247 44.5463 9.92312
15.6654 56.2234 -2.68008
-1.9167 53.5676 13.8969
16.5247 44.5463 9.92312
-1.9167 53.5676 13.8969
5.76696 39.5818 23.8598
-15.6634 38.0011 30.1688
-29.1746 44.2346 18.7766
-16.5701 30.793 37.0606
-15.6634 38.0011 30.1688
-16.5701 30.793 37.0606
-3.80276 25.592 47.1336
-15.6634 38.0011 30.1688
-3.80276 25.592 47.1336
-4.52328 31.8686 40.5586
-15.6634 38.0011 30.1688
-4.52328 31.8686 40.5586
-24.2463 57.5171 7.3149
-15.6634 38.0011 30.1688
-24.2463 57.5171 7.3149
-29.1746 44.2346 18.7766
-26.7515 44.6714 1.20443
-27.528 35.477 -10.9015
-31.7786 29.4926 9.7026
-26.7515 44.6714 1.20443
-31.7786 29.4926 9.7026
-29.1746 44.2346 18.7766
-26.7515 44.6714 1.20443
-29.1746 44.2346 18.7766
-24.2463 57.5171 7.3149
-26.7515 44.6714 1.20443
-24.2463 57.5171 7.3149
-22.7897 55.8144 -7.09784
-26.7515 44.6714 1.20443
-22.7897 55.8144 -7.09784
-24.992 45.493 -10.5681
-26.7515 44.6714 1.20443
-24.992 45.493 -10.5681
-27.528 35.477 -10.9015
-24.9158 23.0817 -24.5293
-18.102 19.9078 -35.5059
-31.749 9.33929 -23.9894
-24.9158 23.0817 -24.5293
-31.749 9.33929 -23.9894
-31.0946 16.8907 -20.1847
-24.9158 23.0817 -24.5293
-31.0946 16.8907 -20.1847
-27.5542 33.4841 -14.6057
-24.9158 23.0817 -24.5293
-27.5542 33.4841 -14.6057
-16.0793 35.7866 -28.3611
-24.9158 23.0817 -24.5293
-16.0793 35.7866 -28.3611
-18.102 19.9078 -35.5059
4.44882 27.4846 -33.8055
12.4607 20.0474 -37.8613
-8.59568 18.1962 -37.0459
4.44882 27.4846 -33.8055
-8.59568 18.1962 -37.0459
-7.95826 35.808 -28.9942
4.44882 27.4846 -33.8055
-7.95826 35.808 -28.9942
21.8885 35.8867 -31.3208
4.44882 27.4846 -33.8055
21.8885 35.8867 -31.3208
12.4607 20.0474 -37.8613
-33.9631 12.4371 7.81686
-34.1442 6.38738 -1.47709
-34.692 3.23457 -0.369634
-33.9631 12.4371 7.81686
-34.692 3.23457 -0.369634
-35.607 -0.813074 3.83165
-33.9631 12.4371 7.81686
-35.607 -0.813074 3.83165
-36.5868 -0.813077 16.6902
-33.9631 12.4371 7.81686
-36.5868 -0.813077 16.6902
-31.3824 34.8004 17.0868
-33.9631 12.4371 7.81686
-31.3824 34.8004 17.0868
-31.3663 31.8267 11.1393
-33.9631 12.4371 7.81686
-31.3663 31.8267 11.1393
-34.1442 6.38738 -1.47709
-34.8287 -10.5535 -19.0168
-34.9597 -16.9189 -26.8749
-35.0315 -16.9189 -26.0809
-34.8287 -10.5535 -19.0168
-35.0315 -16.9189 -26.0809
-36.0636 -14.5554 -11.2119
-34.8287 -10.5535 -19.0168
-36.0636 -14.5554 -11.2119
-35.6948 -10.4749 -9.32434
-34.8287 -10.5535 -19.0168
-35.6948 -10.4749 -9.32434
-32.394 6.1005 -21.5922
-34.8287 -10.5535 -19.0168
-32.394 6.1005 -21.5922
-34.9597 -16.9189 -26.8749
-31.466 -6.84767 12.7323
-34.4828 -20.5565 16.3282
-37.2031 -11.9457 5.20537
-31.466 -6.84767 12.7323
-37.2031 -11.9457 5.20537
-36.1589 -5.63289 2.88697
-31.466 -6.84767 12.7323
-36.1589 -5.63289 2.88697
-23.6182 6.2681 18.8211
-31.466 -6.84767 12.7323
-23.6182 6.2681 18.8211
-25.8668 -2.37133 20.4199
-31.466 -6.84767 12.7323
-25.8668 -2.37133 20.4199
-34.4828 -20.5565 16.3282
-29.1061 23.2303 12.5477
-20.7697 8.38686 22.8406
-33.754 6.44571 -0.767561
-29.1061 23.2303 12.5477
-33.754 6.44571 -0.767561
-33.9621 8.05476 -0.650152
-29.1061 23.2303 12.5477
-33.9621 8.05476 -0.650152
-31.3663 31.8267 11.1393
-29.1061 23.2303 12.5477
-31.3663 31.8267 11.1393
-29.1746 44.2346 18.7766
-29.1061 23.2303 12.5477
-29.1746 44.2346 18.7766
-25.6098 40.433 23.9476
-29.1061 23.2303 12.5477
-25.6098 40.433 23.9476
-20.7697 8.38686 22.8406
-6.62858 -16.6666 32.1227
11.8064 -23.9795 41.4994
-5.8959 -34.6969 37.5998
-6.62858 -16.6666 32.1227
-5.8959 -34.6969 37.5998
-15.9221 -29.6479 32.1917
-6.62858 -16.6666 32.1227
-15.9221 -29.6479 32.1917
-18.6691 -16.8281 27.4192
-6.62858 -16.6666 32.1227
-18.6691 -16.8281 27.4192
-17.038 -0.221791 23.2843
-6.62858 -16.6666 32.1227
-17.038 -0.221791 23.2843
5.94725 5.37436 30.7416
-6.62858 -16.6666 32.1227
5.94725 5.37436 30.7416
11.8064 -23.9795 41.4994
-29.1662 -9.63864 12.6562
-27.9936 -39.8615 16.7505
-21.9702 -1.42263 21.6841
-29.1662 -9.63864 12.6562
-21.9702 -1.42263 21.6841
-22.4348 0.745452 20.877
-29.1662 -9.63864 12.6562
-22.4348 0.745452 20.877
-29.4376 0.745452 11.4269
-29.1662 -9.63864 12.6562
-29.4376 0.745452 11.4269
-36.1589 -5.63297 2.88697
-29.1662 -9.63864 12.6562
-36.1589 -5.63297 2.88697
-37.0023 -12.4057 2.31171
-29.1662 -9.63864 12.6562
-37.0023 -12.4057 2.31171
-27.9936 -39.8615 16.7505
-4.36403 -49.0074 37.9128
-12.8371 -53.7403 31.0469
-9.0672 -53.7403 33.6664
-4.36403 -49.0074 37.9128
-9.0672 -53.7403 33.6664
11.7942 -49.9054 48.9546
-4.36403 -49.0074 37.9128
11.7942 -49.9054 48.9546
-0.523843 -42.4235 41.9423
-4.36403 -49.0074 37.9128
-0.523843 -42.4235 41.9423
-11.1863 -45.2274 33.954
-4.36403 -49.0074 37.9128
-11.1863 -45.2274 33.954
-12.8371 -53.7403 31.0469
1.61029 -35.7876 37.3458
-10.5293 -45.1468 33.9913
16.0676 -41.8848 35.5037
1.61029 -35.7876 37.3458
16.0676 -41.8848 35.5037
12.4392 -24.864 41.2097
1.61029 -35.7876 37.3458
12.4392 -24.864 41.2097
11.8064 -23.9795 41.4994
1.61029 -35.7876 37.3458
11.8064 -23.9795 41.4994
-9.57626 -36.9251 36.7891
1.61029 -35.7876 37.3458
-9.57626 -36.9251 36.7891
-10.546 -41.9258 35.0814
1.61029 -35.7876 37.3458
-10.546 -41.9258 35.0814
-10.5293 -45.1468 33.9913
28.7426 -51.9859 21.0854
19.2087 -56.6193 30.5641
19.3532 -57.2973 30.3368
28.7426 -51.9859 21.0854
19.3532 -57.2973 30.3368
36.0273 -57.2973 12.8539
28.7426 -51.9859 21.0854
36.0273 -57.2973 12.8539
38.7535 -54.133 10.3489
28.7426 -51.9859 21.0854
38.7535 -54.133 10.3489
35.6357 -43.9148 14.7596
28.7426 -51.9859 21.0854
35.6357 -43.9148 14.7596
23.477 -42.6534 27.649
28.7426 -51.9859 21.0854
23.477 -42.6534 27.649
19.2087 -56.6193 30.5641
33.9641 -37.4666 5.28152
35.6357 -43.9148 14.7596
36.0544 -44.9134 9.60317
33.9641 -37.4666 5.28152
36.0544 -44.9134 9.60317
36.4689 -44.468 -13.0026
33.9641 -37.4666 5.28152
36.4689 -44.468 -13.0026
36.0951 -43.1966 -13.0385
33.9641 -37.4666 5.28152
36.0951 -43.1966 -13.0385
31.3637 -28.3287 1.44573
33.9641 -37.4666 5.28152
31.3637 -28.3287 1.44573
29.9094 -24.7182 17.6144
33.9641 -37.4666 5.28152
29.9094 -24.7182 17.6144
32.2219 -32.7269 19.5889
33.9641 -37.4666 5.28152
32.2219 -32.7269 19.5889
35.6357 -43.9148 14.7596
20.7373 -34.9837 -18.7179
30.2415 -45.6757 -22.5841
22.4784 -47.2064 -32.9316
20.7373 -34.9837 -18.7179
22.4784 -47.2064 -32.9316
-9.71023 -16.13 -26.5945
20.7373 -34.9837 -18.7179
-9.71023 -16.13 -26.5945
29.6774 -31.9459 -5.12394
20.7373 -34.9837 -18.7179
29.6774 -31.9459 -5.12394
30.9994 -33.9604 -6.3555
20.7373 -34.9837 -18.7179
30.9994 -33.9604 -6.3555
30.2415 -45.6757 -22.5841
11.5951 -49.6831 -26.3722
11.2447 -49.4214 -47.905
10.954 -49.4838 -47.9659
11.5951 -49.6831 -26.3722
10.954 -49.4838 -47.9659
-20.2189 -56.7537 -17.9633
11.5951 -49.6831 -26.3722
-20.2189 -56.7537 -17.9633
25.754 -47.0806 4.55734
11.5951 -49.6831 -26.3722
25.754 -47.0806 4.55734
30.2415 -45.6757 -22.5841
11.5951 -49.6831 -26.3722
30.2415 -45.6757 -22.5841
11.2447 -49.4214 -47.905
1.16706 -47.5329 15.8059
-24.0302 -48.605 24.3312
-40.5188 -55.1076 1.28824
1.16706 -47.5329 15.8059
-40.5188 -55.1076 1.28824
-20.2189 -56.7538 -17.9633
1.16706 -47.5329 15.8059
-20.2189 -56.7538 -17.9633
36.0544 -44.9133 9.60327
1.16706 -47.5329 15.8059
36.0544 -44.9133 9.60327
35.6357 -43.9148 14.7596
1.16706 -47.5329 15.8059
35.6357 -43.9148 14.7596
25.5727 -42.8708 25.4274
1.16706 -47.5329 15.8059
25.5727 -42.8708 25.4274
8.02787 -42.8708 35.0465
1.16706 -47.5329 15.8059
8.02787 -42.8708 35.0465
-11.1862 -45.2274 33.954
1.16706 -47.5329 15.8059
-11.1862 -45.2274 33.954
-24.0302 -48.605 24.3312
-10.741 12.3074 26.2134
-20.2667 9.44863 23.0795
-20.6045 7.29283 22.8028
-10.741 12.3074 26.2134
-20.6045 7.29283 22.8028
-19.3833 -0.792804 22.5234
-10.741 12.3074 26.2134
-19.3833 -0.792804 22.5234
13.06 7.1061 33.0492
-10.741 12.3074 26.2134
13.06 7.1061 33.0492
-6.51076 38.4825 29.6122
-10.741 12.3074 26.2134
-6.51076 38.4825 29.6122
-20.2667 9.44863 23.0795
-25.6008 18.9652 -32.4681
-25.3849 14.2678 -29.3599
-29.7396 19.4297 -31.4576
-25.6008 18.9652 -32.4681
-29.7396 19.4297 -31.4576
-29.1768 22.2556 -33.5491
-25.6008 18.9652 -32.4681
-29.1768 22.2556 -33.5491
-18.1019 19.9078 -35.5059
-25.6008 18.9652 -32.4681
-18.1019 19.9078 -35.5059
-25.3849 14.2678 -29.3599
-3.90739 -16.7825 -27.9498
9.67978 -43.4956 -34.6705
-3.06312 -22.9998 -29.4314
-3.90739 -16.7825 -27.9498
-3.06312 -22.9998 -29.4314
-12.0608 -13.77 -26.9559
-3.90739 -16.7825 -27.9498
-12.0608 -13.77 -26.9559
-13.516 0.198919 -23.6429
-3.90739 -16.7825 -27.9498
-13.516 0.198919 -23.6429
-0.576791 -3.84613 -25.0484
-3.90739 -16.7825 -27.9498
-0.576791 -3.84613 -25.0484
9.67978 -43.4956 -34.6705
38.1586 -8.32308 16.3083
40.0553 -5.17962 25.9962
40.3901 -12.6112 25.9256
38.1586 -8.32308 16.3083
40.3901 -12.6112 25.9256
36.4328 -19.6335 5.60941
38.1586 -8.32308 16.3083
36.4328 -19.6335 5.60941
35.4636 -12.761 2.54913
38.1586 -8.32308 16.3083
35.4636 -12.761 2.54913
38.4513 8.56988 21.461
38.1586 -8.32308 16.3083
38.4513 8.56988 21.461
40.0553 -5.17962 25.9962
31.0603 -13.1966 -8.1321
33.3737 -27.6822 -10.6799
32.696 -31.6361 -13.3652
31.0603 -13.1966 -8.1321
32.696 -31.6361 -13.3652
26.6337 -11.0178 -13.9479
31.0603 -13.1966 -8.1321
26.6337 -11.0178 -13.9479
27.9607 11.2545 -2.60728
31.0603 -13.1966 -8.1321
27.9607 11.2545 -2.60728
34.6373 -6.90138 -0.0601212
31.0603 -13.1966 -8.1321
34.6373 -6.90138 -0.0601212
33.3737 -27.6822 -10.6799
32.864 -23.5594 0.16798
31.3637 -28.3287 1.44574
32.696 -31.6361 -13.3652
32.864 -23.5594 0.16798
32.696 -31.6361 -13.3652
33.3737 -27.6823 -10.68
32.864 -23.5594 0.16798
33.3737 -27.6823 -10.68
35.4636 -12.7611 2.54916
32.864 -23.5594 0.16798
35.4636 -12.7611 2.54916
32.5016 -19.1376 10.5832
32.864 -23.5594 0.16798
32.5016 -19.1376 10.5832
31.7854 -21.8106 10.475
32.864 -23.5594 0.16798
31.7854 -21.8106 10.475
31.3637 -28.3287 1.44574
-5.01485 48.4365 -0.610312
-4.09997 31.8652 -6.92055
-4.09997 31.8652 -6.92054
-5.01485 48.4365 -0.610312
-4.09997 31.8652 -6.92054
-24.2463 57.5171 7.31488
-5.01485 48.4365 -0.610312
-24.2463 57.5171 7.31488
-8.29344 64.7113 6.15474
-5.01485 48.4365 -0.610312
-8.29344 64.7113 6.15474
15.6654 56.2234 -2.68009
-5.01485 48.4365 -0.610312
15.6654 56.2234 -2.68009
-4.09997 31.8652 -6.92055
12.5803 43.4802 -12.9123
-4.09998 31.8653 -6.92053
-4.09998 31.8652 -6.92055
12.5803 43.4802 -12.9123
-4.09998 31.8652 -6.92055
21.8885 35.8867 -31.3208
12.5803 43.4802 -12.9123
21.8885 35.8867 -31.3208
29.4978 48.6711 -26.0418
12.5803 43.4802 -12.9123
29.4978 48.6711 -26.0418
16.6304 56.3692 -3.58991
12.5803 43.4802 -12.9123
16.6304 56.3692 -3.58991
15.6654 56.2234 -2.68008
12.5803 43.4802 -12.9123
15.6654 56.2234 -2.68008
-4.09998 31.8653 -6.92053
-10.0722 33.7415 -17.164
-16.3592 33.4664 -15.2109
-5.77368 31.8165 -6.53926
-10.0722 33.7415 -17.164
-5.77368 31.8165 -6.53926
-4.09998 31.8652 -6.92054
-10.0722 33.7415 -17.164
-4.09998 31.8652 -6.92054
-4.09997 31.8652 -6.92055
-10.0722 33.7415 -17.164
-4.09997 31.8652 -6.92055
-6.98288 35.8106 -29.0702
-10.0722 33.7415 -17.164
-6.98288 35.8106 -29.0702
-16.0793 35.7866 -28.3611
-10.0722 33.7415 -17.164
-16.0793 35.7866 -28.3611
-17.1101 35.5798 -27.1255
-10.0722 33.7415 -17.164
-17.1101 35.5798 -27.1255
-16.3592 33.4664 -15.2109
-15.2884 46.1437 -1.87893
-8.13076 37.3815 -37.8894
-4.09997 31.8652 -6.92054
-15.2884 46.1437 -1.87893
-4.09997 31.8652 -6.92054
-13.7484 43.9598 16.6817
-15.2884 46.1437 -1.87893
-13.7484 43.9598 16.6817
-18.7152 50.3243 16.6376
-15.2884 46.1437 -1.87893
-18.7152 50.3243 16.6376
-24.2463 57.5171 7.31488
-15.2884 46.1437 -1.87893
-24.2463 57.5171 7.31488
-22.7897 55.8144 -7.09783
-15.2884 46.1437 -1.87893
-22.7897 55.8144 -7.09783
-8.13076 37.3815 -37.8894
3 0 1 2
3 3 4 5
3 6 7 8
3 9 10 11
3 12 13 14
3 15 16 17
3 18 19 20
3 21 22 23
3 24 25 26
3 27 28 29
3 30 31 32
3 33 34 35
3 36 37 38
3 39 40 41
3 42 43 44
3 45 46 47
3 48 49 50
3 51 52 53
3 54 55 56
3 57 58 59
3 60 61 62
3 63 64 65
3 66 67 68
3 69 70 71
3 72 73 74
3 75 76 77
3 78 79 80
3 81 82 83
3 84 85 86
3 87 88 89
3 90 91 92
3 93 94 95
3 96 97 98
3 99 100 101
3 102 103 104
3 105 106 107
3 108 109 110
3 111 112 113
3 114 115 116
3 117 118 119
3 120 121 122
3 123 124 125
3 126 127 128
3 129 130 131
3 132 133 134
3 135 136 137
3 138 139 140
3 141 142 143
3 144 145 146
3 147 148 149
3 150 151 152
3 153 154 155
3 156 157 158
3 159 160 161
3 162 163 164
3 165 166 167
3 168 169 170
3 171 172 173
3 174 175 176
3 177 178 179
3 180 181 182
3 183 184 185
3 186 187 188
3 189 190 191
3 192 193 194
3 195 196 197
3 198 199 200
3 201 202 203
3 204 205 206
3 207 208 209
3 210 211 212
3 213 214 215
3 216 217 218
3 219 220 221
3 222 223 224
3 225 226 227
3 228 229 230
3 231 232 233
3 234 235 236
3 237 238 239
3 240 241 242
3 243 244 245
3 246 247 248
3 249 250 251
3 252 253 254
3 255 256 257
3 258 259 260
3 261 262 263
3 264 265 266
3 267 268 269
3 270 271 272
3 273 274 275
3 276 277 278
3 279 280 281
3 282 283 284
3 285 286 287
3 288 289 290
3 291 292 293
3 294 295 296
3 297 298 299
3 300 301 302
3 303 304 305
3 306 307 308
3 309 310 311
3 312 313 314
3 315 316 317
3 318 319 320
3 321 322 323
3 324 325 326
3 327 328 329
3 330 331 332
3 333 334 335
3 336 337 338
3 339 340 341
3 342 343 344
3 345 346 347
3 348 349 350
3 351 352 353
3 354 355 356
3 357 358 359
3 360 361 362
3 363 364 365
3 366 367 368
3 369 370 371
3 372 373 374
3 375 376 377
3 378 379 380
3 381 382 383
3 384 385 386
3 387 388 389
3 390 391 392
3 393 394 395
3 396 397 398
3 399 400 401
3 402 403 404
3 405 406 407
3 408 409 410
3 411 412 413
3 414 415 416
3 417 418 419
3 420 421 422
3 423 424 425
3 426 427 428
3 429 430 431
3 432 433 434
3 435 436 437
3 438 439 440
3 441 442 443
3 444 445 446
3 447 448 449
3 450 451 452
3 453 454 455
3 456 457 458
3 459 460 461
3 462 463 464
3 465 466 467
3 468 469 470
3 471 472 473
3 474 475 476
3 477 478 479
3 480 481 482
3 483 484 485
3 486 487 488
3 489 490 491
3 492 493 494
3 495 496 497
3 498 499 500
3 501 502 503
3 504 505 506
3 507 508 509
3 510 511 512
3 513 514 515
3 516 517 518
3 519 520 521
3 522 523 524
3 525 526 527
3 528 529 530
3 531 532 533
3 534 535 536
3 537 538 539
3 540 541 542
3 543 544 545
3 546 547 548
3 549 550 551
3 552 553 554
3 555 556 557
3 558 559 560
3 561 562 563
3 564 565 566
3 567 568 569
3 570 571 572
3 573 574 575
3 576 577 578
3 579 580 581
3 582 583 584
3 585 586 587
3 588 589 590
3 591 592 593
3 594 595 596
3 597 598 599
3 600 601 602
3 603 604 605
3 606 607 608
3 609 610 611
3 612 613 614
3 615 616 617
3 618 619 620
3 621 622 623
3 624 625 626
3 627 628 629
3 630 631 632
3 633 634 635
