ply
format ascii 1.0
element vertex 651
property float x
property float y
property float z
element face 217
property list uchar int vertex_indices
end_header
16.906 -39.3235 -19.7878
9.14155 -41.6226 -28.5937
8.10267 -55.1224 -31.0186
16.906 -39.3235 -19.7878
8.10267 -55.1224 -31.0186
12.617 -54.0197 -25.9209
16.906 -39.3235 -19.7878
12.617 -54.0197 -25.9209
34.7504 -41.382 -0.243524
16.906 -39.3235 -19.7878
34.7504 -41.382 -0.243524
24.4188 -14.8817 -9.16761
16.906 -39.3235 -19.7878
24.4188 -14.8817 -9.16761
12.4053 -28.9126 -23.7824
16.906 -39.3235 -19.7878
12.4053 -28.9126 -23.7824
9.14155 -41.6226 -28.5937
13.7686 -6.1889 -5.07332
3.19541 -6.26341 -5.03922
8.5366 -14.8671 -13.4062
13.7686 -6.1889 -5.07332
8.5366 -14.8671 -13.4062
20.1215 -15.3227 -13.9628
13.7686 -6.1889 -5.07332
20.1215 -15.3227 -13.9628
23.1027 -11.5058 -10.3045
13.7686 -6.1889 -5.07332
23.1027 -11.5058 -10.3045
23.4108 0.600746 1.3905
13.7686 -6.1889 -5.07332
23.4108 0.600746 1.3905
20.5243 -0.500045 0.355815
13.7686 -6.1889 -5.07332
20.5243 -0.500045 0.355815
6.0756 -0.500044 0.500801
13.7686 -6.1889 -5.07332
6.0756 -0.500044 0.500801
5.18188 -1.15284 -0.121004
13.7686 -6.1889 -5.07332
5.18188 -1.15284 -0.121004
3.19541 -6.26341 -5.03922
20.8377 -2.4242 1.39314
24.4188 -14.8817 -9.16761
23.8238 -15.5766 -9.89148
20.8377 -2.4242 1.39314
23.8238 -15.5766 -9.89148
13.8316 4.47054 6.38645
20.8377 -2.4242 1.39314
13.8316 4.47054 6.38645
17.6199 6.93339 9.23649
20.8377 -2.4242 1.39314
17.6199 6.93339 9.23649
24.4946 6.93339 10.4019
20.8377 -2.4242 1.39314
24.4946 6.93339 10.4019
24.4188 -14.8817 -9.16761
-15.0738 -22.9562 -32.1919
-15.8486 -24.9051 -35.7144
-16.6629 -38.8094 -39.1314
-15.0738 -22.9562 -32.1919
-16.6629 -38.8094 -39.1314
-16.4883 -39.6509 -38.3068
-15.0738 -22.9562 -32.1919
-16.4883 -39.6509 -38.3068
-12.3993 -19.9387 -19.9423
-15.0738 -22.9562 -32.1919
-12.3993 -19.9387 -19.9423
-13.2743 -5.35927 -24.3249
-15.0738 -22.9562 -32.1919
-13.2743 -5.35927 -24.3249
-15.7695 -9.07388 -35.7316
-15.0738 -22.9562 -32.1919
-15.7695 -9.07388 -35.7316
-15.8486 -24.9051 -35.7144
1.28317 1.49277 -6.70355
5.1819 -1.15284 -0.120991
-10.6356 -11.4362 -12.021
1.28317 1.49277 -6.70355
-10.6356 -11.4362 -12.021
-11.6397 -6.42298 -16.768
1.28317 1.49277 -6.70355
-11.6397 -6.42298 -16.768
-11.2583 -2.89331 -18.793
1.28317 1.49277 -6.70355
-11.2583 -2.89331 -18.793
12.1136 18.3153 -5.44636
1.28317 1.49277 -6.70355
12.1136 18.3153 -5.44636
23.9371 12.5466 12.9281
1.28317 1.49277 -6.70355
23.9371 12.5466 12.9281
5.1819 -1.15284 -0.120991
5.26902 10.4282 -20.89
-8.06928 0.000528812 -16.9719
-6.0001 1.06276 -21.4022
5.26902 10.4282 -20.89
-6.0001 1.06276 -21.4022
6.75907 10.6623 -27.7335
5.26902 10.4282 -20.89
6.75907 10.6623 -27.7335
11.9364 14.8028 -28.6143
5.26902 10.4282 -20.89
11.9364 14.8028 -28.6143
14.8744 17.7253 -25.1719
5.26902 10.4282 -20.89
14.8744 17.7253 -25.1719
12.1136 18.3153 -5.44637
5.26902 10.4282 -20.89
12.1136 18.3153 -5.44637
-8.06928 0.000528812 -16.9719
4.4507 -4.22247 -19.1449
32.2427 -15.7995 -14.545
-10.7492 -14.1086 -12.4798
4.4507 -4.22247 -19.1449
-10.7492 -14.1086 -12.4798
-11.6397 -6.42298 -16.768
4.4507 -4.22247 -19.1449
-11.6397 -6.42298 -16.768
-11.2583 -2.89331 -18.793
4.4507 -4.22247 -19.1449
-11.2583 -2.89331 -18.793
6.75908 10.6623 -27.7335
4.4507 -4.22247 -19.1449
6.75908 10.6623 -27.7335
21.3495 3.22724 -24.5502
4.4507 -4.22247 -19.1449
21.3495 3.22724 -24.5502
32.2427 -15.7995 -14.545
16.4979 -52.6684 12.1288
3.10417 -62.9572 -19.6386
-18.8672 -65.0217 -9.2132
16.4979 -52.6684 12.1288
-18.8672 -65.0217 -9.2132
4.71867 -48.9323 38.1631
16.4979 -52.6684 12.1288
4.71867 -48.9323 38.1631
35.787 -46.2144 22.5709
16.4979 -52.6684 12.1288
35.787 -46.2144 22.5709
37.0009 -46.2552 21.3412
16.4979 -52.6684 12.1288
37.0009 -46.2552 21.3412
37.2435 -46.6296 19.5492
16.4979 -52.6684 12.1288
37.2435 -46.6296 19.5492
3.10417 -62.9572 -19.6386
-1.64607 -58.2345 -12.4798
-13.8223 -61.5802 0.920415
-16.1182 -63.1465 -3.69146
-1.64607 -58.2345 -12.4798
-16.1182 -63.1465 -3.69146
-8.98712 -62.6594 -22.7772
-1.64607 -58.2345 -12.4798
-8.98712 -62.6594 -22.7772
7.98393 -56.6651 -31.2957
-1.64607 -58.2345 -12.4798
7.98393 -56.6651 -31.2957
12.617 -54.0197 -25.9208
-1.64607 -58.2345 -12.4798
12.617 -54.0197 -25.9208
8.45031 -51.3359 7.8857
-1.64607 -58.2345 -12.4798
8.45031 -51.3359 7.8857
-13.8223 -61.5802 0.920415
25.7147 -48.5458 12.5372
5.88338 -49.6825 28.7129
12.617 -54.0197 -25.9208
25.7147 -48.5458 12.5372
12.617 -54.0197 -25.9208
37.3247 -47.9848 1.98004
25.7147 -48.5458 12.5372
37.3247 -47.9848 1.98004
38.2192 -47.5573 5.16481
25.7147 -48.5458 12.5372
38.2192 -47.5573 5.16481
36.9617 -46.1723 21.351
25.7147 -48.5458 12.5372
36.9617 -46.1723 21.351
35.7871 -46.2144 22.5709
25.7147 -48.5458 12.5372
35.7871 -46.2144 22.5709
13.2099 -48.1895 33.9016
25.7147 -48.5458 12.5372
13.2099 -48.1895 33.9016
5.88338 -49.6825 28.7129
19.4134 -34.2014 34.9692
36.9617 -46.1723 21.351
35.7871 -46.2144 22.5709
19.4134 -34.2014 34.9692
35.7871 -46.2144 22.5709
-1.99881 -44.9444 60.8507
19.4134 -34.2014 34.9692
-1.99881 -44.9444 60.8507
3.2109 -16.838 45.2367
19.4134 -34.2014 34.9692
3.2109 -16.838 45.2367
23.1062 -16.838 24.8369
19.4134 -34.2014 34.9692
23.1062 -16.838 24.8369
36.9617 -46.1723 21.351
22.7078 6.98417 29.2823
13.3777 3.14111 34.9563
20.5913 -11.5442 25.8501
22.7078 6.98417 29.2823
20.5913 -11.5442 25.8501
29.2603 5.66021 24.2222
22.7078 6.98417 29.2823
29.2603 5.66021 24.2222
27.7469 15.0869 27.8288
22.7078 6.98417 29.2823
27.7469 15.0869 27.8288
24.9794 16.8921 30.299
22.7078 6.98417 29.2823
24.9794 16.8921 30.299
20.2913 12.6689 32.5373
22.7078 6.98417 29.2823
20.2913 12.6689 32.5373
13.3777 3.14111 34.9563
27.2562 -24.0177 3.83403
35.2307 -41.347 7.36984
34.786 -39.8985 1.18247
27.2562 -24.0177 3.83403
34.786 -39.8985 1.18247
24.4123 -16.7573 -10.8502
27.2562 -24.0177 3.83403
24.4123 -16.7573 -10.8502
17.6234 -3.13697 0.209286
27.2562 -24.0177 3.83403
17.6234 -3.13697 0.209286
24.2284 -18.9487 21.2587
27.2562 -24.0177 3.83403
24.2284 -18.9487 21.2587
35.2307 -41.347 7.36984
-33.3322 10.4233 -18.5484
-30.1838 -11.7433 -21.2997
-29.7102 -10.9943 -23.268
-33.3322 10.4233 -18.5484
-29.7102 -10.9943 -23.268
-32.9894 22.0436 -24.1906
-33.3322 10.4233 -18.5484
-32.9894 22.0436 -24.1906
-35.2184 26.7687 -18.0671
-33.3322 10.4233 -18.5484
-35.2184 26.7687 -18.0671
-38.559 26.0418 -5.91633
-33.3322 10.4233 -18.5484
-38.559 26.0418 -5.91633
-30.1838 -11.7433 -21.2997
-30.6546 -4.95207 17.7484
-21.1314 -14.3096 34.9327
-22.1567 -20.6463 35.6335
-30.6546 -4.95207 17.7484
-22.1567 -20.6463 35.6335
-32.907 -34.0642 24.5648
-30.6546 -4.95207 17.7484
-32.907 -34.0642 24.5648
-38.6116 -3.62848 5.64641
-30.6546 -4.95207 17.7484
-38.6116 -3.62848 5.64641
-38.6294 -3.33173 5.51725
-30.6546 -4.95207 17.7484
-38.6294 -3.33173 5.51725
-38.8412 28.4957 -5.84763
-30.6546 -4.95207 17.7484
-38.8412 28.4957 -5.84763
-22.3051 12.8201 23.792
-30.6546 -4.95207 17.7484
-22.3051 12.8201 23.792
-21.1314 -14.3096 34.9327
-2.04953 21.0903 29.9063
-1.98665 3.31199 38.1842
-7.86527 5.57497 37.47
-2.04953 21.0903 29.9063
-7.86527 5.57497 37.47
-8.70326 36.7892 22.9781
-2.04953 21.0903 29.9063
-8.70326 36.7892 22.9781
-0.288209 36.7892 22.4915
-2.04953 21.0903 29.9063
-0.288209 36.7892 22.4915
8.59573 22.9861 28.4076
-2.04953 21.0903 29.9063
8.59573 22.9861 28.4076
-1.98665 3.31199 38.1842
-6.46357 -2.38026 33.1297
10.5056 -0.817021 35.9612
-13.8631 -34.3999 44.4874
-6.46357 -2.38026 33.1297
-13.8631 -34.3999 44.4874
-20.3457 -32.4692 42.39
-6.46357 -2.38026 33.1297
-20.3457 -32.4692 42.39
-22.8836 26.1887 18.3021
-6.46357 -2.38026 33.1297
-22.8836 26.1887 18.3021
14.2688 29.5961 24.5076
-6.46357 -2.38026 33.1297
14.2688 29.5961 24.5076
10.5056 -0.817021 35.9612
-20.769 33.7634 -37.6581
-16.058 31.7078 -38.0432
-15.4786 31.3691 -35.3655
-20.769 33.7634 -37.6581
-15.4786 31.3691 -35.3655
-26.018 36.0612 -37.4636
-20.769 33.7634 -37.6581
-26.018 36.0612 -37.4636
-25.5213 35.9155 -39.7599
-20.769 33.7634 -37.6581
-25.5213 35.9155 -39.7599
-16.058 31.7078 -38.0432
-38.0074 50.6969 6.74338
-42.0765 41.9115 0.544681
-41.0484 41.4534 0.761986
-38.0074 50.6969 6.74338
-41.0484 41.4534 0.761986
-30.8168 50.4373 9.7462
-38.0074 50.6969 6.74338
-30.8168 50.4373 9.7462
-29.1348 55.7372 13.1489
-38.0074 50.6969 6.74338
-29.1348 55.7372 13.1489
-46.9603 63.945 9.51514
-38.0074 50.6969 6.74338
-46.9603 63.945 9.51514
-42.0765 41.9115 0.544681
-3.18997 34.3902 -7.02208
8.30517 28.639 -23.802
6.56601 24.1477 -25.4253
-3.18997 34.3902 -7.02208
6.56601 24.1477 -25.4253
-0.265302 24.1477 -18.1066
-3.18997 34.3902 -7.02208
-0.265302 24.1477 -18.1066
-17.5565 30.9859 5.72679
-3.18997 34.3902 -7.02208
-17.5565 30.9859 5.72679
-14.3143 48.9131 16.17
-3.18997 34.3902 -7.02208
-14.3143 48.9131 16.17
-1.8748 49.5078 3.3046
-3.18997 34.3902 -7.02208
-1.8748 49.5078 3.3046
8.30517 28.639 -23.802
-7.04292 38.9784 2.67514
-17.5971 31.0016 5.79322
-17.5565 30.9859 5.72673
-7.04292 38.9784 2.67514
-17.5565 30.9859 5.72673
4.20942 37.0353 -12.896
-7.04292 38.9784 2.67514
4.20942 37.0353 -12.896
3.78858 48.3673 0.884935
-7.04292 38.9784 2.67514
3.78858 48.3673 0.884935
-8.05898 47.5017 13.8669
-7.04292 38.9784 2.67514
-8.05898 47.5017 13.8669
-17.5971 31.0016 5.79322
24.8027 37.2276 2.79764
25.5624 35.4977 -1.27355
28.5966 33.2726 3.9663
24.8027 37.2276 2.79764
28.5966 33.2726 3.9663
28.7422 33.9568 7.84826
24.8027 37.2276 2.79764
28.7422 33.9568 7.84826
24.3379 38.4702 6.13385
24.8027 37.2276 2.79764
24.3379 38.4702 6.13385
16.7744 44.9409 -2.68669
24.8027 37.2276 2.79764
16.7744 44.9409 -2.68669
25.5624 35.4977 -1.27355
15.1793 25.4442 -22.2861
10.9242 13.796 -29.8003
7.35987 17.3435 -31.5579
15.1793 25.4442 -22.2861
7.35987 17.3435 -31.5579
9.42003 26.3536 -26.7705
15.1793 25.4442 -22.2861
9.42003 26.3536 -26.7705
20.1082 38.8626 -13.6074
15.1793 25.4442 -22.2861
20.1082 38.8626 -13.6074
28.0841 30.8651 -9.69458
15.1793 25.4442 -22.2861
28.0841 30.8651 -9.69458
10.9242 13.796 -29.8003
-22.1366 8.40452 -29.0011
-29.6615 -7.29699 -24.8488
-13.959 6.04957 -27.7544
-22.1366 8.40452 -29.0011
-13.959 6.04957 -27.7544
-14.7196 18.7223 -31.5638
-22.1366 8.40452 -29.0011
-14.7196 18.7223 -31.5638
-30.2062 16.1433 -31.8372
-22.1366 8.40452 -29.0011
-30.2062 16.1433 -31.8372
-29.6615 -7.29699 -24.8488
-25.2102 26.3032 -20.4689
-35.2184 26.7687 -18.0671
-31.1346 18.1115 -29.2865
-25.2102 26.3032 -20.4689
-31.1346 18.1115 -29.2865
-14.6049 19.1676 -31.0464
-25.2102 26.3032 -20.4689
-14.6049 19.1676 -31.0464
-11.989 29.3291 -19.2388
-25.2102 26.3032 -20.4689
-11.989 29.3291 -19.2388
-33.1039 38.1388 -4.70598
-25.2102 26.3032 -20.4689
-33.1039 38.1388 -4.70598
-35.2184 26.7687 -18.0671
-42.1068 31.4009 18.8188
-38.559 26.0418 -5.91633
-49.6404 23.6305 34.3899
-42.1068 31.4009 18.8188
-49.6404 23.6305 34.3899
-47.7244 28.5907 36.1879
-42.1068 31.4009 18.8188
-47.7244 28.5907 36.1879
-40.0281 40.169 27.304
-42.1068 31.4009 18.8188
-40.0281 40.169 27.304
-34.5823 38.5722 2.12853
-42.1068 31.4009 18.8188
-34.5823 38.5722 2.12853
-38.559 26.0418 -5.91633
-6.34756 57.1697 6.89598
-6.52463 46.4787 18.3385
-3.92414 44.1289 18.2881
-6.34756 57.1697 6.89598
-3.92414 44.1289 18.2881
9.17756 44.6429 5.01152
-6.34756 57.1697 6.89598
9.17756 44.6429 5.01152
6.30265 50.0993 2.05375
-6.34756 57.1697 6.89598
6.30265 50.0993 2.05375
-11.0483 71.1687 -3.29271
-6.34756 57.1697 6.89598
-11.0483 71.1687 -3.29271
-17.0248 74.0922 -0.565549
-6.34756 57.1697 6.89598
-17.0248 74.0922 -0.565549
-21.3913 69.5773 8.43828
-6.34756 57.1697 6.89598
-21.3913 69.5773 8.43828
-6.52463 46.4787 18.3385
-7.19091 45.8527 25.2049
9.08144 37.1072 23.4562
-3.66211 51.2686 22.3346
-7.19091 45.8527 25.2049
-3.66211 51.2686 22.3346
-21.0194 51.2686 27.3777
-7.19091 45.8527 25.2049
-21.0194 51.2686 27.3777
-13.1636 43.7664 27.6509
-7.19091 45.8527 25.2049
-13.1636 43.7664 27.6509
9.08144 37.1072 23.4562
15.5605 41.4502 14.4495
16.3107 37.3293 21.2801
20.8997 33.5693 21.2276
15.5605 41.4502 14.4495
20.8997 33.5693 21.2276
24.3379 38.4702 6.13388
15.5605 41.4502 14.4495
24.3379 38.4702 6.13388
12.1272 50.9835 1.3807
15.5605 41.4502 14.4495
12.1272 50.9835 1.3807
8.96967 45.1743 17.7944
15.5605 41.4502 14.4495
8.96967 45.1743 17.7944
10.7179 43.1747 18.8805
15.5605 41.4502 14.4495
10.7179 43.1747 18.8805
16.3107 37.3293 21.2801
16.2566 39.1529 11.8876
9.28702 38.0457 20.9812
15.4953 35.1871 22.2467
16.2566 39.1529 11.8876
15.4953 35.1871 22.2467
20.8998 33.5693 21.2276
16.2566 39.1529 11.8876
20.8998 33.5693 21.2276
24.338 38.4701 6.1339
16.2566 39.1529 11.8876
24.338 38.4701 6.1339
16.7744 44.9409 -2.68666
16.2566 39.1529 11.8876
16.7744 44.9409 -2.68666
10.7454 44.7043 3.4228
16.2566 39.1529 11.8876
10.7454 44.7043 3.4228
9.28702 38.0457 20.9812
14.8725 34.4471 15.9008
23.3337 29.4182 7.30174
17.8533 27.3593 24.2282
14.8725 34.4471 15.9008
17.8533 27.3593 24.2282
13.5313 32.1621 23.8478
14.8725 34.4471 15.9008
13.5313 32.1621 23.8478
9.24932 37.8737 21.4348
14.8725 34.4471 15.9008
9.24932 37.8737 21.4348
9.88831 40.7912 13.7415
14.8725 34.4471 15.9008
9.88831 40.7912 13.7415
15.3788 39.078 4.85054
14.8725 34.4471 15.9008
15.3788 39.078 4.85054
23.3337 29.4182 7.30174
32.4399 -12.2657 6.3384
32.8202 -31.7462 -22.8621
32.6197 -22.2567 -8.9428
32.4399 -12.2657 6.3384
32.6197 -22.2567 -8.9428
33.7396 -22.2598 13.5311
32.4399 -12.2657 6.3384
33.7396 -22.2598 13.5311
33.7379 -22.2308 13.5515
32.4399 -12.2657 6.3384
33.7379 -22.2308 13.5515
31.2514 9.61171 23.8483
32.4399 -12.2657 6.3384
31.2514 9.61171 23.8483
30.4704 15.2878 18.9044
32.4399 -12.2657 6.3384
30.4704 15.2878 18.9044
32.8202 -31.7462 -22.8621
30.2864 -18.6989 5.85496
30.0746 -29.3886 -4.28232
34.786 -39.8985 1.18247
30.2864 -18.6989 5.85496
34.786 -39.8985 1.18247
33.7379 -22.2307 13.5515
30.2864 -18.6989 5.85496
33.7379 -22.2307 13.5515
33.6151 -21.4656 13.8442
30.2864 -18.6989 5.85496
33.6151 -21.4656 13.8442
30.9591 -11.1088 14.6909
30.2864 -18.6989 5.85496
30.9591 -11.1088 14.6909
30.2362 -8.70496 14.5536
30.2864 -18.6989 5.85496
30.2362 -8.70496 14.5536
24.4639 -1.91206 2.46696
30.2864 -18.6989 5.85496
24.4639 -1.91206 2.46696
24.4188 -14.8817 -9.16759
30.2864 -18.6989 5.85496
24.4188 -14.8817 -9.16759
30.0746 -29.3886 -4.28232
-6.51469 -36.8345 -18.4203
-20.0778 -49.9501 -13.4801
-19.9455 -50.1016 -13.591
-6.51469 -36.8345 -18.4203
-19.9455 -50.1016 -13.591
9.14154 -41.6226 -28.5937
-6.51469 -36.8345 -18.4203
9.14154 -41.6226 -28.5937
10.1865 -28.0433 -26.1545
-6.51469 -36.8345 -18.4203
10.1865 -28.0433 -26.1545
-0.142734 -20.0915 -18.3673
-6.51469 -36.8345 -18.4203
-0.142734 -20.0915 -18.3673
-18.2501 -31.1982 -10.3354
-6.51469 -36.8345 -18.4203
-18.2501 -31.1982 -10.3354
-20.0778 -49.9501 -13.4801
1.53881 -27.1138 -15.4345
-12.0504 -47.8001 -17.6632
9.14154 -41.6226 -28.5937
1.53881 -27.1138 -15.4345
9.14154 -41.6226 -28.5937
13.8246 -23.3852 -21.69
1.53881 -27.1138 -15.4345
13.8246 -23.3852 -21.69
5.08238 -9.30298 -7.99518
1.53881 -27.1138 -15.4345
5.08238 -9.30298 -7.99518
-8.30415 -13.4583 -1.2304
1.53881 -27.1138 -15.4345
-8.30415 -13.4583 -1.2304
-12.0504 -47.8001 -17.6632
-21.6098 -42.9474 -20.1388
-19.9456 -50.1016 -13.591
-18.6426 -51.2974 -15.1333
-21.6098 -42.9474 -20.1388
-18.6426 -51.2974 -15.1333
-16.6147 -51.2974 -20.3512
-21.6098 -42.9474 -20.1388
-16.6147 -51.2974 -20.3512
-14.6465 -48.5286 -29.6069
-21.6098 -42.9474 -20.1388
-14.6465 -48.5286 -29.6069
-16.3601 -40.2689 -37.7012
-21.6098 -42.9474 -20.1388
-16.3601 -40.2689 -37.7012
-31.6282 -24.4903 -22.3018
-21.6098 -42.9474 -20.1388
-31.6282 -24.4903 -22.3018
-33.4312 -34.6478 -2.28635
-21.6098 -42.9474 -20.1388
-33.4312 -34.6478 -2.28635
-19.9456 -50.1016 -13.591
-34.3573 -27.8135 11.2051
-33.3769 -35.7035 -0.827948
-30.868 -48.3332 11.8357
-34.3573 -27.8135 11.2051
-30.868 -48.3332 11.8357
-31.6705 -41.6913 22.7425
-34.3573 -27.8135 11.2051
-31.6705 -41.6913 22.7425
-33.4408 -31.2162 22.7945
-34.3573 -27.8135 11.2051
-33.4408 -31.2162 22.7945
-38.6116 -3.62851 5.64642
-34.3573 -27.8135 11.2051
-38.6116 -3.62851 5.64642
-38.1762 -6.30848 5.03947
-34.3573 -27.8135 11.2051
-38.1762 -6.30848 5.03947
-33.3769 -35.7035 -0.827948
-34.7706 -19.8912 -5.78256
-33.6509 -34.1599 -1.26822
-33.4135 -34.548 -2.48292
-34.7706 -19.8912 -5.78256
-33.4135 -34.548 -2.48292
-31.883 -25.9259 -19.4729
-34.7706 -19.8912 -5.78256
-31.883 -25.9259 -19.4729
-32.1222 -22.9627 -20.3677
-34.7706 -19.8912 -5.78256
-32.1222 -22.9627 -20.3677
-38.9424 1.87755 3.24992
-34.7706 -19.8912 -5.78256
-38.9424 1.87755 3.24992
-38.6116 -3.62855 5.64644
-34.7706 -19.8912 -5.78256
-38.6116 -3.62855 5.64644
-33.6509 -34.1599 -1.26822
3 0 1 2
3 3 4 5
3 6 7 8
3 9 10 11
3 12 13 14
3 15 16 17
3 18 19 20
3 21 22 23
3 24 25 26
3 27 28 29
3 30 31 32
3 33 34 35
3 36 37 38
3 39 40 41
3 42 43 44
3 45 46 47
3 48 49 50
3 51 52 53
3 54 55 56
3 57 58 59
3 60 61 62
3 63 64 65
3 66 67 68
3 69 70 71
3 72 73 74
3 75 76 77
3 78 79 80
3 81 82 83
3 84 85 86
3 87 88 89
3 90 91 92
3 93 94 95
3 96 97 98
3 99 100 101
3 102 103 104
3 105 106 107
3 108 109 110
3 111 112 113
3 114 115 116
3 117 118 119
3 120 121 122
3 123 124 125
3 126 127 128
3 129 130 131
3 132 133 134
3 135 136 137
3 138 139 140
3 141 142 143
3 144 145 146
3 147 148 149
3 150 151 152
3 153 154 155
3 156 157 158
3 159 160 161
3 162 163 164
3 165 166 167
3 168 169 170
3 171 172 173
3 174 175 176
3 177 178 179
3 180 181 182
3 183 184 185
3 186 187 188
3 189 190 191
3 192 193 194
3 195 196 197
3 198 199 200
3 201 202 203
3 204 205 206
3 207 208 209
3 210 211 212
3 213 214 215
3 216 217 218
3 219 220 221
3 222 223 224
3 225 226 227
3 228 229 230
3 231 232 233
3 234 235 236
3 237 238 239
3 240 241 242
3 243 244 245
3 246 247 248
3 249 250 251
3 252 253 254
3 255 256 257
3 258 259 260
3 261 262 263
3 264 265 266
3 267 268 269
3 270 271 272
3 273 274 275
3 276 277 278
3 279 280 281
3 282 283 284
3 285 286 287
3 288 289 290
3 291 292 293
3 294 295 296
3 297 298 299
3 300 301 302
3 303 304 305
3 306 307 308
3 309 310 311
3 312 313 314
3 315 316 317
3 318 319 320
3 321 322 323
3 324 325 326
3 327 328 329
3 330 331 332
3 333 334 335
3 336 337 338
3 339 340 341
3 342 343 344
3 345 346 347
3 348 349 350
3 351 352 353
3 354 355 356
3 357 358 359
3 360 361 362
3 363 364 365
3 366 367 368
3 369 370 371
3 372 373 374
3 375 376 377
3 378 379 380
3 381 382 383
3 384 385 386
3 387 388 389
3 390 391 392
3 393 394 395
3 396 397 398
3 399 400 401
3 402 403 404
3 405 406 407
3 408 409 410
3 411 412 413
3 414 415 416
3 417 418 419
3 420 421 422
3 423 424 425
3 426 427 428
3 429 430 431
3 432 433 434
3 435 436 437
3 438 439 440
3 441 442 443
3 444 445 446
3 447 448 449
3 450 451 452
3 453 454 455
3 456 457 458
3 459 460 461
3 462 463 464
3 465 466 467
3 468 469 470
3 471 472 473
3 474 475 476
3 477 478 479
3 480 481 482
3 483 484 485
3 486 487 488
3 489 490 491
3 492 493 494
3 495 496 497
3 498 499 500
3 501 502 503
3 504 505 506
3 507 508 509
3 510 511 512
3 513 514 515
3 516 517 518
3 519 520 521
3 522 523 524
3 525 526 527
3 528 529 530
3 531 532 533
3 534 535 536
3 537 538 539
3 540 541 542
3 543 544 545
3 546 547 548
3 549 550 551
3 552 553 554
3 555 556 557
3 558 559 560
3 561 562 563
3 564 565 566
3 567 568 569
3 570 571 572
3 573 574 575
3 576 577 578
3 579 580 581
3 582 583 584
3 585 586 587
3 588 589 590
3 591 592 593
3 594 595 596
3 597 598 599
3 600 601 602
3 603 604 605
3 606 607 608
3 609 610 611
3 612 613 614
3 615 616 617
3 618 619 620
3 621 622 623
3 624 625 626
3 627 628 629
3 630 631 632
3 633 634 635
3 636 637 638
3 639 640 641
3 642 643 644
3 645 646 647
3 648 649 650
