ply
format ascii 1.0
element vertex 567
property float x
property float y
property float z
element face 189
property list uchar int vertex_indices
end_header
7.75088 -2.65236 -17.7943
25.0764 -19.0156 -21.0261
-8.10847 -2.01783 -21.9015
7.75088 -2.65236 -17.7943
-8.10847 -2.01783 -21.9015
-5.35364 0.719544 -19.7854
7.75088 -2.65236 -17.7943
-5.35364 0.719544 -19.7854
0.814854 5.10569 -15.9058
7.75088 -2.65236 -17.7943
0.814854 5.10569 -15.9058
26.3253 1.94638 -10.3527
7.75088 -2.65236 -17.7943
26.3253 1.94638 -10.3527
25.0764 -19.0156 -21.0261
19.4391 28.128 -19.5245
-0.745108 5.29888 -16.2454
6.12433 14.4753 -26.8913
19.4391 28.128 -19.5245
6.12433 14.4753 -26.8913
19.3943 30.3787 -35.1067
19.4391 28.128 -19.5245
19.3943 30.3787 -35.1067
21.8465 33.1418 -35.4337
19.4391 28.128 -19.5245
21.8465 33.1418 -35.4337
24.9487 36.3916 -34.1842
19.4391 28.128 -19.5245
24.9487 36.3916 -34.1842
32.5043 39.3729 2.28186
19.4391 28.128 -19.5245
32.5043 39.3729 2.28186
32.0005 37.837 8.9078
19.4391 28.128 -19.5245
32.0005 37.837 8.9078
-0.745108 5.29888 -16.2454
19.1181 24.8575 -21.6454
6.12432 14.4753 -26.8913
0.814846 5.10568 -15.9058
19.1181 24.8575 -21.6454
0.814846 5.10568 -15.9058
29.7268 25.6637 2.27789
19.1181 24.8575 -21.6454
29.7268 25.6637 2.27789
31.8206 35.9898 -19.0341
19.1181 24.8575 -21.6454
31.8206 35.9898 -19.0341
25.5414 35.9898 -34.416
19.1181 24.8575 -21.6454
25.5414 35.9898 -34.416
20.6809 31.9206 -35.9032
19.1181 24.8575 -21.6454
20.6809 31.9206 -35.9032
6.12432 14.4753 -26.8913
-4.29003 16.1848 -29.6665
3.89807 11.5014 -23.4412
-14.9102 10.1553 -23.0851
-4.29003 16.1848 -29.6665
-14.9102 10.1553 -23.0851
-22.2209 13.9685 -28.1974
-4.29003 16.1848 -29.6665
-22.2209 13.9685 -28.1974
-10.4255 22.5274 -37.7619
-4.29003 16.1848 -29.6665
-10.4255 22.5274 -37.7619
11.7941 24.4808 -38.6223
-4.29003 16.1848 -29.6665
11.7941 24.4808 -38.6223
6.12432 14.4753 -26.8913
-4.29003 16.1848 -29.6665
6.12432 14.4753 -26.8913
3.89807 11.5014 -23.4412
3.64427 -7.54488 -12.74
5.94832 -19.4222 -14.6286
12.4812 -16.3775 -7.94489
3.64427 -7.54488 -12.74
12.4812 -16.3775 -7.94489
10.3093 -2.99912 -5.4492
3.64427 -7.54488 -12.74
10.3093 -2.99912 -5.4492
-2.10832 3.47785 -14.1327
3.64427 -7.54488 -12.74
-2.10832 3.47785 -14.1327
-8.40915 -2.4034 -21.5444
3.64427 -7.54488 -12.74
-8.40915 -2.4034 -21.5444
5.94832 -19.4222 -14.6286
-19.8428 -29.0109 -20.9008
-29.4283 -32.2998 -11.6279
-23.1074 -50.8393 -16.8139
-19.8428 -29.0109 -20.9008
-23.1074 -50.8393 -16.8139
-20.8218 -52.2836 -18.925
-19.8428 -29.0109 -20.9008
-20.8218 -52.2836 -18.925
-5.22643 -48.6465 -33.9348
-19.8428 -29.0109 -20.9008
-5.22643 -48.6465 -33.9348
-12.4783 -13.1879 -28.6214
-19.8428 -29.0109 -20.9008
-12.4783 -13.1879 -28.6214
-17.9217 4.73486 -24.2432
-19.8428 -29.0109 -20.9008
-17.9217 4.73486 -24.2432
-29.9154 -10.5544 -12.1395
-19.8428 -29.0109 -20.9008
-29.9154 -10.5544 -12.1395
-29.4283 -32.2998 -11.6279
-31.6054 -26.3048 -1.59257
-27.549 -38.7741 7.16381
-20.9129 -57.276 -18.6144
-31.6054 -26.3048 -1.59257
-20.9129 -57.276 -18.6144
-37.356 -9.04739 -5.12369
-31.6054 -26.3048 -1.59257
-37.356 -9.04739 -5.12369
-37.8197 -7.98551 1.5565
-31.6054 -26.3048 -1.59257
-37.8197 -7.98551 1.5565
-34.3892 -18.4409 7.0549
-31.6054 -26.3048 -1.59257
-34.3892 -18.4409 7.0549
-27.549 -38.7741 7.16381
17.3693 -11.2596 26.8902
10.989 -19.5593 40.7442
11.6218 -20.4438 40.4545
17.3693 -11.2596 26.8902
11.6218 -20.4438 40.4545
26.312 -26.2826 24.3994
17.3693 -11.2596 26.8902
26.312 -26.2826 24.3994
29.0919 -20.298 16.8591
17.3693 -11.2596 26.8902
29.0919 -20.298 16.8591
22.2055 3.55038 10.9793
17.3693 -11.2596 26.8902
22.2055 3.55038 10.9793
3.99583 15.4757 27.9043
17.3693 -11.2596 26.8902
3.99583 15.4757 27.9043
10.989 -19.5593 40.7442
11.3628 30.1058 25.6062
8.9442 16.8142 31.7148
28.9509 33.3035 16.7483
11.3628 30.1058 25.6062
28.9509 33.3035 16.7483
4.3695 44.2605 23.2582
11.3628 30.1058 25.6062
4.3695 44.2605 23.2582
3.18657 26.045 30.7036
11.3628 30.1058 25.6062
3.18657 26.045 30.7036
8.9442 16.8142 31.7148
27.619 46.5636 -2.54266
32.5043 39.373 2.28184
31.9625 37.7214 9.40667
27.619 46.5636 -2.54266
31.9625 37.7214 9.40667
21.5194 52.6383 0.514038
27.619 46.5636 -2.54266
21.5194 52.6383 0.514038
24.0458 52.6383 -8.62149
27.619 46.5636 -2.54266
24.0458 52.6383 -8.62149
28.0629 50.4471 -16.2944
27.619 46.5636 -2.54266
28.0629 50.4471 -16.2944
32.5043 39.373 2.28184
15.1464 47.8559 10.8622
4.94954 44.0019 23.1046
28.9509 33.3035 16.7483
15.1464 47.8559 10.8622
28.9509 33.3035 16.7483
31.9625 37.7214 9.40666
15.1464 47.8559 10.8622
31.9625 37.7214 9.40666
14.8769 62.1264 -5.1422
15.1464 47.8559 10.8622
14.8769 62.1264 -5.1422
-5.00787 62.1264 10.1935
15.1464 47.8559 10.8622
-5.00787 62.1264 10.1935
4.94954 44.0019 23.1046
-16.8478 57.5961 14.0399
-29.992 48.6547 18.0213
-17.3876 35.2131 36.3054
-16.8478 57.5961 14.0399
-17.3876 35.2131 36.3054
-4.62019 30.0122 46.3783
-16.8478 57.5961 14.0399
-4.62019 30.0122 46.3783
-10.5392 81.5741 -7.63459
-16.8478 57.5961 14.0399
-10.5392 81.5741 -7.63459
-17.7663 76.6436 -5.43114
-16.8478 57.5961 14.0399
-17.7663 76.6436 -5.43114
-20.7813 73.4791 -3.4
-16.8478 57.5961 14.0399
-20.7813 73.4791 -3.4
-29.992 48.6547 18.0213
-27.5048 49.1714 0.117733
-32.596 33.9127 8.94738
-28.3454 39.8971 -11.6568
-27.5048 49.1714 0.117733
-28.3454 39.8971 -11.6568
-25.8094 49.9131 -11.3233
-27.5048 49.1714 0.117733
-25.8094 49.9131 -11.3233
-20.7812 73.4792 -3.40001
-27.5048 49.1714 0.117733
-20.7812 73.4792 -3.40001
-29.992 48.6547 18.0214
-27.5048 49.1714 0.117733
-29.992 48.6547 18.0214
-32.596 33.9127 8.94738
-24.1301 36.7956 -21.6575
-31.9121 21.3109 -20.9399
-32.5664 13.7594 -24.7446
-24.1301 36.7956 -21.6575
-32.5664 13.7594 -24.7446
-18.9194 24.328 -36.2611
-24.1301 36.7956 -21.6575
-18.9194 24.328 -36.2611
-14.0838 62.2898 -19.1798
-24.1301 36.7956 -21.6575
-14.0838 62.2898 -19.1798
-23.1687 62.2898 -7.16206
-24.1301 36.7956 -21.6575
-23.1687 62.2898 -7.16206
-31.9121 21.3109 -20.9399
14.217 39.5617 -31.8762
20.6809 31.9206 -35.9032
11.7941 24.4808 -38.6223
14.217 39.5617 -31.8762
11.7941 24.4808 -38.6223
-9.41311 22.6164 -37.8011
14.217 39.5617 -31.8762
-9.41311 22.6164 -37.8011
-8.39311 50.7984 -24.9169
14.217 39.5617 -31.8762
-8.39311 50.7984 -24.9169
26.2461 50.7984 -27.6591
14.217 39.5617 -31.8762
26.2461 50.7984 -27.6591
44.3872 56.7554 -26.3548
14.217 39.5617 -31.8762
44.3872 56.7554 -26.3548
20.6809 31.9206 -35.9032
-34.7805 16.8573 7.06164
-34.9616 10.8075 -2.23231
-35.5094 7.65471 -1.12485
-34.7805 16.8573 7.06164
-35.5094 7.65471 -1.12485
-36.4245 3.60707 3.07643
-34.7805 16.8573 7.06164
-36.4245 3.60707 3.07643
-37.4042 3.60706 15.935
-34.7805 16.8573 7.06164
-37.4042 3.60706 15.935
-32.1998 39.2205 16.3315
-34.7805 16.8573 7.06164
-32.1998 39.2205 16.3315
-32.1837 36.2468 10.3841
-34.7805 16.8573 7.06164
-32.1837 36.2468 10.3841
-34.9616 10.8075 -2.23231
-35.6461 -6.13339 -19.7721
-35.7771 -12.4988 -27.6301
-35.8489 -12.4988 -26.8361
-35.6461 -6.13339 -19.7721
-35.8489 -12.4988 -26.8361
-36.881 -10.1352 -11.9671
-35.6461 -6.13339 -19.7721
-36.881 -10.1352 -11.9671
-36.5122 -6.05475 -10.0796
-35.6461 -6.13339 -19.7721
-36.5122 -6.05475 -10.0796
-33.2114 10.5206 -22.3475
-35.6461 -6.13339 -19.7721
-33.2114 10.5206 -22.3475
-35.7771 -12.4988 -27.6301
-32.2834 -2.42753 11.9771
-35.3002 -16.1364 15.573
-38.0206 -7.52557 4.45015
-32.2834 -2.42753 11.9771
-38.0206 -7.52557 4.45015
-36.9763 -1.21275 2.13175
-32.2834 -2.42753 11.9771
-36.9763 -1.21275 2.13175
-24.4356 10.6882 18.0658
-32.2834 -2.42753 11.9771
-24.4356 10.6882 18.0658
-26.6843 2.04881 19.6647
-32.2834 -2.42753 11.9771
-26.6843 2.04881 19.6647
-35.3002 -16.1364 15.573
-29.9235 27.6504 11.7925
-21.5872 12.807 22.0853
-34.5714 10.8658 -1.52278
-29.9235 27.6504 11.7925
-34.5714 10.8658 -1.52278
-34.7795 12.4749 -1.40537
-29.9235 27.6504 11.7925
-34.7795 12.4749 -1.40537
-32.1837 36.2468 10.3841
-29.9235 27.6504 11.7925
-32.1837 36.2468 10.3841
-29.992 48.6547 18.0213
-29.9235 27.6504 11.7925
-29.992 48.6547 18.0213
-26.4272 44.8532 23.1924
-29.9235 27.6504 11.7925
-26.4272 44.8532 23.1924
-21.5872 12.807 22.0853
-7.44601 -12.2465 31.3675
10.989 -19.5593 40.7442
-6.71333 -30.2767 36.8446
-7.44601 -12.2465 31.3675
-6.71333 -30.2767 36.8446
-16.7396 -25.2277 31.4365
-7.44601 -12.2465 31.3675
-16.7396 -25.2277 31.4365
-19.4866 -12.408 26.664
-7.44601 -12.2465 31.3675
-19.4866 -12.408 26.664
-17.8554 4.19835 22.5291
-7.44601 -12.2465 31.3675
-17.8554 4.19835 22.5291
5.12982 9.7945 29.9864
-7.44601 -12.2465 31.3675
5.12982 9.7945 29.9864
10.989 -19.5593 40.7442
-29.9837 -5.2185 11.901
-28.8111 -35.4413 15.9953
-22.7876 2.99751 20.9289
-29.9837 -5.2185 11.901
-22.7876 2.99751 20.9289
-23.2522 5.16559 20.1218
-29.9837 -5.2185 11.901
-23.2522 5.16559 20.1218
-30.255 5.16559 10.6717
-29.9837 -5.2185 11.901
-30.255 5.16559 10.6717
-36.9763 -1.21283 2.13175
-29.9837 -5.2185 11.901
-36.9763 -1.21283 2.13175
-37.8197 -7.98553 1.5565
-29.9837 -5.2185 11.901
-37.8197 -7.98553 1.5565
-28.8111 -35.4413 15.9953
-5.18146 -44.5872 37.1576
-13.6545 -49.3202 30.2917
-9.88463 -49.3202 32.9112
-5.18146 -44.5872 37.1576
-9.88463 -49.3202 32.9112
10.9768 -45.4853 48.1994
-5.18146 -44.5872 37.1576
10.9768 -45.4853 48.1994
-1.34127 -38.0033 41.1871
-5.18146 -44.5872 37.1576
-1.34127 -38.0033 41.1871
-12.0037 -40.8072 33.1987
-5.18146 -44.5872 37.1576
-12.0037 -40.8072 33.1987
-13.6545 -49.3202 30.2917
0.792863 -31.3675 36.5906
-11.3467 -40.7267 33.2361
15.2502 -37.4646 34.7485
0.792863 -31.3675 36.5906
15.2502 -37.4646 34.7485
11.6218 -20.4438 40.4545
0.792863 -31.3675 36.5906
11.6218 -20.4438 40.4545
10.989 -19.5593 40.7442
0.792863 -31.3675 36.5906
10.989 -19.5593 40.7442
-10.3937 -32.5049 36.0339
0.792863 -31.3675 36.5906
-10.3937 -32.5049 36.0339
-11.3634 -37.5056 34.3262
0.792863 -31.3675 36.5906
-11.3634 -37.5056 34.3262
-11.3467 -40.7267 33.2361
27.9251 -47.5657 20.3302
18.3912 -52.1992 29.8089
18.5358 -52.8772 29.5816
27.9251 -47.5657 20.3302
18.5358 -52.8772 29.5816
35.2098 -52.8772 12.0987
27.9251 -47.5657 20.3302
35.2098 -52.8772 12.0987
37.9361 -49.7128 9.59369
27.9251 -47.5657 20.3302
37.9361 -49.7128 9.59369
34.8182 -39.4946 14.0044
27.9251 -47.5657 20.3302
34.8182 -39.4946 14.0044
22.6596 -38.2333 26.8938
27.9251 -47.5657 20.3302
22.6596 -38.2333 26.8938
18.3912 -52.1992 29.8089
33.1467 -33.0465 4.5263
34.8182 -39.4946 14.0044
35.237 -40.4932 8.84795
33.1467 -33.0465 4.5263
35.237 -40.4932 8.84795
35.6515 -40.0479 -13.7578
33.1467 -33.0465 4.5263
35.6515 -40.0479 -13.7578
35.2776 -38.7765 -13.7938
33.1467 -33.0465 4.5263
35.2776 -38.7765 -13.7938
30.5463 -23.9086 0.690513
33.1467 -33.0465 4.5263
30.5463 -23.9086 0.690513
29.0919 -20.298 16.8591
33.1467 -33.0465 4.5263
29.0919 -20.298 16.8591
31.4045 -28.3068 18.8337
33.1467 -33.0465 4.5263
31.4045 -28.3068 18.8337
34.8182 -39.4946 14.0044
19.9199 -30.5635 -19.4732
29.4241 -41.2556 -23.3393
21.6609 -42.7863 -33.6868
19.9199 -30.5635 -19.4732
21.6609 -42.7863 -33.6868
-10.5277 -11.7099 -27.3498
19.9199 -30.5635 -19.4732
-10.5277 -11.7099 -27.3498
28.8599 -27.5257 -5.87916
19.9199 -30.5635 -19.4732
28.8599 -27.5257 -5.87916
30.182 -29.5402 -7.11071
19.9199 -30.5635 -19.4732
30.182 -29.5402 -7.11071
29.4241 -41.2556 -23.3393
10.7776 -45.2629 -27.1274
10.4272 -45.0012 -48.6602
10.1366 -45.0636 -48.7211
10.7776 -45.2629 -27.1274
10.1366 -45.0636 -48.7211
-21.0364 -52.3336 -18.7185
10.7776 -45.2629 -27.1274
-21.0364 -52.3336 -18.7185
24.9365 -42.6605 3.80212
10.7776 -45.2629 -27.1274
24.9365 -42.6605 3.80212
29.4241 -41.2556 -23.3393
10.7776 -45.2629 -27.1274
29.4241 -41.2556 -23.3393
10.4272 -45.0012 -48.6602
0.34963 -43.1128 15.0506
-24.8476 -44.1849 23.5759
-41.3362 -50.6875 0.533019
0.34963 -43.1128 15.0506
-41.3362 -50.6875 0.533019
-21.0364 -52.3336 -18.7185
0.34963 -43.1128 15.0506
-21.0364 -52.3336 -18.7185
35.237 -40.4932 8.84805
0.34963 -43.1128 15.0506
35.237 -40.4932 8.84805
34.8182 -39.4946 14.0044
0.34963 -43.1128 15.0506
34.8182 -39.4946 14.0044
24.7553 -38.4507 24.6722
0.34963 -43.1128 15.0506
24.7553 -38.4507 24.6722
7.21044 -38.4507 34.2913
0.34963 -43.1128 15.0506
7.21044 -38.4507 34.2913
-12.0037 -40.8072 33.1988
0.34963 -43.1128 15.0506
-12.0037 -40.8072 33.1988
-24.8476 -44.1849 23.5759
-11.5585 16.7276 25.4582
-21.0841 13.8688 22.3242
-21.4219 11.713 22.0475
-11.5585 16.7276 25.4582
-21.4219 11.713 22.0475
-20.2007 3.62734 21.7682
-11.5585 16.7276 25.4582
-20.2007 3.62734 21.7682
12.2425 11.5262 32.294
-11.5585 16.7276 25.4582
12.2425 11.5262 32.294
-7.32818 42.9026 28.857
-11.5585 16.7276 25.4582
-7.32818 42.9026 28.857
-21.0841 13.8688 22.3242
-26.4182 23.3854 -33.2233
-26.2023 18.6879 -30.1152
-30.557 23.8498 -32.2128
-26.4182 23.3854 -33.2233
-30.557 23.8498 -32.2128
-29.9943 26.6757 -34.3043
-26.4182 23.3854 -33.2233
-29.9943 26.6757 -34.3043
-18.9194 24.328 -36.2611
-26.4182 23.3854 -33.2233
-18.9194 24.328 -36.2611
-26.2023 18.6879 -30.1152
-4.72481 -12.3624 -28.705
8.86235 -39.0754 -35.4257
-3.88055 -18.5797 -30.1866
-4.72481 -12.3624 -28.705
-3.88055 -18.5797 -30.1866
-12.8782 -9.34985 -27.7111
-4.72481 -12.3624 -28.705
-12.8782 -9.34985 -27.7111
-14.3335 4.61906 -24.3981
-4.72481 -12.3624 -28.705
-14.3335 4.61906 -24.3981
-1.39422 0.574014 -25.8036
-4.72481 -12.3624 -28.705
-1.39422 0.574014 -25.8036
8.86235 -39.0754 -35.4257
37.3412 -3.90294 15.5531
39.2379 -0.759477 25.241
39.5726 -8.19102 25.1704
37.3412 -3.90294 15.5531
39.5726 -8.19102 25.1704
35.6154 -15.2133 4.85419
37.3412 -3.90294 15.5531
35.6154 -15.2133 4.85419
34.6462 -8.34086 1.79391
37.3412 -3.90294 15.5531
34.6462 -8.34086 1.79391
37.6339 12.99 20.7058
37.3412 -3.90294 15.5531
37.6339 12.99 20.7058
39.2379 -0.759477 25.241
30.2428 -8.77646 -8.88732
32.5563 -23.2621 -11.4352
31.8785 -27.2159 -14.1205
30.2428 -8.77646 -8.88732
31.8785 -27.2159 -14.1205
25.8162 -6.59769 -14.7031
30.2428 -8.77646 -8.88732
25.8162 -6.59769 -14.7031
27.1433 15.6746 -3.3625
30.2428 -8.77646 -8.88732
27.1433 15.6746 -3.3625
33.8199 -2.48124 -0.81534
30.2428 -8.77646 -8.88732
33.8199 -2.48124 -0.81534
32.5563 -23.2621 -11.4352
32.0466 -19.1392 -0.587239
30.5463 -23.9086 0.690517
31.8785 -27.2159 -14.1204
32.0466 -19.1392 -0.587239
31.8785 -27.2159 -14.1204
32.5563 -23.2621 -11.4352
32.0466 -19.1392 -0.587239
32.5563 -23.2621 -11.4352
34.6462 -8.34091 1.79394
32.0466 -19.1392 -0.587239
34.6462 -8.34091 1.79394
31.6842 -14.7175 9.82799
32.0466 -19.1392 -0.587239
31.6842 -14.7175 9.82799
30.968 -17.3904 9.71973
32.0466 -19.1392 -0.587239
30.968 -17.3904 9.71973
30.5463 -23.9086 0.690517
3 0 1 2
3 3 4 5
3 6 7 8
3 9 10 11
3 12 13 14
3 15 16 17
3 18 19 20
3 21 22 23
3 24 25 26
3 27 28 29
3 30 31 32
3 33 34 35
3 36 37 38
3 39 40 41
3 42 43 44
3 45 46 47
3 48 49 50
3 51 52 53
3 54 55 56
3 57 58 59
3 60 61 62
3 63 64 65
3 66 67 68
3 69 70 71
3 72 73 74
3 75 76 77
3 78 79 80
3 81 82 83
3 84 85 86
3 87 88 89
3 90 91 92
3 93 94 95
3 96 97 98
3 99 100 101
3 102 103 104
3 105 106 107
3 108 109 110
3 111 112 113
3 114 115 116
3 117 118 119
3 120 121 122
3 123 124 125
3 126 127 128
3 129 130 131
3 132 133 134
3 135 136 137
3 138 139 140
3 141 142 143
3 144 145 146
3 147 148 149
3 150 151 152
3 153 154 155
3 156 157 158
3 159 160 161
3 162 163 164
3 165 166 167
3 168 169 170
3 171 172 173
3 174 175 176
3 177 178 179
3 180 181 182
3 183 184 185
3 186 187 188
3 189 190 191
3 192 193 194
3 195 196 197
3 198 199 200
3 201 202 203
3 204 205 206
3 207 208 209
3 210 211 212
3 213 214 215
3 216 217 218
3 219 220 221
3 222 223 224
3 225 226 227
3 228 229 230
3 231 232 233
3 234 235 236
3 237 238 239
3 240 241 242
3 243 244 245
3 246 247 248
3 249 250 251
3 252 253 254
3 255 256 257
3 258 259 260
3 261 262 263
3 264 265 266
3 267 268 269
3 270 271 272
3 273 274 275
3 276 277 278
3 279 280 281
3 282 283 284
3 285 286 287
3 288 289 290
3 291 292 293
3 294 295 296
3 297 298 299
3 300 301 302
3 303 304 305
3 306 307 308
3 309 310 311
3 312 313 314
3 315 316 317
3 318 319 320
3 321 322 323
3 324 325 326
3 327 328 329
3 330 331 332
3 333 334 335
3 336 337 338
3 339 340 341
3 342 343 344
3 345 346 347
3 348 349 350
3 351 352 353
3 354 355 356
3 357 358 359
3 360 361 362
3 363 364 365
3 366 367 368
3 369 370 371
3 372 373 374
3 375 376 377
3 378 379 380
3 381 382 383
3 384 385 386
3 387 388 389
3 390 391 392
3 393 394 395
3 396 397 398
3 399 400 401
3 402 403 404
3 405 406 407
3 408 409 410
3 411 412 413
3 414 415 416
3 417 418 419
3 420 421 422
3 423 424 425
3 426 427 428
3 429 430 431
3 432 433 434
3 435 436 437
3 438 439 440
3 441 442 443
3 444 445 446
3 447 448 449
3 450 451 452
3 453 454 455
3 456 457 458
3 459 460 461
3 462 463 464
3 465 466 467
3 468 469 470
3 471 472 473
3 474 475 476
3 477 478 479
3 480 481 482
3 483 484 485
3 486 487 488
3 489 490 491
3 492 493 494
3 495 496 497
3 498 499 500
3 501 502 503
3 504 505 506
3 507 508 509
3 510 511 512
3 513 514 515
3 516 517 518
3 519 520 521
3 522 523 524
3 525 526 527
3 528 529 530
3 531 532 533
3 534 535 536
3 537 538 539
3 540 541 542
3 543 544 545
3 546 547 548
3 549 550 551
3 552 553 554
3 555 556 557
3 558 559 560
3 561 562 563
3 564 565 566
