ply
format ascii 1.0
element vertex 699
property float x
property float y
property float z
element face 233
property list uchar int vertex_indices
end_header
1.54843 -30.0033 32.837
-3.15759 -62.105 37.8317
-9.81698 -35.0146 34.0266
1.54843 -30.0033 32.837
-9.81698 -35.0146 34.0266
-9.07549 -11.6258 30.4911
1.54843 -30.0033 32.837
-9.07549 -11.6258 30.4911
14.3767 -17.2854 30.4355
1.54843 -30.0033 32.837
14.3767 -17.2854 30.4355
15.4154 -23.9856 31.4001
1.54843 -30.0033 32.837
15.4154 -23.9856 31.4001
-3.15759 -62.105 37.8317
-22.0987 -42.8052 26.2893
-16.7151 -66.1045 34.3464
-30.194 -68.9534 24.8593
-22.0987 -42.8052 26.2893
-30.194 -68.9534 24.8593
-31.8094 -57.6334 21.6857
-22.0987 -42.8052 26.2893
-31.8094 -57.6334 21.6857
-22.0665 -17.1261 21.8285
-22.0987 -42.8052 26.2893
-22.0665 -17.1261 21.8285
-19.6626 -16.4004 23.4824
-22.0987 -42.8052 26.2893
-19.6626 -16.4004 23.4824
-12.1448 -30.6136 31.5336
-22.0987 -42.8052 26.2893
-12.1448 -30.6136 31.5336
-16.7151 -66.1045 34.3464
-35.1836 -42.8329 -1.51984
-32.2537 -72.9992 -13.8169
-30.194 -68.9534 24.8593
-35.1836 -42.8329 -1.51984
-30.194 -68.9534 24.8593
-37.4951 -17.7889 10.5154
-35.1836 -42.8329 -1.51984
-37.4951 -17.7889 10.5154
-37.963 -24.6975 -9.49542
-35.1836 -42.8329 -1.51984
-37.963 -24.6975 -9.49542
-38.0123 -29.7257 -19.6615
-35.1836 -42.8329 -1.51984
-38.0123 -29.7257 -19.6615
-32.2537 -72.9992 -13.8169
-17.9705 -56.5329 -26.1459
-28.3631 -72.6806 -16.2724
-4.35286 -70.7146 -31.4256
-17.9705 -56.5329 -26.1459
-4.35286 -70.7146 -31.4256
-14.2437 -41.8595 -31.6113
-17.9705 -56.5329 -26.1459
-14.2437 -41.8595 -31.6113
-24.9225 -40.8767 -25.2742
-17.9705 -56.5329 -26.1459
-24.9225 -40.8767 -25.2742
-28.3631 -72.6806 -16.2724
13.8137 -45.2368 -22.9892
5.43841 -69.7218 -35.6347
19.5731 -67.0343 -28.7793
13.8137 -45.2368 -22.9892
19.5731 -67.0343 -28.7793
26.0232 -32.0734 -13.0023
13.8137 -45.2368 -22.9892
26.0232 -32.0734 -13.0023
13.2321 -28.9611 -17.1274
13.8137 -45.2368 -22.9892
13.2321 -28.9611 -17.1274
4.80198 -28.3931 -20.4021
13.8137 -45.2368 -22.9892
4.80198 -28.3931 -20.4021
5.43841 -69.7218 -35.6347
32.942 -47.0764 0.966708
33.3874 -62.9519 -7.06823
33.8839 -61.9984 2.03068
32.942 -47.0764 0.966708
33.8839 -61.9984 2.03068
33.1975 -44.0163 8.13642
32.942 -47.0764 0.966708
33.1975 -44.0163 8.13642
32.5953 -36.1012 5.88373
32.942 -47.0764 0.966708
32.5953 -36.1012 5.88373
31.6457 -30.314 -4.14905
32.942 -47.0764 0.966708
31.6457 -30.314 -4.14905
33.3874 -62.9519 -7.06823
26.9651 -47.6782 20.7781
34.4787 -60.8563 12.9292
23.6074 -60.5461 32.1663
26.9651 -47.6782 20.7781
23.6074 -60.5461 32.1663
16.5769 -25.2939 29.8806
26.9651 -47.6782 20.7781
16.5769 -25.2939 29.8806
33.1975 -44.0163 8.13642
26.9651 -47.6782 20.7781
33.1975 -44.0163 8.13642
34.4787 -60.8563 12.9292
25.9067 -16.5208 23.51
32.9392 -37.2511 10.4335
15.4154 -23.9856 31.4
25.9067 -16.5208 23.51
15.4154 -23.9856 31.4
22.4471 -9.55389 28.9651
25.9067 -16.5208 23.51
22.4471 -9.55389 28.9651
26.9888 -5.90675 25.6752
25.9067 -16.5208 23.51
26.9888 -5.90675 25.6752
31.7427 -5.90675 21.0764
25.9067 -16.5208 23.51
31.7427 -5.90675 21.0764
32.9392 -37.2511 10.4335
22.5633 -4.37287 -13.5393
18.5569 -15.2644 -21.4923
22.3627 -19.6403 -16.4494
22.5633 -4.37287 -13.5393
22.3627 -19.6403 -16.4494
30.4068 -7.09551 -2.07236
22.5633 -4.37287 -13.5393
30.4068 -7.09551 -2.07236
29.2762 14.09 -0.177499
22.5633 -4.37287 -13.5393
29.2762 14.09 -0.177499
17.472 0.958233 -20.3747
22.5633 -4.37287 -13.5393
17.472 0.958233 -20.3747
17.3054 0.714697 -20.6696
22.5633 -4.37287 -13.5393
17.3054 0.714697 -20.6696
18.5569 -15.2644 -21.4923
-3.38634 -27.1759 -15.4476
-5.74369 -19.6382 -3.49574
-13.7418 -40.5475 -29.9513
-3.38634 -27.1759 -15.4476
-13.7418 -40.5475 -29.9513
-9.94395 -39.9463 -30.8346
-3.38634 -27.1759 -15.4476
-9.94395 -39.9463 -30.8346
15.7113 -18.9111 -12.3335
-3.38634 -27.1759 -15.4476
15.7113 -18.9111 -12.3335
-3.21354 -16.8364 -0.622645
-3.38634 -27.1759 -15.4476
-3.21354 -16.8364 -0.622645
-5.74369 -19.6382 -3.49574
-14.9525 -11.1666 -22.5617
-21.512 -17.2821 -30.5399
-21.5326 -18.0356 -30.2264
-14.9525 -11.1666 -22.5617
-21.5326 -18.0356 -30.2264
-14.5691 -18.7424 -18.4372
-14.9525 -11.1666 -22.5617
-14.5691 -18.7424 -18.4372
-7.70448 -10.7965 -10.8008
-14.9525 -11.1666 -22.5617
-7.70448 -10.7965 -10.8008
-7.42746 -9.44259 -10.969
-14.9525 -11.1666 -22.5617
-7.42746 -9.44259 -10.969
-16.9692 7.29946 -34.3967
-14.9525 -11.1666 -22.5617
-16.9692 7.29946 -34.3967
-21.512 -17.2821 -30.5399
-17.3554 -11.0612 -18.7555
-12.1335 -11.0485 -9.59213
-10.0474 -19.2014 -10.7819
-17.3554 -11.0612 -18.7555
-10.0474 -19.2014 -10.7819
-21.5326 -18.0356 -30.2264
-17.3554 -11.0612 -18.7555
-21.5326 -18.0356 -30.2264
-25.7079 4.04049 -24.4214
-17.3554 -11.0612 -18.7555
-25.7079 4.04049 -24.4214
-12.1335 -11.0485 -9.59213
-27.8922 -13.8364 -26.5307
-36.2554 -21.8325 -20.8116
-27.7094 -30.6997 -26.0242
-27.8922 -13.8364 -26.5307
-27.7094 -30.6997 -26.0242
-23.7447 -29.3634 -28.6444
-27.8922 -13.8364 -26.5307
-23.7447 -29.3634 -28.6444
-21.6491 -18.0238 -30.4236
-27.8922 -13.8364 -26.5307
-21.6491 -18.0238 -30.4236
-28.6016 8.41253 -26.8955
-27.8922 -13.8364 -26.5307
-28.6016 8.41253 -26.8955
-29.393 8.48826 -26.3851
-27.8922 -13.8364 -26.5307
-29.393 8.48826 -26.3851
-36.2554 -21.8325 -20.8116
-28.2726 -5.22278 -13.3144
-21.5326 -18.0356 -30.2264
-21.7376 -25.5361 -27.1051
-28.2726 -5.22278 -13.3144
-21.7376 -25.5361 -27.1051
-34.454 -8.38811 7.12437
-28.2726 -5.22278 -13.3144
-34.454 -8.38811 7.12437
-34.9972 -2.70627 6.95122
-28.2726 -5.22278 -13.3144
-34.9972 -2.70627 6.95122
-29.8468 12.1002 -14.0996
-28.2726 -5.22278 -13.3144
-29.8468 12.1002 -14.0996
-27.0675 11.2291 -22.5311
-28.2726 -5.22278 -13.3144
-27.0675 11.2291 -22.5311
-21.5326 -18.0356 -30.2264
-23.2801 0.345921 21.8813
-9.81695 -35.0146 34.0266
-15.8859 -10.3261 30.5588
-23.2801 0.345921 21.8813
-15.8859 -10.3261 30.5588
-25.8007 24.5819 23.649
-23.2801 0.345921 21.8813
-25.8007 24.5819 23.649
-32.0182 13.9026 11.8434
-23.2801 0.345921 21.8813
-32.0182 13.9026 11.8434
-32.8787 8.58585 9.3288
-23.2801 0.345921 21.8813
-32.8787 8.58585 9.3288
-9.81695 -35.0146 34.0266
4.1555 -4.62143 28.9047
-10.5078 -17.9011 30.5261
11.7062 -17.9011 29.5504
4.1555 -4.62143 28.9047
11.7062 -17.9011 29.5504
14.0343 -12.545 29.0539
4.1555 -4.62143 28.9047
14.0343 -12.545 29.0539
10.8753 3.29437 28.0269
4.1555 -4.62143 28.9047
10.8753 3.29437 28.0269
7.88331 6.24367 27.9413
4.1555 -4.62143 28.9047
7.88331 6.24367 27.9413
3.47462 7.81646 28.0191
4.1555 -4.62143 28.9047
3.47462 7.81646 28.0191
-8.37743 -1.35732 29.2149
4.1555 -4.62143 28.9047
-8.37743 -1.35732 29.2149
-10.5078 -17.9011 30.5261
14.0174 6.82196 26.118
11.6708 0.630825 28.9745
13.7941 0.630827 28.0206
14.0174 6.82196 26.118
13.7941 0.630827 28.0206
18.6728 2.99573 25.1402
14.0174 6.82196 26.118
18.6728 2.99573 25.1402
15.8165 13.379 23.4009
14.0174 6.82196 26.118
15.8165 13.379 23.4009
10.1327 16.4734 25.0536
14.0174 6.82196 26.118
10.1327 16.4734 25.0536
11.6708 0.630825 28.9745
10.2091 33.4833 0.0506055
17.4483 31.558 -0.481791
12.1207 32.3696 1.09946
10.2091 33.4833 0.0506055
12.1207 32.3696 1.09946
4.74662 33.9367 2.41598
10.2091 33.4833 0.0506055
4.74662 33.9367 2.41598
4.26344 34.2542 2.0801
10.2091 33.4833 0.0506055
4.26344 34.2542 2.0801
8.32167 35.7119 -3.20337
10.2091 33.4833 0.0506055
8.32167 35.7119 -3.20337
11.8454 32.8037 0.410579
10.2091 33.4833 0.0506055
11.8454 32.8037 0.410579
12.7172 33.749 -1.96672
10.2091 33.4833 0.0506055
12.7172 33.749 -1.96672
17.4483 31.558 -0.481791
24.243 26.6326 12.2148
32.8134 24.4423 4.34084
33.6066 23.0074 10.9304
24.243 26.6326 12.2148
33.6066 23.0074 10.9304
32.0747 22.8007 15.8901
24.243 26.6326 12.2148
32.0747 22.8007 15.8901
17.6458 27.4826 23.2404
24.243 26.6326 12.2148
17.6458 27.4826 23.2404
11.0588 30.6402 20.5369
24.243 26.6326 12.2148
11.0588 30.6402 20.5369
14.9114 31.1936 7.86352
24.243 26.6326 12.2148
14.9114 31.1936 7.86352
27.5904 26.8612 2.70148
24.243 26.6326 12.2148
27.5904 26.8612 2.70148
32.8134 24.4423 4.34084
-1.70207 44.2173 8.85141
8.18143 43.5958 -5.71957
5.01204 40.0646 3.02621
-1.70207 44.2173 8.85141
5.01204 40.0646 3.02621
-1.46306 40.5891 12.4441
-1.70207 44.2173 8.85141
-1.46306 40.5891 12.4441
-7.75306 44.5023 17.8765
-1.70207 44.2173 8.85141
-7.75306 44.5023 17.8765
-8.53314 45.8471 17.6118
-1.70207 44.2173 8.85141
-8.53314 45.8471 17.6118
-7.8982 47.4612 14.8697
-1.70207 44.2173 8.85141
-7.8982 47.4612 14.8697
0.539475 47.4612 1.85102
-1.70207 44.2173 8.85141
0.539475 47.4612 1.85102
8.18143 43.5958 -5.71957
-14.3994 20.5524 24.8866
-16.621 -7.73807 30.0466
-15.3539 -6.75731 29.9187
-14.3994 20.5524 24.8866
-15.3539 -6.75731 29.9187
-1.19634 14.0702 26.6571
-14.3994 20.5524 24.8866
-1.19634 14.0702 26.6571
-1.1682 17.608 26.0011
-14.3994 20.5524 24.8866
-1.1682 17.608 26.0011
-15.5955 48.0346 19.7301
-14.3994 20.5524 24.8866
-15.5955 48.0346 19.7301
-25.0599 54.0675 18.2034
-14.3994 20.5524 24.8866
-25.0599 54.0675 18.2034
-25.8007 24.5818 23.649
-14.3994 20.5524 24.8866
-25.8007 24.5818 23.649
-16.621 -7.73807 30.0466
-32.0148 21.7399 9.94796
-32.0182 13.9027 11.8435
-33.9426 10.5972 8.18943
-32.0148 21.7399 9.94796
-33.9426 10.5972 8.18943
-33.2592 26.3766 5.93994
-32.0148 21.7399 9.94796
-33.2592 26.3766 5.93994
-31.6691 28.9384 9.00013
-32.0148 21.7399 9.94796
-31.6691 28.9384 9.00013
-29.1848 28.8845 14.7668
-32.0148 21.7399 9.94796
-29.1848 28.8845 14.7668
-32.0182 13.9027 11.8435
-22.0941 30.8032 -6.0886
-23.7569 17.698 -35.055
-27.4097 19.1063 -24.0604
-22.0941 30.8032 -6.0886
-27.4097 19.1063 -24.0604
-27.7222 26.3707 -5.4649
-22.0941 30.8032 -6.0886
-27.7222 26.3707 -5.4649
-23.4031 35.9975 9.44083
-22.0941 30.8032 -6.0886
-23.4031 35.9975 9.44083
-20.9512 38.0913 9.57155
-22.0941 30.8032 -6.0886
-20.9512 38.0913 9.57155
-17.6477 39.1792 5.46446
-22.0941 30.8032 -6.0886
-17.6477 39.1792 5.46446
-13.7679 39.1792 -2.51676
-22.0941 30.8032 -6.0886
-13.7679 39.1792 -2.51676
-23.7569 17.698 -35.055
-22.7551 23.0886 -14.6913
-17.3322 14.2499 -34.419
-25.2308 14.2702 -29.2982
-22.7551 23.0886 -14.6913
-25.2308 14.2702 -29.2982
-27.9883 17.4427 -21.6954
-22.7551 23.0886 -14.6913
-27.9883 17.4427 -21.6954
-27.7221 26.3708 -5.4647
-22.7551 23.0886 -14.6913
-27.7221 26.3708 -5.4647
-24.7035 33.0989 4.95285
-22.7551 23.0886 -14.6913
-24.7035 33.0989 4.95285
-13.5534 33.0989 -2.22315
-22.7551 23.0886 -14.6913
-13.5534 33.0989 -2.22315
-17.3322 14.2499 -34.419
-1.39465 11.511 -29.1501
-20.1206 9.05191 -43.6064
-20.7867 9.2607 -41.5855
-1.39465 11.511 -29.1501
-20.7867 9.2607 -41.5855
3.65794 14.6762 -3.84212
-1.39465 11.511 -29.1501
3.65794 14.6762 -3.84212
16.9042 12.9425 -23.3376
-1.39465 11.511 -29.1501
16.9042 12.9425 -23.3376
13.3719 11.6239 -33.3787
-1.39465 11.511 -29.1501
13.3719 11.6239 -33.3787
-20.1206 9.05191 -43.6064
18.1905 27.222 -20.223
21.9473 12.2825 -30.7599
22.3191 12.2338 -31.3072
18.1905 27.222 -20.223
22.3191 12.2338 -31.3072
25.1971 38.4295 -26.3327
18.1905 27.222 -20.223
25.1971 38.4295 -26.3327
17.6011 39.0448 -15.2844
18.1905 27.222 -20.223
17.6011 39.0448 -15.2844
3.88766 34.1193 2.56934
18.1905 27.222 -20.223
3.88766 34.1193 2.56934
21.9473 12.2825 -30.7599
-2.58325 20.7176 -20.9914
21.9473 12.2825 -30.7599
-8.42512 9.95006 -40.0349
-2.58325 20.7176 -20.9914
-8.42512 9.95006 -40.0349
-17.3322 14.2498 -34.419
-2.58325 20.7176 -20.9914
-17.3322 14.2498 -34.419
-13.4624 33.5528 -1.4479
-2.58325 20.7176 -20.9914
-13.4624 33.5528 -1.4479
4.35616 33.5528 1.70473
-2.58325 20.7176 -20.9914
4.35616 33.5528 1.70473
21.9473 12.2825 -30.7599
-16.7337 44.7542 1.86854
-33.9537 29.0656 3.49641
-23.4031 35.9975 9.44082
-16.7337 44.7542 1.86854
-23.4031 35.9975 9.44082
-6.84549 50.1373 10.3235
-16.7337 44.7542 1.86854
-6.84549 50.1373 10.3235
-2.12039 62.149 -10.0819
-16.7337 44.7542 1.86854
-2.12039 62.149 -10.0819
-17.3461 46.4214 -3.83612
-16.7337 44.7542 1.86854
-17.3461 46.4214 -3.83612
-33.9537 29.0656 3.49641
31.1711 18.8077 20.0257
29.5187 10.0279 28.0499
33.3538 16.6089 13.7379
31.1711 18.8077 20.0257
33.3538 16.6089 13.7379
33.5789 22.4405 11.1961
31.1711 18.8077 20.0257
33.5789 22.4405 11.1961
33.1932 22.9516 12.2688
31.1711 18.8077 20.0257
33.1932 22.9516 12.2688
26.2107 22.0096 34.8759
31.1711 18.8077 20.0257
26.2107 22.0096 34.8759
29.5187 10.0279 28.0499
9.59821 0.592976 -10.2243
3.01508 1.61161 1.12397
-7.07266 -10.0651 -10.0979
9.59821 0.592976 -10.2243
-7.07266 -10.0651 -10.0979
10.5854 -7.58644 -29.2746
9.59821 0.592976 -10.2243
10.5854 -7.58644 -29.2746
12.4593 -6.37075 -29.2506
9.59821 0.592976 -10.2243
12.4593 -6.37075 -29.2506
29.2387 18.1619 0.460207
9.59821 0.592976 -10.2243
29.2387 18.1619 0.460207
9.36351 7.8066 5.69315
9.59821 0.592976 -10.2243
9.36351 7.8066 5.69315
3.01508 1.61161 1.12397
-4.62898 0.126762 -31.157
10.5854 -7.58644 -29.2746
-7.07266 -10.0651 -10.0979
-4.62898 0.126762 -31.157
-7.07266 -10.0651 -10.0979
-16.9692 7.29942 -34.3967
-4.62898 0.126762 -31.157
-16.9692 7.29942 -34.3967
-6.22254 6.27106 -41.3267
-4.62898 0.126762 -31.157
-6.22254 6.27106 -41.3267
-3.4659 4.7149 -40.6892
-4.62898 0.126762 -31.157
-3.4659 4.7149 -40.6892
10.5854 -7.58644 -29.2746
-7.77577 -10.3432 -34.312
-19.0131 -26.7885 -29.6533
-21.0961 -26.6481 -30.4624
-7.77577 -10.3432 -34.312
-21.0961 -26.6481 -30.4624
-5.88931 4.59204 -41.4806
-7.77577 -10.3432 -34.312
-5.88931 4.59204 -41.4806
-3.46576 4.71481 -40.6892
-7.77577 -10.3432 -34.312
-3.46576 4.71481 -40.6892
10.5854 -7.58644 -29.2746
-7.77577 -10.3432 -34.312
10.5854 -7.58644 -29.2746
-19.0131 -26.7885 -29.6533
6.69531 15.042 -35.8514
22.2802 11.8799 -31.3744
-10.7012 8.7993 -42.3625
6.69531 15.042 -35.8514
-10.7012 8.7993 -42.3625
-11.8208 9.43133 -42.6214
6.69531 15.042 -35.8514
-11.8208 9.43133 -42.6214
10.2658 22.5497 -33.5507
6.69531 15.042 -35.8514
10.2658 22.5497 -33.5507
23.4525 22.5497 -29.3482
6.69531 15.042 -35.8514
23.4525 22.5497 -29.3482
22.2802 11.8799 -31.3744
32.0289 16.5797 -3.83961
34.0765 11.7013 12.9626
34.1847 9.09849 13.4304
32.0289 16.5797 -3.83961
34.1847 9.09849 13.4304
33.1754 6.68065 4.28479
32.0289 16.5797 -3.83961
33.1754 6.68065 4.28479
30.7546 6.68065 -16.6126
32.0289 16.5797 -3.83961
30.7546 6.68065 -16.6126
29.1619 22.1664 -27.588
32.0289 16.5797 -3.83961
29.1619 22.1664 -27.588
29.1359 31.0958 -26.2133
32.0289 16.5797 -3.83961
29.1359 31.0958 -26.2133
32.3814 25.2241 0.750935
32.0289 16.5797 -3.83961
32.3814 25.2241 0.750935
33.3608 19.99 8.26837
32.0289 16.5797 -3.83961
33.3608 19.99 8.26837
34.0765 11.7013 12.9626
14.37 28.5865 12.5953
27.5904 26.8612 2.70151
23.9789 23.1066 12.2322
14.37 28.5865 12.5953
23.9789 23.1066 12.2322
10.388 27.6214 17.9744
14.37 28.5865 12.5953
10.388 27.6214 17.9744
2.26817 31.5149 19.4723
14.37 28.5865 12.5953
2.26817 31.5149 19.4723
7.12377 31.2075 15.3113
14.37 28.5865 12.5953
7.12377 31.2075 15.3113
14.8708 31.2075 7.88006
14.37 28.5865 12.5953
14.8708 31.2075 7.88006
27.5904 26.8612 2.70151
2.42337 -66.0147 7.03645
3.60447 -70.063 -36.4476
-22.722 -72.2187 -19.8325
2.42337 -66.0147 7.03645
-22.722 -72.2187 -19.8325
-31.8564 -72.2187 -6.3559
2.42337 -66.0147 7.03645
-31.8564 -72.2187 -6.3559
-30.3388 -69.2379 22.1396
2.42337 -66.0147 7.03645
-30.3388 -69.2379 22.1396
-8.49118 -64.5344 38.4016
2.42337 -66.0147 7.03645
-8.49118 -64.5344 38.4016
20.8161 -60.5089 36.668
2.42337 -66.0147 7.03645
20.8161 -60.5089 36.668
23.453 -60.5417 32.4397
2.42337 -66.0147 7.03645
23.453 -60.5417 32.4397
34.4787 -60.8563 12.9292
2.42337 -66.0147 7.03645
34.4787 -60.8563 12.9292
32.8665 -63.9523 -16.614
2.42337 -66.0147 7.03645
32.8665 -63.9523 -16.614
3.60447 -70.063 -36.4476
-32.8988 -2.36637 -13.7034
-38.0109 -29.5893 -19.3858
-37.9435 -22.7073 -5.47155
-32.8988 -2.36637 -13.7034
-37.9435 -22.7073 -5.47155
-36.4772 -13.6478 -1.18679
-32.8988 -2.36637 -13.7034
-36.4772 -13.6478 -1.18679
-33.3501 1.51112 -0.879794
-32.8988 -2.36637 -13.7034
-33.3501 1.51112 -0.879794
-28.4386 16.1484 -19.8551
-32.8988 -2.36637 -13.7034
-28.4386 16.1484 -19.8551
-27.9884 17.4427 -21.6952
-32.8988 -2.36637 -13.7034
-27.9884 17.4427 -21.6952
-28.0827 14.2775 -27.4493
-32.8988 -2.36637 -13.7034
-28.0827 14.2775 -27.4493
-38.0109 -29.5893 -19.3858
25.6356 -0.618616 23.9719
20.1257 -3.56001 27.3387
23.1925 -8.84696 28.3795
25.6356 -0.618616 23.9719
23.1925 -8.84696 28.3795
23.253 -8.90668 28.3813
25.6356 -0.618616 23.9719
23.253 -8.90668 28.3813
32.6607 -1.35218 21.5667
25.6356 -0.618616 23.9719
32.6607 -1.35218 21.5667
32.7322 0.500895 20.759
25.6356 -0.618616 23.9719
32.7322 0.500895 20.759
27.2868 7.11021 20.0804
25.6356 -0.618616 23.9719
27.2868 7.11021 20.0804
27.161 7.11021 20.129
25.6356 -0.618616 23.9719
27.161 7.11021 20.129
18.6726 2.99559 25.1404
25.6356 -0.618616 23.9719
18.6726 2.99559 25.1404
20.1257 -3.56001 27.3387
18.0041 23.3075 6.28526
21.0099 19.9089 0.349647
19.1256 19.9089 6.26905
18.0041 23.3075 6.28526
19.1256 19.9089 6.26905
15.0288 19.4346 19.6282
18.0041 23.3075 6.28526
15.0288 19.4346 19.6282
14.2655 22.8769 18.474
18.0041 23.3075 6.28526
14.2655 22.8769 18.474
17.3392 31.2605 0.167765
18.0041 23.3075 6.28526
17.3392 31.2605 0.167765
21.2558 26.455 -7.1771
18.0041 23.3075 6.28526
21.2558 26.455 -7.1771
21.0099 19.9089 0.349647
-11.9665 18.9382 26.8429
3.47465 7.81644 28.0191
-36.9344 22.2322 28.7329
-11.9665 18.9382 26.8429
-36.9344 22.2322 28.7329
-10.7514 22.852 25.6992
-11.9665 18.9382 26.8429
-10.7514 22.852 25.6992
-3.65475 22.852 24.9203
-11.9665 18.9382 26.8429
-3.65475 22.852 24.9203
3.47465 7.81644 28.0191
11.9209 20.5875 21.3761
10.1326 16.4734 25.0536
27.2503 7.15409 20.0761
11.9209 20.5875 21.3761
27.2503 7.15409 20.0761
10.3855 27.6222 17.9754
11.9209 20.5875 21.3761
10.3855 27.6222 17.9754
-0.0848501 31.1004 22.3992
11.9209 20.5875 21.3761
-0.0848501 31.1004 22.3992
10.1326 16.4734 25.0536
3 0 1 2
3 3 4 5
3 6 7 8
3 9 10 11
3 12 13 14
3 15 16 17
3 18 19 20
3 21 22 23
3 24 25 26
3 27 28 29
3 30 31 32
3 33 34 35
3 36 37 38
3 39 40 41
3 42 43 44
3 45 46 47
3 48 49 50
3 51 52 53
3 54 55 56
3 57 58 59
3 60 61 62
3 63 64 65
3 66 67 68
3 69 70 71
3 72 73 74
3 75 76 77
3 78 79 80
3 81 82 83
3 84 85 86
3 87 88 89
3 90 91 92
3 93 94 95
3 96 97 98
3 99 100 101
3 102 103 104
3 105 106 107
3 108 109 110
3 111 112 113
3 114 115 116
3 117 118 119
3 120 121 122
3 123 124 125
3 126 127 128
3 129 130 131
3 132 133 134
3 135 136 137
3 138 139 140
3 141 142 143
3 144 145 146
3 147 148 149
3 150 151 152
3 153 154 155
3 156 157 158
3 159 160 161
3 162 163 164
3 165 166 167
3 168 169 170
3 171 172 173
3 174 175 176
3 177 178 179
3 180 181 182
3 183 184 185
3 186 187 188
3 189 190 191
3 192 193 194
3 195 196 197
3 198 199 200
3 201 202 203
3 204 205 206
3 207 208 209
3 210 211 212
3 213 214 215
3 216 217 218
3 219 220 221
3 222 223 224
3 225 226 227
3 228 229 230
3 231 232 233
3 234 235 236
3 237 238 239
3 240 241 242
3 243 244 245
3 246 247 248
3 249 250 251
3 252 253 254
3 255 256 257
3 258 259 260
3 261 262 263
3 264 265 266
3 267 268 269
3 270 271 272
3 273 274 275
3 276 277 278
3 279 280 281
3 282 283 284
3 285 286 287
3 288 289 290
3 291 292 293
3 294 295 296
3 297 298 299
3 300 301 302
3 303 304 305
3 306 307 308
3 309 310 311
3 312 313 314
3 315 316 317
3 318 319 320
3 321 322 323
3 324 325 326
3 327 328 329
3 330 331 332
3 333 334 335
3 336 337 338
3 339 340 341
3 342 343 344
3 345 346 347
3 348 349 350
3 351 352 353
3 354 355 356
3 357 358 359
3 360 361 362
3 363 364 365
3 366 367 368
3 369 370 371
3 372 373 374
3 375 376 377
3 378 379 380
3 381 382 383
3 384 385 386
3 387 388 389
3 390 391 392
3 393 394 395
3 396 397 398
3 399 400 401
3 402 403 404
3 405 406 407
3 408 409 410
3 411 412 413
3 414 415 416
3 417 418 419
3 420 421 422
3 423 424 425
3 426 427 428
3 429 430 431
3 432 433 434
3 435 436 437
3 438 439 440
3 441 442 443
3 444 445 446
3 447 448 449
3 450 451 452
3 453 454 455
3 456 457 458
3 459 460 461
3 462 463 464
3 465 466 467
3 468 469 470
3 471 472 473
3 474 475 476
3 477 478 479
3 480 481 482
3 483 484 485
3 486 487 488
3 489 490 491
3 492 493 494
3 495 496 497
3 498 499 500
3 501 502 503
3 504 505 506
3 507 508 509
3 510 511 512
3 513 514 515
3 516 517 518
3 519 520 521
3 522 523 524
3 525 526 527
3 528 529 530
3 531 532 533
3 534 535 536
3 537 538 539
3 540 541 542
3 543 544 545
3 546 547 548
3 549 550 551
3 552 553 554
3 555 556 557
3 558 559 560
3 561 562 563
3 564 565 566
3 567 568 569
3 570 571 572
3 573 574 575
3 576 577 578
3 579 580 581
3 582 583 584
3 585 586 587
3 588 589 590
3 591 592 593
3 594 595 596
3 597 598 599
3 600 601 602
3 603 604 605
3 606 607 608
3 609 610 611
3 612 613 614
3 615 616 617
3 618 619 620
3 621 622 623
3 624 625 626
3 627 628 629
3 630 631 632
3 633 634 635
3 636 637 638
3 639 640 641
3 642 643 644
3 645 646 647
3 648 649 650
3 651 652 653
3 654 655 656
3 657 658 659
3 660 661 662
3 663 664 665
3 666 667 668
3 669 670 671
3 672 673 674
3 675 676 677
3 678 679 680
3 681 682 683
3 684 685 686
3 687 688 689
3 690 691 692
3 693 694 695
3 696 697 698
