ply
format ascii 1.0
element vertex 387
property float x
property float y
property float z
element face 129
property list uchar int vertex_indices
end_header
4.29966 -27.1627 -11.9373
-10.46 -33.7862 -25.7429
-11.0114 -20.5392 1.2541
4.29966 -27.1627 -11.9373
-11.0114 -20.5392 1.2541
19.0593 -20.5392 1.86831
4.29966 -27.1627 -11.9373
19.0593 -20.5392 1.86831
19.6107 -33.7862 -25.1287
4.29966 -27.1627 -11.9373
19.6107 -33.7862 -25.1287
-10.46 -33.7862 -25.7429
17.6389 -18.3249 -3.6831
-8.55824 -33.7744 -8.52837
4.26602 -2.87541 19.3589
17.6389 -18.3249 -3.6831
4.26602 -2.87541 19.3589
43.836 -2.87541 1.16218
17.6389 -18.3249 -3.6831
43.836 -2.87541 1.16218
31.0118 -33.7744 -26.7251
17.6389 -18.3249 -3.6831
31.0118 -33.7744 -26.7251
-8.55824 -33.7744 -8.52837
28.1384 8.17653 2.97551
-10.4718 -15.4298 -3.3681
6.19346 -12.5876 0.962739
28.1384 8.17653 2.97551
6.19346 -12.5876 0.962739
40.9862 -12.5876 11.2908
28.1384 8.17653 2.97551
40.9862 -12.5876 11.2908
43.0877 22.9464 4.21118
28.1384 8.17653 2.97551
43.0877 22.9464 4.21118
48.8753 36.2334 3.04868
28.1384 8.17653 2.97551
48.8753 36.2334 3.04868
40.1595 30.4845 1.70777
28.1384 8.17653 2.97551
40.1595 30.4845 1.70777
-10.4718 -15.4298 -3.3681
24.8632 8.65529 -9.94784
-12.4504 -17.2241 -3.56646
4.61985 -11.8404 -14.697
24.8632 8.65529 -9.94784
4.61985 -11.8404 -14.697
39.9224 13.3884 -19.7878
24.8632 8.65529 -9.94784
39.9224 13.3884 -19.7878
46.0159 22.9827 -14.0021
24.8632 8.65529 -9.94784
46.0159 22.9827 -14.0021
46.2084 35.9698 2.31418
24.8632 8.65529 -9.94784
46.2084 35.9698 2.31418
-12.4504 -17.2241 -3.56646
20.5756 6.37504 -23.2332
-6.44817 -19.7501 -13.1009
4.4235 -1.85007 -23.9406
20.5756 6.37504 -23.2332
4.4235 -1.85007 -23.9406
5.08888 -0.0535126 -25.2456
20.5756 6.37504 -23.2332
5.08888 -0.0535126 -25.2456
30.0758 17.1524 -28.2532
20.5756 6.37504 -23.2332
30.0758 17.1524 -28.2532
33.3045 17.1524 -26.6069
20.5756 6.37504 -23.2332
33.3045 17.1524 -26.6069
57.0089 25.5992 -22.2518
20.5756 6.37504 -23.2332
57.0089 25.5992 -22.2518
-6.44817 -19.7501 -13.1009
8.55141 21.562 -27.8051
11.2219 11.7677 -32.4153
12.1535 12.0798 -32.7485
8.55141 21.562 -27.8051
12.1535 12.0798 -32.7485
22.6862 20.3067 -34.9079
8.55141 21.562 -27.8051
22.6862 20.3067 -34.9079
11.8356 31.8279 -25.845
8.55141 21.562 -27.8051
11.8356 31.8279 -25.845
-15.1401 31.8279 -13.1088
8.55141 21.562 -27.8051
-15.1401 31.8279 -13.1088
11.2219 11.7677 -32.4153
-26.1449 -6.49743 -7.35185
-30.5839 -31.2858 -15.366
-32.8705 -27.6957 0.794907
-26.1449 -6.49743 -7.35185
-32.8705 -27.6957 0.794907
-28.0038 2.52717 13.3594
-26.1449 -6.49743 -7.35185
-28.0038 2.52717 13.3594
-17.453 23.2646 -14.9452
-26.1449 -6.49743 -7.35185
-17.453 23.2646 -14.9452
-21.8131 0.70252 -20.6023
-26.1449 -6.49743 -7.35185
-21.8131 0.70252 -20.6023
-30.5839 -31.2858 -15.366
-21.6212 26.9457 -6.49057
-28.1826 2.17568 13.8392
-29.1325 22.5692 11.2744
-21.6212 26.9457 -6.49057
-29.1325 22.5692 11.2744
-23.0011 38.1915 -5.99476
-21.6212 26.9457 -6.49057
-23.0011 38.1915 -5.99476
-15.5953 38.1915 -22.5188
-21.6212 26.9457 -6.49057
-15.5953 38.1915 -22.5188
-12.1943 33.6006 -29.0528
-21.6212 26.9457 -6.49057
-12.1943 33.6006 -29.0528
-28.1826 2.17568 13.8392
-19.3567 -4.98716 31.6697
-14.1891 3.44049 41.6939
-14.4328 -15.0358 41.8162
-19.3567 -4.98716 31.6697
-14.4328 -15.0358 41.8162
-23.5886 -19.5748 23.7133
-19.3567 -4.98716 31.6697
-23.5886 -19.5748 23.7133
-23.5908 -19.5721 23.7088
-19.3567 -4.98716 31.6697
-23.5908 -19.5721 23.7088
-20.9819 25.8064 27.4162
-19.3567 -4.98716 31.6697
-20.9819 25.8064 27.4162
-14.1891 3.44049 41.6939
-8.38725 4.76517 32.8622
5.75233 -4.92685 39.6987
-23.5908 -19.5721 23.7088
-8.38725 4.76517 32.8622
-23.5908 -19.5721 23.7088
-20.9819 25.8064 27.4162
-8.38725 4.76517 32.8622
-20.9819 25.8064 27.4162
5.27142 17.7532 40.6252
-8.38725 4.76517 32.8622
5.27142 17.7532 40.6252
5.75233 -4.92685 39.6987
-17.0691 -6.60363 18.9047
-27.3874 -14.8965 15.9863
-23.5908 -19.5721 23.7088
-17.0691 -6.60363 18.9047
-23.5908 -19.5721 23.7088
2.31877 -6.64055 37.8276
-17.0691 -6.60363 18.9047
2.31877 -6.64055 37.8276
3.75556 1.40478 32.305
-17.0691 -6.60363 18.9047
3.75556 1.40478 32.305
-24.3543 1.40478 4.91532
-17.0691 -6.60363 18.9047
-24.3543 1.40478 4.91532
-33.1563 -1.32221 -1.31476
-17.0691 -6.60363 18.9047
-33.1563 -1.32221 -1.31476
-27.3874 -14.8965 15.9863
-24.968 -46.6856 -0.568435
-7.22857 -81.4122 -16.3686
-22.4192 -66.3458 16.2101
-24.968 -46.6856 -0.568435
-22.4192 -66.3458 16.2101
-28.4986 -48.9103 14.4389
-24.968 -46.6856 -0.568435
-28.4986 -48.9103 14.4389
-33.8599 -21.8104 -2.34583
-24.968 -46.6856 -0.568435
-33.8599 -21.8104 -2.34583
-32.8339 -14.949 -14.7767
-24.968 -46.6856 -0.568435
-32.8339 -14.949 -14.7767
-7.22857 -81.4122 -16.3686
16.1389 -31.7549 29.9114
33.7079 -43.684 15.8717
23.8791 -61.612 16.8406
16.1389 -31.7549 29.9114
23.8791 -61.612 16.8406
0.176361 -54.1765 33.3588
16.1389 -31.7549 29.9114
0.176361 -54.1765 33.3588
6.87862 -0.274355 44.3625
16.1389 -31.7549 29.9114
6.87862 -0.274355 44.3625
16.0527 0.972609 39.1237
16.1389 -31.7549 29.9114
16.0527 0.972609 39.1237
33.7079 -43.684 15.8717
36.8854 -52.5282 3.83574
50.1041 -85.1563 -5.72226
41.5546 -64.492 -3.80933
36.8854 -52.5282 3.83574
41.5546 -64.492 -3.80933
31.5782 -40.5643 -3.38102
36.8854 -52.5282 3.83574
31.5782 -40.5643 -3.38102
24.3048 -19.9001 28.2556
36.8854 -52.5282 3.83574
24.3048 -19.9001 28.2556
50.1041 -85.1563 -5.72226
14.7495 -37.4168 -17.8647
44.6163 -72.1608 -7.10681
12.5602 -63.255 -26.4779
14.7495 -37.4168 -17.8647
12.5602 -63.255 -26.4779
1.67725 -34.2639 -25.8961
14.7495 -37.4168 -17.8647
1.67725 -34.2639 -25.8961
-0.897371 -14.1872 -22.1148
14.7495 -37.4168 -17.8647
-0.897371 -14.1872 -22.1148
15.7913 -3.21722 -7.72793
14.7495 -37.4168 -17.8647
15.7913 -3.21722 -7.72793
44.6163 -72.1608 -7.10681
-11.1112 -45.3919 -19.4404
-0.487939 -59.837 -21.7777
-7.57993 -80.5002 -16.3468
-11.1112 -45.3919 -19.4404
-7.57993 -80.5002 -16.3468
-34.6312 -10.2836 -14.6649
-11.1112 -45.3919 -19.4404
-34.6312 -10.2836 -14.6649
-1.74557 -30.9468 -24.9723
-11.1112 -45.3919 -19.4404
-1.74557 -30.9468 -24.9723
-0.487939 -59.837 -21.7777
-5.43981 -20.4724 -13.7183
-7.49064 -32.7114 -26.5863
-1.19031 -8.23341 -26.0363
-5.43981 -20.4724 -13.7183
-1.19031 -8.23341 -26.0363
-3.38899 -8.23341 -0.850294
-5.43981 -20.4724 -13.7183
-3.38899 -8.23341 -0.850294
-9.68932 -32.7114 -1.4003
-5.43981 -20.4724 -13.7183
-9.68932 -32.7114 -1.4003
-7.49064 -32.7114 -26.5863
-10.1594 -5.49121 -24.0397
-9.09083 -22.3738 -23.1755
-23.7635 -6.41064 -19.4379
-10.1594 -5.49121 -24.0397
-23.7635 -6.41064 -19.4379
-21.8131 0.702488 -20.6023
-10.1594 -5.49121 -24.0397
-21.8131 0.702488 -20.6023
13.1907 12.4272 -33.1193
-10.1594 -5.49121 -24.0397
13.1907 12.4272 -33.1193
-9.32014 -11.8012 -23.8633
-10.1594 -5.49121 -24.0397
-9.32014 -11.8012 -23.8633
-9.09083 -22.3738 -23.1755
-26.1371 -35.4536 20.5946
-26.8956 -57.0128 19.4573
-20.7252 -52.6601 37.0431
-26.1371 -35.4536 20.5946
-20.7252 -52.6601 37.0431
-20.4035 -31.3299 36.9316
-26.1371 -35.4536 20.5946
-20.4035 -31.3299 36.9316
-29.8691 -9.05695 8.54356
-26.1371 -35.4536 20.5946
-29.8691 -9.05695 8.54356
-32.792 -27.2083 0.997506
-26.1371 -35.4536 20.5946
-32.792 -27.2083 0.997506
-26.8956 -57.0128 19.4573
-3.09589 35.7081 28.1757
2.22531 22.6672 36.9617
-0.677154 19.578 37.6322
-3.09589 35.7081 28.1757
-0.677154 19.578 37.6322
-20.9819 25.8064 27.4162
-3.09589 35.7081 28.1757
-20.9819 25.8064 27.4162
-7.51777 45.8835 21.2288
-3.09589 35.7081 28.1757
-7.51777 45.8835 21.2288
1.74697 50.5895 21.8487
-3.09589 35.7081 28.1757
1.74697 50.5895 21.8487
6.62922 49.7242 23.9666
-3.09589 35.7081 28.1757
6.62922 49.7242 23.9666
2.22531 22.6672 36.9617
26.7682 26.4896 -17.1358
2.68189 18.0476 -6.72107
14.8129 8.91446 -24.3192
26.7682 26.4896 -17.1358
14.8129 8.91446 -24.3192
20.2333 10.3748 -27.0685
26.7682 26.4896 -17.1358
20.2333 10.3748 -27.0685
33.0425 19.1952 -28.6103
26.7682 26.4896 -17.1358
33.0425 19.1952 -28.6103
44.4646 44.9242 -13.4989
26.7682 26.4896 -17.1358
44.4646 44.9242 -13.4989
45.374 57.4816 -2.59709
26.7682 26.4896 -17.1358
45.374 57.4816 -2.59709
2.68189 18.0476 -6.72107
-24.7952 47.7961 7.12067
-21.0573 36.1863 4.04909
-32.6724 45.144 1.96809
-24.7952 47.7961 7.12067
-32.6724 45.144 1.96809
-41.7381 58.2969 2.98522
-24.7952 47.7961 7.12067
-41.7381 58.2969 2.98522
-3.71288 51.5572 19.4803
-24.7952 47.7961 7.12067
-3.71288 51.5572 19.4803
-21.0573 36.1863 4.04909
14.5076 27.9093 -2.85013
12.9304 12.1565 -22.6988
29.0001 43.6621 -16.5039
14.5076 27.9093 -2.85013
29.0001 43.6621 -16.5039
16.0849 43.6621 16.9985
14.5076 27.9093 -2.85013
16.0849 43.6621 16.9985
0.0152211 12.1565 10.8037
14.5076 27.9093 -2.85013
0.0152211 12.1565 10.8037
12.9304 12.1565 -22.6988
8.77564 28.9084 7.84309
36.3311 27.9593 1.11876
-3.93769 1.39791 -5.07658
8.77564 28.9084 7.84309
-3.93769 1.39791 -5.07658
-7.27985 4.7582 -2.40063
8.77564 28.9084 7.84309
-7.27985 4.7582 -2.40063
0.00232506 41.7315 17.162
8.77564 28.9084 7.84309
0.00232506 41.7315 17.162
4.65232 48.8018 20.1722
8.77564 28.9084 7.84309
4.65232 48.8018 20.1722
22.8856 48.8018 16.0828
8.77564 28.9084 7.84309
22.8856 48.8018 16.0828
36.3311 27.9593 1.11876
-2.82185 22.3462 -12.521
16.9923 7.27366 -27.4808
19.9097 5.15668 -38.7779
-2.82185 22.3462 -12.521
19.9097 5.15668 -38.7779
-23.4181 38.1271 -7.04631
-2.82185 22.3462 -12.521
-23.4181 38.1271 -7.04631
-21.0573 36.1863 4.04909
-2.82185 22.3462 -12.521
-21.0573 36.1863 4.04909
-6.53579 24.9873 6.65081
-2.82185 22.3462 -12.521
-6.53579 24.9873 6.65081
16.9923 7.27366 -27.4808
-24.07 30.5334 8.02174
-24.1809 24.5359 21.0808
-29.1325 22.5692 11.2744
-24.07 30.5334 8.02174
-29.1325 22.5692 11.2744
-25.3131 32.3008 0.517
-24.07 30.5334 8.02174
-25.3131 32.3008 0.517
-25.1078 32.5967 0.445375
-24.07 30.5334 8.02174
-25.1078 32.5967 0.445375
-21.0573 36.1863 4.04909
-24.07 30.5334 8.02174
-21.0573 36.1863 4.04909
-19.6285 35.0118 10.7638
-24.07 30.5334 8.02174
-19.6285 35.0118 10.7638
-24.1809 24.5359 21.0808
3 0 1 2
3 3 4 5
3 6 7 8
3 9 10 11
3 12 13 14
3 15 16 17
3 18 19 20
3 21 22 23
3 24 25 26
3 27 28 29
3 30 31 32
3 33 34 35
3 36 37 38
3 39 40 41
3 42 43 44
3 45 46 47
3 48 49 50
3 51 52 53
3 54 55 56
3 57 58 59
3 60 61 62
3 63 64 65
3 66 67 68
3 69 70 71
3 72 73 74
3 75 76 77
3 78 79 80
3 81 82 83
3 84 85 86
3 87 88 89
3 90 91 92
3 93 94 95
3 96 97 98
3 99 100 101
3 102 103 104
3 105 106 107
3 108 109 110
3 111 112 113
3 114 115 116
3 117 118 119
3 120 121 122
3 123 124 125
3 126 127 128
3 129 130 131
3 132 133 134
3 135 136 137
3 138 139 140
3 141 142 143
3 144 145 146
3 147 148 149
3 150 151 152
3 153 154 155
3 156 157 158
3 159 160 161
3 162 163 164
3 165 166 167
3 168 169 170
3 171 172 173
3 174 175 176
3 177 178 179
3 180 181 182
3 183 184 185
3 186 187 188
3 189 190 191
3 192 193 194
3 195 196 197
3 198 199 200
3 201 202 203
3 204 205 206
3 207 208 209
3 210 211 212
3 213 214 215
3 216 217 218
3 219 220 221
3 222 223 224
3 225 226 227
3 228 229 230
3 231 232 233
3 234 235 236
3 237 238 239
3 240 241 242
3 243 244 245
3 246 247 248
3 249 250 251
3 252 253 254
3 255 256 257
3 258 259 260
3 261 262 263
3 264 265 266
3 267 268 269
3 270 271 272
3 273 274 275
3 276 277 278
3 279 280 281
3 282 283 284
3 285 286 287
3 288 289 290
3 291 292 293
3 294 295 296
3 297 298 299
3 300 301 302
3 303 304 305
3 306 307 308
3 309 310 311
3 312 313 314
3 315 316 317
3 318 319 320
3 321 322 323
3 324 325 326
3 327 328 329
3 330 331 332
3 333 334 335
3 336 337 338
3 339 340 341
3 342 343 344
3 345 346 347
3 348 349 350
3 351 352 353
3 354 355 356
3 357 358 359
3 360 361 362
3 363 364 365
3 366 367 368
3 369 370 371
3 372 373 374
3 375 376 377
3 378 379 380
3 381 382 383
3 384 385 386
