ply
format ascii 1.0
element vertex 1026
property float x
property float y
property float z
element face 342
property list uchar int vertex_indices
end_header
34.7489 -23.3252 13.6536
40.4961 -43.6832 8.98477
38.1046 -41.8265 22.7908
34.7489 -23.3252 13.6536
38.1046 -41.8265 22.7908
30.2015 -10.1039 22.5253
34.7489 -23.3252 13.6536
30.2015 -10.1039 22.5253
30.1933 2.31271 0.31366
34.7489 -23.3252 13.6536
30.1933 2.31271 0.31366
40.4961 -43.6832 8.98477
26.5661 -32.0018 -19.0296
24.3177 -54.1274 -24.9929
43.4389 -46.7471 -12.3184
26.5661 -32.0018 -19.0296
43.4389 -46.7471 -12.3184
42.4744 -40.1686 -11.4951
26.5661 -32.0018 -19.0296
42.4744 -40.1686 -11.4951
38.0372 -23.0145 -10.4665
26.5661 -32.0018 -19.0296
38.0372 -23.0145 -10.4665
33.7492 -20.9393 -12.5239
26.5661 -32.0018 -19.0296
33.7492 -20.9393 -12.5239
15.7439 -19.9506 -22.7884
26.5661 -32.0018 -19.0296
15.7439 -19.9506 -22.7884
7.36906 -25.3731 -28.8006
26.5661 -32.0018 -19.0296
7.36906 -25.3731 -28.8006
7.39841 -25.6941 -28.851
26.5661 -32.0018 -19.0296
7.39841 -25.6941 -28.851
24.3177 -54.1274 -24.9929
14.3351 -51.9281 1.90097
-6.55837 -64.3483 -36.0663
9.5269 -59.8362 -34.797
14.3351 -51.9281 1.90097
9.5269 -59.8362 -34.797
44.1092 -46.4884 -11.8741
14.3351 -51.9281 1.90097
44.1092 -46.4884 -11.8741
38.1046 -41.8265 22.7908
14.3351 -51.9281 1.90097
38.1046 -41.8265 22.7908
4.29864 -48.1442 37.6488
14.3351 -51.9281 1.90097
4.29864 -48.1442 37.6488
-3.47018 -50.9252 33.7036
14.3351 -51.9281 1.90097
-3.47018 -50.9252 33.7036
-6.55837 -64.3483 -36.0663
16.3966 -23.8965 29.8555
33.5161 -42.684 24.8075
4.29863 -48.1442 37.6488
16.3966 -23.8965 29.8555
4.29863 -48.1442 37.6488
2.34554 -10.7323 34.2527
16.3966 -23.8965 29.8555
2.34554 -10.7323 34.2527
25.426 5.97461 22.7128
16.3966 -23.8965 29.8555
25.426 5.97461 22.7128
33.5161 -42.684 24.8075
-17.3485 -35.0872 -4.35463
-4.82866 -56.83 3.01211
-3.56482 -51.3366 31.5652
-17.3485 -35.0872 -4.35463
-3.56482 -51.3366 31.5652
-28.3801 -16.0288 -11.2066
-17.3485 -35.0872 -4.35463
-28.3801 -16.0288 -11.2066
-29.0722 -16.0288 -15.9618
-17.3485 -35.0872 -4.35463
-29.0722 -16.0288 -15.9618
-20.8966 -35.212 -29.1821
-17.3485 -35.0872 -4.35463
-20.8966 -35.212 -29.1821
-4.82866 -56.83 3.01211
-3.81699 -31.6226 32.3019
-2.797 -50.6843 34.0454
4.29864 -48.1442 37.6488
-3.81699 -31.6226 32.3019
4.29864 -48.1442 37.6488
2.68711 -17.275 34.8466
-3.81699 -31.6226 32.3019
2.68711 -17.275 34.8466
-11.6579 -17.275 27.2378
-3.81699 -31.6226 32.3019
-11.6579 -17.275 27.2378
-11.6158 -24.7346 27.7307
-3.81699 -31.6226 32.3019
-11.6158 -24.7346 27.7307
-2.797 -50.6843 34.0454
6.17848 -40.378 -31.6562
-6.55838 -64.3483 -36.0663
30.574 -53.9323 -33.1363
6.17848 -40.378 -31.6562
30.574 -53.9323 -33.1363
14.2735 -20.0529 -28.0035
6.17848 -40.378 -31.6562
14.2735 -20.0529 -28.0035
9.49099 -19.6801 -28.0947
6.17848 -40.378 -31.6562
9.49099 -19.6801 -28.0947
-16.8877 -43.8762 -32.9801
6.17848 -40.378 -31.6562
-16.8877 -43.8762 -32.9801
-6.55838 -64.3483 -36.0663
-25.3554 -0.631199 7.06848
-32.8194 -9.71232 -18.8583
-11.756 -39.682 17.4468
-25.3554 -0.631199 7.06848
-11.756 -39.682 17.4468
-17.6331 -17.9445 16.1848
-25.3554 -0.631199 7.06848
-17.6331 -17.9445 16.1848
-24.2665 12.4907 18.6721
-25.3554 -0.631199 7.06848
-24.2665 12.4907 18.6721
-28.698 25.5305 15.4989
-25.3554 -0.631199 7.06848
-28.698 25.5305 15.4989
-36.9594 25.5305 -6.53356
-25.3554 -0.631199 7.06848
-36.9594 25.5305 -6.53356
-32.8194 -9.71232 -18.8583
-23.0533 -5.52106 -39.8074
-34.5627 -16.8255 -56.5639
-26.8786 -27.1636 -41.1679
-23.0533 -5.52106 -39.8074
-26.8786 -27.1636 -41.1679
-17.1251 -11.7384 -28.3433
-23.0533 -5.52106 -39.8074
-17.1251 -11.7384 -28.3433
-14.2485 14.0611 -29.5615
-23.0533 -5.52106 -39.8074
-14.2485 14.0611 -29.5615
-22.4514 14.0611 -43.4001
-23.0533 -5.52106 -39.8074
-22.4514 14.0611 -43.4001
-34.5627 -16.8255 -56.5639
8.61738 12.8655 -19.7339
-13.5315 -6.96946 -25.0509
-4.53373 -3.58247 -30.2092
8.61738 12.8655 -19.7339
-4.53373 -3.58247 -30.2092
7.2308 3.8623 -32.2277
8.61738 12.8655 -19.7339
7.2308 3.8623 -32.2277
31.3762 30.5047 -18.5667
8.61738 12.8655 -19.7339
31.3762 30.5047 -18.5667
25.0497 34.2785 -5.29547
8.61738 12.8655 -19.7339
25.0497 34.2785 -5.29547
6.11272 19.0992 -7.05351
8.61738 12.8655 -19.7339
6.11272 19.0992 -7.05351
-13.5315 -6.96946 -25.0509
-9.66906 5.51056 -36.5272
-7.23338 -1.10499 -32.1875
-17.5506 3.88821 -37.1378
-9.66906 5.51056 -36.5272
-17.5506 3.88821 -37.1378
-11.1724 9.62951 -39.2266
-9.66906 5.51056 -36.5272
-11.1724 9.62951 -39.2266
-2.7199 9.62951 -37.557
-9.66906 5.51056 -36.5272
-2.7199 9.62951 -37.557
-7.23338 -1.10499 -32.1875
20.1946 22.2657 -30.711
3.0967 -0.699308 -34.5667
2.35879 6.02818 -45.6889
20.1946 22.2657 -30.711
2.35879 6.02818 -45.6889
6.79254 14.1529 -47.7686
20.1946 22.2657 -30.711
6.79254 14.1529 -47.7686
24.6738 29.8709 -31.9564
20.1946 22.2657 -30.711
24.6738 29.8709 -31.9564
27.192 29.8709 -26.5877
20.1946 22.2657 -30.711
27.192 29.8709 -26.5877
33.7149 36.0352 -21.4306
20.1946 22.2657 -30.711
33.7149 36.0352 -21.4306
33.6349 33.7773 -18.3963
20.1946 22.2657 -30.711
33.6349 33.7773 -18.3963
30.0935 29.0893 -19.2925
20.1946 22.2657 -30.711
30.0935 29.0893 -19.2925
3.0967 -0.699308 -34.5667
-7.70757 12.1723 -36.6548
-5.04453 4.10077 -34.7915
-9.20467 2.2078 -32.637
-7.70757 12.1723 -36.6548
-9.20467 2.2078 -32.637
-15.3461 12.5287 -34.0375
-7.70757 12.1723 -36.6548
-15.3461 12.5287 -34.0375
-10.3496 22.5796 -39.3416
-7.70757 12.1723 -36.6548
-10.3496 22.5796 -39.3416
1.40707 19.4446 -42.4667
-7.70757 12.1723 -36.6548
1.40707 19.4446 -42.4667
-5.04453 4.10077 -34.7915
5.78573 30.5852 -31.2748
-9.98411 22.4822 -39.4388
10.1578 17.1111 -44.7927
5.78573 30.5852 -31.2748
10.1578 17.1111 -44.7927
31.9215 36.2418 -25.5473
5.78573 30.5852 -31.2748
31.9215 36.2418 -25.5473
17.9427 37.0763 -24.7358
5.78573 30.5852 -31.2748
17.9427 37.0763 -24.7358
-5.31866 37.0763 -24.7796
5.78573 30.5852 -31.2748
-5.31866 37.0763 -24.7796
-10.005 33.5239 -28.3545
5.78573 30.5852 -31.2748
-10.005 33.5239 -28.3545
-9.98411 22.4822 -39.4388
15.7382 16.0506 -4.62932
5.81367 -3.06766 -3.96335
6.44636 19.3666 -7.02253
15.7382 16.0506 -4.62932
6.44636 19.3666 -7.02253
23.3402 32.9082 -5.45418
15.7382 16.0506 -4.62932
23.3402 32.9082 -5.45418
27.3525 14.9952 -2.07724
15.7382 16.0506 -4.62932
27.3525 14.9952 -2.07724
5.81367 -3.06766 -3.96335
-5.18227 -7.23871 -15.412
3.08214 -6.80165 -5.99441
-3.81625 -17.038 -12.1248
-5.18227 -7.23871 -15.412
-3.81625 -17.038 -12.1248
-5.44265 -17.9081 -13.8407
-5.18227 -7.23871 -15.412
-5.44265 -17.9081 -13.8407
-17.7711 -17.5323 -28.0697
-5.18227 -7.23871 -15.412
-17.7711 -17.5323 -28.0697
-17.1251 -11.7384 -28.3433
-5.18227 -7.23871 -15.412
-17.1251 -11.7384 -28.3433
0.352437 11.455 -12.3309
-5.18227 -7.23871 -15.412
0.352437 11.455 -12.3309
4.44467 8.89241 -7.18044
-5.18227 -7.23871 -15.412
4.44467 8.89241 -7.18044
3.08214 -6.80165 -5.99441
11.5227 -3.46455 -9.90024
7.72135 -19.4587 -26.1323
-4.42355 -17.9392 -12.6645
11.5227 -3.46455 -9.90024
-4.42355 -17.9392 -12.6645
5.31887 -3.48261 -4.00668
11.5227 -3.46455 -9.90024
5.31887 -3.48261 -4.00668
22.5125 10.9362 -2.50108
11.5227 -3.46455 -9.90024
22.5125 10.9362 -2.50108
26.4846 12.6215 -4.19659
11.5227 -3.46455 -9.90024
26.4846 12.6215 -4.19659
7.72135 -19.4587 -26.1323
-5.97691 -18.2932 -24.0552
7.72135 -19.4587 -26.1323
2.70271 -19.151 -28.2242
-5.97691 -18.2932 -24.0552
2.70271 -19.151 -28.2242
-15.2585 -17.7509 -28.5666
-5.97691 -18.2932 -24.0552
-15.2585 -17.7509 -28.5666
-15.3051 -17.7296 -28.1448
-5.97691 -18.2932 -24.0552
-15.3051 -17.7296 -28.1448
-11.2983 -17.7296 -20.5991
-5.97691 -18.2932 -24.0552
-11.2983 -17.7296 -20.5991
-4.42355 -17.9392 -12.6645
-5.97691 -18.2932 -24.0552
-4.42355 -17.9392 -12.6645
7.72135 -19.4587 -26.1323
22.2945 -6.8758 -14.3338
15.32 -6.46707 -17.2489
16.4694 -13.7757 -19.8443
22.2945 -6.8758 -14.3338
16.4694 -13.7757 -19.8443
11.9238 -19.7164 -24.3807
22.2945 -6.8758 -14.3338
11.9238 -19.7164 -24.3807
15.7439 -19.9506 -22.7884
22.2945 -6.8758 -14.3338
15.7439 -19.9506 -22.7884
37.4498 -5.89659 -7.20631
22.2945 -6.8758 -14.3338
37.4498 -5.89659 -7.20631
34.8834 8.83789 -2.08428
22.2945 -6.8758 -14.3338
34.8834 8.83789 -2.08428
24.2716 8.8379 -6.78374
22.2945 -6.8758 -14.3338
24.2716 8.8379 -6.78374
15.32 -6.46707 -17.2489
36.0078 -5.39799 3.90317
37.4498 -5.89664 -7.20633
41.0304 -30.3189 -10.2625
36.0078 -5.39799 3.90317
41.0304 -30.3189 -10.2625
35.7603 -16.7927 17.9572
36.0078 -5.39799 3.90317
35.7603 -16.7927 17.9572
32.6868 7.00969 17.5763
36.0078 -5.39799 3.90317
32.6868 7.00969 17.5763
33.1118 19.0085 1.45126
36.0078 -5.39799 3.90317
33.1118 19.0085 1.45126
37.4498 -5.89664 -7.20633
16.3868 8.73231 24.4067
29.2439 -16.9886 23.7013
8.52057 -4.92535 27.136
16.3868 8.73231 24.4067
8.52057 -4.92535 27.136
8.13918 19.2012 25.3306
16.3868 8.73231 24.4067
8.13918 19.2012 25.3306
8.69693 19.7155 25.1726
16.3868 8.73231 24.4067
8.69693 19.7155 25.1726
19.7716 20.5312 22.7694
16.3868 8.73231 24.4067
19.7716 20.5312 22.7694
23.9487 14.8599 22.3303
16.3868 8.73231 24.4067
23.9487 14.8599 22.3303
29.2439 -16.9886 23.7013
-4.40334 5.82549 26.0813
-11.6976 -10.2432 26.7731
2.95529 -2.20884 26.9788
-4.40334 5.82549 26.0813
2.95529 -2.20884 26.9788
3.00815 13.8598 25.9241
-4.40334 5.82549 26.0813
3.00815 13.8598 25.9241
-11.8792 21.8941 24.6493
-4.40334 5.82549 26.0813
-11.8792 21.8941 24.6493
-11.6976 -10.2432 26.7731
27.3092 25.8084 11.3697
41.9061 17.0666 2.26061
32.0275 3.89116 21.4812
27.3092 25.8084 11.3697
32.0275 3.89116 21.4812
10.1827 33.5502 23.7772
27.3092 25.8084 11.3697
10.1827 33.5502 23.7772
16.4908 40.0073 12.8416
27.3092 25.8084 11.3697
16.4908 40.0073 12.8416
35.9392 34.5267 -3.51229
27.3092 25.8084 11.3697
35.9392 34.5267 -3.51229
41.9061 17.0666 2.26061
-4.84974 31.907 22.7832
-9.17097 18.3996 29.0499
15.4109 20.21 23.7157
-4.84974 31.907 22.7832
15.4109 20.21 23.7157
3.75135 41.6536 17.2347
-4.84974 31.907 22.7832
3.75135 41.6536 17.2347
-16.4329 41.6536 21.0141
-4.84974 31.907 22.7832
-16.4329 41.6536 21.0141
-17.807 37.6183 22.9018
-4.84974 31.907 22.7832
-17.807 37.6183 22.9018
-9.17097 18.3996 29.0499
-24.6534 33.4583 19.7375
-31.3006 31.3597 16.4943
-29.1361 23.8895 18.2691
-24.6534 33.4583 19.7375
-29.1361 23.8895 18.2691
-17.9563 23.8895 24.035
-24.6534 33.4583 19.7375
-17.9563 23.8895 24.035
-10.2693 20.8439 28.268
-24.6534 33.4583 19.7375
-10.2693 20.8439 28.268
-22.2843 47.5823 19.7143
-24.6534 33.4583 19.7375
-22.2843 47.5823 19.7143
-29.361 44.6596 16.3222
-24.6534 33.4583 19.7375
-29.361 44.6596 16.3222
-32.2662 41.9834 15.0598
-24.6534 33.4583 19.7375
-32.2662 41.9834 15.0598
-31.3006 31.3597 16.4943
-29.5719 5.66457 -26.5921
-32.2668 -14.4172 -20.5036
-24.4078 -1.65402 -40.3187
-29.5719 5.66457 -26.5921
-24.4078 -1.65402 -40.3187
-24.2372 9.65209 -40.253
-29.5719 5.66457 -26.5921
-24.2372 9.65209 -40.253
-37.376 29.0774 -5.29317
-29.5719 5.66457 -26.5921
-37.376 29.0774 -5.29317
-32.2668 -14.4172 -20.5036
-22.3186 28.2929 -29.5903
-24.3737 22.6321 -39.3154
-28.7584 26.8068 -27.7523
-22.3186 28.2929 -29.5903
-28.7584 26.8068 -27.7523
-23.9122 31.8962 -21.2405
-22.3186 28.2929 -29.5903
-23.9122 31.8962 -21.2405
-18.9051 30.8799 -26.9876
-22.3186 28.2929 -29.5903
-18.9051 30.8799 -26.9876
-15.6435 29.2498 -32.6557
-22.3186 28.2929 -29.5903
-15.6435 29.2498 -32.6557
-24.3737 22.6321 -39.3154
20.3442 44.3111 -5.45693
35.2164 38.0417 -12.1557
52.0563 29.9849 -17.0649
20.3442 44.3111 -5.45693
52.0563 29.9849 -17.0649
16.4907 40.0073 12.8416
20.3442 44.3111 -5.45693
16.4907 40.0073 12.8416
2.96051 49.5225 8.28708
20.3442 44.3111 -5.45693
2.96051 49.5225 8.28708
0.201227 54.1552 -0.163405
20.3442 44.3111 -5.45693
0.201227 54.1552 -0.163405
15.1397 54.1552 -24.4863
20.3442 44.3111 -5.45693
15.1397 54.1552 -24.4863
35.2164 38.0417 -12.1557
-2.04766 46.728 14.1736
16.4908 40.0073 12.8416
10.9597 34.3456 22.4302
-2.04766 46.728 14.1736
10.9597 34.3456 22.4302
-8.85842 41.5058 23.8835
-2.04766 46.728 14.1736
-8.85842 41.5058 23.8835
-14.3435 52.8571 13.0533
-2.04766 46.728 14.1736
-14.3435 52.8571 13.0533
-10.5316 55.8261 7.56339
-2.04766 46.728 14.1736
-10.5316 55.8261 7.56339
-6.00293 55.8261 5.26981
-2.04766 46.728 14.1736
-6.00293 55.8261 5.26981
16.4908 40.0073 12.8416
-30.6005 47.5133 -1.92868
-36.0533 43.1873 6.33795
-39.133 43.0029 -0.843544
-30.6005 47.5133 -1.92868
-39.133 43.0029 -0.843544
-38.6939 43.3499 -1.50186
-30.6005 47.5133 -1.92868
-38.6939 43.3499 -1.50186
-20.1943 54.0131 -8.49325
-30.6005 47.5133 -1.92868
-20.1943 54.0131 -8.49325
-18.9281 54.0131 -5.14271
-30.6005 47.5133 -1.92868
-18.9281 54.0131 -5.14271
-36.0533 43.1873 6.33795
-32.8212 36.8061 -6.02434
-36.8653 34.5255 -6.37313
-21.3795 31.3822 -24.1473
-32.8212 36.8061 -6.02434
-21.3795 31.3822 -24.1473
-20.7843 32.1364 -23.4225
-32.8212 36.8061 -6.02434
-20.7843 32.1364 -23.4225
-35.3376 41.8684 4.18762
-32.8212 36.8061 -6.02434
-35.3376 41.8684 4.18762
-40.712 40.7495 6.80046
-32.8212 36.8061 -6.02434
-40.712 40.7495 6.80046
-41.8485 40.1747 6.8088
-32.8212 36.8061 -6.02434
-41.8485 40.1747 6.8088
-36.8653 34.5255 -6.37313
-29.5119 43.8859 -1.28827
-36.0533 43.1873 6.33795
-36.2278 42.4637 5.87651
-29.5119 43.8859 -1.28827
-36.2278 42.4637 5.87651
-26.9075 36.2311 -11.8057
-29.5119 43.8859 -1.28827
-26.9075 36.2311 -11.8057
-21.1546 48.7738 -7.26358
-29.5119 43.8859 -1.28827
-21.1546 48.7738 -7.26358
-27.2161 48.7738 0.413506
-29.5119 43.8859 -1.28827
-27.2161 48.7738 0.413506
-36.0533 43.1873 6.33795
-34.9894 31.3333 7.90723
-38.6529 19.8796 -1.4955
-29.5181 11.7488 19.1423
-34.9894 31.3333 7.90723
-29.5181 11.7488 19.1423
-32.3955 43.4063 14.8677
-34.9894 31.3333 7.90723
-32.3955 43.4063 14.8677
-33.2203 43.357 12.9445
-34.9894 31.3333 7.90723
-33.2203 43.357 12.9445
-37.1847 38.4952 3.34593
-34.9894 31.3333 7.90723
-37.1847 38.4952 3.34593
-38.9647 31.1128 -1.36156
-34.9894 31.3333 7.90723
-38.9647 31.1128 -1.36156
-38.6529 19.8796 -1.4955
-29.5518 7.78571 9.94261
-26.1786 -2.99998 13.0982
-32.6945 -2.99998 -2.48372
-29.5518 7.78571 9.94261
-32.6945 -2.99998 -2.48372
-35.3903 13.6347 -1.3564
-29.5518 7.78571 9.94261
-35.3903 13.6347 -1.3564
-28.5747 21.9521 18.7294
-29.5518 7.78571 9.94261
-28.5747 21.9521 18.7294
-24.9208 9.34164 21.7255
-29.5518 7.78571 9.94261
-24.9208 9.34164 21.7255
-26.1786 -2.99998 13.0982
-9.42491 -55.0181 -22.0114
-16.8877 -43.8762 -32.9801
-4.82866 -56.83 3.01211
-9.42491 -55.0181 -22.0114
-4.82866 -56.83 3.01211
-6.55837 -64.3483 -36.0663
-9.42491 -55.0181 -22.0114
-6.55837 -64.3483 -36.0663
-16.8877 -43.8762 -32.9801
-14.2043 -45.306 -19.7167
-16.8877 -43.8762 -32.9801
-20.8966 -35.212 -29.1821
-14.2043 -45.306 -19.7167
-20.8966 -35.212 -29.1821
-4.82866 -56.83 3.01211
-14.2043 -45.306 -19.7167
-4.82866 -56.83 3.01211
-16.8877 -43.8762 -32.9801
-9.4311 -32.9228 -30.0856
-16.8877 -43.8762 -32.9801
-20.8966 -35.212 -29.1821
-9.4311 -32.9228 -30.0856
-20.8966 -35.212 -29.1821
9.49099 -19.6801 -28.0947
-9.4311 -32.9228 -30.0856
9.49099 -19.6801 -28.0947
-16.8877 -43.8762 -32.9801
-11.1663 -24.0309 -28.517
-15.3051 -17.7296 -28.1448
-20.8966 -35.212 -29.1821
-11.1663 -24.0309 -28.517
-20.8966 -35.212 -29.1821
2.70271 -19.151 -28.2242
-11.1663 -24.0309 -28.517
2.70271 -19.151 -28.2242
-15.3051 -17.7296 -28.1448
6.63835 -19.4299 -27.4837
2.70271 -19.151 -28.2242
7.72135 -19.4587 -26.1323
6.63835 -19.4299 -27.4837
7.72135 -19.4587 -26.1323
9.49099 -19.6801 -28.0947
6.63835 -19.4299 -27.4837
9.49099 -19.6801 -28.0947
2.70271 -19.151 -28.2242
-2.90096 -24.681 -28.5003
-20.8966 -35.212 -29.1821
9.49099 -19.6801 -28.0947
-2.90096 -24.681 -28.5003
9.49099 -19.6801 -28.0947
2.70271 -19.151 -28.2242
-2.90096 -24.681 -28.5003
2.70271 -19.151 -28.2242
-20.8966 -35.212 -29.1821
43.3408 -44.468 -11.8959
42.4744 -40.1686 -11.4951
43.4389 -46.7471 -12.3184
43.3408 -44.468 -11.8959
43.4389 -46.7471 -12.3184
44.1092 -46.4884 -11.8741
43.3408 -44.468 -11.8959
44.1092 -46.4884 -11.8741
42.4744 -40.1686 -11.4951
41.8785 -40.1635 -4.38396
44.1092 -46.4884 -11.8741
40.4961 -43.6832 8.98477
41.8785 -40.1635 -4.38396
40.4961 -43.6832 8.98477
41.0304 -30.3189 -10.2625
41.8785 -40.1635 -4.38396
41.0304 -30.3189 -10.2625
44.1092 -46.4884 -11.8741
39.0956 -30.2649 5.55979
41.0304 -30.3189 -10.2625
40.4961 -43.6832 8.98477
39.0956 -30.2649 5.55979
40.4961 -43.6832 8.98477
35.7603 -16.7927 17.9572
39.0956 -30.2649 5.55979
35.7603 -16.7927 17.9572
41.0304 -30.3189 -10.2625
38.1203 -34.1008 16.5776
35.7603 -16.7927 17.9572
38.1046 -41.8265 22.7908
38.1203 -34.1008 16.5776
38.1046 -41.8265 22.7908
40.4961 -43.6832 8.98477
38.1203 -34.1008 16.5776
40.4961 -43.6832 8.98477
35.7603 -16.7927 17.9572
35.7937 -33.7677 21.8518
35.7603 -16.7927 17.9572
33.5161 -42.684 24.8075
35.7937 -33.7677 21.8518
33.5161 -42.684 24.8075
38.1046 -41.8265 22.7908
35.7937 -33.7677 21.8518
38.1046 -41.8265 22.7908
35.7603 -16.7927 17.9572
31.5675 -17.834 21.8258
35.7603 -16.7927 17.9572
25.426 5.97461 22.7128
31.5675 -17.834 21.8258
25.426 5.97461 22.7128
33.5161 -42.684 24.8075
31.5675 -17.834 21.8258
33.5161 -42.684 24.8075
35.7603 -16.7927 17.9572
31.0712 -2.30896 20.717
35.7603 -16.7927 17.9572
25.426 5.97461 22.7128
31.0712 -2.30896 20.717
25.426 5.97461 22.7128
32.0275 3.89116 21.4812
31.0712 -2.30896 20.717
32.0275 3.89116 21.4812
35.7603 -16.7927 17.9572
33.4915 -1.96393 19.0049
32.0275 3.89116 21.4812
32.6868 7.00969 17.5763
33.4915 -1.96393 19.0049
32.6868 7.00969 17.5763
35.7603 -16.7927 17.9572
33.4915 -1.96393 19.0049
35.7603 -16.7927 17.9572
32.0275 3.89116 21.4812
39.8654 -25.1332 -9.84898
44.1092 -46.4884 -11.8741
38.0372 -23.0145 -10.4665
39.8654 -25.1332 -9.84898
38.0372 -23.0145 -10.4665
37.4498 -5.89664 -7.20633
39.8654 -25.1332 -9.84898
37.4498 -5.89664 -7.20633
44.1092 -46.4884 -11.8741
36.4121 -16.6168 -10.0656
37.4498 -5.89659 -7.20631
38.0372 -23.0145 -10.4665
36.4121 -16.6168 -10.0656
38.0372 -23.0145 -10.4665
33.7492 -20.9393 -12.5239
36.4121 -16.6168 -10.0656
33.7492 -20.9393 -12.5239
37.4498 -5.89659 -7.20631
28.981 -15.5955 -14.1729
33.7492 -20.9393 -12.5239
37.4498 -5.89664 -7.20633
28.981 -15.5955 -14.1729
37.4498 -5.89664 -7.20633
15.7439 -19.9506 -22.7884
28.981 -15.5955 -14.1729
15.7439 -19.9506 -22.7884
33.7492 -20.9393 -12.5239
11.8961 -19.8165 -26.8263
11.9238 -19.7164 -24.3807
14.2735 -20.0529 -28.0035
11.8961 -19.8165 -26.8263
14.2735 -20.0529 -28.0035
9.49099 -19.6801 -28.0947
11.8961 -19.8165 -26.8263
9.49099 -19.6801 -28.0947
11.9238 -19.7164 -24.3807
9.71206 -19.6184 -26.2026
11.9238 -19.7164 -24.3807
7.72135 -19.4587 -26.1323
9.71206 -19.6184 -26.2026
7.72135 -19.4587 -26.1323
9.49099 -19.6801 -28.0947
9.71206 -19.6184 -26.2026
9.49099 -19.6801 -28.0947
11.9238 -19.7164 -24.3807
20.7634 -44.5846 -28.9934
24.3177 -54.1274 -24.9929
30.574 -53.9323 -33.1363
20.7634 -44.5846 -28.9934
30.574 -53.9323 -33.1363
7.39841 -25.6941 -28.851
20.7634 -44.5846 -28.9934
7.39841 -25.6941 -28.851
24.3177 -54.1274 -24.9929
-21.758 -22.9901 -24.4295
-20.8966 -35.212 -29.1821
-15.3051 -17.7296 -28.1448
-21.758 -22.9901 -24.4295
-15.3051 -17.7296 -28.1448
-29.0722 -16.0288 -15.9618
-21.758 -22.9901 -24.4295
-29.0722 -16.0288 -15.9618
-20.8966 -35.212 -29.1821
-29.9063 -15.4916 -15.8907
-32.2668 -14.4172 -20.5036
-29.0722 -16.0288 -15.9618
-29.9063 -15.4916 -15.8907
-29.0722 -16.0288 -15.9618
-28.3801 -16.0288 -11.2066
-29.9063 -15.4916 -15.8907
-28.3801 -16.0288 -11.2066
-32.2668 -14.4172 -20.5036
-31.1554 -13.3861 -16.8562
-28.3801 -16.0288 -11.2066
-32.8194 -9.71232 -18.8583
-31.1554 -13.3861 -16.8562
-32.8194 -9.71232 -18.8583
-32.2668 -14.4172 -20.5036
-31.1554 -13.3861 -16.8562
-32.2668 -14.4172 -20.5036
-28.3801 -16.0288 -11.2066
21.4729 -55.9653 -30.9754
30.574 -53.9323 -33.1363
24.3177 -54.1274 -24.9929
21.4729 -55.9653 -30.9754
24.3177 -54.1274 -24.9929
9.5269 -59.8362 -34.797
21.4729 -55.9653 -30.9754
9.5269 -59.8362 -34.797
30.574 -53.9323 -33.1363
-8.97886 -38.5844 25.5809
-11.6158 -24.7346 27.7307
-11.756 -39.682 17.4468
-8.97886 -38.5844 25.5809
-11.756 -39.682 17.4468
-3.56482 -51.3366 31.5652
-8.97886 -38.5844 25.5809
-3.56482 -51.3366 31.5652
-11.6158 -24.7346 27.7307
-5.99253 -42.2518 31.1138
-3.56482 -51.3366 31.5652
-2.797 -50.6843 34.0454
-5.99253 -42.2518 31.1138
-2.797 -50.6843 34.0454
-11.6158 -24.7346 27.7307
-5.99253 -42.2518 31.1138
-11.6158 -24.7346 27.7307
-3.56482 -51.3366 31.5652
-13.6356 -19.9847 23.7178
-11.6158 -24.7346 27.7307
-11.6579 -17.275 27.2378
-13.6356 -19.9847 23.7178
-11.6579 -17.275 27.2378
-17.6331 -17.9445 16.1848
-13.6356 -19.9847 23.7178
-17.6331 -17.9445 16.1848
-11.6158 -24.7346 27.7307
-13.6683 -27.4537 20.4541
-11.6158 -24.7346 27.7307
-11.756 -39.682 17.4468
-13.6683 -27.4537 20.4541
-11.756 -39.682 17.4468
-17.6331 -17.9445 16.1848
-13.6683 -27.4537 20.4541
-17.6331 -17.9445 16.1848
-11.6158 -24.7346 27.7307
-13.6629 -15.1542 23.3986
-17.6331 -17.9445 16.1848
-11.6579 -17.275 27.2378
-13.6629 -15.1542 23.3986
-11.6579 -17.275 27.2378
-11.6976 -10.2432 26.7731
-13.6629 -15.1542 23.3986
-11.6976 -10.2432 26.7731
-17.6331 -17.9445 16.1848
-17.8657 -5.23234 20.5434
-11.6976 -10.2432 26.7731
-24.2665 12.4907 18.6721
-17.8657 -5.23234 20.5434
-24.2665 12.4907 18.6721
-17.6331 -17.9445 16.1848
-17.8657 -5.23234 20.5434
-17.6331 -17.9445 16.1848
-11.6976 -10.2432 26.7731
-21.6146 19.9718 19.6068
-28.698 25.5305 15.4989
-24.2665 12.4907 18.6721
-21.6146 19.9718 19.6068
-24.2665 12.4907 18.6721
-11.8792 21.8941 24.6493
-21.6146 19.9718 19.6068
-11.8792 21.8941 24.6493
-28.698 25.5305 15.4989
-15.9478 8.04721 23.3649
-11.8792 21.8941 24.6493
-24.2665 12.4907 18.6721
-15.9478 8.04721 23.3649
-24.2665 12.4907 18.6721
-11.6976 -10.2432 26.7731
-15.9478 8.04721 23.3649
-11.6976 -10.2432 26.7731
-11.8792 21.8941 24.6493
-6.88948 -14.931 29.6191
-11.6976 -10.2432 26.7731
-11.6579 -17.275 27.2378
-6.88948 -14.931 29.6191
-11.6579 -17.275 27.2378
2.68711 -17.275 34.8466
-6.88948 -14.931 29.6191
2.68711 -17.275 34.8466
-11.6976 -10.2432 26.7731
-2.22166 -12.7502 31.9575
2.68711 -17.275 34.8466
2.34554 -10.7323 34.2527
-2.22166 -12.7502 31.9575
2.34554 -10.7323 34.2527
-11.6976 -10.2432 26.7731
-2.22166 -12.7502 31.9575
-11.6976 -10.2432 26.7731
2.68711 -17.275 34.8466
4.60713 -5.95551 29.4558
2.34554 -10.7323 34.2527
8.52057 -4.92535 27.136
4.60713 -5.95551 29.4558
8.52057 -4.92535 27.136
2.95529 -2.20884 26.9788
4.60713 -5.95551 29.4558
2.95529 -2.20884 26.9788
2.34554 -10.7323 34.2527
-2.13227 -7.72811 29.3349
-11.6976 -10.2432 26.7731
2.95529 -2.20884 26.9788
-2.13227 -7.72811 29.3349
2.95529 -2.20884 26.9788
2.34554 -10.7323 34.2527
-2.13227 -7.72811 29.3349
2.34554 -10.7323 34.2527
-11.6976 -10.2432 26.7731
4.828 2.24187 26.6796
8.52057 -4.92535 27.136
3.00815 13.8598 25.9241
4.828 2.24187 26.6796
3.00815 13.8598 25.9241
2.95529 -2.20884 26.9788
4.828 2.24187 26.6796
2.95529 -2.20884 26.9788
8.52057 -4.92535 27.136
6.55597 9.37856 26.1302
8.52057 -4.92535 27.136
8.13918 19.2012 25.3306
6.55597 9.37856 26.1302
8.13918 19.2012 25.3306
3.00815 13.8598 25.9241
6.55597 9.37856 26.1302
3.00815 13.8598 25.9241
8.52057 -4.92535 27.136
0.844702 17.325 26.7155
-9.17097 18.3996 29.0499
3.00815 13.8598 25.9241
0.844702 17.325 26.7155
3.00815 13.8598 25.9241
8.69693 19.7155 25.1726
0.844702 17.325 26.7155
8.69693 19.7155 25.1726
-9.17097 18.3996 29.0499
-6.014 18.0512 26.5411
-11.8792 21.8941 24.6493
-9.17097 18.3996 29.0499
-6.014 18.0512 26.5411
-9.17097 18.3996 29.0499
3.00815 13.8598 25.9241
-6.014 18.0512 26.5411
3.00815 13.8598 25.9241
-11.8792 21.8941 24.6493
-10.4398 20.3792 27.3224
-11.8792 21.8941 24.6493
-10.2693 20.8439 28.268
-10.4398 20.3792 27.3224
-10.2693 20.8439 28.268
-9.17097 18.3996 29.0499
-10.4398 20.3792 27.3224
-9.17097 18.3996 29.0499
-11.8792 21.8941 24.6493
-16.9488 22.7562 22.8054
-10.2693 20.8439 28.268
-11.8792 21.8941 24.6493
-16.9488 22.7562 22.8054
-11.8792 21.8941 24.6493
-28.698 25.5305 15.4989
-16.9488 22.7562 22.8054
-28.698 25.5305 15.4989
-10.2693 20.8439 28.268
-26.7344 24.4365 18.5091
-33.549 23.8895 15.9932
-28.698 25.5305 15.4989
-26.7344 24.4365 18.5091
-28.698 25.5305 15.4989
-17.9563 23.8895 24.035
-26.7344 24.4365 18.5091
-17.9563 23.8895 24.035
-33.549 23.8895 15.9932
27.134 8.24189 22.1748
23.9487 14.8599 22.3303
25.426 5.97461 22.7128
27.134 8.24189 22.1748
25.426 5.97461 22.7128
32.0275 3.89116 21.4812
27.134 8.24189 22.1748
32.0275 3.89116 21.4812
23.9487 14.8599 22.3303
15.1217 24.7638 23.4208
10.1827 33.5502 23.7772
19.7716 20.5312 22.7694
15.1217 24.7638 23.4208
19.7716 20.5312 22.7694
15.4109 20.21 23.7157
15.1217 24.7638 23.4208
15.4109 20.21 23.7157
10.1827 33.5502 23.7772
11.8843 33.957 17.9307
3.75135 41.6536 17.2347
15.4109 20.21 23.7157
11.8843 33.957 17.9307
15.4109 20.21 23.7157
16.4908 40.0073 12.8416
11.8843 33.957 17.9307
16.4908 40.0073 12.8416
3.75135 41.6536 17.2347
-18.8414 42.2847 21.2101
-17.807 37.6183 22.9018
-16.4329 41.6536 21.0141
-18.8414 42.2847 21.2101
-16.4329 41.6536 21.0141
-22.2843 47.5823 19.7143
-18.8414 42.2847 21.2101
-22.2843 47.5823 19.7143
-17.807 37.6183 22.9018
-10.9588 47.3643 16.6674
-22.2843 47.5823 19.7143
-14.3435 52.8571 13.0533
-10.9588 47.3643 16.6674
-14.3435 52.8571 13.0533
3.75135 41.6536 17.2347
-10.9588 47.3643 16.6674
3.75135 41.6536 17.2347
-22.2843 47.5823 19.7143
-11.6553 43.6298 19.321
-22.2843 47.5823 19.7143
-16.4329 41.6536 21.0141
-11.6553 43.6298 19.321
-16.4329 41.6536 21.0141
3.75135 41.6536 17.2347
-11.6553 43.6298 19.321
3.75135 41.6536 17.2347
-22.2843 47.5823 19.7143
-31.3409 43.3498 15.4166
-32.3955 43.4063 14.8677
-32.2662 41.9834 15.0598
-31.3409 43.3498 15.4166
-32.2662 41.9834 15.0598
-29.361 44.6596 16.3222
-31.3409 43.3498 15.4166
-29.361 44.6596 16.3222
-32.3955 43.4063 14.8677
-38.3312 26.6899 -2.71674
-37.376 29.0774 -5.29317
-38.9647 31.1128 -1.36156
-38.3312 26.6899 -2.71674
-38.9647 31.1128 -1.36156
-38.6529 19.8796 -1.4955
-38.3312 26.6899 -2.71674
-38.6529 19.8796 -1.4955
-37.376 29.0774 -5.29317
-37.6628 24.8292 -4.44074
-36.9594 25.5305 -6.53356
-37.376 29.0774 -5.29317
-37.6628 24.8292 -4.44074
-37.376 29.0774 -5.29317
-38.6529 19.8796 -1.4955
-37.6628 24.8292 -4.44074
-38.6529 19.8796 -1.4955
-36.9594 25.5305 -6.53356
3 0 1 2
3 3 4 5
3 6 7 8
3 9 10 11
3 12 13 14
3 15 16 17
3 18 19 20
3 21 22 23
3 24 25 26
3 27 28 29
3 30 31 32
3 33 34 35
3 36 37 38
3 39 40 41
3 42 43 44
3 45 46 47
3 48 49 50
3 51 52 53
3 54 55 56
3 57 58 59
3 60 61 62
3 63 64 65
3 66 67 68
3 69 70 71
3 72 73 74
3 75 76 77
3 78 79 80
3 81 82 83
3 84 85 86
3 87 88 89
3 90 91 92
3 93 94 95
3 96 97 98
3 99 100 101
3 102 103 104
3 105 106 107
3 108 109 110
3 111 112 113
3 114 115 116
3 117 118 119
3 120 121 122
3 123 124 125
3 126 127 128
3 129 130 131
3 132 133 134
3 135 136 137
3 138 139 140
3 141 142 143
3 144 145 146
3 147 148 149
3 150 151 152
3 153 154 155
3 156 157 158
3 159 160 161
3 162 163 164
3 165 166 167
3 168 169 170
3 171 172 173
3 174 175 176
3 177 178 179
3 180 181 182
3 183 184 185
3 186 187 188
3 189 190 191
3 192 193 194
3 195 196 197
3 198 199 200
3 201 202 203
3 204 205 206
3 207 208 209
3 210 211 212
3 213 214 215
3 216 217 218
3 219 220 221
3 222 223 224
3 225 226 227
3 228 229 230
3 231 232 233
3 234 235 236
3 237 238 239
3 240 241 242
3 243 244 245
3 246 247 248
3 249 250 251
3 252 253 254
3 255 256 257
3 258 259 260
3 261 262 263
3 264 265 266
3 267 268 269
3 270 271 272
3 273 274 275
3 276 277 278
3 279 280 281
3 282 283 284
3 285 286 287
3 288 289 290
3 291 292 293
3 294 295 296
3 297 298 299
3 300 301 302
3 303 304 305
3 306 307 308
3 309 310 311
3 312 313 314
3 315 316 317
3 318 319 320
3 321 322 323
3 324 325 326
3 327 328 329
3 330 331 332
3 333 334 335
3 336 337 338
3 339 340 341
3 342 343 344
3 345 346 347
3 348 349 350
3 351 352 353
3 354 355 356
3 357 358 359
3 360 361 362
3 363 364 365
3 366 367 368
3 369 370 371
3 372 373 374
3 375 376 377
3 378 379 380
3 381 382 383
3 384 385 386
3 387 388 389
3 390 391 392
3 393 394 395
3 396 397 398
3 399 400 401
3 402 403 404
3 405 406 407
3 408 409 410
3 411 412 413
3 414 415 416
3 417 418 419
3 420 421 422
3 423 424 425
3 426 427 428
3 429 430 431
3 432 433 434
3 435 436 437
3 438 439 440
3 441 442 443
3 444 445 446
3 447 448 449
3 450 451 452
3 453 454 455
3 456 457 458
3 459 460 461
3 462 463 464
3 465 466 467
3 468 469 470
3 471 472 473
3 474 475 476
3 477 478 479
3 480 481 482
3 483 484 485
3 486 487 488
3 489 490 491
3 492 493 494
3 495 496 497
3 498 499 500
3 501 502 503
3 504 505 506
3 507 508 509
3 510 511 512
3 513 514 515
3 516 517 518
3 519 520 521
3 522 523 524
3 525 526 527
3 528 529 530
3 531 532 533
3 534 535 536
3 537 538 539
3 540 541 542
3 543 544 545
3 546 547 548
3 549 550 551
3 552 553 554
3 555 556 557
3 558 559 560
3 561 562 563
3 564 565 566
3 567 568 569
3 570 571 572
3 573 574 575
3 576 577 578
3 579 580 581
3 582 583 584
3 585 586 587
3 588 589 590
3 591 592 593
3 594 595 596
3 597 598 599
3 600 601 602
3 603 604 605
3 606 607 608
3 609 610 611
3 612 613 614
3 615 616 617
3 618 619 620
3 621 622 623
3 624 625 626
3 627 628 629
3 630 631 632
3 633 634 635
3 636 637 638
3 639 640 641
3 642 643 644
3 645 646 647
3 648 649 650
3 651 652 653
3 654 655 656
3 657 658 659
3 660 661 662
3 663 664 665
3 666 667 668
3 669 670 671
3 672 673 674
3 675 676 677
3 678 679 680
3 681 682 683
3 684 685 686
3 687 688 689
3 690 691 692
3 693 694 695
3 696 697 698
3 699 700 701
3 702 703 704
3 705 706 707
3 708 709 710
3 711 712 713
3 714 715 716
3 717 718 719
3 720 721 722
3 723 724 725
3 726 727 728
3 729 730 731
3 732 733 734
3 735 736 737
3 738 739 740
3 741 742 743
3 744 745 746
3 747 748 749
3 750 751 752
3 753 754 755
3 756 757 758
3 759 760 761
3 762 763 764
3 765 766 767
3 768 769 770
3 771 772 773
3 774 775 776
3 777 778 779
3 780 781 782
3 783 784 785
3 786 787 788
3 789 790 791
3 792 793 794
3 795 796 797
3 798 799 800
3 801 802 803
3 804 805 806
3 807 808 809
3 810 811 812
3 813 814 815
3 816 817 818
3 819 820 821
3 822 823 824
3 825 826 827
3 828 829 830
3 831 832 833
3 834 835 836
3 837 838 839
3 840 841 842
3 843 844 845
3 846 847 848
3 849 850 851
3 852 853 854
3 855 856 857
3 858 859 860
3 861 862 863
3 864 865 866
3 867 868 869
3 870 871 872
3 873 874 875
3 876 877 878
3 879 880 881
3 882 883 884
3 885 886 887
3 888 889 890
3 891 892 893
3 894 895 896
3 897 898 899
3 900 901 902
3 903 904 905
3 906 907 908
3 909 910 911
3 912 913 914
3 915 916 917
3 918 919 920
3 921 922 923
3 924 925 926
3 927 928 929
3 930 931 932
3 933 934 935
3 936 937 938
3 939 940 941
3 942 943 944
3 945 946 947
3 948 949 950
3 951 952 953
3 954 955 956
3 957 958 959
3 960 961 962
3 963 964 965
3 966 967 968
3 969 970 971
3 972 973 974
3 975 976 977
3 978 979 980
3 981 982 983
3 984 985 986
3 987 988 989
3 990 991 992
3 993 994 995
3 996 997 998
3 999 1000 1001
3 1002 1003 1004
3 1005 1006 1007
3 1008 1009 1010
3 1011 1012 1013
3 1014 1015 1016
3 1017 1018 1019
3 1020 1021 1022
3 1023 1024 1025
