ply
format ascii 1.0
element vertex 681
property float x
property float y
property float z
element face 227
property list uchar int vertex_indices
end_header
-26.9068 -35.9351 7.16202
-38.0597 -66.648 22.4628
-22.185 -68.7911 -35.3423
-26.9068 -35.9351 7.16202
-22.185 -68.7911 -35.3423
-15.1334 -35.0798 -33.7883
-26.9068 -35.9351 7.16202
-15.1334 -35.0798 -33.7883
-25.6993 -3.49025 28.3815
-26.9068 -35.9351 7.16202
-25.6993 -3.49025 28.3815
-26.9947 -5.01014 31.767
-26.9068 -35.9351 7.16202
-26.9947 -5.01014 31.767
-33.3688 -36.5913 29.4913
-26.9068 -35.9351 7.16202
-33.3688 -36.5913 29.4913
-38.0597 -66.648 22.4628
13.161 -47.7856 -26.7365
-5.93823 -59.2713 -34.4916
-4.20796 -63.773 -33.8079
13.161 -47.7856 -26.7365
-4.20796 -63.773 -33.8079
-3.74413 -63.5157 -33.6197
13.161 -47.7856 -26.7365
-3.74413 -63.5157 -33.6197
20.6811 -63.5157 -23.7519
13.161 -47.7856 -26.7365
20.6811 -63.5157 -23.7519
32.0929 -62.0103 -19.1365
13.161 -47.7856 -26.7365
32.0929 -62.0103 -19.1365
32.0875 -57.413 -19.123
13.161 -47.7856 -26.7365
32.0875 -57.413 -19.123
25.7296 -31.1979 -21.6023
13.161 -47.7856 -26.7365
25.7296 -31.1979 -21.6023
19.6417 -18.9003 -24.0199
13.161 -47.7856 -26.7365
19.6417 -18.9003 -24.0199
2.10668 -10.4735 -31.0753
13.161 -47.7856 -26.7365
2.10668 -10.4735 -31.0753
-5.93823 -59.2713 -34.4916
29.1963 -36.859 -11.3732
35.2902 -60.9336 -7.91541
33.1681 -61.8685 -18.7016
29.1963 -36.859 -11.3732
33.1681 -61.8685 -18.7016
25.7296 -31.1979 -21.6023
29.1963 -36.859 -11.3732
25.7296 -31.1979 -21.6023
21.9877 -9.87432 -16.9996
29.1963 -36.859 -11.3732
21.9877 -9.87432 -16.9996
29.8061 -20.4207 8.35278
29.1963 -36.859 -11.3732
29.8061 -20.4207 8.35278
35.2902 -60.9336 -7.91541
-30.1219 5.9445 -6.88779
-26.3159 -1.64694 32.0093
-15.1334 -35.0797 -33.7883
-30.1219 5.9445 -6.88779
-15.1334 -35.0797 -33.7883
-33.9998 14.9461 -26.0248
-30.1219 5.9445 -6.88779
-33.9998 14.9461 -26.0248
-34.124 15.293 -25.6887
-30.1219 5.9445 -6.88779
-34.124 15.293 -25.6887
-35.8856 21.0773 -6.94565
-30.1219 5.9445 -6.88779
-35.8856 21.0773 -6.94565
-35.2724 21.0773 19.1113
-30.1219 5.9445 -6.88779
-35.2724 21.0773 19.1113
-26.3159 -1.64694 32.0093
16.2614 -2.11486 -20.9579
25.7296 -31.198 -21.6023
17.6094 15.0765 -11.6139
16.2614 -2.11486 -20.9579
17.6094 15.0765 -11.6139
5.44514 9.7769 -29.6576
16.2614 -2.11486 -20.9579
5.44514 9.7769 -29.6576
25.7296 -31.198 -21.6023
8.51444 -40.0162 39.9283
4.9119 -60.2117 51.4816
28.3318 -59.2637 28.495
8.51444 -40.0162 39.9283
28.3318 -59.2637 28.495
3.38004 -17.8015 36.0015
8.51444 -40.0162 39.9283
3.38004 -17.8015 36.0015
-2.56594 -22.7877 43.735
8.51444 -40.0162 39.9283
-2.56594 -22.7877 43.735
4.9119 -60.2117 51.4816
-23.7864 -32.8395 34.0169
-3.20929 -61.996 37.3883
-38.0597 -66.648 22.4628
-23.7864 -32.8395 34.0169
-38.0597 -66.648 22.4628
-27.7912 -0.854081 37.848
-23.7864 -32.8395 34.0169
-27.7912 -0.854081 37.848
-26.0852 -1.85974 38.3683
-23.7864 -32.8395 34.0169
-26.0852 -1.85974 38.3683
-3.20929 -61.996 37.3883
8.67927 -0.502936 34.1573
13.9716 -35.4014 32.8151
21.2997 -15.0892 30.2994
8.67927 -0.502936 34.1573
21.2997 -15.0892 30.2994
21.1905 24.5308 29.9546
8.67927 -0.502936 34.1573
21.1905 24.5308 29.9546
-21.7447 23.948 43.5599
8.67927 -0.502936 34.1573
-21.7447 23.948 43.5599
13.9716 -35.4014 32.8151
26.265 15.6319 15.2916
29.1631 -15.67 10.2605
29.4643 19.9651 -4.28001
26.265 15.6319 15.2916
29.4643 19.9651 -4.28001
23.2189 29.9518 27.2769
26.265 15.6319 15.2916
23.2189 29.9518 27.2769
23.2136 28.2806 27.9091
26.265 15.6319 15.2916
23.2136 28.2806 27.9091
29.1631 -15.67 10.2605
-29.0805 31.8584 24.1984
-26.3159 -1.64693 32.0093
-37.9694 27.9201 15.2274
-29.0805 31.8584 24.1984
-37.9694 27.9201 15.2274
-37.6307 38.3358 14.0851
-29.0805 31.8584 24.1984
-37.6307 38.3358 14.0851
-37.5138 39.9572 13.9762
-29.0805 31.8584 24.1984
-37.5138 39.9572 13.9762
-17.6541 44.0514 34.6995
-29.0805 31.8584 24.1984
-17.6541 44.0514 34.6995
-17.399 42.533 35.1928
-29.0805 31.8584 24.1984
-17.399 42.533 35.1928
-26.3159 -1.64693 32.0093
5.84013 34.1103 31.1258
-14.2929 24.0492 41.1986
23.2018 24.5581 29.3173
5.84013 34.1103 31.1258
23.2018 24.5581 29.3173
23.2189 29.9518 27.2769
5.84013 34.1103 31.1258
23.2189 29.9518 27.2769
14.727 47.9409 23.1368
5.84013 34.1103 31.1258
14.727 47.9409 23.1368
-17.6541 44.0514 34.6995
5.84013 34.1103 31.1258
-17.6541 44.0514 34.6995
-14.2929 24.0492 41.1986
20.5154 37.6057 5.40319
23.2189 29.9518 27.2769
27.9752 22.3463 3.24425
20.5154 37.6057 5.40319
27.9752 22.3463 3.24425
19.4085 41.7003 -13.8042
20.5154 37.6057 5.40319
19.4085 41.7003 -13.8042
17.2474 46.089 -12.8377
20.5154 37.6057 5.40319
17.2474 46.089 -12.8377
14.7269 47.941 23.1368
20.5154 37.6057 5.40319
14.7269 47.941 23.1368
23.2189 29.9518 27.2769
9.44059 33.3398 -21.0988
2.24385 16.8531 -30.6593
9.62897 22.4639 -25.4945
9.44059 33.3398 -21.0988
9.62897 22.4639 -25.4945
17.5518 38.0481 -16.0237
9.44059 33.3398 -21.0988
17.5518 38.0481 -16.0237
16.4579 45.9547 -13.1986
9.44059 33.3398 -21.0988
16.4579 45.9547 -13.1986
1.32046 43.3793 -20.1178
9.44059 33.3398 -21.0988
1.32046 43.3793 -20.1178
2.24385 16.8531 -30.6593
-25.4602 30.6654 -22.8852
-34.1878 16.5815 -24.7795
-30.1416 19.398 -26.3642
-25.4602 30.6654 -22.8852
-30.1416 19.398 -26.3642
-14.3868 37.5769 -27.7501
-25.4602 30.6654 -22.8852
-14.3868 37.5769 -27.7501
-13.2942 40.913 -26.4697
-25.4602 30.6654 -22.8852
-13.2942 40.913 -26.4697
-35.2906 38.8577 -9.06266
-25.4602 30.6654 -22.8852
-35.2906 38.8577 -9.06266
-34.1878 16.5815 -24.7795
-36.2406 30.5037 -1.40378
-37.9694 27.9201 15.2274
-34.124 15.293 -25.6887
-36.2406 30.5037 -1.40378
-34.124 15.293 -25.6887
-35.2906 38.8577 -9.06267
-36.2406 30.5037 -1.40378
-35.2906 38.8577 -9.06267
-37.5785 39.9439 13.9088
-36.2406 30.5037 -1.40378
-37.5785 39.9439 13.9088
-37.9694 27.9201 15.2274
-11.6876 42.7484 -0.308591
-37.5785 39.9439 13.9088
-35.2906 38.8577 -9.06264
-11.6876 42.7484 -0.308591
-35.2906 38.8577 -9.06264
-13.0887 40.9322 -26.6323
-11.6876 42.7484 -0.308591
-13.0887 40.9322 -26.6323
-10.1757 41.4234 -25.3725
-11.6876 42.7484 -0.308591
-10.1757 41.4234 -25.3725
17.2474 46.089 -12.8377
-11.6876 42.7484 -0.308591
17.2474 46.089 -12.8377
14.727 47.941 23.1368
-11.6876 42.7484 -0.308591
14.727 47.941 23.1368
-17.6541 44.0514 34.6995
-11.6876 42.7484 -0.308591
-17.6541 44.0514 34.6995
-37.5785 39.9439 13.9088
-16.4052 17.1704 -29.1095
-15.1334 -35.0798 -33.7883
-30.6283 6.0062 -27.4121
-16.4052 17.1704 -29.1095
-30.6283 6.0062 -27.4121
-30.4286 19.0668 -26.3389
-16.4052 17.1704 -29.1095
-30.4286 19.0668 -26.3389
-8.90917 43.8974 -28.232
-16.4052 17.1704 -29.1095
-8.90917 43.8974 -28.232
3.07345 51.9614 -29.776
-16.4052 17.1704 -29.1095
3.07345 51.9614 -29.776
-15.1334 -35.0798 -33.7883
5.39069 -63.2382 4.84312
-20.7646 -68.9829 -40.5145
-38.0597 -66.648 22.4628
5.39069 -63.2382 4.84312
-38.0597 -66.648 22.4628
12.4417 -59.9069 44.0911
5.39069 -63.2382 4.84312
12.4417 -59.9069 44.0911
40.1681 -58.7846 16.8777
5.39069 -63.2382 4.84312
40.1681 -58.7846 16.8777
33.1681 -61.8685 -18.7016
5.39069 -63.2382 4.84312
33.1681 -61.8685 -18.7016
-20.7646 -68.9829 -40.5145
19.2971 25.2897 -10.8927
26.4035 25.8971 0.116412
25.7842 18.6381 0.512061
19.2971 25.2897 -10.8927
25.7842 18.6381 0.512061
12.489 12.8457 -19.2092
19.2971 25.2897 -10.8927
12.489 12.8457 -19.2092
10.7021 24.5747 -24.2117
19.2971 25.2897 -10.8927
10.7021 24.5747 -24.2117
17.0345 37.0306 -16.642
19.2971 25.2897 -10.8927
17.0345 37.0306 -16.642
23.3693 32.752 -5.92189
19.2971 25.2897 -10.8927
23.3693 32.752 -5.92189
26.4035 25.8971 0.116412
35.0881 -46.713 5.77169
40.1681 -58.7846 16.8777
35.2902 -60.9336 -7.91541
35.0881 -46.713 5.77169
35.2902 -60.9336 -7.91541
29.8061 -20.4207 8.35278
35.0881 -46.713 5.77169
29.8061 -20.4207 8.35278
40.1681 -58.7846 16.8777
33.0457 -31.6251 11.8303
29.8061 -20.4207 8.35278
29.1631 -15.67 10.2605
33.0457 -31.6251 11.8303
29.1631 -15.67 10.2605
40.1681 -58.7846 16.8777
33.0457 -31.6251 11.8303
40.1681 -58.7846 16.8777
29.8061 -20.4207 8.35278
27.4905 -51.1499 26.0626
13.9716 -35.4014 32.8151
28.3318 -59.2637 28.495
27.4905 -51.1499 26.0626
28.3318 -59.2637 28.495
40.1681 -58.7846 16.8777
27.4905 -51.1499 26.0626
40.1681 -58.7846 16.8777
13.9716 -35.4014 32.8151
27.7676 -36.6187 19.9844
13.9716 -35.4014 32.8151
29.1631 -15.67 10.2605
27.7676 -36.6187 19.9844
29.1631 -15.67 10.2605
40.1681 -58.7846 16.8777
27.7676 -36.6187 19.9844
40.1681 -58.7846 16.8777
13.9716 -35.4014 32.8151
21.4781 -22.0535 24.4583
21.2997 -15.0892 30.2994
13.9716 -35.4014 32.8151
21.4781 -22.0535 24.4583
13.9716 -35.4014 32.8151
29.1631 -15.67 10.2605
21.4781 -22.0535 24.4583
29.1631 -15.67 10.2605
21.2997 -15.0892 30.2994
23.8844 -2.07613 23.5048
29.1631 -15.67 10.2605
21.2997 -15.0892 30.2994
23.8844 -2.07613 23.5048
21.2997 -15.0892 30.2994
21.1905 24.5308 29.9546
23.8844 -2.07613 23.5048
21.1905 24.5308 29.9546
29.1631 -15.67 10.2605
24.5224 12.3805 22.7081
21.1905 24.5308 29.9546
29.1631 -15.67 10.2605
24.5224 12.3805 22.7081
29.1631 -15.67 10.2605
23.2136 28.2806 27.9091
24.5224 12.3805 22.7081
23.2136 28.2806 27.9091
21.1905 24.5308 29.9546
-26.3366 -3.38244 30.7193
-26.3159 -1.64694 32.0093
-26.9947 -5.01014 31.767
-26.3366 -3.38244 30.7193
-26.9947 -5.01014 31.767
-25.6993 -3.49025 28.3815
-26.3366 -3.38244 30.7193
-25.6993 -3.49025 28.3815
-26.3159 -1.64694 32.0093
-29.1586 -13.0308 33.1162
-26.3159 -1.64694 32.0093
-27.7912 -0.854081 37.848
-29.1586 -13.0308 33.1162
-27.7912 -0.854081 37.848
-33.3688 -36.5913 29.4913
-29.1586 -13.0308 33.1162
-33.3688 -36.5913 29.4913
-26.3159 -1.64694 32.0093
-36.3758 23.3582 9.13101
-35.2724 21.0773 19.1113
-37.9694 27.9201 15.2274
-36.3758 23.3582 9.13101
-37.9694 27.9201 15.2274
-35.8856 21.0773 -6.94565
-36.3758 23.3582 9.13101
-35.8856 21.0773 -6.94565
-35.2724 21.0773 19.1113
-31.7483 13.8848 -26.1769
-30.4286 19.0668 -26.3389
-34.1878 16.5815 -24.7795
-31.7483 13.8848 -26.1769
-34.1878 16.5815 -24.7795
-30.6283 6.0062 -27.4121
-31.7483 13.8848 -26.1769
-30.6283 6.0062 -27.4121
-30.4286 19.0668 -26.3389
-1.50509 46.4127 -26.0419
1.32046 43.3793 -20.1178
3.07345 51.9614 -29.776
-1.50509 46.4127 -26.0419
3.07345 51.9614 -29.776
-8.90917 43.8974 -28.232
-1.50509 46.4127 -26.0419
-8.90917 43.8974 -28.232
1.32046 43.3793 -20.1178
-6.89246 42.7363 -24.994
-8.90917 43.8974 -28.232
-13.0887 40.9322 -26.6323
-6.89246 42.7363 -24.994
-13.0887 40.9322 -26.6323
1.32046 43.3793 -20.1178
-6.89246 42.7363 -24.994
1.32046 43.3793 -20.1178
-8.90917 43.8974 -28.232
-13.5899 39.8074 -26.9507
-14.3868 37.5769 -27.7501
-13.2942 40.913 -26.4697
-13.5899 39.8074 -26.9507
-13.2942 40.913 -26.4697
-13.0887 40.9322 -26.6323
-13.5899 39.8074 -26.9507
-13.0887 40.9322 -26.6323
-14.3868 37.5769 -27.7501
-12.1282 40.8022 -27.5381
-13.0887 40.9322 -26.6323
-14.3868 37.5769 -27.7501
-12.1282 40.8022 -27.5381
-14.3868 37.5769 -27.7501
-8.90917 43.8974 -28.232
-12.1282 40.8022 -27.5381
-8.90917 43.8974 -28.232
-13.0887 40.9322 -26.6323
2.21259 37.3979 -26.851
1.32046 43.3793 -20.1178
3.07345 51.9614 -29.776
2.21259 37.3979 -26.851
3.07345 51.9614 -29.776
2.24385 16.8531 -30.6593
2.21259 37.3979 -26.851
2.24385 16.8531 -30.6593
1.32046 43.3793 -20.1178
-3.27205 11.2449 -31.4079
2.24385 16.8531 -30.6593
-15.1334 -35.0797 -33.7883
-3.27205 11.2449 -31.4079
-15.1334 -35.0797 -33.7883
3.07345 51.9614 -29.776
-3.27205 11.2449 -31.4079
3.07345 51.9614 -29.776
2.24385 16.8531 -30.6593
5.77265 16.3646 -28.6038
2.24385 16.8531 -30.6593
5.44514 9.7769 -29.6576
5.77265 16.3646 -28.6038
5.44514 9.7769 -29.6576
9.62897 22.4639 -25.4945
5.77265 16.3646 -28.6038
9.62897 22.4639 -25.4945
2.24385 16.8531 -30.6593
10.94 19.9615 -22.9718
9.62897 22.4639 -25.4945
10.7021 24.5747 -24.2117
10.94 19.9615 -22.9718
10.7021 24.5747 -24.2117
12.489 12.8457 -19.2092
10.94 19.9615 -22.9718
12.489 12.8457 -19.2092
9.62897 22.4639 -25.4945
9.1877 15.0288 -24.7871
12.489 12.8457 -19.2092
9.62897 22.4639 -25.4945
9.1877 15.0288 -24.7871
9.62897 22.4639 -25.4945
5.44514 9.7769 -29.6576
9.1877 15.0288 -24.7871
5.44514 9.7769 -29.6576
12.489 12.8457 -19.2092
7.9974 -4.17355 -28.5848
2.10668 -10.4735 -31.0753
2.24385 16.8531 -30.6593
7.9974 -4.17355 -28.5848
2.24385 16.8531 -30.6593
19.6417 -18.9003 -24.0199
7.9974 -4.17355 -28.5848
19.6417 -18.9003 -24.0199
2.10668 -10.4735 -31.0753
-0.529233 -17.6306 -32.0754
2.10668 -10.4735 -31.0753
2.24385 16.8531 -30.6593
-0.529233 -17.6306 -32.0754
2.24385 16.8531 -30.6593
-5.93823 -59.2713 -34.4916
-0.529233 -17.6306 -32.0754
-5.93823 -59.2713 -34.4916
2.10668 -10.4735 -31.0753
-6.27594 -25.8327 -32.9797
-5.93823 -59.2713 -34.4916
-15.1334 -35.0798 -33.7883
-6.27594 -25.8327 -32.9797
-15.1334 -35.0798 -33.7883
2.24385 16.8531 -30.6593
-6.27594 -25.8327 -32.9797
2.24385 16.8531 -30.6593
-5.93823 -59.2713 -34.4916
-14.4189 -54.3807 -34.5407
-15.1334 -35.0798 -33.7883
-5.93823 -59.2713 -34.4916
-14.4189 -54.3807 -34.5407
-5.93823 -59.2713 -34.4916
-22.185 -68.7911 -35.3423
-14.4189 -54.3807 -34.5407
-22.185 -68.7911 -35.3423
-15.1334 -35.0798 -33.7883
-10.3036 -64.0091 -36.2713
-4.20796 -63.773 -33.8079
-5.93823 -59.2713 -34.4916
-10.3036 -64.0091 -36.2713
-5.93823 -59.2713 -34.4916
-20.7646 -68.9829 -40.5145
-10.3036 -64.0091 -36.2713
-20.7646 -68.9829 -40.5145
-4.20796 -63.773 -33.8079
-16.296 -65.6818 -36.7828
-20.7646 -68.9829 -40.5145
-22.185 -68.7911 -35.3423
-16.296 -65.6818 -36.7828
-22.185 -68.7911 -35.3423
-5.93823 -59.2713 -34.4916
-16.296 -65.6818 -36.7828
-5.93823 -59.2713 -34.4916
-20.7646 -68.9829 -40.5145
-1.43049 -65.4239 -32.6915
-4.20796 -63.773 -33.8079
20.6811 -63.5157 -23.7519
-1.43049 -65.4239 -32.6915
20.6811 -63.5157 -23.7519
-20.7646 -68.9829 -40.5145
-1.43049 -65.4239 -32.6915
-20.7646 -68.9829 -40.5145
-4.20796 -63.773 -33.8079
26.9856 -15.3217 0.537886
29.8061 -20.4207 8.35278
29.1631 -15.67 10.2605
26.9856 -15.3217 0.537886
29.1631 -15.67 10.2605
21.9877 -9.87432 -16.9996
26.9856 -15.3217 0.537886
21.9877 -9.87432 -16.9996
29.8061 -20.4207 8.35278
22.9201 -3.48927 -6.11768
21.9877 -9.87432 -16.9996
29.1631 -15.67 10.2605
22.9201 -3.48927 -6.11768
29.1631 -15.67 10.2605
17.6094 15.0765 -11.6139
22.9201 -3.48927 -6.11768
17.6094 15.0765 -11.6139
21.9877 -9.87432 -16.9996
24.1855 6.01487 -0.280467
17.6094 15.0765 -11.6139
25.7842 18.6381 0.512061
24.1855 6.01487 -0.280467
25.7842 18.6381 0.512061
29.1631 -15.67 10.2605
24.1855 6.01487 -0.280467
29.1631 -15.67 10.2605
17.6094 15.0765 -11.6139
26.7209 22.2938 1.29091
25.7842 18.6381 0.512061
26.4035 25.8971 0.116412
26.7209 22.2938 1.29091
26.4035 25.8971 0.116412
27.9752 22.3463 3.24425
26.7209 22.2938 1.29091
27.9752 22.3463 3.24425
25.7842 18.6381 0.512061
27.6408 8.43812 4.67225
25.7842 18.6381 0.512061
29.1631 -15.67 10.2605
27.6408 8.43812 4.67225
29.1631 -15.67 10.2605
27.9752 22.3463 3.24425
27.6408 8.43812 4.67225
27.9752 22.3463 3.24425
25.7842 18.6381 0.512061
19.9374 37.161 -12.1227
23.3693 32.752 -5.92189
17.0345 37.0306 -16.642
19.9374 37.161 -12.1227
17.0345 37.0306 -16.642
19.4085 41.7003 -13.8042
19.9374 37.161 -12.1227
19.4085 41.7003 -13.8042
23.3693 32.752 -5.92189
17.8061 41.901 -14.3422
19.4085 41.7003 -13.8042
17.5518 38.0481 -16.0237
17.8061 41.901 -14.3422
17.5518 38.0481 -16.0237
16.4579 45.9547 -13.1986
17.8061 41.901 -14.3422
16.4579 45.9547 -13.1986
19.4085 41.7003 -13.8042
17.7046 44.5813 -13.2802
16.4579 45.9547 -13.1986
17.2474 46.089 -12.8377
17.7046 44.5813 -13.2802
17.2474 46.089 -12.8377
19.4085 41.7003 -13.8042
17.7046 44.5813 -13.2802
19.4085 41.7003 -13.8042
16.4579 45.9547 -13.1986
-23.8354 13.344 35.0167
-27.7912 -0.854081 37.848
-17.399 42.533 35.1928
-23.8354 13.344 35.0167
-17.399 42.533 35.1928
-26.3159 -1.64694 32.0093
-23.8354 13.344 35.0167
-26.3159 -1.64694 32.0093
-27.7912 -0.854081 37.848
-22.3116 21.8756 38.8669
-27.7912 -0.854081 37.848
-17.399 42.533 35.1928
-22.3116 21.8756 38.8669
-17.399 42.533 35.1928
-21.7447 23.948 43.5599
-22.3116 21.8756 38.8669
-21.7447 23.948 43.5599
-27.7912 -0.854081 37.848
-17.8122 30.1767 39.9838
-21.7447 23.948 43.5599
-14.2929 24.0492 41.1986
-17.8122 30.1767 39.9838
-14.2929 24.0492 41.1986
-17.399 42.533 35.1928
-17.8122 30.1767 39.9838
-17.399 42.533 35.1928
-21.7447 23.948 43.5599
-25.207 7.07807 39.9254
-21.7447 23.948 43.5599
-26.0852 -1.85974 38.3683
-25.207 7.07807 39.9254
-26.0852 -1.85974 38.3683
-27.7912 -0.854081 37.848
-25.207 7.07807 39.9254
-27.7912 -0.854081 37.848
-21.7447 23.948 43.5599
-14.8166 1.42891 39.3099
-21.7447 23.948 43.5599
-26.0852 -1.85974 38.3683
-14.8166 1.42891 39.3099
-26.0852 -1.85974 38.3683
3.38004 -17.8015 36.0015
-14.8166 1.42891 39.3099
3.38004 -17.8015 36.0015
-21.7447 23.948 43.5599
-8.4237 -14.1497 39.3683
3.38004 -17.8015 36.0015
-2.56594 -22.7877 43.735
-8.4237 -14.1497 39.3683
-2.56594 -22.7877 43.735
-26.0852 -1.85974 38.3683
-8.4237 -14.1497 39.3683
-26.0852 -1.85974 38.3683
3.38004 -17.8015 36.0015
-10.6201 -28.8812 39.8305
-2.56594 -22.7877 43.735
-3.20929 -61.996 37.3883
-10.6201 -28.8812 39.8305
-3.20929 -61.996 37.3883
-26.0852 -1.85974 38.3683
-10.6201 -28.8812 39.8305
-26.0852 -1.85974 38.3683
-2.56594 -22.7877 43.735
-0.287774 -48.3318 44.2016
-3.20929 -61.996 37.3883
4.9119 -60.2117 51.4816
-0.287774 -48.3318 44.2016
4.9119 -60.2117 51.4816
-2.56594 -22.7877 43.735
-0.287774 -48.3318 44.2016
-2.56594 -22.7877 43.735
-3.20929 -61.996 37.3883
3 0 1 2
3 3 4 5
3 6 7 8
3 9 10 11
3 12 13 14
3 15 16 17
3 18 19 20
3 21 22 23
3 24 25 26
3 27 28 29
3 30 31 32
3 33 34 35
3 36 37 38
3 39 40 41
3 42 43 44
3 45 46 47
3 48 49 50
3 51 52 53
3 54 55 56
3 57 58 59
3 60 61 62
3 63 64 65
3 66 67 68
3 69 70 71
3 72 73 74
3 75 76 77
3 78 79 80
3 81 82 83
3 84 85 86
3 87 88 89
3 90 91 92
3 93 94 95
3 96 97 98
3 99 100 101
3 102 103 104
3 105 106 107
3 108 109 110
3 111 112 113
3 114 115 116
3 117 118 119
3 120 121 122
3 123 124 125
3 126 127 128
3 129 130 131
3 132 133 134
3 135 136 137
3 138 139 140
3 141 142 143
3 144 145 146
3 147 148 149
3 150 151 152
3 153 154 155
3 156 157 158
3 159 160 161
3 162 163 164
3 165 166 167
3 168 169 170
3 171 172 173
3 174 175 176
3 177 178 179
3 180 181 182
3 183 184 185
3 186 187 188
3 189 190 191
3 192 193 194
3 195 196 197
3 198 199 200
3 201 202 203
3 204 205 206
3 207 208 209
3 210 211 212
3 213 214 215
3 216 217 218
3 219 220 221
3 222 223 224
3 225 226 227
3 228 229 230
3 231 232 233
3 234 235 236
3 237 238 239
3 240 241 242
3 243 244 245
3 246 247 248
3 249 250 251
3 252 253 254
3 255 256 257
3 258 259 260
3 261 262 263
3 264 265 266
3 267 268 269
3 270 271 272
3 273 274 275
3 276 277 278
3 279 280 281
3 282 283 284
3 285 286 287
3 288 289 290
3 291 292 293
3 294 295 296
3 297 298 299
3 300 301 302
3 303 304 305
3 306 307 308
3 309 310 311
3 312 313 314
3 315 316 317
3 318 319 320
3 321 322 323
3 324 325 326
3 327 328 329
3 330 331 332
3 333 334 335
3 336 337 338
3 339 340 341
3 342 343 344
3 345 346 347
3 348 349 350
3 351 352 353
3 354 355 356
3 357 358 359
3 360 361 362
3 363 364 365
3 366 367 368
3 369 370 371
3 372 373 374
3 375 376 377
3 378 379 380
3 381 382 383
3 384 385 386
3 387 388 389
3 390 391 392
3 393 394 395
3 396 397 398
3 399 400 401
3 402 403 404
3 405 406 407
3 408 409 410
3 411 412 413
3 414 415 416
3 417 418 419
3 420 421 422
3 423 424 425
3 426 427 428
3 429 430 431
3 432 433 434
3 435 436 437
3 438 439 440
3 441 442 443
3 444 445 446
3 447 448 449
3 450 451 452
3 453 454 455
3 456 457 458
3 459 460 461
3 462 463 464
3 465 466 467
3 468 469 470
3 471 472 473
3 474 475 476
3 477 478 479
3 480 481 482
3 483 484 485
3 486 487 488
3 489 490 491
3 492 493 494
3 495 496 497
3 498 499 500
3 501 502 503
3 504 505 506
3 507 508 509
3 510 511 512
3 513 514 515
3 516 517 518
3 519 520 521
3 522 523 524
3 525 526 527
3 528 529 530
3 531 532 533
3 534 535 536
3 537 538 539
3 540 541 542
3 543 544 545
3 546 547 548
3 549 550 551
3 552 553 554
3 555 556 557
3 558 559 560
3 561 562 563
3 564 565 566
3 567 568 569
3 570 571 572
3 573 574 575
3 576 577 578
3 579 580 581
3 582 583 584
3 585 586 587
3 588 589 590
3 591 592 593
3 594 595 596
3 597 598 599
3 600 601 602
3 603 604 605
3 606 607 608
3 609 610 611
3 612 613 614
3 615 616 617
3 618 619 620
3 621 622 623
3 624 625 626
3 627 628 629
3 630 631 632
3 633 634 635
3 636 637 638
3 639 640 641
3 642 643 644
3 645 646 647
3 648 649 650
3 651 652 653
3 654 655 656
3 657 658 659
3 660 661 662
3 663 664 665
3 666 667 668
3 669 670 671
3 672 673 674
3 675 676 677
3 678 679 680
