ply
format ascii 1.0
element vertex 939
property float x
property float y
property float z
element face 313
property list uchar int vertex_indices
end_header
33.1706 -8.59348 13.6022
30.4362 -36.9556 28.993
37.6814 -38.6826 3.76739
33.1706 -8.59348 13.6022
37.6814 -38.6826 3.76739
37.4296 11.4115 -5.47911
33.1706 -8.59348 13.6022
37.4296 11.4115 -5.47911
30.7477 12.9985 17.7862
33.1706 -8.59348 13.6022
30.7477 12.9985 17.7862
29.5582 8.26075 22.9437
33.1706 -8.59348 13.6022
29.5582 8.26075 22.9437
30.4362 -36.9556 28.993
6.83803 -24.4035 31.1661
24.0076 -37.6897 31.9754
8.28136 -40.2424 32.7878
6.83803 -24.4035 31.1661
8.28136 -40.2424 32.7878
-4.84023 -29.1159 32.0666
6.83803 -24.4035 31.1661
-4.84023 -29.1159 32.0666
-3.56653 -8.5892 29.8564
6.83803 -24.4035 31.1661
-3.56653 -8.5892 29.8564
10.3079 -6.38037 29.1442
6.83803 -24.4035 31.1661
10.3079 -6.38037 29.1442
24.0076 -37.6897 31.9754
-14.8659 -19.6988 23.1445
-4.84022 -29.1159 32.0666
-25.7317 -40.7333 18.2836
-14.8659 -19.6988 23.1445
-25.7317 -40.7333 18.2836
-26.4428 -36.5814 17.1145
-14.8659 -19.6988 23.1445
-26.4428 -36.5814 17.1145
-24.1421 -2.86094 13.6388
-14.8659 -19.6988 23.1445
-24.1421 -2.86094 13.6388
-4.47237 -0.312099 27.9071
-14.8659 -19.6988 23.1445
-4.47237 -0.312099 27.9071
-3.56652 -8.58924 29.8564
-14.8659 -19.6988 23.1445
-3.56652 -8.58924 29.8564
-4.84022 -29.1159 32.0666
-28.1622 -32.8238 -0.124053
-26.1267 -51.239 -11.7576
-24.8279 -47.8234 15.6093
-28.1622 -32.8238 -0.124053
-24.8279 -47.8234 15.6093
-24.89 -47.3368 15.7928
-28.1622 -32.8238 -0.124053
-24.89 -47.3368 15.7928
-32.3626 -9.22158 -9.14763
-28.1622 -32.8238 -0.124053
-32.3626 -9.22158 -9.14763
-32.6039 -8.4982 -11.1172
-28.1622 -32.8238 -0.124053
-32.6039 -8.4982 -11.1172
-26.1267 -51.239 -11.7576
-25.0762 -25.1261 -18.0439
-26.1267 -51.239 -11.7576
-18.7742 -51.1484 -21.5785
-25.0762 -25.1261 -18.0439
-18.7742 -51.1484 -21.5785
-16.9337 -25.4946 -28.8322
-25.0762 -25.1261 -18.0439
-16.9337 -25.4946 -28.8322
-23.7676 -7.98386 -22.9958
-25.0762 -25.1261 -18.0439
-23.7676 -7.98386 -22.9958
-32.2508 -6.3926 -11.982
-25.0762 -25.1261 -18.0439
-32.2508 -6.3926 -11.982
-32.6039 -8.49819 -11.1172
-25.0762 -25.1261 -18.0439
-32.6039 -8.49819 -11.1172
-26.1267 -51.239 -11.7576
-2.8296 -15.8911 -27.8724
18.2409 -23.0353 -32.5487
12.1057 -47.418 -38.7108
-2.8296 -15.8911 -27.8724
12.1057 -47.418 -38.7108
-23.7677 -7.98384 -22.9958
-2.8296 -15.8911 -27.8724
-23.7677 -7.98384 -22.9958
-13.6203 -10.3275 -24.936
-2.8296 -15.8911 -27.8724
-13.6203 -10.3275 -24.936
-28.3453 3.74542 -19.0864
-2.8296 -15.8911 -27.8724
-28.3453 3.74542 -19.0864
18.409 -10.3275 -28.9569
-2.8296 -15.8911 -27.8724
18.409 -10.3275 -28.9569
18.2409 -23.0353 -32.5487
28.6443 -26.3037 -24.5543
41.6362 -24.6869 -13.0244
43.2931 -40.0202 -15.7707
28.6443 -26.3037 -24.5543
43.2931 -40.0202 -15.7707
17.9234 -47.0442 -39.3348
28.6443 -26.3037 -24.5543
17.9234 -47.0442 -39.3348
18.3486 -14.8967 -30.2484
28.6443 -26.3037 -24.5543
18.3486 -14.8967 -30.2484
22.0199 -4.87048 -24.3934
28.6443 -26.3037 -24.5543
22.0199 -4.87048 -24.3934
41.6362 -24.6869 -13.0244
3.97461 -44.7422 0.474046
-11.2381 -44.7117 22.6603
-24.9447 -48.1303 13.1499
3.97461 -44.7422 0.474046
-24.9447 -48.1303 13.1499
-26.0951 -51.1561 -11.0931
3.97461 -44.7422 0.474046
-26.0951 -51.1561 -11.0931
-19.3969 -51.1561 -20.7467
3.97461 -44.7422 0.474046
-19.3969 -51.1561 -20.7467
-6.97847 -51.0031 -37.3342
3.97461 -44.7422 0.474046
-6.97847 -51.0031 -37.3342
17.9234 -47.0442 -39.3348
3.97461 -44.7422 0.474046
17.9234 -47.0442 -39.3348
43.2931 -40.0202 -15.7707
3.97461 -44.7422 0.474046
43.2931 -40.0202 -15.7707
30.5283 -36.9775 28.6721
3.97461 -44.7422 0.474046
30.5283 -36.9775 28.6721
28.3733 -36.9808 31.7499
3.97461 -44.7422 0.474046
28.3733 -36.9808 31.7499
8.28121 -40.2423 32.7878
3.97461 -44.7422 0.474046
8.28121 -40.2423 32.7878
-11.2381 -44.7117 22.6603
-3.4143 -50.1302 23.614
19.9725 -50.1561 33.4304
3.26109 -56.2145 23.7983
-3.4143 -50.1302 23.614
3.26109 -56.2145 23.7983
-23.7584 -56.2146 12.4443
-3.4143 -50.1302 23.614
-23.7584 -56.2146 12.4443
-24.8279 -47.8234 15.6093
-3.4143 -50.1302 23.614
-24.8279 -47.8234 15.6093
8.28117 -40.2423 32.7878
-3.4143 -50.1302 23.614
8.28117 -40.2423 32.7878
19.9725 -50.1561 33.4304
-16.8788 24.919 -34.7072
-25.4299 5.14101 -32.928
-20.6151 3.69774 -38.6695
-16.8788 24.919 -34.7072
-20.6151 3.69774 -38.6695
-6.31368 32.1993 -43.3694
-16.8788 24.919 -34.7072
-6.31368 32.1993 -43.3694
-6.08067 33.4398 -43.1535
-16.8788 24.919 -34.7072
-6.08067 33.4398 -43.1535
-25.9545 50.1171 -15.4156
-16.8788 24.919 -34.7072
-25.9545 50.1171 -15.4156
-25.4299 5.14101 -32.928
-27.2785 36.5261 -16.089
-30.2935 5.89737 -17.5093
-27.8228 45.7624 -11.1327
-27.2785 36.5261 -16.089
-27.8228 45.7624 -11.1327
-26.6142 51.9043 -12.7297
-27.2785 36.5261 -16.089
-26.6142 51.9043 -12.7297
-25.9545 50.1171 -15.4156
-27.2785 36.5261 -16.089
-25.9545 50.1171 -15.4156
-25.7076 28.9494 -23.6577
-27.2785 36.5261 -16.089
-25.7076 28.9494 -23.6577
-30.2935 5.89737 -17.5093
-28.0643 38.051 -4.56655
-29.6607 9.68294 -3.76994
-29.0428 15.8257 5.03687
-28.0643 38.051 -4.56655
-29.0428 15.8257 5.03687
-26.9314 57.7454 -4.30985
-28.0643 38.051 -4.56655
-26.9314 57.7454 -4.30985
-27.3231 53.8251 -9.84299
-28.0643 38.051 -4.56655
-27.3231 53.8251 -9.84299
-27.3634 53.1756 -9.94687
-28.0643 38.051 -4.56655
-27.3634 53.1756 -9.94687
-29.6607 9.68294 -3.76994
-14.3495 46.8466 -22.3578
-5.80663 33.2099 -43.536
-1.42738 34.3949 -42.6942
-14.3495 46.8466 -22.3578
-1.42738 34.3949 -42.6942
-2.5113 36.1273 -40.0038
-14.3495 46.8466 -22.3578
-2.5113 36.1273 -40.0038
2.0802 53.2125 -16.4518
-14.3495 46.8466 -22.3578
2.0802 53.2125 -16.4518
-26.6388 60.6739 -0.176409
-14.3495 46.8466 -22.3578
-26.6388 60.6739 -0.176409
-27.3482 53.5742 -10.1971
-14.3495 46.8466 -22.3578
-27.3482 53.5742 -10.1971
-27.1895 53.463 -10.3872
-14.3495 46.8466 -22.3578
-27.1895 53.463 -10.3872
-25.9545 50.1171 -15.4156
-14.3495 46.8466 -22.3578
-25.9545 50.1171 -15.4156
-5.80663 33.2099 -43.536
37.8465 19.3044 10.0677
45.2118 8.14105 1.97804
29.9076 -9.73419 25.3512
37.8465 19.3044 10.0677
29.9076 -9.73419 25.3512
29.5582 8.26073 22.9437
37.8465 19.3044 10.0677
29.5582 8.26073 22.9437
37.8042 36.8545 7.31956
37.8465 19.3044 10.0677
37.8042 36.8545 7.31956
41.4135 37.6851 2.34828
37.8465 19.3044 10.0677
41.4135 37.6851 2.34828
43.1837 34.6191 0.465186
37.8465 19.3044 10.0677
43.1837 34.6191 0.465186
45.2118 8.14105 1.97804
11.7599 20.3455 22.7909
27.0006 -3.72275 28.2874
17.5112 -5.23351 28.7745
11.7599 20.3455 22.7909
17.5112 -5.23351 28.7745
5.65952 0.81414 27.5025
11.7599 20.3455 22.7909
5.65952 0.81414 27.5025
-3.9699 15.7179 24.1015
11.7599 20.3455 22.7909
-3.9699 15.7179 24.1015
-3.09573 43.6046 17.4809
11.7599 20.3455 22.7909
-3.09573 43.6046 17.4809
9.05086 49.1158 16.0097
11.7599 20.3455 22.7909
9.05086 49.1158 16.0097
13.6132 43.6856 17.2345
11.7599 20.3455 22.7909
13.6132 43.6856 17.2345
28.3093 18.782 22.9364
11.7599 20.3455 22.7909
28.3093 18.782 22.9364
27.0006 -3.72275 28.2874
-5.61982 2.21773 20.33
10.3078 -6.38017 29.1442
13.5592 -13.811 29.8161
-5.61982 2.21773 20.33
13.5592 -13.811 29.8161
-25.3758 3.84436 7.60199
-5.61982 2.21773 20.33
-25.3758 3.84436 7.60199
-22.6204 11.7176 10.9861
-5.61982 2.21773 20.33
-22.6204 11.7176 10.9861
-3.96989 15.7179 24.1015
-5.61982 2.21773 20.33
-3.96989 15.7179 24.1015
10.3078 -6.38017 29.1442
-14.2769 1.81684 19.907
-24.1421 -2.86085 13.6388
-4.47236 -0.311965 27.9071
-14.2769 1.81684 19.907
-4.47236 -0.311965 27.9071
-4.45798 0.146526 27.7983
-14.2769 1.81684 19.907
-4.45798 0.146526 27.7983
-24.0353 10.2936 10.2838
-14.2769 1.81684 19.907
-24.0353 10.2936 10.2838
-24.1421 -2.86085 13.6388
23.9904 50.0991 4.82919
34.1195 36.0065 12.3947
37.8042 36.8545 7.31957
23.9904 50.0991 4.82919
37.8042 36.8545 7.31957
39.8338 46.0976 -6.97352
23.9904 50.0991 4.82919
39.8338 46.0976 -6.97352
16.5834 61.3763 -1.97626
23.9904 50.0991 4.82919
16.5834 61.3763 -1.97626
7.49729 61.3763 7.79905
23.9904 50.0991 4.82919
7.49729 61.3763 7.79905
8.10446 58.8835 10.4116
23.9904 50.0991 4.82919
8.10446 58.8835 10.4116
34.1195 36.0065 12.3947
12.5844 50.7359 13.3555
12.1485 45.4288 16.8413
15.5196 45.4288 15.265
12.5844 50.7359 13.3555
15.5196 45.4288 15.265
42.364 28.7565 13.0231
12.5844 50.7359 13.3555
42.364 28.7565 13.0231
-19.6945 83.3293 8.29257
12.5844 50.7359 13.3555
-19.6945 83.3293 8.29257
12.1485 45.4288 16.8413
6.82952 37.9663 21.358
28.3093 18.782 22.9363
26.2753 9.48185 27.1494
6.82952 37.9663 21.358
26.2753 9.48185 27.1494
0.912313 23.947 28.4987
6.82952 37.9663 21.358
0.912313 23.947 28.4987
-9.72859 56.462 18.6865
6.82952 37.9663 21.358
-9.72859 56.462 18.6865
-9.75289 56.7027 18.5988
6.82952 37.9663 21.358
-9.75289 56.7027 18.5988
-1.82207 56.7027 16.4019
6.82952 37.9663 21.358
-1.82207 56.7027 16.4019
13.6132 43.6855 17.2345
6.82952 37.9663 21.358
13.6132 43.6855 17.2345
28.3093 18.782 22.9363
-24.2891 27.0855 11.3845
-29.187 12.9638 5.67499
-25.5643 11.0861 8.91597
-24.2891 27.0855 11.3845
-25.5643 11.0861 8.91597
-22.0364 19.2526 12.8686
-24.2891 27.0855 11.3845
-22.0364 19.2526 12.8686
-18.046 37.1369 18.0286
-24.2891 27.0855 11.3845
-18.046 37.1369 18.0286
-26.6116 54.9881 11.4344
-24.2891 27.0855 11.3845
-26.6116 54.9881 11.4344
-29.187 12.9638 5.67499
-14.0212 52.4413 17.414
-13.9421 28.584 21.188
-12.999 26.6186 21.914
-14.0212 52.4413 17.414
-12.999 26.6186 21.914
-2.80426 35.3036 25.0716
-14.0212 52.4413 17.414
-2.80426 35.3036 25.0716
-12.8513 66.0041 15.807
-14.0212 52.4413 17.414
-12.8513 66.0041 15.807
-18.3178 76.7882 11.694
-14.0212 52.4413 17.414
-18.3178 76.7882 11.694
-23.2126 81.3493 8.80962
-14.0212 52.4413 17.414
-23.2126 81.3493 8.80962
-13.9421 28.584 21.188
-27.5054 6.4283 -5.2794
-30.3115 5.17055 -16.7313
-30.673 -9.48076 -1.0483
-27.5054 6.4283 -5.2794
-30.673 -9.48076 -1.0483
-27.4631 -2.11965 5.03845
-27.5054 6.4283 -5.2794
-27.4631 -2.11965 5.03845
-23.8422 8.22652 9.48553
-27.5054 6.4283 -5.2794
-23.8422 8.22652 9.48553
-22.5297 16.9873 5.16433
-27.5054 6.4283 -5.2794
-22.5297 16.9873 5.16433
-28.0873 16.9873 -20.4672
-27.5054 6.4283 -5.2794
-28.0873 16.9873 -20.4672
-29.6312 9.22694 -18.3973
-27.5054 6.4283 -5.2794
-29.6312 9.22694 -18.3973
-30.3115 5.17055 -16.7313
-26.854 8.37833 3.68542
-26.1154 0.97088 7.59399
-30.673 -9.48079 -1.04829
-26.854 8.37833 3.68542
-30.673 -9.48079 -1.04829
-29.5586 11.6167 -4.04459
-26.854 8.37833 3.68542
-29.5586 11.6167 -4.04459
-23.8877 28.4913 5.64225
-26.854 8.37833 3.68542
-23.8877 28.4913 5.64225
-24.0353 10.2935 10.2838
-26.854 8.37833 3.68542
-24.0353 10.2935 10.2838
-26.1154 0.97088 7.59399
-23.0187 -1.92904 -29.8141
-23.7676 -7.98386 -22.9958
-14.909 -9.64554 -34.4972
-23.0187 -1.92904 -29.8141
-14.909 -9.64554 -34.4972
-20.778 3.74657 -38.4752
-23.0187 -1.92904 -29.8141
-20.778 3.74657 -38.4752
-25.4298 5.14101 -32.928
-23.0187 -1.92904 -29.8141
-25.4298 5.14101 -32.928
-30.2088 -0.903363 -20.1742
-23.0187 -1.92904 -29.8141
-30.2088 -0.903363 -20.1742
-23.7676 -7.98386 -22.9958
4.01018 26 -38.6651
10.264 15.0361 -33.6355
6.7056 10.6001 -33.2692
4.01018 26 -38.6651
6.7056 10.6001 -33.2692
-9.12647 26.5937 -42.445
4.01018 26 -38.6651
-9.12647 26.5937 -42.445
-5.80663 33.2099 -43.536
4.01018 26 -38.6651
-5.80663 33.2099 -43.536
10.3778 37.5892 -40.4248
4.01018 26 -38.6651
10.3778 37.5892 -40.4248
11.6467 32.9711 -38.6804
4.01018 26 -38.6651
11.6467 32.9711 -38.6804
10.264 15.0361 -33.6355
12.5848 19.7454 -41.4071
-4.80339 -3.74734 -32.0845
6.48816 13.7934 -47.6159
12.5848 19.7454 -41.4071
6.48816 13.7934 -47.6159
21.2407 32.5201 -50.5271
12.5848 19.7454 -41.4071
21.2407 32.5201 -50.5271
27.4137 36.4154 -35.4008
12.5848 19.7454 -41.4071
27.4137 36.4154 -35.4008
-4.80339 -3.74734 -32.0845
27.8229 18.323 -25.8874
25.9729 7.69362 -24.7829
25.6538 6.42531 -25.1034
27.8229 18.323 -25.8874
25.6538 6.42531 -25.1034
25.035 4.82152 -26.4981
27.8229 18.323 -25.8874
25.035 4.82152 -26.4981
28.0015 26.1403 -32.1323
27.8229 18.323 -25.8874
28.0015 26.1403 -32.1323
32.096 37.537 -23.6126
27.8229 18.323 -25.8874
32.096 37.537 -23.6126
30.1778 27.3205 -23.1953
27.8229 18.323 -25.8874
30.1778 27.3205 -23.1953
25.9729 7.69362 -24.7829
24.9336 54.7679 -16.1978
30.187 50.113 -30.6568
35.8054 47.8619 -15.8942
24.9336 54.7679 -16.1978
35.8054 47.8619 -15.8942
37.7634 47.4582 -6.52852
24.9336 54.7679 -16.1978
37.7634 47.4582 -6.52852
2.07919 70.9075 1.14117
24.9336 54.7679 -16.1978
2.07919 70.9075 1.14117
18.8329 57.4989 -29.0505
24.9336 54.7679 -16.1978
18.8329 57.4989 -29.0505
30.187 50.113 -30.6568
31.6025 29.3733 -23.4736
29.6052 18.9018 -26.786
20.8963 6.36331 -46.9168
31.6025 29.3733 -23.4736
20.8963 6.36331 -46.9168
32.9476 39.9074 -21.8406
31.6025 29.3733 -23.4736
32.9476 39.9074 -21.8406
37.2726 42.6365 -11.2427
31.6025 29.3733 -23.4736
37.2726 42.6365 -11.2427
37.2906 39.0576 -10.5821
31.6025 29.3733 -23.4736
37.2906 39.0576 -10.5821
29.6052 18.9018 -26.786
35.3488 29.6837 5.60635
29.5582 8.26077 22.9437
35.5131 31.978 -2.87518
35.3488 29.6837 5.60635
35.5131 31.978 -2.87518
35.5224 32.0035 -2.86027
35.3488 29.6837 5.60635
35.5224 32.0035 -2.86027
38.346 39.322 3.50398
35.3488 29.6837 5.60635
38.346 39.322 3.50398
37.8042 36.8545 7.31956
35.3488 29.6837 5.60635
37.8042 36.8545 7.31956
29.5582 8.26077 22.9437
16.09 -39.1659 -36.8648
18.2409 -23.0353 -32.5487
12.1057 -47.418 -38.7108
16.09 -39.1659 -36.8648
12.1057 -47.418 -38.7108
17.9234 -47.0442 -39.3348
16.09 -39.1659 -36.8648
17.9234 -47.0442 -39.3348
18.2409 -23.0353 -32.5487
7.68356 -48.4884 -38.4599
12.1057 -47.418 -38.7108
-6.97847 -51.0031 -37.3342
7.68356 -48.4884 -38.4599
-6.97847 -51.0031 -37.3342
17.9234 -47.0442 -39.3348
7.68356 -48.4884 -38.4599
17.9234 -47.0442 -39.3348
12.1057 -47.418 -38.7108
-4.54897 -49.8565 -32.5412
12.1057 -47.418 -38.7108
-6.97847 -51.0031 -37.3342
-4.54897 -49.8565 -32.5412
-6.97847 -51.0031 -37.3342
-18.7742 -51.1484 -21.5785
-4.54897 -49.8565 -32.5412
-18.7742 -51.1484 -21.5785
12.1057 -47.418 -38.7108
-14.2288 -42.5487 -29.2483
-16.9337 -25.4946 -28.8322
-6.97847 -51.0031 -37.3342
-14.2288 -42.5487 -29.2483
-6.97847 -51.0031 -37.3342
-18.7742 -51.1484 -21.5785
-14.2288 -42.5487 -29.2483
-18.7742 -51.1484 -21.5785
-16.9337 -25.4946 -28.8322
-9.53186 -26.9655 -30.1796
-16.9337 -25.4946 -28.8322
-23.7677 -7.98384 -22.9958
-9.53186 -26.9655 -30.1796
-23.7677 -7.98384 -22.9958
12.1057 -47.418 -38.7108
-9.53186 -26.9655 -30.1796
12.1057 -47.418 -38.7108
-16.9337 -25.4946 -28.8322
-3.93547 -41.3052 -34.9591
-6.97847 -51.0031 -37.3342
-16.9337 -25.4946 -28.8322
-3.93547 -41.3052 -34.9591
-16.9337 -25.4946 -28.8322
12.1057 -47.418 -38.7108
-3.93547 -41.3052 -34.9591
12.1057 -47.418 -38.7108
-6.97847 -51.0031 -37.3342
-23.8729 -51.1837 -14.5325
-19.3969 -51.1561 -20.7467
-26.1267 -51.239 -11.7576
-23.8729 -51.1837 -14.5325
-26.1267 -51.239 -11.7576
-26.0951 -51.1561 -11.0931
-23.8729 -51.1837 -14.5325
-26.0951 -51.1561 -11.0931
-19.3969 -51.1561 -20.7467
-13.8122 -45.1342 21.3966
-24.8279 -47.8234 15.6093
-24.89 -47.3368 15.7928
-13.8122 -45.1342 21.3966
-24.89 -47.3368 15.7928
8.28117 -40.2423 32.7878
-13.8122 -45.1342 21.3966
8.28117 -40.2423 32.7878
-24.8279 -47.8234 15.6093
-18.4873 -39.062 22.0477
-24.89 -47.3368 15.7928
-25.7317 -40.7333 18.2836
-18.4873 -39.062 22.0477
-25.7317 -40.7333 18.2836
-4.84023 -29.1159 32.0666
-18.4873 -39.062 22.0477
-4.84023 -29.1159 32.0666
-24.89 -47.3368 15.7928
-7.14967 -38.8983 26.8824
-4.84023 -29.1159 32.0666
-24.89 -47.3368 15.7928
-7.14967 -38.8983 26.8824
-24.89 -47.3368 15.7928
8.28117 -40.2423 32.7878
-7.14967 -38.8983 26.8824
8.28117 -40.2423 32.7878
-4.84023 -29.1159 32.0666
-20.3369 -46.8885 17.1398
-24.9447 -48.1303 13.1499
-11.2381 -44.7117 22.6603
-20.3369 -46.8885 17.1398
-11.2381 -44.7117 22.6603
-24.8279 -47.8234 15.6093
-20.3369 -46.8885 17.1398
-24.8279 -47.8234 15.6093
-24.9447 -48.1303 13.1499
-25.6881 -41.5505 17.0636
-26.4428 -36.5814 17.1145
-25.7317 -40.7333 18.2836
-25.6881 -41.5505 17.0636
-25.7317 -40.7333 18.2836
-24.89 -47.3368 15.7928
-25.6881 -41.5505 17.0636
-24.89 -47.3368 15.7928
-26.4428 -36.5814 17.1145
-27.1315 -19.8064 6.76135
-24.89 -47.3368 15.7928
-32.3626 -9.22158 -9.14763
-27.1315 -19.8064 6.76135
-32.3626 -9.22158 -9.14763
-24.1421 -2.86094 13.6388
-27.1315 -19.8064 6.76135
-24.1421 -2.86094 13.6388
-24.89 -47.3368 15.7928
-25.1583 -28.9264 15.5154
-24.1421 -2.86094 13.6388
-26.4428 -36.5814 17.1145
-25.1583 -28.9264 15.5154
-26.4428 -36.5814 17.1145
-24.89 -47.3368 15.7928
-25.1583 -28.9264 15.5154
-24.89 -47.3368 15.7928
-24.1421 -2.86094 13.6388
-24.7643 2.80116 10.5055
-26.1154 0.97088 7.59399
-24.1421 -2.86094 13.6388
-24.7643 2.80116 10.5055
-24.1421 -2.86094 13.6388
-24.0353 10.2935 10.2838
-24.7643 2.80116 10.5055
-24.0353 10.2935 10.2838
-26.1154 0.97088 7.59399
0.756348 -5.0939 28.9692
-4.47237 -0.312099 27.9071
-3.56652 -8.58924 29.8564
0.756348 -5.0939 28.9692
-3.56652 -8.58924 29.8564
10.3079 -6.38037 29.1442
0.756348 -5.0939 28.9692
10.3079 -6.38037 29.1442
-4.47237 -0.312099 27.9071
-6.06659 1.20035 22.445
10.3079 -6.38037 29.1442
-4.47237 -0.312099 27.9071
-6.06659 1.20035 22.445
-4.47237 -0.312099 27.9071
-24.0353 10.2935 10.2838
-6.06659 1.20035 22.445
-24.0353 10.2935 10.2838
10.3079 -6.38037 29.1442
-5.89914 6.54375 21.1765
-24.0353 10.2935 10.2838
10.3078 -6.38017 29.1442
-5.89914 6.54375 21.1765
10.3078 -6.38017 29.1442
-3.96989 15.7179 24.1015
-5.89914 6.54375 21.1765
-3.96989 15.7179 24.1015
-24.0353 10.2935 10.2838
21.98 -29.4938 31.1805
24.0076 -37.6897 31.9754
28.3733 -36.9808 31.7499
21.98 -29.4938 31.1805
28.3733 -36.9808 31.7499
13.5592 -13.811 29.8161
21.98 -29.4938 31.1805
13.5592 -13.811 29.8161
24.0076 -37.6897 31.9754
29.5723 -27.8902 28.698
28.3733 -36.9808 31.7499
30.4362 -36.9556 28.993
29.5723 -27.8902 28.698
30.4362 -36.9556 28.993
29.9076 -9.73419 25.3512
29.5723 -27.8902 28.698
29.9076 -9.73419 25.3512
28.3733 -36.9808 31.7499
28.4272 -16.8126 28.4628
28.3733 -36.9808 31.7499
27.0006 -3.72275 28.2874
28.4272 -16.8126 28.4628
27.0006 -3.72275 28.2874
29.9076 -9.73419 25.3512
28.4272 -16.8126 28.4628
29.9076 -9.73419 25.3512
28.3733 -36.9808 31.7499
28.8221 -1.73206 25.5274
29.9076 -9.73419 25.3512
27.0006 -3.72275 28.2874
28.8221 -1.73206 25.5274
27.0006 -3.72275 28.2874
29.5582 8.26077 22.9437
28.8221 -1.73206 25.5274
29.5582 8.26077 22.9437
29.9076 -9.73419 25.3512
24.295 -15.3124 29.6039
27.0006 -3.72275 28.2874
17.5112 -5.23351 28.7745
24.295 -15.3124 29.6039
17.5112 -5.23351 28.7745
28.3733 -36.9808 31.7499
24.295 -15.3124 29.6039
28.3733 -36.9808 31.7499
27.0006 -3.72275 28.2874
13.7928 -8.47495 29.2449
13.5592 -13.811 29.8161
10.3079 -6.38037 29.1442
13.7928 -8.47495 29.2449
10.3079 -6.38037 29.1442
17.5112 -5.23351 28.7745
13.7928 -8.47495 29.2449
17.5112 -5.23351 28.7745
13.5592 -13.811 29.8161
19.8146 -18.6751 30.1135
17.5112 -5.23351 28.7745
13.5592 -13.811 29.8161
19.8146 -18.6751 30.1135
13.5592 -13.811 29.8161
28.3733 -36.9808 31.7499
19.8146 -18.6751 30.1135
28.3733 -36.9808 31.7499
17.5112 -5.23351 28.7745
11.1595 -3.59985 28.4737
5.65952 0.81414 27.5025
10.3078 -6.38017 29.1442
11.1595 -3.59985 28.4737
10.3078 -6.38017 29.1442
17.5112 -5.23351 28.7745
11.1595 -3.59985 28.4737
17.5112 -5.23351 28.7745
5.65952 0.81414 27.5025
-28.7424 -5.09327 -18.384
-30.2088 -0.903363 -20.1742
-32.2508 -6.3926 -11.982
-28.7424 -5.09327 -18.384
-32.2508 -6.3926 -11.982
-23.7677 -7.98384 -22.9958
-28.7424 -5.09327 -18.384
-23.7677 -7.98384 -22.9958
-30.2088 -0.903363 -20.1742
-24.0581 -2.49513 -21.3989
-13.6203 -10.3275 -24.936
-28.3453 3.74542 -19.0864
-24.0581 -2.49513 -21.3989
-28.3453 3.74542 -19.0864
-30.2088 -0.903363 -20.1742
-24.0581 -2.49513 -21.3989
-30.2088 -0.903363 -20.1742
-13.6203 -10.3275 -24.936
-22.5323 -6.40489 -22.702
-23.7677 -7.98384 -22.9958
-13.6203 -10.3275 -24.936
-22.5323 -6.40489 -22.702
-13.6203 -10.3275 -24.936
-30.2088 -0.903363 -20.1742
-22.5323 -6.40489 -22.702
-30.2088 -0.903363 -20.1742
-23.7677 -7.98384 -22.9958
19.5925 -10.0315 -27.8662
22.0199 -4.87048 -24.3934
18.409 -10.3275 -28.9569
19.5925 -10.0315 -27.8662
18.409 -10.3275 -28.9569
18.3486 -14.8967 -30.2484
19.5925 -10.0315 -27.8662
18.3486 -14.8967 -30.2484
22.0199 -4.87048 -24.3934
40.8703 -34.4632 -8.34255
41.6362 -24.6869 -13.0244
37.6814 -38.6826 3.76739
40.8703 -34.4632 -8.34255
37.6814 -38.6826 3.76739
43.2931 -40.0202 -15.7707
40.8703 -34.4632 -8.34255
43.2931 -40.0202 -15.7707
41.6362 -24.6869 -13.0244
33.6952 -6.04863 -14.299
41.6362 -24.6869 -13.0244
22.0199 -4.87048 -24.3934
33.6952 -6.04863 -14.299
22.0199 -4.87048 -24.3934
37.4296 11.4115 -5.47911
33.6952 -6.04863 -14.299
37.4296 11.4115 -5.47911
41.6362 -24.6869 -13.0244
38.9158 -17.3193 -4.91203
37.4296 11.4115 -5.47911
41.6362 -24.6869 -13.0244
38.9158 -17.3193 -4.91203
41.6362 -24.6869 -13.0244
37.6814 -38.6826 3.76739
38.9158 -17.3193 -4.91203
37.6814 -38.6826 3.76739
37.4296 11.4115 -5.47911
28.2894 7.77332 24.7225
28.3093 18.782 22.9364
29.5582 8.26073 22.9437
28.2894 7.77332 24.7225
29.5582 8.26073 22.9437
27.0006 -3.72275 28.2874
28.2894 7.77332 24.7225
27.0006 -3.72275 28.2874
28.3093 18.782 22.9364
28.7256 15.2749 22.9388
29.5582 8.26075 22.9437
28.3093 18.782 22.9364
28.7256 15.2749 22.9388
28.3093 18.782 22.9364
28.3093 18.782 22.9364
28.7256 15.2749 22.9388
28.3093 18.782 22.9364
29.5582 8.26075 22.9437
31.8906 21.2991 17.7332
37.8042 36.8545 7.31956
29.5582 8.26073 22.9437
31.8906 21.2991 17.7332
29.5582 8.26073 22.9437
28.3093 18.782 22.9363
31.8906 21.2991 17.7332
28.3093 18.782 22.9363
37.8042 36.8545 7.31956
33.411 30.5477 14.2169
34.1195 36.0065 12.3947
37.8042 36.8545 7.31956
33.411 30.5477 14.2169
37.8042 36.8545 7.31956
28.3093 18.782 22.9364
33.411 30.5477 14.2169
28.3093 18.782 22.9364
34.1195 36.0065 12.3947
25.3474 32.8247 17.5218
28.3093 18.782 22.9363
34.1195 36.0065 12.3947
25.3474 32.8247 17.5218
34.1195 36.0065 12.3947
13.6132 43.6855 17.2345
25.3474 32.8247 17.5218
13.6132 43.6855 17.2345
28.3093 18.782 22.9363
19.9604 41.707 15.4902
13.6132 43.6855 17.2345
12.1485 45.4288 16.8413
19.9604 41.707 15.4902
12.1485 45.4288 16.8413
34.1195 36.0065 12.3947
19.9604 41.707 15.4902
34.1195 36.0065 12.3947
13.6132 43.6855 17.2345
-29.0592 -7.18774 1.14763
-32.3626 -9.22158 -9.14763
-30.673 -9.48079 -1.04829
-29.0592 -7.18774 1.14763
-30.673 -9.48079 -1.04829
-24.1421 -2.86085 13.6388
-29.0592 -7.18774 1.14763
-24.1421 -2.86085 13.6388
-32.3626 -9.22158 -9.14763
-26.9768 -3.79025 6.72817
-30.673 -9.48079 -1.04829
-26.1154 0.97088 7.59399
-26.9768 -3.79025 6.72817
-26.1154 0.97088 7.59399
-24.1421 -2.86085 13.6388
-26.9768 -3.79025 6.72817
-24.1421 -2.86085 13.6388
-30.673 -9.48079 -1.04829
-31.8426 -8.12386 -8.04916
-30.673 -9.48079 -1.04829
-32.6039 -8.49819 -11.1172
-31.8426 -8.12386 -8.04916
-32.6039 -8.49819 -11.1172
-32.2508 -6.3926 -11.982
-31.8426 -8.12386 -8.04916
-32.2508 -6.3926 -11.982
-30.673 -9.48079 -1.04829
-30.3978 -1.73786 -12.6513
-30.673 -9.48076 -1.0483
-30.2088 -0.903363 -20.1742
-30.3978 -1.73786 -12.6513
-30.2088 -0.903363 -20.1742
-30.3115 5.17055 -16.7313
-30.3978 -1.73786 -12.6513
-30.3115 5.17055 -16.7313
-30.673 -9.48076 -1.0483
-31.0442 -5.59225 -11.0682
-32.2508 -6.3926 -11.982
-30.673 -9.48079 -1.04829
-31.0442 -5.59225 -11.0682
-30.673 -9.48079 -1.04829
-30.2088 -0.903363 -20.1742
-31.0442 -5.59225 -11.0682
-30.2088 -0.903363 -20.1742
-32.2508 -6.3926 -11.982
-28.65 3.13607 -23.2778
-30.2088 -0.903363 -20.1742
-25.4299 5.14101 -32.928
-28.65 3.13607 -23.2778
-25.4299 5.14101 -32.928
-30.3115 5.17055 -16.7313
-28.65 3.13607 -23.2778
-30.3115 5.17055 -16.7313
-30.2088 -0.903363 -20.1742
-27.1496 13.087 -24.439
-30.3115 5.17055 -16.7313
-25.4298 5.14101 -32.928
-27.1496 13.087 -24.439
-25.4298 5.14101 -32.928
-25.7076 28.9494 -23.6577
-27.1496 13.087 -24.439
-25.7076 28.9494 -23.6577
-30.3115 5.17055 -16.7313
3 0 1 2
3 3 4 5
3 6 7 8
3 9 10 11
3 12 13 14
3 15 16 17
3 18 19 20
3 21 22 23
3 24 25 26
3 27 28 29
3 30 31 32
3 33 34 35
3 36 37 38
3 39 40 41
3 42 43 44
3 45 46 47
3 48 49 50
3 51 52 53
3 54 55 56
3 57 58 59
3 60 61 62
3 63 64 65
3 66 67 68
3 69 70 71
3 72 73 74
3 75 76 77
3 78 79 80
3 81 82 83
3 84 85 86
3 87 88 89
3 90 91 92
3 93 94 95
3 96 97 98
3 99 100 101
3 102 103 104
3 105 106 107
3 108 109 110
3 111 112 113
3 114 115 116
3 117 118 119
3 120 121 122
3 123 124 125
3 126 127 128
3 129 130 131
3 132 133 134
3 135 136 137
3 138 139 140
3 141 142 143
3 144 145 146
3 147 148 149
3 150 151 152
3 153 154 155
3 156 157 158
3 159 160 161
3 162 163 164
3 165 166 167
3 168 169 170
3 171 172 173
3 174 175 176
3 177 178 179
3 180 181 182
3 183 184 185
3 186 187 188
3 189 190 191
3 192 193 194
3 195 196 197
3 198 199 200
3 201 202 203
3 204 205 206
3 207 208 209
3 210 211 212
3 213 214 215
3 216 217 218
3 219 220 221
3 222 223 224
3 225 226 227
3 228 229 230
3 231 232 233
3 234 235 236
3 237 238 239
3 240 241 242
3 243 244 245
3 246 247 248
3 249 250 251
3 252 253 254
3 255 256 257
3 258 259 260
3 261 262 263
3 264 265 266
3 267 268 269
3 270 271 272
3 273 274 275
3 276 277 278
3 279 280 281
3 282 283 284
3 285 286 287
3 288 289 290
3 291 292 293
3 294 295 296
3 297 298 299
3 300 301 302
3 303 304 305
3 306 307 308
3 309 310 311
3 312 313 314
3 315 316 317
3 318 319 320
3 321 322 323
3 324 325 326
3 327 328 329
3 330 331 332
3 333 334 335
3 336 337 338
3 339 340 341
3 342 343 344
3 345 346 347
3 348 349 350
3 351 352 353
3 354 355 356
3 357 358 359
3 360 361 362
3 363 364 365
3 366 367 368
3 369 370 371
3 372 373 374
3 375 376 377
3 378 379 380
3 381 382 383
3 384 385 386
3 387 388 389
3 390 391 392
3 393 394 395
3 396 397 398
3 399 400 401
3 402 403 404
3 405 406 407
3 408 409 410
3 411 412 413
3 414 415 416
3 417 418 419
3 420 421 422
3 423 424 425
3 426 427 428
3 429 430 431
3 432 433 434
3 435 436 437
3 438 439 440
3 441 442 443
3 444 445 446
3 447 448 449
3 450 451 452
3 453 454 455
3 456 457 458
3 459 460 461
3 462 463 464
3 465 466 467
3 468 469 470
3 471 472 473
3 474 475 476
3 477 478 479
3 480 481 482
3 483 484 485
3 486 487 488
3 489 490 491
3 492 493 494
3 495 496 497
3 498 499 500
3 501 502 503
3 504 505 506
3 507 508 509
3 510 511 512
3 513 514 515
3 516 517 518
3 519 520 521
3 522 523 524
3 525 526 527
3 528 529 530
3 531 532 533
3 534 535 536
3 537 538 539
3 540 541 542
3 543 544 545
3 546 547 548
3 549 550 551
3 552 553 554
3 555 556 557
3 558 559 560
3 561 562 563
3 564 565 566
3 567 568 569
3 570 571 572
3 573 574 575
3 576 577 578
3 579 580 581
3 582 583 584
3 585 586 587
3 588 589 590
3 591 592 593
3 594 595 596
3 597 598 599
3 600 601 602
3 603 604 605
3 606 607 608
3 609 610 611
3 612 613 614
3 615 616 617
3 618 619 620
3 621 622 623
3 624 625 626
3 627 628 629
3 630 631 632
3 633 634 635
3 636 637 638
3 639 640 641
3 642 643 644
3 645 646 647
3 648 649 650
3 651 652 653
3 654 655 656
3 657 658 659
3 660 661 662
3 663 664 665
3 666 667 668
3 669 670 671
3 672 673 674
3 675 676 677
3 678 679 680
3 681 682 683
3 684 685 686
3 687 688 689
3 690 691 692
3 693 694 695
3 696 697 698
3 699 700 701
3 702 703 704
3 705 706 707
3 708 709 710
3 711 712 713
3 714 715 716
3 717 718 719
3 720 721 722
3 723 724 725
3 726 727 728
3 729 730 731
3 732 733 734
3 735 736 737
3 738 739 740
3 741 742 743
3 744 745 746
3 747 748 749
3 750 751 752
3 753 754 755
3 756 757 758
3 759 760 761
3 762 763 764
3 765 766 767
3 768 769 770
3 771 772 773
3 774 775 776
3 777 778 779
3 780 781 782
3 783 784 785
3 786 787 788
3 789 790 791
3 792 793 794
3 795 796 797
3 798 799 800
3 801 802 803
3 804 805 806
3 807 808 809
3 810 811 812
3 813 814 815
3 816 817 818
3 819 820 821
3 822 823 824
3 825 826 827
3 828 829 830
3 831 832 833
3 834 835 836
3 837 838 839
3 840 841 842
3 843 844 845
3 846 847 848
3 849 850 851
3 852 853 854
3 855 856 857
3 858 859 860
3 861 862 863
3 864 865 866
3 867 868 869
3 870 871 872
3 873 874 875
3 876 877 878
3 879 880 881
3 882 883 884
3 885 886 887
3 888 889 890
3 891 892 893
3 894 895 896
3 897 898 899
3 900 901 902
3 903 904 905
3 906 907 908
3 909 910 911
3 912 913 914
3 915 916 917
3 918 919 920
3 921 922 923
3 924 925 926
3 927 928 929
3 930 931 932
3 933 934 935
3 936 937 938
