ply
format ascii 1.0
element vertex 558
property float x
property float y
property float z
element face 186
property list uchar int vertex_indices
end_header
0.192707 -22.1356 -18.1166
-14.5669 -28.7591 -31.9222
-15.1184 -15.5121 -4.92524
0.192707 -22.1356 -18.1166
-15.1184 -15.5121 -4.92524
14.9524 -15.5121 -4.31103
0.192707 -22.1356 -18.1166
14.9524 -15.5121 -4.31103
15.5038 -28.7591 -31.308
0.192707 -22.1356 -18.1166
15.5038 -28.7591 -31.308
-14.5669 -28.7591 -31.9222
13.5319 -13.2978 -9.86244
-12.6652 -28.7472 -14.7077
0.159065 2.15172 13.1795
13.5319 -13.2978 -9.86244
0.159065 2.15172 13.1795
39.7291 2.15172 -5.01716
13.5319 -13.2978 -9.86244
39.7291 2.15172 -5.01716
26.9048 -28.7472 -32.9044
13.5319 -13.2978 -9.86244
26.9048 -28.7472 -32.9044
-12.6652 -28.7472 -14.7077
20.5336 10.2065 -3.59238
2.0865 -7.5605 -5.2166
4.18805 27.9735 -12.2962
20.5336 10.2065 -3.59238
4.18805 27.9735 -12.2962
38.9808 27.9735 -1.96816
20.5336 10.2065 -3.59238
38.9808 27.9735 -1.96816
36.8792 -7.5605 5.11145
20.5336 10.2065 -3.59238
36.8792 -7.5605 5.11145
2.0865 -7.5605 -5.2166
20.8081 14.4 -15.269
24.6212 0.790181 -36.596
41.909 28.0098 -20.1814
20.8081 14.4 -15.269
41.909 28.0098 -20.1814
16.995 28.0098 6.05793
20.8081 14.4 -15.269
16.995 28.0098 6.05793
-0.292788 0.790181 -10.3566
20.8081 14.4 -15.269
-0.292788 0.790181 -10.3566
24.6212 0.790181 -36.596
15.3499 10.8791 -29.5042
22.1597 3.17705 -18.9829
0.316538 3.17705 -30.12
15.3499 10.8791 -29.5042
0.316538 3.17705 -30.12
-5.62567 0.423645 -30.6297
15.3499 10.8791 -29.5042
-5.62567 0.423645 -30.6297
30.7013 25.4382 -35.0021
15.3499 10.8791 -29.5042
30.7013 25.4382 -35.0021
29.1976 22.1795 -32.7863
15.3499 10.8791 -29.5042
29.1976 22.1795 -32.7863
22.1597 3.17705 -18.9829
4.44446 26.5891 -33.9844
7.11491 16.7948 -38.5946
8.04659 17.1069 -38.9278
4.44446 26.5891 -33.9844
8.04659 17.1069 -38.9278
18.5792 25.3339 -41.0872
4.44446 26.5891 -33.9844
18.5792 25.3339 -41.0872
7.72861 36.855 -32.0243
4.44446 26.5891 -33.9844
7.72861 36.855 -32.0243
-19.2471 36.855 -19.2881
4.44446 26.5891 -33.9844
-19.2471 36.855 -19.2881
7.11491 16.7948 -38.5946
-30.2518 -1.47031 -13.5312
-34.6908 -26.2587 -21.5453
-36.9774 -22.6686 -5.38443
-30.2518 -1.47031 -13.5312
-36.9774 -22.6686 -5.38443
-32.1107 7.5543 7.18007
-30.2518 -1.47031 -13.5312
-32.1107 7.5543 7.18007
-21.56 28.2917 -21.1246
-30.2518 -1.47031 -13.5312
-21.56 28.2917 -21.1246
-25.9201 5.72965 -26.7817
-30.2518 -1.47031 -13.5312
-25.9201 5.72965 -26.7817
-34.6908 -26.2587 -21.5453
-25.7281 31.9728 -12.6699
-32.2896 7.20281 7.65985
-33.2395 27.5963 5.09502
-25.7281 31.9728 -12.6699
-33.2395 27.5963 5.09502
-27.108 43.2187 -12.1741
-25.7281 31.9728 -12.6699
-27.108 43.2187 -12.1741
-19.7023 43.2187 -28.6982
-25.7281 31.9728 -12.6699
-19.7023 43.2187 -28.6982
-16.3013 38.6277 -35.2322
-25.7281 31.9728 -12.6699
-16.3013 38.6277 -35.2322
-32.2896 7.20281 7.65985
-23.4636 0.0399656 25.4903
-18.2961 8.46761 35.5146
-18.5398 -10.0086 35.6369
-23.4636 0.0399656 25.4903
-18.5398 -10.0086 35.6369
-27.6956 -14.5477 17.534
-23.4636 0.0399656 25.4903
-27.6956 -14.5477 17.534
-27.6978 -14.545 17.5295
-23.4636 0.0399656 25.4903
-27.6978 -14.545 17.5295
-25.0889 30.8335 21.2368
-23.4636 0.0399656 25.4903
-25.0889 30.8335 21.2368
-18.2961 8.46761 35.5146
-17.3 17.7462 24.6009
-5.50743 8.77707 30.2567
-26.5997 4.55438 19.0899
-17.3 17.7462 24.6009
-26.5997 4.55438 19.0899
-25.0889 30.8335 21.2368
-17.3 17.7462 24.6009
-25.0889 30.8335 21.2368
-12.004 26.8198 27.8203
-17.3 17.7462 24.6009
-12.004 26.8198 27.8203
-5.50743 8.77707 30.2567
-21.176 -1.5765 12.7254
-31.4944 -9.86934 9.80696
-27.6978 -14.545 17.5295
-21.176 -1.5765 12.7254
-27.6978 -14.545 17.5295
-1.78818 -1.61342 31.6483
-21.176 -1.5765 12.7254
-1.78818 -1.61342 31.6483
-0.351399 6.43191 26.1256
-21.176 -1.5765 12.7254
-0.351399 6.43191 26.1256
-28.4612 6.43191 -1.26401
-21.176 -1.5765 12.7254
-28.4612 6.43191 -1.26401
-37.2632 3.70491 -7.4941
-21.176 -1.5765 12.7254
-37.2632 3.70491 -7.4941
-31.4944 -9.86934 9.80696
-30.2236 -38.6717 -6.68332
-32.6056 -43.8832 8.25956
-26.6246 -61.0363 10.002
-30.2236 -38.6717 -6.68332
-26.6246 -61.0363 10.002
-16.98 -61.734 -22.197
-30.2236 -38.6717 -6.68332
-16.98 -61.734 -22.197
-36.9408 -9.92189 -20.956
-30.2236 -38.6717 -6.68332
-36.9408 -9.92189 -20.956
-37.9669 -16.7832 -8.52516
-30.2236 -38.6717 -6.68332
-37.9669 -16.7832 -8.52516
-32.6056 -43.8832 8.25956
23.0865 -22.1983 18.2666
-3.9306 -49.1493 27.1794
2.77166 4.75278 38.1832
23.0865 -22.1983 18.2666
2.77166 4.75278 38.1832
50.1035 4.75278 9.35379
23.0865 -22.1983 18.2666
50.1035 4.75278 9.35379
43.4013 -49.1493 -1.64993
23.0865 -22.1983 18.2666
43.4013 -49.1493 -1.64993
-3.9306 -49.1493 27.1794
30.0342 -40.5572 1.29652
35.9401 -56.205 -13.3846
36.954 -55.6137 15.9841
30.0342 -40.5572 1.29652
36.954 -55.6137 15.9841
28.5834 -35.5372 16.3435
30.0342 -40.5572 1.29652
28.5834 -35.5372 16.3435
18.6594 -14.873 -13.757
30.0342 -40.5572 1.29652
18.6594 -14.873 -13.757
35.9401 -56.205 -13.3846
15.9131 -32.1399 -20.3867
40.5094 -67.1337 -13.2861
9.64333 -58.5585 -31.9381
15.9131 -32.1399 -20.3867
9.64333 -58.5585 -31.9381
1.81524 -4.67736 -22.4151
15.9131 -32.1399 -20.3867
1.81524 -4.67736 -22.4151
11.6844 1.80991 -13.9073
15.9131 -32.1399 -20.3867
11.6844 1.80991 -13.9073
40.5094 -67.1337 -13.2861
-13.3264 -48.454 -25.3314
-4.90737 -47.6317 -28.7508
-4.59489 -54.8099 -27.957
-13.3264 -48.454 -25.3314
-4.59489 -54.8099 -27.957
-6.36747 -59.9745 -26.5996
-13.3264 -48.454 -25.3314
-6.36747 -59.9745 -26.5996
-16.98 -61.734 -22.197
-13.3264 -48.454 -25.3314
-16.98 -61.734 -22.197
-33.7824 -18.12 -21.1524
-13.3264 -48.454 -25.3314
-33.7824 -18.12 -21.1524
-4.90737 -47.6317 -28.7508
-9.54677 -15.4453 -19.8977
-11.5976 -27.6843 -32.7657
-5.29726 -3.20629 -32.2157
-9.54677 -15.4453 -19.8977
-5.29726 -3.20629 -32.2157
-7.49594 -3.20629 -7.02963
-9.54677 -15.4453 -19.8977
-7.49594 -3.20629 -7.02963
-13.7963 -27.6843 -7.57964
-9.54677 -15.4453 -19.8977
-13.7963 -27.6843 -7.57964
-11.5976 -27.6843 -32.7657
-14.2663 -0.464085 -30.219
-13.1978 -17.3467 -29.3548
-27.8704 -1.38352 -25.6173
-14.2663 -0.464085 -30.219
-27.8704 -1.38352 -25.6173
-25.9201 5.72961 -26.7817
-14.2663 -0.464085 -30.219
-25.9201 5.72961 -26.7817
9.08374 17.4543 -39.2987
-14.2663 -0.464085 -30.219
9.08374 17.4543 -39.2987
-13.4271 -6.77408 -30.0427
-14.2663 -0.464085 -30.219
-13.4271 -6.77408 -30.0427
-13.1978 -17.3467 -29.3548
-31.3199 -29.1969 11.2521
-26.9606 -49.1344 24.7977
-31.0026 -51.9857 13.2779
-31.3199 -29.1969 11.2521
-31.0026 -51.9857 13.2779
-36.899 -22.1812 -5.18183
-31.3199 -29.1969 11.2521
-36.899 -22.1812 -5.18183
-33.9761 -4.02982 2.36422
-31.3199 -29.1969 11.2521
-33.9761 -4.02982 2.36422
-27.7613 -18.6533 21.0026
-31.3199 -29.1969 11.2521
-27.7613 -18.6533 21.0026
-26.9606 -49.1344 24.7977
-8.67976 41.3847 21.1481
-0.0432256 38.9894 25.3575
-0.100344 38.6384 25.5261
-8.67976 41.3847 21.1481
-0.100344 38.6384 25.5261
-12.004 26.8198 27.8203
-8.67976 41.3847 21.1481
-12.004 26.8198 27.8203
-25.0889 30.8335 21.2368
-8.67976 41.3847 21.1481
-25.0889 30.8335 21.2368
-7.81983 56.5844 13.301
-8.67976 41.3847 21.1481
-7.81983 56.5844 13.301
-7.02227 56.443 13.6469
-8.67976 41.3847 21.1481
-7.02227 56.443 13.6469
-0.0432256 38.9894 25.3575
20.173 36.1877 -17.1237
12.2821 12.7549 -32.7851
-2.68311 24.0218 -11.0754
20.173 36.1877 -17.1237
-2.68311 24.0218 -11.0754
8.82799 49.9513 4.15377
20.173 36.1877 -17.1237
8.82799 49.9513 4.15377
12.4593 49.9513 1.40903
20.173 36.1877 -17.1237
12.4593 49.9513 1.40903
43.2991 43.8867 -27.4984
20.173 36.1877 -17.1237
43.2991 43.8867 -27.4984
46.8526 36.56 -36.9461
20.173 36.1877 -17.1237
46.8526 36.56 -36.9461
12.2821 12.7549 -32.7851
-28.9021 52.8232 0.941332
-25.1642 41.2134 -2.13025
-7.81983 56.5844 13.3009
-28.9021 52.8232 0.941332
-7.81983 56.5844 13.3009
-45.8451 63.324 -3.19412
-28.9021 52.8232 0.941332
-45.8451 63.324 -3.19412
-36.7793 50.1711 -4.21125
-28.9021 52.8232 0.941332
-36.7793 50.1711 -4.21125
-25.1642 41.2134 -2.13025
10.4007 32.9364 -9.02947
8.82342 17.1836 -28.8781
24.8931 48.6892 -22.6833
10.4007 32.9364 -9.02947
24.8931 48.6892 -22.6833
11.978 48.6892 10.8192
10.4007 32.9364 -9.02947
11.978 48.6892 10.8192
-4.09174 17.1836 4.62432
10.4007 32.9364 -9.02947
-4.09174 17.1836 4.62432
8.82342 17.1836 -28.8781
-1.74841 37.281 5.02085
-22.2755 20.7331 0.138227
-18.224 53.8289 18.2025
-1.74841 37.281 5.02085
-18.224 53.8289 18.2025
18.7786 53.8289 9.90348
-1.74841 37.281 5.02085
18.7786 53.8289 9.90348
14.7271 20.7331 -8.1608
-1.74841 37.281 5.02085
14.7271 20.7331 -8.1608
-22.2755 20.7331 0.138227
-6.92881 27.3733 -18.7004
12.8853 12.3008 -33.6601
15.8027 10.1838 -44.9572
-6.92881 27.3733 -18.7004
15.8027 10.1838 -44.9572
-27.5251 43.1542 -13.2256
-6.92881 27.3733 -18.7004
-27.5251 43.1542 -13.2256
-25.1642 41.2135 -2.13025
-6.92881 27.3733 -18.7004
-25.1642 41.2135 -2.13025
-10.6427 30.0144 0.47147
-6.92881 27.3733 -18.7004
-10.6427 30.0144 0.47147
12.8853 12.3008 -33.6601
-28.177 35.5606 1.8424
-28.2878 29.563 14.9015
-33.2395 27.5963 5.09502
-28.177 35.5606 1.8424
-33.2395 27.5963 5.09502
-29.42 37.3279 -5.66234
-28.177 35.5606 1.8424
-29.42 37.3279 -5.66234
-29.2147 37.6238 -5.73396
-28.177 35.5606 1.8424
-29.2147 37.6238 -5.73396
-25.1642 41.2134 -2.13025
-28.177 35.5606 1.8424
-25.1642 41.2134 -2.13025
-23.7355 40.0389 4.58447
-28.177 35.5606 1.8424
-23.7355 40.0389 4.58447
-28.2878 29.563 14.9015
21.1722 20.1611 19.3491
38.2361 19.585 14.0935
39.4623 9.0678 19.6205
21.1722 20.1611 19.3491
39.4623 9.0678 19.6205
28.3661 1.44482 27.546
21.1722 20.1611 19.3491
28.3661 1.44482 27.546
20.0824 1.44482 30.255
21.1722 20.1611 19.3491
20.0824 1.44482 30.255
7.96927 9.76785 29.5251
21.1722 20.1611 19.3491
7.96927 9.76785 29.5251
4.02252 33.469 17.4566
21.1722 20.1611 19.3491
4.02252 33.469 17.4566
9.62009 48.6217 7.08521
21.1722 20.1611 19.3491
9.62009 48.6217 7.08521
21.619 37.8881 9.2112
21.1722 20.1611 19.3491
21.619 37.8881 9.2112
38.2361 19.585 14.0935
30.0867 35.9708 1.6768
43.3858 21.569 8.03378
48.4571 22.8645 -0.381324
30.0867 35.9708 1.6768
48.4571 22.8645 -0.381324
30.0564 46.4908 -15.0856
30.0867 35.9708 1.6768
30.0564 46.4908 -15.0856
6.91502 51.0415 6.60591
30.0867 35.9708 1.6768
6.91502 51.0415 6.60591
21.619 37.8881 9.2112
30.0867 35.9708 1.6768
21.619 37.8881 9.2112
43.3858 21.569 8.03378
1.50182 22.5476 27.88
10.6907 9.67083 29.4221
10.132 8.28185 29.6554
1.50182 22.5476 27.88
10.132 8.28185 29.6554
-10.4117 22.3976 28.4174
1.50182 22.5476 27.88
-10.4117 22.3976 28.4174
-12.004 26.8198 27.8203
1.50182 22.5476 27.88
-12.004 26.8198 27.8203
0.0410054 38.7788 25.4988
1.50182 22.5476 27.88
0.0410054 38.7788 25.4988
10.563 29.3369 26.466
1.50182 22.5476 27.88
10.563 29.3369 26.466
10.6907 9.67083 29.4221
36.1328 7.36705 6.09425
37.8873 -18.7615 14.5462
33.5215 -9.87265 -3.73477
36.1328 7.36705 6.09425
33.5215 -9.87265 -3.73477
33.8291 17.3233 -3.81
36.1328 7.36705 6.09425
33.8291 17.3233 -3.81
35.9636 39.0783 3.84927
36.1328 7.36705 6.09425
35.9636 39.0783 3.84927
39.4623 9.0678 19.6205
36.1328 7.36705 6.09425
39.4623 9.0678 19.6205
37.8873 -18.7615 14.5462
20.7558 -54.9458 -0.274819
37.1181 -55.518 20.7363
35.2249 -56.622 -34.102
20.7558 -54.9458 -0.274819
35.2249 -56.622 -34.102
19.2271 -55.5654 -32.3799
20.7558 -54.9458 -0.274819
19.2271 -55.5654 -32.3799
10.2426 -54.1866 3.75998
20.7558 -54.9458 -0.274819
10.2426 -54.1866 3.75998
1.96621 -52.837 40.6115
20.7558 -54.9458 -0.274819
1.96621 -52.837 40.6115
37.1181 -55.518 20.7363
-10.8238 -58.0705 7.69668
-6.75956 -60.0394 -26.437
-16.98 -61.7339 -22.197
-10.8238 -58.0705 7.69668
-16.98 -61.7339 -22.197
-29.2496 -60.8465 18.7659
-10.8238 -58.0705 7.69668
-29.2496 -60.8465 18.7659
-24.389 -58.7428 32.6833
-10.8238 -58.0705 7.69668
-24.389 -58.7428 32.6833
2.19239 -52.8738 39.6051
-10.8238 -58.0705 7.69668
2.19239 -52.8738 39.6051
10.2427 -54.1866 3.75972
-10.8238 -58.0705 7.69668
10.2427 -54.1866 3.75972
-6.75956 -60.0394 -26.437
-13.8063 -59.3843 -3.05765
-46.0775 -64.3522 11.1732
-27.9944 -64.3522 -29.2334
-13.8063 -59.3843 -3.05765
-27.9944 -64.3522 -29.2334
-9.04365 -60.8259 -30.4962
-13.8063 -59.3843 -3.05765
-9.04365 -60.8259 -30.4962
10.2424 -54.1866 3.76075
-13.8063 -59.3843 -3.05765
10.2424 -54.1866 3.76075
3.84171 -53.2043 29.5074
-13.8063 -59.3843 -3.05765
3.84171 -53.2043 29.5074
-46.0775 -64.3522 11.1732
10.8121 -18.6684 33.2062
1.7882 -44.4157 40.1321
23.5591 -22.4963 26.196
10.8121 -18.6684 33.2062
23.5591 -22.4963 26.196
14.7357 -1.00803 29.7488
10.8121 -18.6684 33.2062
14.7357 -1.00803 29.7488
3.16543 -6.75358 36.748
10.8121 -18.6684 33.2062
3.16543 -6.75358 36.748
1.7882 -44.4157 40.1321
-12.44 -30.7581 30.7833
1.52416 -51.6359 40.7809
-26.8949 -51.6359 25.1092
-12.44 -30.7581 30.7833
-26.8949 -51.6359 25.1092
-27.7613 -18.6533 21.0026
-12.44 -30.7581 30.7833
-27.7613 -18.6533 21.0026
3.3719 -1.10729 36.2407
-12.44 -30.7581 30.7833
3.3719 -1.10729 36.2407
1.52416 -51.6359 40.7809
-3.08996 -38.1337 -27.3819
9.11142 -54.8974 -31.291
1.72414 -54.4094 -30.4958
-3.08996 -38.1337 -27.3819
1.72414 -54.4094 -30.4958
-14.5695 -37.7565 -26.2082
-3.08996 -38.1337 -27.3819
-14.5695 -37.7565 -26.2082
-14.4853 -32.36 -25.3385
-3.08996 -38.1337 -27.3819
-14.4853 -32.36 -25.3385
2.76944 -11.2452 -23.5759
-3.08996 -38.1337 -27.3819
2.76944 -11.2452 -23.5759
9.11142 -54.8974 -31.291
17.775 33.4332 16.6761
34.1163 24.1229 12.883
34.8853 22.5272 13.8495
17.775 33.4332 16.6761
34.8853 22.5272 13.8495
24.6772 16.6715 27.7634
17.775 33.4332 16.6761
24.6772 16.6715 27.7634
0.0410057 38.7787 25.4988
17.775 33.4332 16.6761
0.0410057 38.7787 25.4988
-8.68877 60.6107 10.8506
17.775 33.4332 16.6761
-8.68877 60.6107 10.8506
21.619 37.8882 9.21119
17.775 33.4332 16.6761
21.619 37.8882 9.21119
34.1163 24.1229 12.883
26.7472 -9.24371 26.4828
1.58305 -16.9549 46.6759
23.6079 -15.4536 27.7857
26.7472 -9.24371 26.4828
23.6079 -15.4536 27.7857
30.5541 -15.4536 21.7183
26.7472 -9.24371 26.4828
30.5541 -15.4536 21.7183
38.5289 -7.4243 16.6134
26.7472 -9.24371 26.4828
38.5289 -7.4243 16.6134
39.4623 9.0678 19.6205
26.7472 -9.24371 26.4828
39.4623 9.0678 19.6205
1.58305 -16.9549 46.6759
3 0 1 2
3 3 4 5
3 6 7 8
3 9 10 11
3 12 13 14
3 15 16 17
3 18 19 20
3 21 22 23
3 24 25 26
3 27 28 29
3 30 31 32
3 33 34 35
3 36 37 38
3 39 40 41
3 42 43 44
3 45 46 47
3 48 49 50
3 51 52 53
3 54 55 56
3 57 58 59
3 60 61 62
3 63 64 65
3 66 67 68
3 69 70 71
3 72 73 74
3 75 76 77
3 78 79 80
3 81 82 83
3 84 85 86
3 87 88 89
3 90 91 92
3 93 94 95
3 96 97 98
3 99 100 101
3 102 103 104
3 105 106 107
3 108 109 110
3 111 112 113
3 114 115 116
3 117 118 119
3 120 121 122
3 123 124 125
3 126 127 128
3 129 130 131
3 132 133 134
3 135 136 137
3 138 139 140
3 141 142 143
3 144 145 146
3 147 148 149
3 150 151 152
3 153 154 155
3 156 157 158
3 159 160 161
3 162 163 164
3 165 166 167
3 168 169 170
3 171 172 173
3 174 175 176
3 177 178 179
3 180 181 182
3 183 184 185
3 186 187 188
3 189 190 191
3 192 193 194
3 195 196 197
3 198 199 200
3 201 202 203
3 204 205 206
3 207 208 209
3 210 211 212
3 213 214 215
3 216 217 218
3 219 220 221
3 222 223 224
3 225 226 227
3 228 229 230
3 231 232 233
3 234 235 236
3 237 238 239
3 240 241 242
3 243 244 245
3 246 247 248
3 249 250 251
3 252 253 254
3 255 256 257
3 258 259 260
3 261 262 263
3 264 265 266
3 267 268 269
3 270 271 272
3 273 274 275
3 276 277 278
3 279 280 281
3 282 283 284
3 285 286 287
3 288 289 290
3 291 292 293
3 294 295 296
3 297 298 299
3 300 301 302
3 303 304 305
3 306 307 308
3 309 310 311
3 312 313 314
3 315 316 317
3 318 319 320
3 321 322 323
3 324 325 326
3 327 328 329
3 330 331 332
3 333 334 335
3 336 337 338
3 339 340 341
3 342 343 344
3 345 346 347
3 348 349 350
3 351 352 353
3 354 355 356
3 357 358 359
3 360 361 362
3 363 364 365
3 366 367 368
3 369 370 371
3 372 373 374
3 375 376 377
3 378 379 380
3 381 382 383
3 384 385 386
3 387 388 389
3 390 391 392
3 393 394 395
3 396 397 398
3 399 400 401
3 402 403 404
3 405 406 407
3 408 409 410
3 411 412 413
3 414 415 416
3 417 418 419
3 420 421 422
3 423 424 425
3 426 427 428
3 429 430 431
3 432 433 434
3 435 436 437
3 438 439 440
3 441 442 443
3 444 445 446
3 447 448 449
3 450 451 452
3 453 454 455
3 456 457 458
3 459 460 461
3 462 463 464
3 465 466 467
3 468 469 470
3 471 472 473
3 474 475 476
3 477 478 479
3 480 481 482
3 483 484 485
3 486 487 488
3 489 490 491
3 492 493 494
3 495 496 497
3 498 499 500
3 501 502 503
3 504 505 506
3 507 508 509
3 510 511 512
3 513 514 515
3 516 517 518
3 519 520 521
3 522 523 524
3 525 526 527
3 528 529 530
3 531 532 533
3 534 535 536
3 537 538 539
3 540 541 542
3 543 544 545
3 546 547 548
3 549 550 551
3 552 553 554
3 555 556 557
