ply
format ascii 1.0
element vertex 816
property float x
property float y
property float z
element face 272
property list uchar int vertex_indices
end_header
-7.0196 -33.7314 -24.2267
16.7632 -45.2584 -31.8966
-6.92576 -46.4258 -25.659
-7.0196 -33.7314 -24.2267
-6.92576 -46.4258 -25.659
-17.1732 -45.2148 -22.7706
-7.0196 -33.7314 -24.2267
-17.1732 -45.2148 -22.7706
-21.4536 -37.071 -20.7175
-7.0196 -33.7314 -24.2267
-21.4536 -37.071 -20.7175
-21.1668 -26.7484 -19.6504
-7.0196 -33.7314 -24.2267
-21.1668 -26.7484 -19.6504
-18.4711 -23.4901 -20.0137
-7.0196 -33.7314 -24.2267
-18.4711 -23.4901 -20.0137
-3.00001 -13.3158 -23.0442
-7.0196 -33.7314 -24.2267
-3.00001 -13.3158 -23.0442
15.2705 -32.3271 -30.0621
-7.0196 -33.7314 -24.2267
15.2705 -32.3271 -30.0621
16.7632 -45.2584 -31.8966
21.7537 -32.6 -20.0102
27.1478 -43.9319 -15.2272
16.7632 -45.2583 -31.8966
21.7537 -32.6 -20.0102
16.7632 -45.2583 -31.8966
15.2705 -32.3271 -30.0621
21.7537 -32.6 -20.0102
15.2705 -32.3271 -30.0621
20.4588 -10.9238 -15.047
21.7537 -32.6 -20.0102
20.4588 -10.9238 -15.047
29.1283 -30.559 -7.81812
21.7537 -32.6 -20.0102
29.1283 -30.559 -7.81812
27.1478 -43.9319 -15.2272
35.4668 -31.5432 8.19576
35.249 -39.8425 17.8666
34.8343 -42.3517 11.3629
35.4668 -31.5432 8.19576
34.8343 -42.3517 11.3629
34.232 -43.019 -3.66391
35.4668 -31.5432 8.19576
34.232 -43.019 -3.66391
34.2908 -42.2512 -3.51362
35.4668 -31.5432 8.19576
34.2908 -42.2512 -3.51362
36.9961 -10.8974 10.8261
35.4668 -31.5432 8.19576
36.9961 -10.8974 10.8261
37.1985 -10.8974 16.2965
35.4668 -31.5432 8.19576
37.1985 -10.8974 16.2965
35.249 -39.8425 17.8666
32.7024 -30.7393 21.2377
35.0961 -31.599 18.2856
35.2814 -39.3612 17.8405
32.7024 -30.7393 21.2377
35.2814 -39.3612 17.8405
35.249 -39.8425 17.8666
32.7024 -30.7393 21.2377
35.249 -39.8425 17.8666
24.244 -40.683 31.3036
32.7024 -30.7393 21.2377
24.244 -40.683 31.3036
33.6412 -2.21067 20.892
32.7024 -30.7393 21.2377
33.6412 -2.21067 20.892
35.0961 -31.599 18.2856
9.53478 -24.8929 38.472
17.9738 -41.1619 38.9596
15.5296 -42.3517 39.1058
9.53478 -24.8929 38.472
15.5296 -42.3517 39.1058
-3.18542 -43.4503 39.8349
9.53478 -24.8929 38.472
-3.18542 -43.4503 39.8349
3.35658 -7.5316 37.8496
9.53478 -24.8929 38.472
3.35658 -7.5316 37.8496
3.37712 -7.43101 37.844
9.53478 -24.8929 38.472
3.37712 -7.43101 37.844
20.1571 -7.43101 37.2382
9.53478 -24.8929 38.472
20.1571 -7.43101 37.2382
17.9738 -41.1619 38.9596
-28.8233 -25.8507 23.6472
-28.6201 -48.679 26.4542
-24.7786 -48.679 29.2759
-28.8233 -25.8507 23.6472
-24.7786 -48.679 29.2759
-26.4361 -10.0529 23.5613
-28.8233 -25.8507 23.6472
-26.4361 -10.0529 23.5613
-31.9894 -10.0529 19.4825
-28.8233 -25.8507 23.6472
-31.9894 -10.0529 19.4825
-32.2923 -11.7894 19.4621
-28.8233 -25.8507 23.6472
-32.2923 -11.7894 19.4621
-28.6201 -48.679 26.4542
-31.9682 -29.5874 -1.2004
-29.575 -46.1123 14.3564
-29.9634 -46.4258 7.44854
-31.9682 -29.5874 -1.2004
-29.9634 -46.4258 7.44854
-30.8224 -45.047 -4.79585
-31.9682 -29.5874 -1.2004
-30.8224 -45.047 -4.79585
-32.9377 -25.1542 -10.8097
-31.9682 -29.5874 -1.2004
-32.9377 -25.1542 -10.8097
-33.837 -14.9128 -10.7556
-31.9682 -29.5874 -1.2004
-33.837 -14.9128 -10.7556
-33.845 -14.73 -10.6209
-31.9682 -29.5874 -1.2004
-33.845 -14.73 -10.6209
-32.7973 -14.73 6.77429
-31.9682 -29.5874 -1.2004
-32.7973 -14.73 6.77429
-29.575 -46.1123 14.3564
-29.9002 -30.0342 -12.6649
-25.0425 -45.1181 -12.4073
-30.8224 -45.047 -4.79585
-29.9002 -30.0342 -12.6649
-30.8224 -45.047 -4.79585
-33.6631 -18.3326 -12.872
-29.9002 -30.0342 -12.6649
-33.6631 -18.3326 -12.872
-31.3027 -18.3326 -15.9933
-29.9002 -30.0342 -12.6649
-31.3027 -18.3326 -15.9933
-28.6702 -23.3409 -17.256
-29.9002 -30.0342 -12.6649
-28.6702 -23.3409 -17.256
-25.0425 -45.1181 -12.4073
6.91885 -44.3657 3.51159
-29.7397 -46.2452 11.4267
-29.9634 -46.4258 7.44832
6.91885 -44.3657 3.51159
-29.9634 -46.4258 7.44832
-6.92591 -46.4258 -25.659
6.91885 -44.3657 3.51159
-6.92591 -46.4258 -25.659
8.44515 -45.6683 -29.7064
6.91885 -44.3657 3.51159
8.44515 -45.6683 -29.7064
25.5367 -44.1377 -17.8133
6.91885 -44.3657 3.51159
25.5367 -44.1377 -17.8133
34.2237 -43.0281 -3.86892
6.91885 -44.3657 3.51159
34.2237 -43.0281 -3.86892
34.8343 -42.3518 11.3628
6.91885 -44.3657 3.51159
34.8343 -42.3518 11.3628
15.5295 -42.3518 39.1058
6.91885 -44.3657 3.51159
15.5295 -42.3518 39.1058
10.3292 -42.657 39.3084
6.91885 -44.3657 3.51159
10.3292 -42.657 39.3084
-29.7397 -46.2452 11.4267
22.0698 -44.536 23.5267
24.4149 -50.5321 3.19107
4.6259 -50.5321 31.6299
22.0698 -44.536 23.5267
4.6259 -50.5321 31.6299
15.3822 -42.4235 39.1146
22.0698 -44.536 23.5267
15.3822 -42.4235 39.1146
17.9738 -41.1619 38.9596
22.0698 -44.536 23.5267
17.9738 -41.1619 38.9596
35.249 -39.8425 17.8666
22.0698 -44.536 23.5267
35.249 -39.8425 17.8666
34.7728 -42.7238 10.3986
22.0698 -44.536 23.5267
34.7728 -42.7238 10.3986
24.4149 -50.5321 3.19107
32.6745 -12.8529 -1.96891
36.1255 -15.7741 1.4587
35.648 -19.8768 0.477994
32.6745 -12.8529 -1.96891
35.648 -19.8768 0.477994
34.1737 -19.8768 -1.12662
32.6745 -12.8529 -1.96891
34.1737 -19.8768 -1.12662
23.2764 -6.88016 -11.526
32.6745 -12.8529 -1.96891
23.2764 -6.88016 -11.526
34.1488 -1.8567 0.871387
32.6745 -12.8529 -1.96891
34.1488 -1.8567 0.871387
36.1255 -15.7741 1.4587
-16.9836 -11.5927 -21.9802
-15.0857 -19.0788 -21.012
-21.6891 -12.5123 -21.3921
-16.9836 -11.5927 -21.9802
-21.6891 -12.5123 -21.3921
-22.5316 -4.11509 -22.6003
-16.9836 -11.5927 -21.9802
-22.5316 -4.11509 -22.6003
-8.6281 -10.6646 -22.9163
-16.9836 -11.5927 -21.9802
-8.6281 -10.6646 -22.9163
-15.0857 -19.0788 -21.012
-14.0882 -47.2102 -7.6969
-14.5979 -49.8016 18.3689
10.5551 -49.8016 -17.7787
-14.0882 -47.2102 -7.6969
10.5551 -49.8016 -17.7787
-2.54462 -46.9435 -26.894
-14.0882 -47.2102 -7.6969
-2.54462 -46.9435 -26.894
-17.1731 -45.2148 -22.7706
-14.0882 -47.2102 -7.6969
-17.1731 -45.2148 -22.7706
-30.8223 -45.047 -4.79583
-14.0882 -47.2102 -7.6969
-30.8223 -45.047 -4.79583
-29.9465 -46.4528 7.68873
-14.0882 -47.2102 -7.6969
-29.9465 -46.4528 7.68873
-14.5979 -49.8016 18.3689
-23.2793 -6.27362 22.4008
-19.9332 -10.2242 28.3576
-19.3903 -20.842 29.9918
-23.2793 -6.27362 22.4008
-19.3903 -20.842 29.9918
-27.2714 -20.842 16.5842
-23.2793 -6.27362 22.4008
-27.2714 -20.842 16.5842
-27.7835 -8.43399 14.8826
-23.2793 -6.27362 22.4008
-27.7835 -8.43399 14.8826
-24.2593 11.3502 19.5542
-23.2793 -6.27362 22.4008
-24.2593 11.3502 19.5542
-21.038 11.3502 25.0343
-23.2793 -6.27362 22.4008
-21.038 11.3502 25.0343
-19.9332 -10.2242 28.3576
-10.3676 1.9928 30.7863
1.39058 -16.9103 38.259
-19.5914 -16.9103 29.3866
-10.3676 1.9928 30.7863
-19.5914 -16.9103 29.3866
-21.2071 14.6882 24.5233
-10.3676 1.9928 30.7863
-21.2071 14.6882 24.5233
-6.45323 14.6882 30.7621
-10.3676 1.9928 30.7863
-6.45323 14.6882 30.7621
-5.97678 14.4082 31.0006
-10.3676 1.9928 30.7863
-5.97678 14.4082 31.0006
1.39058 -16.9103 38.259
17.7648 -3.67312 29.8621
34.4159 -17.8586 19.5042
1.35306 -17.8586 38.3686
17.7648 -3.67312 29.8621
1.35306 -17.8586 38.3686
1.47083 -17.2516 38.3381
17.7648 -3.67312 29.8621
1.47083 -17.2516 38.3381
19.0101 15.2549 30.2956
17.7648 -3.67312 29.8621
19.0101 15.2549 30.2956
32.574 19.3482 22.804
17.7648 -3.67312 29.8621
32.574 19.3482 22.804
34.4159 -17.8586 19.5042
36.91 1.37184 10.3826
35.0419 -14.6695 6.55349
36.254 -14.6695 1.72274
36.91 1.37184 10.3826
36.254 -14.6695 1.72274
37.6619 -2.57195 4.61449
36.91 1.37184 10.3826
37.6619 -2.57195 4.61449
37.9403 14.76 15.6863
36.91 1.37184 10.3826
37.9403 14.76 15.6863
37.7865 14.76 16.2993
36.91 1.37184 10.3826
37.7865 14.76 16.2993
36.7757 10.622 17.4192
36.91 1.37184 10.3826
36.7757 10.622 17.4192
35.0419 -14.6695 6.55349
11.2454 -13.3164 -19.11
15.4969 -18.6408 -21.3145
13.8248 -21.2414 -23.4266
11.2454 -13.3164 -19.11
13.8248 -21.2414 -23.4266
1.41396 -15.3951 -23.1445
11.2454 -13.3164 -19.11
1.41396 -15.3951 -23.1445
6.46649 -4.81024 -15.0321
11.2454 -13.3164 -19.11
6.46649 -4.81024 -15.0321
19.0251 -6.49459 -12.6323
11.2454 -13.3164 -19.11
19.0251 -6.49459 -12.6323
15.4969 -18.6408 -21.3145
30.224 23.2981 8.67302
37.0305 17.9257 16.1836
37.0411 17.8874 16.1769
30.224 23.2981 8.67302
37.0411 17.8874 16.1769
27.2159 16.4844 -0.281303
30.224 23.2981 8.67302
27.2159 16.4844 -0.281303
22.9143 26.5181 -0.956423
30.224 23.2981 8.67302
22.9143 26.5181 -0.956423
26.6431 30.4864 7.39706
30.224 23.2981 8.67302
26.6431 30.4864 7.39706
30.499 30.4864 13.5184
30.224 23.2981 8.67302
30.499 30.4864 13.5184
37.0305 17.9257 16.1836
23.9709 9.10015 -0.345397
9.08176 3.04452 -1.46794
34.1488 -1.8567 0.871386
23.9709 9.10015 -0.345397
34.1488 -1.8567 0.871386
33.6879 1.38813 0.734456
23.9709 9.10015 -0.345397
33.6879 1.38813 0.734456
24.2055 23.5062 -0.753761
23.9709 9.10015 -0.345397
24.2055 23.5062 -0.753761
18.7307 19.4186 -1.11113
23.9709 9.10015 -0.345397
18.7307 19.4186 -1.11113
9.08176 3.04452 -1.46794
8.28005 19.3593 -9.26388
-0.292152 13.1624 -19.9577
-7.03495 13.1624 -14.1912
8.28005 19.3593 -9.26388
-7.03495 13.1624 -14.1912
-4.72518 14.7701 -11.4904
8.28005 19.3593 -9.26388
-4.72518 14.7701 -11.4904
18.9232 25.2378 -1.26752
8.28005 19.3593 -9.26388
18.9232 25.2378 -1.26752
22.9143 26.5181 -0.956419
8.28005 19.3593 -9.26388
22.9143 26.5181 -0.956419
19.8951 23.3051 -7.72001
8.28005 19.3593 -9.26388
19.8951 23.3051 -7.72001
-0.292152 13.1624 -19.9577
5.54771 20.5917 29.3053
-5.97677 14.4082 31.0006
0.786049 5.20108 33.0416
5.54771 20.5917 29.3053
0.786049 5.20108 33.0416
6.63664 5.20108 32.9234
5.54771 20.5917 29.3053
6.63664 5.20108 32.9234
19.0101 15.2549 30.2956
5.54771 20.5917 29.3053
19.0101 15.2549 30.2956
23.8559 24.2359 28.0736
5.54771 20.5917 29.3053
23.8559 24.2359 28.0736
16.5254 38.6237 24.8188
5.54771 20.5917 29.3053
16.5254 38.6237 24.8188
-8.26153 37.9753 25.4729
5.54771 20.5917 29.3053
-8.26153 37.9753 25.4729
-8.194 23.8336 28.8162
5.54771 20.5917 29.3053
-8.194 23.8336 28.8162
-5.97677 14.4082 31.0006
24.882 11.9885 23.699
34.3151 4.46309 11.5853
15.4784 4.46309 25.7728
24.882 11.9885 23.699
15.4784 4.46309 25.7728
18.9022 15.1672 30.3185
24.882 11.9885 23.699
18.9022 15.1672 30.3185
19.0099 15.2547 30.2957
24.882 11.9885 23.699
19.0099 15.2547 30.2957
36.7042 20.5944 20.5227
24.882 11.9885 23.699
36.7042 20.5944 20.5227
34.3151 4.46309 11.5853
28.0768 30.7704 10.2969
24.6634 12.9165 1.24247
23.406 12.9165 -1.38729
28.0768 30.7704 10.2969
23.406 12.9165 -1.38729
22.8447 26.3595 -1.1189
28.0768 30.7704 10.2969
22.8447 26.3595 -1.1189
30.9552 44.8537 17.8279
28.0768 30.7704 10.2969
30.9552 44.8537 17.8279
33.2703 44.8537 22.6698
28.0768 30.7704 10.2969
33.2703 44.8537 22.6698
33.3212 42.7225 22.5476
28.0768 30.7704 10.2969
33.3212 42.7225 22.5476
24.6634 12.9165 1.24247
4.63376 0.14865 -7.8784
-11.132 -2.44995 -18.3951
17.6225 -6.30646 -12.9003
4.63376 0.14865 -7.8784
17.6225 -6.30646 -12.9003
12.8542 2.30693 -1.11589
4.63376 0.14865 -7.8784
12.8542 2.30693 -1.11589
4.8235 3.87712 -1.86533
4.63376 0.14865 -7.8784
4.8235 3.87712 -1.86533
-0.999311 3.31561 -5.11541
4.63376 0.14865 -7.8784
-0.999311 3.31561 -5.11541
-11.132 -2.44995 -18.3951
-3.33546 9.5315 -8.76129
-10.7144 2.37877 -10.538
-7.07528 2.7297 -8.50678
-3.33546 9.5315 -8.76129
-7.07528 2.7297 -8.50678
6.08636 10.7333 -3.60899
-3.33546 9.5315 -8.76129
6.08636 10.7333 -3.60899
6.64649 14.2441 -4.5532
-3.33546 9.5315 -8.76129
6.64649 14.2441 -4.5532
-5.91353 14.2441 -12.0041
-3.33546 9.5315 -8.76129
-5.91353 14.2441 -12.0041
-9.04235 12.8591 -13.3566
-3.33546 9.5315 -8.76129
-9.04235 12.8591 -13.3566
-10.7144 2.37877 -10.538
-5.10588 7.62889 -15.9747
-12.7692 5.77573 -25.0449
-17.4957 0.867166 -22.2967
-5.10588 7.62889 -15.9747
-17.4957 0.867166 -22.2967
-12.4694 0.867169 -13.6548
-5.10588 7.62889 -15.9747
-12.4694 0.867169 -13.6548
-7.07526 2.7297 -8.50676
-5.10588 7.62889 -15.9747
-7.07526 2.7297 -8.50676
-0.401262 6.78815 -6.0232
-5.10588 7.62889 -15.9747
-0.401262 6.78815 -6.0232
10.2118 17.8108 -12.1959
-5.10588 7.62889 -15.9747
10.2118 17.8108 -12.1959
8.9595 17.8108 -14.3491
-5.10588 7.62889 -15.9747
8.9595 17.8108 -14.3491
-9.80751 8.38162 -25.726
-5.10588 7.62889 -15.9747
-9.80751 8.38162 -25.726
-12.7692 5.77573 -25.0449
-11.1694 17.3282 -30.3688
-2.12872 15.5277 -30.3383
-16.1873 7.74878 -26.8589
-11.1694 17.3282 -30.3688
-16.1873 7.74878 -26.8589
-19.693 7.74878 -26.638
-11.1694 17.3282 -30.3688
-19.693 7.74878 -26.638
-17.8393 15.0176 -29.1782
-11.1694 17.3282 -30.3688
-17.8393 15.0176 -29.1782
-8.75827 28.9632 -34.3998
-11.1694 17.3282 -30.3688
-8.75827 28.9632 -34.3998
-2.40988 28.9632 -34.7998
-11.1694 17.3282 -30.3688
-2.40988 28.9632 -34.7998
-2.12872 15.5277 -30.3383
-18.3477 23.4072 -30.578
-17.8393 15.0175 -29.1782
-23.8068 16.8952 -26.1049
-18.3477 23.4072 -30.578
-23.8068 16.8952 -26.1049
-22.2615 22.4052 -28.1115
-18.3477 23.4072 -30.578
-22.2615 22.4052 -28.1115
-14.1593 31.3589 -34.6068
-18.3477 23.4072 -30.578
-14.1593 31.3589 -34.6068
-13.6718 31.3589 -34.8889
-18.3477 23.4072 -30.578
-13.6718 31.3589 -34.8889
-17.8393 15.0175 -29.1782
-31.2222 2.0183 -21.7279
-36.5415 -5.20971 -18.6997
-33.5741 -5.20971 -20.2583
-31.2222 2.0183 -21.7279
-33.5741 -5.20971 -20.2583
-26.1689 2.2258 -24.3886
-31.2222 2.0183 -21.7279
-26.1689 2.2258 -24.3886
-25.9434 2.57211 -24.5183
-31.2222 2.0183 -21.7279
-25.9434 2.57211 -24.5183
-31.831 9.92079 -21.6643
-31.2222 2.0183 -21.7279
-31.831 9.92079 -21.6643
-33.2742 7.81053 -20.8379
-31.2222 2.0183 -21.7279
-33.2742 7.81053 -20.8379
-36.5415 -5.20971 -18.6997
-13.24 -0.720745 -26.0624
-9.02407 -10.1963 -24.4707
-8.58809 -9.55742 -24.7194
-13.24 -0.720745 -26.0624
-8.58809 -9.55742 -24.7194
-9.74834 14.4717 -30.6277
-13.24 -0.720745 -26.0624
-9.74834 14.4717 -30.6277
-25.5996 2.39907 -24.432
-13.24 -0.720745 -26.0624
-25.5996 2.39907 -24.432
-9.02407 -10.1963 -24.4707
-5.73563 -8.52138 -20.3548
1.53801 -14.8043 -21.1185
-2.95992 -14.8043 -24.4848
-5.73563 -8.52138 -20.3548
-2.95992 -14.8043 -24.4848
-15.7559 -5.08095 -24.4549
-5.73563 -8.52138 -20.3548
-15.7559 -5.08095 -24.4549
-5.76473 0.604068 -11.3608
-5.73563 -8.52138 -20.3548
-5.76473 0.604068 -11.3608
1.53801 -14.8043 -21.1185
-7.25707 18.7131 -33.2149
-12.6947 12.2275 -29.4759
-12.3449 16.1064 -32.0992
-7.25707 18.7131 -33.2149
-12.3449 16.1064 -32.0992
-3.46924 25.0183 -37.0497
-7.25707 18.7131 -33.2149
-3.46924 25.0183 -37.0497
-0.519453 21.5002 -34.2347
-7.25707 18.7131 -33.2149
-0.519453 21.5002 -34.2347
-12.6947 12.2275 -29.4759
16.3954 24.3404 -34.3691
10.3605 14.0777 -28.5157
7.23664 13.6316 -33.7485
16.3954 24.3404 -34.3691
7.23664 13.6316 -33.7485
21.7003 34.8262 -42.0009
16.3954 24.3404 -34.3691
21.7003 34.8262 -42.0009
26.2841 34.8262 -33.2113
16.3954 24.3404 -34.3691
26.2841 34.8262 -33.2113
10.3605 14.0777 -28.5157
30.5421 33.1615 -14.3573
25.7314 26.0594 -8.54911
24.5756 26.0594 -13.8153
30.5421 33.1615 -14.3573
24.5756 26.0594 -13.8153
34.5185 40.2635 -23.9671
30.5421 33.1615 -14.3573
34.5185 40.2635 -23.9671
37.343 40.2635 -11.0975
30.5421 33.1615 -14.3573
37.343 40.2635 -11.0975
25.7314 26.0594 -8.54911
28.679 34.1003 -9.4168
20.9876 20.9337 -10.152
20.4653 20.9337 -6.67749
28.679 34.1003 -9.4168
20.4653 20.9337 -6.67749
22.9142 26.5181 -0.956422
28.679 34.1003 -9.4168
22.9142 26.5181 -0.956422
32.5973 42.9502 -0.598344
28.679 34.1003 -9.4168
32.5973 42.9502 -0.598344
34.9769 45.5582 -6.14699
28.679 34.1003 -9.4168
34.9769 45.5582 -6.14699
37.1027 45.5582 -20.2878
28.679 34.1003 -9.4168
37.1027 45.5582 -20.2878
31.7091 36.2501 -21.0986
28.679 34.1003 -9.4168
31.7091 36.2501 -21.0986
20.9876 20.9337 -10.152
18.7764 43.5692 17.3208
27.1325 36.9606 12.1446
26.2089 35.9484 14.2982
18.7764 43.5692 17.3208
26.2089 35.9484 14.2982
18.8828 35.9484 24.0944
18.7764 43.5692 17.3208
18.8828 35.9484 24.0944
16.5254 38.6237 24.8188
18.7764 43.5692 17.3208
16.5254 38.6237 24.8188
7.17957 56.967 20.6692
18.7764 43.5692 17.3208
7.17957 56.967 20.6692
16.7293 56.967 7.89958
18.7764 43.5692 17.3208
16.7293 56.967 7.89958
27.1325 36.9606 12.1446
-13.4418 12.529 25.6532
-4.36937 3.58396 29.2666
-22.258 3.58396 17.6096
-13.4418 12.529 25.6532
-22.258 3.58396 17.6096
-22.5552 17.1335 20.8977
-13.4418 12.529 25.6532
-22.5552 17.1335 20.8977
-19.9135 22.5995 24.0238
-13.4418 12.529 25.6532
-19.9135 22.5995 24.0238
-5.97678 14.4082 31.0006
-13.4418 12.529 25.6532
-5.97678 14.4082 31.0006
-5.57781 13.865 31.121
-13.4418 12.529 25.6532
-5.57781 13.865 31.121
-4.36937 3.58396 29.2666
-33.1473 -7.81265 -8.92358
-33.6872 -18.3347 -13.2751
-32.87 -15.4208 -14.3362
-33.1473 -7.81265 -8.92358
-32.87 -15.4208 -14.3362
-31.869 -5.05046 -11.6388
-33.1473 -7.81265 -8.92358
-31.869 -5.05046 -11.6388
-31.759 -2.6194 -10.5833
-33.1473 -7.81265 -8.92358
-31.759 -2.6194 -10.5833
-34.3323 -2.6194 -1.84906
-33.1473 -7.81265 -8.92358
-34.3323 -2.6194 -1.84906
-34.366 -2.8311 -1.85901
-33.1473 -7.81265 -8.92358
-34.366 -2.8311 -1.85901
-33.6872 -18.3347 -13.2751
-31.8178 3.97218 3.16092
-35.949 -6.89324 0.888161
-31.1228 12.7501 -4.30034
-31.8178 3.97218 3.16092
-31.1228 12.7501 -4.30034
-28.3818 6.05962 12.8949
-31.8178 3.97218 3.16092
-28.3818 6.05962 12.8949
-35.949 -6.89324 0.888161
-2.52887 26.9546 22.6188
-22.6291 20.5015 21.7151
-22.4686 13.1831 19.9391
-2.52887 26.9546 22.6188
-22.4686 13.1831 19.9391
16.3838 13.1831 18.6679
-2.52887 26.9546 22.6188
16.3838 13.1831 18.6679
16.5845 38.5567 24.8007
-2.52887 26.9546 22.6188
16.5845 38.5567 24.8007
16.5254 38.6237 24.8188
-2.52887 26.9546 22.6188
16.5254 38.6237 24.8188
-19.5692 37.6795 25.7712
-2.52887 26.9546 22.6188
-19.5692 37.6795 25.7712
-22.6291 20.5015 21.7151
-28.4787 37.308 13.3772
-34.8986 22.1482 7.90797
-26.372 22.1482 19.8594
-28.4787 37.308 13.3772
-26.372 22.1482 19.8594
-21.0828 52.4677 20.2143
-28.4787 37.308 13.3772
-21.0828 52.4677 20.2143
-31.5614 52.4677 5.52699
-28.4787 37.308 13.3772
-31.5614 52.4677 5.52699
-34.8986 22.1482 7.90797
-31.2405 25.0533 -3.41079
-31.0564 12.9128 -3.83929
-31.1228 12.7501 -4.30032
-31.2405 25.0533 -3.41079
-31.1228 12.7501 -4.30032
-31.8627 14.5561 -8.94184
-31.2405 25.0533 -3.41079
-31.8627 14.5561 -8.94184
-32.1536 29.0662 -8.89779
-31.2405 25.0533 -3.41079
-32.1536 29.0662 -8.89779
-31.4397 40.5172 -2.63185
-31.2405 25.0533 -3.41079
-31.4397 40.5172 -2.63185
-29.8076 40.5172 8.14633
-31.2405 25.0533 -3.41079
-29.8076 40.5172 8.14633
-31.0564 12.9128 -3.83929
-30.4593 17.0788 -13.0536
-33.2742 7.8106 -20.8379
-33.4873 6.96157 -20.6985
-30.4593 17.0788 -13.0536
-33.4873 6.96157 -20.6985
-31.46 11.9247 -6.63856
-30.4593 17.0788 -13.0536
-31.46 11.9247 -6.63856
-29.9055 17.7049 -5.60909
-30.4593 17.0788 -13.0536
-29.9055 17.7049 -5.60909
-27.1217 29.0355 -8.60195
-30.4593 17.0788 -13.0536
-27.1217 29.0355 -8.60195
-27.5072 29.0355 -15.9357
-30.4593 17.0788 -13.0536
-27.5072 29.0355 -15.9357
-33.2742 7.8106 -20.8379
-24.1333 27.206 -22.2052
-31.3887 14.7498 -19.2352
-29.1889 14.7498 -22.5579
-24.1333 27.206 -22.2052
-29.1889 14.7498 -22.5579
-26.4852 17.7377 -24.7255
-24.1333 27.206 -22.2052
-26.4852 17.7377 -24.7255
-14.0133 35.9744 -31.8671
-24.1333 27.206 -22.2052
-14.0133 35.9744 -31.8671
-19.1987 40.0123 -21.4451
-24.1333 27.206 -22.2052
-19.1987 40.0123 -21.4451
-24.5247 40.0123 -13.4005
-24.1333 27.206 -22.2052
-24.5247 40.0123 -13.4005
-31.3887 14.7498 -19.2352
-18.2816 47.7068 -10.853
-15.4311 37.0784 -29.0175
-28.9653 47.6178 -1.81512
-18.2816 47.7068 -10.853
-28.9653 47.6178 -1.81512
-24.9837 53.0655 2.824
-18.2816 47.7068 -10.853
-24.9837 53.0655 2.824
-3.74639 53.0655 -15.4033
-18.2816 47.7068 -10.853
-3.74639 53.0655 -15.4033
-15.4311 37.0784 -29.0175
-15.7557 52.7564 -1.61295
-12.3381 41.7595 -6.6039
-23.4363 41.7595 -1.32495
-15.7557 52.7564 -1.61295
-23.4363 41.7595 -1.32495
-17.5212 63.7533 2.59215
-15.7557 52.7564 -1.61295
-17.5212 63.7533 2.59215
-9.72728 63.7533 -1.11511
-15.7557 52.7564 -1.61295
-9.72728 63.7533 -1.11511
-12.3381 41.7595 -6.6039
-9.57222 -44.2373 30.2695
-29.7397 -46.2452 11.4267
10.3292 -42.657 39.3084
-9.57222 -44.2373 30.2695
10.3292 -42.657 39.3084
-9.30617 -43.8096 40.0734
-9.57222 -44.2373 30.2695
-9.30617 -43.8096 40.0734
-29.7397 -46.2452 11.4267
-22.6578 -45.2149 25.7896
-29.7397 -46.2452 11.4267
-9.30617 -43.8096 40.0734
-22.6578 -45.2149 25.7896
-9.30617 -43.8096 40.0734
-28.9276 -45.5899 25.8687
-22.6578 -45.2149 25.7896
-28.9276 -45.5899 25.8687
-29.7397 -46.2452 11.4267
35.7639 -24.3418 2.72624
36.9961 -10.8974 10.8261
36.0047 -19.8769 0.866205
35.7639 -24.3418 2.72624
36.0047 -19.8769 0.866205
34.2908 -42.2511 -3.51358
35.7639 -24.3418 2.72624
34.2908 -42.2511 -3.51358
36.9961 -10.8974 10.8261
31.5691 -27.3349 -4.7994
36.0047 -19.8769 0.866205
24.4119 -19.8769 -11.7508
31.5691 -27.3349 -4.7994
24.4119 -19.8769 -11.7508
34.2908 -42.2511 -3.51358
31.5691 -27.3349 -4.7994
34.2908 -42.2511 -3.51358
36.0047 -19.8769 0.866205
3 0 1 2
3 3 4 5
3 6 7 8
3 9 10 11
3 12 13 14
3 15 16 17
3 18 19 20
3 21 22 23
3 24 25 26
3 27 28 29
3 30 31 32
3 33 34 35
3 36 37 38
3 39 40 41
3 42 43 44
3 45 46 47
3 48 49 50
3 51 52 53
3 54 55 56
3 57 58 59
3 60 61 62
3 63 64 65
3 66 67 68
3 69 70 71
3 72 73 74
3 75 76 77
3 78 79 80
3 81 82 83
3 84 85 86
3 87 88 89
3 90 91 92
3 93 94 95
3 96 97 98
3 99 100 101
3 102 103 104
3 105 106 107
3 108 109 110
3 111 112 113
3 114 115 116
3 117 118 119
3 120 121 122
3 123 124 125
3 126 127 128
3 129 130 131
3 132 133 134
3 135 136 137
3 138 139 140
3 141 142 143
3 144 145 146
3 147 148 149
3 150 151 152
3 153 154 155
3 156 157 158
3 159 160 161
3 162 163 164
3 165 166 167
3 168 169 170
3 171 172 173
3 174 175 176
3 177 178 179
3 180 181 182
3 183 184 185
3 186 187 188
3 189 190 191
3 192 193 194
3 195 196 197
3 198 199 200
3 201 202 203
3 204 205 206
3 207 208 209
3 210 211 212
3 213 214 215
3 216 217 218
3 219 220 221
3 222 223 224
3 225 226 227
3 228 229 230
3 231 232 233
3 234 235 236
3 237 238 239
3 240 241 242
3 243 244 245
3 246 247 248
3 249 250 251
3 252 253 254
3 255 256 257
3 258 259 260
3 261 262 263
3 264 265 266
3 267 268 269
3 270 271 272
3 273 274 275
3 276 277 278
3 279 280 281
3 282 283 284
3 285 286 287
3 288 289 290
3 291 292 293
3 294 295 296
3 297 298 299
3 300 301 302
3 303 304 305
3 306 307 308
3 309 310 311
3 312 313 314
3 315 316 317
3 318 319 320
3 321 322 323
3 324 325 326
3 327 328 329
3 330 331 332
3 333 334 335
3 336 337 338
3 339 340 341
3 342 343 344
3 345 346 347
3 348 349 350
3 351 352 353
3 354 355 356
3 357 358 359
3 360 361 362
3 363 364 365
3 366 367 368
3 369 370 371
3 372 373 374
3 375 376 377
3 378 379 380
3 381 382 383
3 384 385 386
3 387 388 389
3 390 391 392
3 393 394 395
3 396 397 398
3 399 400 401
3 402 403 404
3 405 406 407
3 408 409 410
3 411 412 413
3 414 415 416
3 417 418 419
3 420 421 422
3 423 424 425
3 426 427 428
3 429 430 431
3 432 433 434
3 435 436 437
3 438 439 440
3 441 442 443
3 444 445 446
3 447 448 449
3 450 451 452
3 453 454 455
3 456 457 458
3 459 460 461
3 462 463 464
3 465 466 467
3 468 469 470
3 471 472 473
3 474 475 476
3 477 478 479
3 480 481 482
3 483 484 485
3 486 487 488
3 489 490 491
3 492 493 494
3 495 496 497
3 498 499 500
3 501 502 503
3 504 505 506
3 507 508 509
3 510 511 512
3 513 514 515
3 516 517 518
3 519 520 521
3 522 523 524
3 525 526 527
3 528 529 530
3 531 532 533
3 534 535 536
3 537 538 539
3 540 541 542
3 543 544 545
3 546 547 548
3 549 550 551
3 552 553 554
3 555 556 557
3 558 559 560
3 561 562 563
3 564 565 566
3 567 568 569
3 570 571 572
3 573 574 575
3 576 577 578
3 579 580 581
3 582 583 584
3 585 586 587
3 588 589 590
3 591 592 593
3 594 595 596
3 597 598 599
3 600 601 602
3 603 604 605
3 606 607 608
3 609 610 611
3 612 613 614
3 615 616 617
3 618 619 620
3 621 622 623
3 624 625 626
3 627 628 629
3 630 631 632
3 633 634 635
3 636 637 638
3 639 640 641
3 642 643 644
3 645 646 647
3 648 649 650
3 651 652 653
3 654 655 656
3 657 658 659
3 660 661 662
3 663 664 665
3 666 667 668
3 669 670 671
3 672 673 674
3 675 676 677
3 678 679 680
3 681 682 683
3 684 685 686
3 687 688 689
3 690 691 692
3 693 694 695
3 696 697 698
3 699 700 701
3 702 703 704
3 705 706 707
3 708 709 710
3 711 712 713
3 714 715 716
3 717 718 719
3 720 721 722
3 723 724 725
3 726 727 728
3 729 730 731
3 732 733 734
3 735 736 737
3 738 739 740
3 741 742 743
3 744 745 746
3 747 748 749
3 750 751 752
3 753 754 755
3 756 757 758
3 759 760 761
3 762 763 764
3 765 766 767
3 768 769 770
3 771 772 773
3 774 775 776
3 777 778 779
3 780 781 782
3 783 784 785
3 786 787 788
3 789 790 791
3 792 793 794
3 795 796 797
3 798 799 800
3 801 802 803
3 804 805 806
3 807 808 809
3 810 811 812
3 813 814 815
