ply
format ascii 1.0
element vertex 570
property float x
property float y
property float z
element face 190
property list uchar int vertex_indices
end_header
1.87468 -29.8938 34.5565
-9.49071 -34.9052 35.746
-2.83135 -61.9954 39.5511
1.87468 -29.8938 34.5565
-2.83135 -61.9954 39.5511
15.7417 -23.8762 33.1195
1.87468 -29.8938 34.5565
15.7417 -23.8762 33.1195
14.703 -17.176 32.155
1.87468 -29.8938 34.5565
14.703 -17.176 32.155
-8.74922 -11.5164 32.2106
1.87468 -29.8938 34.5565
-8.74922 -11.5164 32.2106
-9.49071 -34.9052 35.746
-24.7333 -42.8651 25.8451
-18.3283 -81.057 37.2596
-28.5392 -78.154 29.1888
-24.7333 -42.8651 25.8451
-28.5392 -78.154 29.1888
-35.3868 -30.1675 15.7359
-24.7333 -42.8651 25.8451
-35.3868 -30.1675 15.7359
-34.9904 -21.0167 14.4314
-24.7333 -42.8651 25.8451
-34.9904 -21.0167 14.4314
-19.3364 -16.291 25.2019
-24.7333 -42.8651 25.8451
-19.3364 -16.291 25.2019
-11.8185 -30.5042 33.2531
-24.7333 -42.8651 25.8451
-11.8185 -30.5042 33.2531
-18.3283 -81.057 37.2596
-33.3387 -53.1038 3.67366
-31.1521 -78.7164 -11.3105
-27.1551 -87.8539 31.9082
-33.3387 -53.1038 3.67366
-27.1551 -87.8539 31.9082
-37.1688 -17.6794 12.2349
-33.3387 -53.1038 3.67366
-37.1688 -17.6794 12.2349
-37.8791 -28.1656 -18.1379
-33.3387 -53.1038 3.67366
-37.8791 -28.1656 -18.1379
-31.1521 -78.7164 -11.3105
-17.4115 -62.2341 -23.31
-1.40768 -78.2455 -29.6569
-29.7247 -88.1736 -10.1368
-17.4115 -62.2341 -23.31
-29.7247 -88.1736 -10.1368
-24.5962 -40.7673 -23.5547
-17.4115 -62.2341 -23.31
-24.5962 -40.7673 -23.5547
-13.9174 -41.7501 -29.8918
-17.4115 -62.2341 -23.31
-13.9174 -41.7501 -29.8918
-1.40768 -78.2455 -29.6569
13.4007 -60.4758 -27.3304
5.82151 -73.1113 -35.2036
12.3303 -84.4109 -36.7475
13.4007 -60.4758 -27.3304
12.3303 -84.4109 -36.7475
17.3156 -80.929 -33.3794
13.4007 -60.4758 -27.3304
17.3156 -80.929 -33.3794
26.3495 -31.964 -11.2828
13.4007 -60.4758 -27.3304
26.3495 -31.964 -11.2828
5.18646 -31.964 -20.0384
13.4007 -60.4758 -27.3304
5.18646 -31.964 -20.0384
5.82151 -73.1113 -35.2036
33.5553 -53.211 1.36743
34.7904 -77.0881 -1.41068
34.5686 -78.8638 -6.78171
33.5553 -53.211 1.36743
34.5686 -78.8638 -6.78171
31.972 -30.2046 -2.42956
33.5553 -53.211 1.36743
31.972 -30.2046 -2.42956
32.9216 -35.9918 7.60322
33.5553 -53.211 1.36743
32.9216 -35.9918 7.60322
33.5238 -43.9069 9.8559
33.5553 -53.211 1.36743
33.5238 -43.9069 9.8559
34.7904 -77.0881 -1.41068
28.2613 -53.2939 23.175
27.3895 -77.7648 35.0094
35.2289 -66.3196 16.2347
28.2613 -53.2939 23.175
35.2289 -66.3196 16.2347
33.5238 -43.9069 9.85591
28.2613 -53.2939 23.175
33.5238 -43.9069 9.85591
16.9031 -25.1845 31.6001
28.2613 -53.2939 23.175
16.9031 -25.1845 31.6001
27.3895 -77.7648 35.0094
26.8644 -25.9259 21.7394
33.4908 -43.0442 10.1488
32.9615 -43.2736 10.5915
26.8644 -25.9259 21.7394
32.9615 -43.2736 10.5915
15.7417 -23.8762 33.1196
26.8644 -25.9259 21.7394
15.7417 -23.8762 33.1196
20.1077 -14.9155 31.6077
26.8644 -25.9259 21.7394
20.1077 -14.9155 31.6077
32.0202 -4.5202 23.2295
26.8644 -25.9259 21.7394
32.0202 -4.5202 23.2295
33.4908 -43.0442 10.1488
22.8896 -4.26344 -11.8198
18.8831 -15.155 -19.7728
22.689 -19.5309 -14.7299
22.8896 -4.26344 -11.8198
22.689 -19.5309 -14.7299
30.733 -6.98595 -0.352853
22.8896 -4.26344 -11.8198
30.733 -6.98595 -0.352853
29.6025 14.1994 1.54198
22.8896 -4.26344 -11.8198
29.6025 14.1994 1.54198
17.7983 1.06764 -18.6552
22.8896 -4.26344 -11.8198
17.7983 1.06764 -18.6552
17.6317 0.824102 -18.9502
22.8896 -4.26344 -11.8198
17.6317 0.824102 -18.9502
18.8831 -15.155 -19.7728
-3.06008 -27.0665 -13.7281
-5.41743 -19.5288 -1.77625
-13.4156 -40.4381 -28.2318
-3.06008 -27.0665 -13.7281
-13.4156 -40.4381 -28.2318
-9.61768 -39.8369 -29.1151
-3.06008 -27.0665 -13.7281
-9.61768 -39.8369 -29.1151
16.0376 -18.8017 -10.614
-3.06008 -27.0665 -13.7281
16.0376 -18.8017 -10.614
-2.88728 -16.727 1.09685
-3.06008 -27.0665 -13.7281
-2.88728 -16.727 1.09685
-5.41743 -19.5288 -1.77625
-14.6262 -11.0572 -20.8422
-21.1858 -17.1727 -28.8204
-21.2064 -17.9262 -28.5069
-14.6262 -11.0572 -20.8422
-21.2064 -17.9262 -28.5069
-14.2429 -18.633 -16.7177
-14.6262 -11.0572 -20.8422
-14.2429 -18.633 -16.7177
-7.37822 -10.6871 -9.08126
-14.6262 -11.0572 -20.8422
-7.37822 -10.6871 -9.08126
-7.1012 -9.33318 -9.24954
-14.6262 -11.0572 -20.8422
-7.1012 -9.33318 -9.24954
-16.6429 7.40884 -32.6772
-14.6262 -11.0572 -20.8422
-16.6429 7.40884 -32.6772
-21.1858 -17.1727 -28.8204
-17.0291 -10.9518 -17.036
-11.8073 -10.9391 -7.87263
-9.72113 -19.092 -9.06242
-17.0291 -10.9518 -17.036
-9.72113 -19.092 -9.06242
-21.2063 -17.9262 -28.5069
-17.0291 -10.9518 -17.036
-21.2063 -17.9262 -28.5069
-25.3817 4.1499 -22.7019
-17.0291 -10.9518 -17.036
-25.3817 4.1499 -22.7019
-11.8073 -10.9391 -7.87263
-29.3712 -13.2817 -23.6572
-21.3228 -17.9144 -28.7041
-23.4185 -29.254 -26.9249
-29.3712 -13.2817 -23.6572
-23.4185 -29.254 -26.9249
-27.3831 -30.5903 -24.3047
-29.3712 -13.2817 -23.6572
-27.3831 -30.5903 -24.3047
-37.6652 -19.9217 -18.0332
-29.3712 -13.2817 -23.6572
-37.6652 -19.9217 -18.0332
-38.1625 9.46811 -18.8002
-29.3712 -13.2817 -23.6572
-38.1625 9.46811 -18.8002
-28.2753 8.52199 -25.176
-29.3712 -13.2817 -23.6572
-28.2753 8.52199 -25.176
-21.3228 -17.9144 -28.7041
-29.3462 1.59988 -9.42139
-21.2064 -17.9262 -28.5069
-21.4113 -25.4266 -25.3856
-29.3462 1.59988 -9.42139
-21.4113 -25.4266 -25.3856
-34.1278 -8.2787 8.84386
-29.3462 1.59988 -9.42139
-34.1278 -8.2787 8.84386
-35.1177 2.0755 8.52833
-29.3462 1.59988 -9.42139
-35.1177 2.0755 8.52833
-35.4446 22.4393 2.82551
-29.3462 1.59988 -9.42139
-35.4446 22.4393 2.82551
-30.1284 20.3897 -13.1756
-29.3462 1.59988 -9.42139
-30.1284 20.3897 -13.1756
-27.9872 17.9262 -19.0793
-29.3462 1.59988 -9.42139
-27.9872 17.9262 -19.0793
-21.2064 -17.9262 -28.5069
-23.355 0.369579 22.9775
-15.5597 -10.2164 32.2783
-9.49071 -34.9052 35.7461
-23.355 0.369579 22.9775
-9.49071 -34.9052 35.7461
-33.3884 10.2756 10.1531
-23.355 0.369579 22.9775
-33.3884 10.2756 10.1531
-32.8618 12.0027 11.3416
-23.355 0.369579 22.9775
-32.8618 12.0027 11.3416
-25.4744 24.6913 25.3684
-23.355 0.369579 22.9775
-25.4744 24.6913 25.3684
-15.5597 -10.2164 32.2783
9.50486 -15.5152 31.2134
-10.1815 -17.7917 32.2456
17.6637 -28.9979 31.8473
9.50486 -15.5152 31.2134
17.6637 -28.9979 31.8473
16.0962 -21.1383 31.3377
9.50486 -15.5152 31.2134
16.0962 -21.1383 31.3377
33.2636 -35.2761 31.6242
9.50486 -15.5152 31.2134
33.2636 -35.2761 31.6242
8.23846 11.3606 29.2909
9.50486 -15.5152 31.2134
8.23846 11.3606 29.2909
-8.05118 -1.24795 30.9344
9.50486 -15.5152 31.2134
-8.05118 -1.24795 30.9344
-10.1815 -17.7917 32.2456
20.6113 10.6562 23.9372
25.9655 -9.80371 27.4878
33.5284 -3.20409 22.1688
20.6113 10.6562 23.9372
33.5284 -3.20409 22.1688
33.3769 16.1982 16.5886
20.6113 10.6562 23.9372
33.3769 16.1982 16.5886
12.9026 24.0805 23.4925
20.6113 10.6562 23.9372
12.9026 24.0805 23.4925
8.32168 24.0805 25.5506
20.6113 10.6562 23.9372
8.32168 24.0805 25.5506
9.57257 12.5858 28.3349
20.6113 10.6562 23.9372
9.57257 12.5858 28.3349
25.9655 -9.80371 27.4878
10.4007 32.7547 3.49697
21.0016 23.5786 15.2085
23.8095 22.7006 15.26
10.4007 32.7547 3.49697
23.8095 22.7006 15.26
27.9166 26.9706 4.42098
10.4007 32.7547 3.49697
27.9166 26.9706 4.42098
13.0435 33.8584 -0.247225
10.4007 32.7547 3.49697
13.0435 33.8584 -0.247225
7.40657 35.3754 0.132265
10.4007 32.7547 3.49697
7.40657 35.3754 0.132265
-6.84393 42.7392 -5.84233
10.4007 32.7547 3.49697
-6.84393 42.7392 -5.84233
-7.7177 42.4514 -4.75601
10.4007 32.7547 3.49697
-7.7177 42.4514 -4.75601
4.5897 34.3637 3.79959
10.4007 32.7547 3.49697
4.5897 34.3637 3.79959
21.0016 23.5786 15.2085
20.9631 28.2018 14.0507
17.9721 27.592 24.9599
32.401 22.9101 17.6096
20.9631 28.2018 14.0507
32.401 22.9101 17.6096
33.9328 23.1168 12.6499
20.9631 28.2018 14.0507
33.9328 23.1168 12.6499
33.1397 24.5518 6.06034
20.9631 28.2018 14.0507
33.1397 24.5518 6.06034
27.9167 26.9706 4.42101
20.9631 28.2018 14.0507
27.9167 26.9706 4.42101
1.56858 35.9738 15.1481
20.9631 28.2018 14.0507
1.56858 35.9738 15.1481
-0.18894 36.2978 17.5061
20.9631 28.2018 14.0507
-0.18894 36.2978 17.5061
17.9721 27.592 24.9599
-3.34129 44.9935 12.8755
-8.93391 44.1083 22.471
-7.26948 41.1953 23.0835
-3.34129 44.9935 12.8755
-7.26948 41.1953 23.0835
4.51857 40.2404 5.93797
-3.34129 44.9935 12.8755
4.51857 40.2404 5.93797
0.865733 47.5706 3.57051
-3.34129 44.9935 12.8755
0.865733 47.5706 3.57051
-5.88734 51.853 9.31423
-3.34129 44.9935 12.8755
-5.88734 51.853 9.31423
-8.93391 44.1083 22.471
-12.1871 19.1975 26.959
-16.2947 -7.62866 31.7661
-15.0276 -6.64791 31.6382
-12.1871 19.1975 26.959
-15.0276 -6.64791 31.6382
-0.870075 14.1796 28.3765
-12.1871 19.1975 26.959
-0.870075 14.1796 28.3765
-0.746008 29.778 25.4843
-12.1871 19.1975 26.959
-0.746008 29.778 25.4843
-2.00879 31.9881 25.0196
-12.1871 19.1975 26.959
-2.00879 31.9881 25.0196
-24.8883 48.0221 21.0596
-12.1871 19.1975 26.959
-24.8883 48.0221 21.0596
-25.4744 24.6913 25.3684
-12.1871 19.1975 26.959
-25.4744 24.6913 25.3684
-16.2947 -7.62866 31.7661
-30.5428 23.6585 13.8813
-33.6164 10.7067 9.90894
-28.8819 18.8386 18.8985
-30.5428 23.6585 13.8813
-28.8819 18.8386 18.8985
-28.082 27.8882 18.5531
-30.5428 23.6585 13.8813
-28.082 27.8882 18.5531
-28.4009 28.9839 17.5484
-30.5428 23.6585 13.8813
-28.4009 28.9839 17.5484
-31.3429 29.0479 10.7196
-30.5428 23.6585 13.8813
-31.3429 29.0479 10.7196
-32.9329 26.486 7.65946
-30.5428 23.6585 13.8813
-32.9329 26.486 7.65946
-33.6164 10.7067 9.90894
-21.7499 30.31 -5.89527
-22.2579 20.3293 -29.5154
-25.3979 18.5659 -27.414
-21.7499 30.31 -5.89527
-25.3979 18.5659 -27.414
-30.1284 20.3897 -13.1756
-21.7499 30.31 -5.89527
-30.1284 20.3897 -13.1756
-23.0768 36.1069 11.1603
-21.7499 30.31 -5.89527
-23.0768 36.1069 11.1603
-20.6249 38.2008 11.291
-21.7499 30.31 -5.89527
-20.6249 38.2008 11.291
-17.3215 39.2887 7.18405
-21.7499 30.31 -5.89527
-17.3215 39.2887 7.18405
-13.4417 39.2887 -0.797269
-21.7499 30.31 -5.89527
-13.4417 39.2887 -0.797269
-22.2579 20.3293 -29.5154
-21.9287 23.1091 -13.457
-30.1284 20.3897 -13.1756
-24.9045 14.3796 -27.5787
-21.9287 23.1091 -13.457
-24.9045 14.3796 -27.5787
-17.0059 14.3593 -32.6995
-21.9287 23.1091 -13.457
-17.0059 14.3593 -32.6995
-13.2271 33.2083 -0.503654
-21.9287 23.1091 -13.457
-13.2271 33.2083 -0.503654
-24.3773 33.2083 6.67235
-21.9287 23.1091 -13.457
-24.3773 33.2083 6.67235
-30.1284 20.3897 -13.1756
2.14278 11.9932 -25.3701
-8.09781 10.0595 -38.3151
-16.1017 10.3357 -33.1358
2.14278 11.9932 -25.3701
-16.1017 10.3357 -33.1358
3.9851 14.7858 -2.12118
2.14278 11.9932 -25.3701
3.9851 14.7858 -2.12118
17.2301 13.0518 -21.6189
2.14278 11.9932 -25.3701
17.2301 13.0518 -21.6189
13.6981 11.7333 -31.6592
2.14278 11.9932 -25.3701
13.6981 11.7333 -31.6592
-8.09781 10.0595 -38.3151
15.8415 7.58693 -21.5311
21.959 6.09566 -30.774
19.0537 0.16107 -28.6868
15.8415 7.58693 -21.5311
19.0537 0.16107 -28.6868
4.69022 0.161076 -8.19863
15.8415 7.58693 -21.5311
4.69022 0.161076 -8.19863
4.46598 14.7225 -2.83168
15.8415 7.58693 -21.5311
4.46598 14.7225 -2.83168
22.2736 12.3919 -29.0405
15.8415 7.58693 -21.5311
22.2736 12.3919 -29.0405
22.6065 11.9893 -29.6549
15.8415 7.58693 -21.5311
22.6065 11.9893 -29.6549
21.959 6.09566 -30.774
-2.25699 20.827 -19.2719
-17.0059 14.3593 -32.6995
-8.09885 10.0595 -38.3155
-2.25699 20.827 -19.2719
-8.09885 10.0595 -38.3155
22.2736 12.3919 -29.0404
-2.25699 20.827 -19.2719
22.2736 12.3919 -29.0404
4.68242 33.6622 3.42422
-2.25699 20.827 -19.2719
4.68242 33.6622 3.42422
-13.1362 33.6622 0.271586
-2.25699 20.827 -19.2719
-13.1362 33.6622 0.271586
-17.0059 14.3593 -32.6995
-16.4075 44.8636 3.58803
-33.6274 29.175 5.21591
-23.0768 36.1069 11.1603
-16.4075 44.8636 3.58803
-23.0768 36.1069 11.1603
-6.51922 50.2467 12.043
-16.4075 44.8636 3.58803
-6.51922 50.2467 12.043
-1.79413 62.2584 -8.36245
-16.4075 44.8636 3.58803
-1.79413 62.2584 -8.36245
-17.0198 46.5308 -2.11663
-16.4075 44.8636 3.58803
-17.0198 46.5308 -2.11663
-33.6274 29.175 5.21591
30.7706 17.8723 24.394
33.3769 16.1982 16.5887
29.845 10.1373 29.7694
30.7706 17.8723 24.394
29.845 10.1373 29.7694
26.537 22.119 36.5954
30.7706 17.8723 24.394
26.537 22.119 36.5954
33.3236 23.0346 14.6225
30.7706 17.8723 24.394
33.3236 23.0346 14.6225
33.3769 16.1982 16.5887
9.92445 0.702349 -8.50483
3.34115 1.72083 2.84333
-6.74639 -9.95572 -8.37842
9.92445 0.702349 -8.50483
-6.74639 -9.95572 -8.37842
10.9116 -7.47703 -27.5551
9.92445 0.702349 -8.50483
10.9116 -7.47703 -27.5551
12.7855 -6.26135 -27.5311
9.92445 0.702349 -8.50483
12.7855 -6.26135 -27.5311
29.565 18.2714 2.17972
9.92445 0.702349 -8.50483
29.565 18.2714 2.17972
9.68977 7.91601 7.41265
9.92445 0.702349 -8.50483
9.68977 7.91601 7.41265
3.34115 1.72083 2.84333
-4.31864 -0.937178 -27.2317
-6.74639 -9.95572 -8.3784
10.9116 -7.47703 -27.5551
-4.31864 -0.937178 -27.2317
10.9116 -7.47703 -27.5551
-4.79689 6.27523 -40.3161
-4.31864 -0.937178 -27.2317
-4.79689 6.27523 -40.3161
-16.6429 7.4088 -32.6772
-4.31864 -0.937178 -27.2317
-16.6429 7.4088 -32.6772
-6.74639 -9.95572 -8.3784
-4.90549 -6.66757 -33.565
10.9116 -7.47702 -27.5551
-21.8311 -28.7189 -27.974
-4.90549 -6.66757 -33.565
-21.8311 -28.7189 -27.974
-5.56304 4.70145 -39.7611
-4.90549 -6.66757 -33.565
-5.56304 4.70145 -39.7611
-3.13949 4.82422 -38.9697
-4.90549 -6.66757 -33.565
-3.13949 4.82422 -38.9697
10.9116 -7.47702 -27.5551
17.7136 23.3339 -29.4571
11.1182 10.9163 -33.4823
22.6065 11.9893 -29.6549
17.7136 23.3339 -29.4571
22.6065 11.9893 -29.6549
26.5376 47.7708 -22.8601
17.7136 23.3339 -29.4571
26.5376 47.7708 -22.8601
10.5921 22.6591 -31.8312
17.7136 23.3339 -29.4571
10.5921 22.6591 -31.8312
11.1182 10.9163 -33.4823
32.0405 16.5357 -4.86346
30.439 6.79007 -20.4334
33.5016 6.79006 6.00429
32.0405 16.5357 -4.86346
33.5016 6.79006 6.00429
34.5109 9.2079 15.1499
32.0405 16.5357 -4.86346
34.5109 9.2079 15.1499
34.1642 17.5491 13.6507
32.0405 16.5357 -4.86346
34.1642 17.5491 13.6507
32.7076 25.3335 2.47041
32.0405 16.5357 -4.86346
32.7076 25.3335 2.47041
29.4622 31.2052 -24.4938
32.0405 16.5357 -4.86346
29.4622 31.2052 -24.4938
29.4981 18.8738 -26.3923
32.0405 16.5357 -4.86346
29.4981 18.8738 -26.3923
30.439 6.79007 -20.4334
12.5587 28.2227 17.1299
4.85279 27.1796 26.207
21.8307 20.6433 20.4821
12.5587 28.2227 17.1299
21.8307 20.6433 20.4821
27.9166 26.9706 4.42098
12.5587 28.2227 17.1299
27.9166 26.9706 4.42098
15.1971 31.3169 9.59949
12.5587 28.2227 17.1299
15.1971 31.3169 9.59949
7.45004 31.3169 17.0307
12.5587 28.2227 17.1299
7.45004 31.3169 17.0307
-1.89523 31.9086 25.0392
12.5587 28.2227 17.1299
-1.89523 31.9086 25.0392
4.85279 27.1796 26.207
3 0 1 2
3 3 4 5
3 6 7 8
3 9 10 11
3 12 13 14
3 15 16 17
3 18 19 20
3 21 22 23
3 24 25 26
3 27 28 29
3 30 31 32
3 33 34 35
3 36 37 38
3 39 40 41
3 42 43 44
3 45 46 47
3 48 49 50
3 51 52 53
3 54 55 56
3 57 58 59
3 60 61 62
3 63 64 65
3 66 67 68
3 69 70 71
3 72 73 74
3 75 76 77
3 78 79 80
3 81 82 83
3 84 85 86
3 87 88 89
3 90 91 92
3 93 94 95
3 96 97 98
3 99 100 101
3 102 103 104
3 105 106 107
3 108 109 110
3 111 112 113
3 114 115 116
3 117 118 119
3 120 121 122
3 123 124 125
3 126 127 128
3 129 130 131
3 132 133 134
3 135 136 137
3 138 139 140
3 141 142 143
3 144 145 146
3 147 148 149
3 150 151 152
3 153 154 155
3 156 157 158
3 159 160 161
3 162 163 164
3 165 166 167
3 168 169 170
3 171 172 173
3 174 175 176
3 177 178 179
3 180 181 182
3 183 184 185
3 186 187 188
3 189 190 191
3 192 193 194
3 195 196 197
3 198 199 200
3 201 202 203
3 204 205 206
3 207 208 209
3 210 211 212
3 213 214 215
3 216 217 218
3 219 220 221
3 222 223 224
3 225 226 227
3 228 229 230
3 231 232 233
3 234 235 236
3 237 238 239
3 240 241 242
3 243 244 245
3 246 247 248
3 249 250 251
3 252 253 254
3 255 256 257
3 258 259 260
3 261 262 263
3 264 265 266
3 267 268 269
3 270 271 272
3 273 274 275
3 276 277 278
3 279 280 281
3 282 283 284
3 285 286 287
3 288 289 290
3 291 292 293
3 294 295 296
3 297 298 299
3 300 301 302
3 303 304 305
3 306 307 308
3 309 310 311
3 312 313 314
3 315 316 317
3 318 319 320
3 321 322 323
3 324 325 326
3 327 328 329
3 330 331 332
3 333 334 335
3 336 337 338
3 339 340 341
3 342 343 344
3 345 346 347
3 348 349 350
3 351 352 353
3 354 355 356
3 357 358 359
3 360 361 362
3 363 364 365
3 366 367 368
3 369 370 371
3 372 373 374
3 375 376 377
3 378 379 380
3 381 382 383
3 384 385 386
3 387 388 389
3 390 391 392
3 393 394 395
3 396 397 398
3 399 400 401
3 402 403 404
3 405 406 407
3 408 409 410
3 411 412 413
3 414 415 416
3 417 418 419
3 420 421 422
3 423 424 425
3 426 427 428
3 429 430 431
3 432 433 434
3 435 436 437
3 438 439 440
3 441 442 443
3 444 445 446
3 447 448 449
3 450 451 452
3 453 454 455
3 456 457 458
3 459 460 461
3 462 463 464
3 465 466 467
3 468 469 470
3 471 472 473
3 474 475 476
3 477 478 479
3 480 481 482
3 483 484 485
3 486 487 488
3 489 490 491
3 492 493 494
3 495 496 497
3 498 499 500
3 501 502 503
3 504 505 506
3 507 508 509
3 510 511 512
3 513 514 515
3 516 517 518
3 519 520 521
3 522 523 524
3 525 526 527
3 528 529 530
3 531 532 533
3 534 535 536
3 537 538 539
3 540 541 542
3 543 544 545
3 546 547 548
3 549 550 551
3 552 553 554
3 555 556 557
3 558 559 560
3 561 562 563
3 564 565 566
3 567 568 569
