ply
format ascii 1.0
element vertex 933
property float x
property float y
property float z
element face 311
property list uchar int vertex_indices
end_header
22.9287 -43.1653 -5.89043
16.994 -68.7957 2.36979
18.3377 -67.8881 -4.85634
22.9287 -43.1653 -5.89043
18.3377 -67.8881 -4.85634
25.6729 -36.2621 -15.124
22.9287 -43.1653 -5.89043
25.6729 -36.2621 -15.124
25.7349 -35.8792 -15.0842
22.9287 -43.1653 -5.89043
25.7349 -35.8792 -15.0842
29.3007 -9.887 -8.45944
22.9287 -43.1653 -5.89043
29.3007 -9.887 -8.45944
21.5317 -40.2795 5.81158
22.9287 -43.1653 -5.89043
21.5317 -40.2795 5.81158
16.994 -68.7957 2.36979
3.42131 -56.054 14.8761
-7.9444 -60.4918 12.8153
-10.4913 -68.6845 12.3564
3.42131 -56.054 14.8761
-10.4913 -68.6845 12.3564
14.3003 -70.615 16.8562
3.42131 -56.054 14.8761
14.3003 -70.615 16.8562
17.7719 -50.6366 17.4782
3.42131 -56.054 14.8761
17.7719 -50.6366 17.4782
3.47014 -29.8424 14.8745
3.42131 -56.054 14.8761
3.47014 -29.8424 14.8745
-7.9444 -60.4918 12.8153
-20.9931 -15.0986 26.0879
-28.0584 -28.2198 25.9499
-27.2022 -42.134 22.9544
-20.9931 -15.0986 26.0879
-27.2022 -42.134 22.9544
-4.03264 -4.36789 22.3844
-20.9931 -15.0986 26.0879
-4.03264 -4.36789 22.3844
-19.1838 1.012 28.6005
-20.9931 -15.0986 26.0879
-19.1838 1.012 28.6005
-26.4884 -1.78314 30.5504
-20.9931 -15.0986 26.0879
-26.4884 -1.78314 30.5504
-28.0584 -28.2198 25.9499
-5.23864 -66.7512 -3.97685
21.6506 -65.6506 -22.6722
14.3003 -70.615 16.8562
-5.23864 -66.7512 -3.97685
14.3003 -70.615 16.8562
-21.034 -67.8636 10.4429
-5.23864 -66.7512 -3.97685
-21.034 -67.8636 10.4429
-23.3947 -66.9243 4.43869
-5.23864 -66.7512 -3.97685
-23.3947 -66.9243 4.43869
-17.7154 -62.7028 -28.9498
-5.23864 -66.7512 -3.97685
-17.7154 -62.7028 -28.9498
21.6506 -65.6506 -22.6722
16.5543 -45.5414 -18.9351
9.43229 -64.7357 -24.6206
21.6506 -65.6506 -22.6722
16.5543 -45.5414 -18.9351
21.6506 -65.6506 -22.6722
25.6961 -36.1623 -15.1563
16.5543 -45.5414 -18.9351
25.6961 -36.1623 -15.1563
9.43826 -15.6169 -13.2914
16.5543 -45.5414 -18.9351
9.43826 -15.6169 -13.2914
9.43229 -64.7357 -24.6206
-25.4215 -36.698 11.9096
-25.577 -68.5463 17.2682
-22.6675 -66.3837 0.163379
-25.4215 -36.698 11.9096
-22.6675 -66.3837 0.163379
-23.546 -13.4984 -2.17084
-25.4215 -36.698 11.9096
-23.546 -13.4984 -2.17084
-29.8956 1.6363 32.3776
-25.4215 -36.698 11.9096
-29.8956 1.6363 32.3776
-25.577 -68.5463 17.2682
-18.2019 32.7713 9.50943
-11.0548 42.3459 22.3206
-26.3323 13.6752 20.3916
-18.2019 32.7713 9.50943
-26.3323 13.6752 20.3916
-22.9622 25.0363 5.18985
-18.2019 32.7713 9.50943
-22.9622 25.0363 5.18985
-12.4583 50.028 -9.86433
-18.2019 32.7713 9.50943
-12.4583 50.028 -9.86433
-11.0548 42.3459 22.3206
-21.5291 14.197 -0.55889
-22.6689 -3.98551 -2.93712
-24.5045 -0.965954 1.60921
-21.5291 14.197 -0.55889
-24.5045 -0.965954 1.60921
-26.4124 16.8275 10.1346
-21.5291 14.197 -0.55889
-26.4124 16.8275 10.1346
-22.9622 25.0363 5.18984
-21.5291 14.197 -0.55889
-22.9622 25.0363 5.18984
-16.2221 31.2281 -7.02289
-21.5291 14.197 -0.55889
-16.2221 31.2281 -7.02289
-16.4048 17.0418 -10.3269
-21.5291 14.197 -0.55889
-16.4048 17.0418 -10.3269
-22.6689 -3.98551 -2.93712
-0.273631 17.39 -16.9563
20.7131 -3.88397 -20.5733
3.27599 -7.82945 -12.5845
-0.273631 17.39 -16.9563
3.27599 -7.82945 -12.5845
-13.2689 13.0788 -10.6867
-0.273631 17.39 -16.9563
-13.2689 13.0788 -10.6867
-14.1857 24.4909 -12.9449
-0.273631 17.39 -16.9563
-14.1857 24.4909 -12.9449
-12.2813 30.8836 -15.1915
-0.273631 17.39 -16.9563
-12.2813 30.8836 -15.1915
-1.65456 34.7495 -20.397
-0.273631 17.39 -16.9563
-1.65456 34.7495 -20.397
15.4859 30.2403 -26.3165
-0.273631 17.39 -16.9563
15.4859 30.2403 -26.3165
20.7131 -3.88397 -20.5733
12.299 59.4485 -9.92345
25.5102 48.8486 -18.3263
-12.4621 50.0485 -9.95041
12.299 59.4485 -9.92345
-12.4621 50.0485 -9.95041
4.79962 79.2114 2.25596
12.299 59.4485 -9.92345
4.79962 79.2114 2.25596
31.348 59.6855 -13.6731
12.299 59.4485 -9.92345
31.348 59.6855 -13.6731
25.5102 48.8486 -18.3263
26.076 1.22302 -16.1242
31.0505 -3.04203 -11.6736
28.8034 -16.9232 -13.1153
26.076 1.22302 -16.1242
28.8034 -16.9232 -13.1153
21.6933 -10.2826 -19.4964
26.076 1.22302 -16.1242
21.6933 -10.2826 -19.4964
20.8428 -4.73063 -20.4308
26.076 1.22302 -16.1242
20.8428 -4.73063 -20.4308
27.9899 41.0936 -15.9052
26.076 1.22302 -16.1242
27.9899 41.0936 -15.9052
31.0505 -3.04203 -11.6736
25.0892 -11.2851 -3.37111
17.2429 -23.3712 7.77382
24.098 -30.24 1.09748
25.0892 -11.2851 -3.37111
24.098 -30.24 1.09748
31.0505 -3.04201 -11.6736
25.0892 -11.2851 -3.37111
31.0505 -3.04201 -11.6736
30.7219 1.69619 -12.1279
25.0892 -11.2851 -3.37111
30.7219 1.69619 -12.1279
22.3328 -1.46846 -1.92546
25.0892 -11.2851 -3.37111
22.3328 -1.46846 -1.92546
17.2429 -23.3712 7.77382
-1.69268 18.662 21.6132
-14.4753 7.40198 17.7972
-16.0369 7.45827 18.9861
-1.69268 18.662 21.6132
-16.0369 7.45827 18.9861
-4.63429 28.2644 34.8298
-1.69268 18.662 21.6132
-4.63429 28.2644 34.8298
15.6714 28.2644 20.2159
-1.69268 18.662 21.6132
15.6714 28.2644 20.2159
11.0117 21.921 16.2371
-1.69268 18.662 21.6132
11.0117 21.921 16.2371
-14.4753 7.40198 17.7972
-16.2863 19.2366 6.2244
-12.8902 11.6171 11.8889
0.420031 12.0696 0.7292
-16.2863 19.2366 6.2244
0.420031 12.0696 0.7292
-21.9994 25.9208 3.44523
-16.2863 19.2366 6.2244
-21.9994 25.9208 3.44523
-22.9622 25.0363 5.18985
-16.2863 19.2366 6.2244
-22.9622 25.0363 5.18985
-23.9995 21.5394 9.86885
-16.2863 19.2366 6.2244
-23.9995 21.5394 9.86885
-12.8902 11.6171 11.8889
20.2106 27.5119 6.42437
19.278 26.63 15.7311
15.5489 11.4663 0.886997
20.2106 27.5119 6.42437
15.5489 11.4663 0.886997
17.0719 15.0155 -4.87756
20.2106 27.5119 6.42437
17.0719 15.0155 -4.87756
25.553 43.7728 3.2536
20.2106 27.5119 6.42437
25.553 43.7728 3.2536
23.6012 40.6746 17.1277
20.2106 27.5119 6.42437
23.6012 40.6746 17.1277
19.278 26.63 15.7311
10.8771 24.6677 6.5419
11.0117 21.921 16.2371
-0.0360279 6.88153 6.80372
10.8771 24.6677 6.5419
-0.0360279 6.88153 6.80372
1.55749 11.3669 0.591422
10.8771 24.6677 6.5419
1.55749 11.3669 0.591422
3.0709 14.3083 -0.997593
10.8771 24.6677 6.5419
3.0709 14.3083 -0.997593
15.1724 35.5738 -6.3317
10.8771 24.6677 6.5419
15.1724 35.5738 -6.3317
22.5777 41.9088 12.2405
10.8771 24.6677 6.5419
22.5777 41.9088 12.2405
22.7856 40.714 17.2499
10.8771 24.6677 6.5419
22.7856 40.714 17.2499
11.0117 21.921 16.2371
18.7114 25.6322 -11.6208
9.44325 25.5062 -3.80641
9.44165 12.3763 -6.83481
18.7114 25.6322 -11.6208
9.44165 12.3763 -6.83481
20.1959 12.7419 -15.8515
18.7114 25.6322 -11.6208
20.1959 12.7419 -15.8515
24.0268 15.6837 -18.4147
18.7114 25.6322 -11.6208
24.0268 15.6837 -18.4147
28.0493 41.4744 -15.8676
18.7114 25.6322 -11.6208
28.0493 41.4744 -15.8676
21.1117 46.0108 -8.94966
18.7114 25.6322 -11.6208
21.1117 46.0108 -8.94966
9.44325 25.5062 -3.80641
6.01807 -5.05804 5.0077
-9.75314 -10.6161 12.4671
-5.06244 -17.4363 13.321
6.01807 -5.05804 5.0077
-5.06244 -17.4363 13.321
21.0156 -7.13628 0.584442
6.01807 -5.05804 5.0077
21.0156 -7.13628 0.584442
22.3328 -1.46845 -1.92546
6.01807 -5.05804 5.0077
22.3328 -1.46845 -1.92546
1.5575 11.3669 0.591395
6.01807 -5.05804 5.0077
1.5575 11.3669 0.591395
-9.75314 -10.6161 12.4671
-5.03452 25.3286 19.0192
11.0117 21.921 16.2371
-10.9243 9.42488 17.5798
-5.03452 25.3286 19.0192
-10.9243 9.42488 17.5798
-21.1144 13.7164 19.6518
-5.03452 25.3286 19.0192
-21.1144 13.7164 19.6518
-20.9108 23.8496 21.0761
-5.03452 25.3286 19.0192
-20.9108 23.8496 21.0761
-11.0548 42.346 22.3206
-5.03452 25.3286 19.0192
-11.0548 42.346 22.3206
22.7855 40.714 17.25
-5.03452 25.3286 19.0192
22.7855 40.714 17.25
11.0117 21.921 16.2371
-28.6143 1.30685 6.84833
-23.3148 -27.4126 -1.5567
-31.4789 -12.5714 13.6692
-28.6143 1.30685 6.84833
-31.4789 -12.5714 13.6692
-32.397 17.111 13.2115
-28.6143 1.30685 6.84833
-32.397 17.111 13.2115
-31.9207 17.9841 12.1885
-28.6143 1.30685 6.84833
-31.9207 17.9841 12.1885
-23.96 11.4231 -3.2708
-28.6143 1.30685 6.84833
-23.96 11.4231 -3.2708
-23.3148 -27.4126 -1.5567
-21.6994 -10.411 -11.0816
-20.2302 -26.7339 -16.5232
-30.459 -26.7339 1.89645
-21.6994 -10.411 -11.0816
-30.459 -26.7339 1.89645
-28.9325 -5.73724 2.74413
-21.6994 -10.411 -11.0816
-28.9325 -5.73724 2.74413
-15.8767 4.7611 -18.968
-21.6994 -10.411 -11.0816
-15.8767 4.7611 -18.968
-12.9986 2.38901 -24.5572
-21.6994 -10.411 -11.0816
-12.9986 2.38901 -24.5572
-20.2302 -26.7339 -16.5232
5.15402 45.5222 3.05302
-11.0548 42.3459 22.3206
22.7855 40.714 17.25
5.15402 45.5222 3.05302
22.7855 40.714 17.25
21.3475 48.9802 -17.4081
5.15402 45.5222 3.05302
21.3475 48.9802 -17.4081
-12.4621 50.0485 -9.95041
5.15402 45.5222 3.05302
-12.4621 50.0485 -9.95041
-11.0548 42.3459 22.3206
17.6087 -59.8967 8.34586
14.3003 -70.615 16.8562
16.994 -68.7957 2.36979
17.6087 -59.8967 8.34586
16.994 -68.7957 2.36979
21.5317 -40.2795 5.81158
17.6087 -59.8967 8.34586
21.5317 -40.2795 5.81158
14.3003 -70.615 16.8562
17.8679 -53.8437 13.382
21.5317 -40.2795 5.81158
17.7719 -50.6366 17.4782
17.8679 -53.8437 13.382
17.7719 -50.6366 17.4782
14.3003 -70.615 16.8562
17.8679 -53.8437 13.382
14.3003 -70.615 16.8562
21.5317 -40.2795 5.81158
14.944 -5.48135 -17.8629
20.7131 -3.88397 -20.5733
20.8428 -4.73063 -20.4308
14.944 -5.48135 -17.8629
20.8428 -4.73063 -20.4308
3.27599 -7.82945 -12.5845
14.944 -5.48135 -17.8629
3.27599 -7.82945 -12.5845
20.7131 -3.88397 -20.5733
16.6179 -16.1464 -16.0332
3.27599 -7.82945 -12.5845
20.8428 -4.73063 -20.4308
16.6179 -16.1464 -16.0332
20.8428 -4.73063 -20.4308
25.7349 -35.8792 -15.0842
16.6179 -16.1464 -16.0332
25.7349 -35.8792 -15.0842
3.27599 -7.82945 -12.5845
21.8948 -56.567 -14.2283
25.6961 -36.1623 -15.1563
18.3377 -67.8881 -4.85634
21.8948 -56.567 -14.2283
18.3377 -67.8881 -4.85634
21.6506 -65.6506 -22.6722
21.8948 -56.567 -14.2283
21.6506 -65.6506 -22.6722
25.6961 -36.1623 -15.1563
-9.25491 -25.4481 20.0711
-4.03264 -4.36789 22.3844
3.47014 -29.8424 14.8745
-9.25491 -25.4481 20.0711
3.47014 -29.8424 14.8745
-27.2022 -42.134 22.9544
-9.25491 -25.4481 20.0711
-27.2022 -42.134 22.9544
-4.03264 -4.36789 22.3844
-21.0902 -59.7883 17.5263
-27.2022 -42.134 22.9544
-25.577 -68.5463 17.2682
-21.0902 -59.7883 17.5263
-25.577 -68.5463 17.2682
-10.4913 -68.6845 12.3564
-21.0902 -59.7883 17.5263
-10.4913 -68.6845 12.3564
-27.2022 -42.134 22.9544
-11.4078 -46.887 16.7284
-27.2022 -42.134 22.9544
-10.4913 -68.6845 12.3564
-11.4078 -46.887 16.7284
-10.4913 -68.6845 12.3564
3.47014 -29.8424 14.8745
-11.4078 -46.887 16.7284
3.47014 -29.8424 14.8745
-27.2022 -42.134 22.9544
13.1138 37.9462 -21.6799
25.5102 48.8486 -18.3263
15.4859 30.2403 -26.3165
13.1138 37.9462 -21.6799
15.4859 30.2403 -26.3165
-1.65456 34.7495 -20.397
13.1138 37.9462 -21.6799
-1.65456 34.7495 -20.397
25.5102 48.8486 -18.3263
3.79912 44.5421 -16.1959
-1.65456 34.7495 -20.397
-12.4583 50.028 -9.86433
3.79912 44.5421 -16.1959
-12.4583 50.028 -9.86433
25.5102 48.8486 -18.3263
3.79912 44.5421 -16.1959
25.5102 48.8486 -18.3263
-1.65456 34.7495 -20.397
-8.79929 38.5606 -15.1796
-1.65456 34.7495 -20.397
-12.2813 30.8836 -15.1915
-8.79929 38.5606 -15.1796
-12.2813 30.8836 -15.1915
-12.4621 50.0485 -9.95041
-8.79929 38.5606 -15.1796
-12.4621 50.0485 -9.95041
-1.65456 34.7495 -20.397
-12.9751 35.1342 -12.6669
-12.2813 30.8836 -15.1915
-14.1857 24.4909 -12.9449
-12.9751 35.1342 -12.6669
-14.1857 24.4909 -12.9449
-12.4583 50.028 -9.86433
-12.9751 35.1342 -12.6669
-12.4583 50.028 -9.86433
-12.2813 30.8836 -15.1915
-14.29 35.2558 -9.97272
-14.1857 24.4909 -12.9449
-16.2221 31.2281 -7.02289
-14.29 35.2558 -9.97272
-16.2221 31.2281 -7.02289
-12.4621 50.0485 -9.95041
-14.29 35.2558 -9.97272
-12.4621 50.0485 -9.95041
-14.1857 24.4909 -12.9449
-17.2142 35.4308 -3.89912
-16.2221 31.2281 -7.02289
-12.4583 50.028 -9.86433
-17.2142 35.4308 -3.89912
-12.4583 50.028 -9.86433
-22.9622 25.0363 5.18985
-17.2142 35.4308 -3.89912
-22.9622 25.0363 5.18985
-16.2221 31.2281 -7.02289
-14.5589 22.9326 -10.2181
-13.2689 13.0788 -10.6867
-14.1857 24.4909 -12.9449
-14.5589 22.9326 -10.2181
-14.1857 24.4909 -12.9449
-16.2221 31.2281 -7.02289
-14.5589 22.9326 -10.2181
-16.2221 31.2281 -7.02289
-13.2689 13.0788 -10.6867
-1.33539 5.72012 -11.2564
-16.4048 17.0418 -10.3269
-16.4048 17.0418 -10.3269
-1.33539 5.72012 -11.2564
-16.4048 17.0418 -10.3269
28.8034 -16.9232 -13.1153
-1.33539 5.72012 -11.2564
28.8034 -16.9232 -13.1153
-16.4048 17.0418 -10.3269
25.4105 -21.0283 -15.8986
28.8034 -16.9232 -13.1153
25.7349 -35.8792 -15.0842
25.4105 -21.0283 -15.8986
25.7349 -35.8792 -15.0842
21.6933 -10.2826 -19.4964
25.4105 -21.0283 -15.8986
21.6933 -10.2826 -19.4964
28.8034 -16.9232 -13.1153
28.6954 -16.2694 -11.7391
29.3007 -9.887 -8.45944
31.0505 -3.04201 -11.6736
28.6954 -16.2694 -11.7391
31.0505 -3.04201 -11.6736
25.7349 -35.8792 -15.0842
28.6954 -16.2694 -11.7391
25.7349 -35.8792 -15.0842
29.3007 -9.887 -8.45944
12.8283 -34.6167 13.3755
3.47014 -29.8424 14.8745
17.2429 -23.3712 7.77382
12.8283 -34.6167 13.3755
17.2429 -23.3712 7.77382
17.7719 -50.6366 17.4782
12.8283 -34.6167 13.3755
17.7719 -50.6366 17.4782
3.47014 -29.8424 14.8745
18.8488 -38.0958 10.3545
17.7719 -50.6366 17.4782
21.5317 -40.2795 5.81158
18.8488 -38.0958 10.3545
21.5317 -40.2795 5.81158
17.2429 -23.3712 7.77382
18.8488 -38.0958 10.3545
17.2429 -23.3712 7.77382
17.7719 -50.6366 17.4782
20.9575 -31.2969 4.8943
17.2429 -23.3712 7.77382
24.098 -30.24 1.09748
20.9575 -31.2969 4.8943
24.098 -30.24 1.09748
21.5317 -40.2795 5.81158
20.9575 -31.2969 4.8943
21.5317 -40.2795 5.81158
17.2429 -23.3712 7.77382
-22.7858 17.0804 20.3732
-21.1144 13.7164 19.6518
-26.3323 13.6752 20.3916
-22.7858 17.0804 20.3732
-26.3323 13.6752 20.3916
-20.9108 23.8496 21.0761
-22.7858 17.0804 20.3732
-20.9108 23.8496 21.0761
-21.1144 13.7164 19.6518
-20.2044 -51.9401 -15.1032
-22.6675 -66.3837 0.163379
-17.7154 -62.7028 -28.9498
-20.2044 -51.9401 -15.1032
-17.7154 -62.7028 -28.9498
-20.2302 -26.7339 -16.5232
-20.2044 -51.9401 -15.1032
-20.2302 -26.7339 -16.5232
-22.6675 -66.3837 0.163379
-22.0709 -40.1767 -5.97217
-20.2302 -26.7339 -16.5232
-22.6675 -66.3837 0.163379
-22.0709 -40.1767 -5.97217
-22.6675 -66.3837 0.163379
-23.3148 -27.4126 -1.5567
-22.0709 -40.1767 -5.97217
-23.3148 -27.4126 -1.5567
-20.2302 -26.7339 -16.5232
-24.668 -26.9601 -5.39448
-23.3148 -27.4126 -1.5567
-30.459 -26.7339 1.89645
-24.668 -26.9601 -5.39448
-30.459 -26.7339 1.89645
-20.2302 -26.7339 -16.5232
-24.668 -26.9601 -5.39448
-20.2302 -26.7339 -16.5232
-23.3148 -27.4126 -1.5567
-27.5688 -19.9613 1.02796
-30.459 -26.7339 1.89645
-23.3148 -27.4126 -1.5567
-27.5688 -19.9613 1.02796
-23.3148 -27.4126 -1.5567
-28.9325 -5.73724 2.74413
-27.5688 -19.9613 1.02796
-28.9325 -5.73724 2.74413
-30.459 -26.7339 1.89645
-25.4024 -7.24225 -0.694455
-28.9325 -5.73724 2.74413
-23.3148 -27.4126 -1.5567
-25.4024 -7.24225 -0.694455
-23.3148 -27.4126 -1.5567
-23.96 11.4231 -3.2708
-25.4024 -7.24225 -0.694455
-23.96 11.4231 -3.2708
-28.9325 -5.73724 2.74413
-22.9231 3.48232 -6.49822
-23.96 11.4231 -3.2708
-28.9325 -5.73724 2.74413
-22.9231 3.48232 -6.49822
-28.9325 -5.73724 2.74413
-15.8767 4.7611 -18.968
-22.9231 3.48232 -6.49822
-15.8767 4.7611 -18.968
-23.96 11.4231 -3.2708
7.38218 -29.394 -16.8322
9.43229 -64.7357 -24.6206
9.43826 -15.6169 -13.2914
7.38218 -29.394 -16.8322
9.43826 -15.6169 -13.2914
3.27599 -7.82945 -12.5845
7.38218 -29.394 -16.8322
3.27599 -7.82945 -12.5845
9.43229 -64.7357 -24.6206
-1.66904 -45.0893 -22.0517
3.27599 -7.82945 -12.5845
-17.7154 -62.7028 -28.9498
-1.66904 -45.0893 -22.0517
-17.7154 -62.7028 -28.9498
9.43229 -64.7357 -24.6206
-1.66904 -45.0893 -22.0517
9.43229 -64.7357 -24.6206
3.27599 -7.82945 -12.5845
-9.146 -22.7144 -22.0305
-17.7154 -62.7028 -28.9498
3.27599 -7.82945 -12.5845
-9.146 -22.7144 -22.0305
3.27599 -7.82945 -12.5845
-12.9986 2.38901 -24.5572
-9.146 -22.7144 -22.0305
-12.9986 2.38901 -24.5572
-17.7154 -62.7028 -28.9498
-7.66383 2.54612 -15.9428
-12.9986 2.38901 -24.5572
3.27599 -7.82945 -12.5845
-7.66383 2.54612 -15.9428
3.27599 -7.82945 -12.5845
-13.2689 13.0788 -10.6867
-7.66383 2.54612 -15.9428
-13.2689 13.0788 -10.6867
-12.9986 2.38901 -24.5572
-16.9814 -29.0159 -23.3434
-12.9986 2.38901 -24.5572
-20.2302 -26.7339 -16.5232
-16.9814 -29.0159 -23.3434
-20.2302 -26.7339 -16.5232
-17.7154 -62.7028 -28.9498
-16.9814 -29.0159 -23.3434
-17.7154 -62.7028 -28.9498
-12.9986 2.38901 -24.5572
-14.2241 10.8365 -15.1903
-12.9986 2.38901 -24.5572
-13.2689 13.0788 -10.6867
-14.2241 10.8365 -15.1903
-13.2689 13.0788 -10.6867
-16.4048 17.0418 -10.3269
-14.2241 10.8365 -15.1903
-16.4048 17.0418 -10.3269
-12.9986 2.38901 -24.5572
-1.16656 12.0682 13.6126
-14.4753 7.40198 17.7972
-0.0360279 6.88153 6.80372
-1.16656 12.0682 13.6126
-0.0360279 6.88153 6.80372
11.0117 21.921 16.2371
-1.16656 12.0682 13.6126
11.0117 21.921 16.2371
-14.4753 7.40198 17.7972
-2.74389 2.5441 6.62073
-0.0360279 6.88153 6.80372
1.5575 11.3669 0.591395
-2.74389 2.5441 6.62073
1.5575 11.3669 0.591395
-9.75314 -10.6161 12.4671
-2.74389 2.5441 6.62073
-9.75314 -10.6161 12.4671
-0.0360279 6.88153 6.80372
-6.28274 -10.8068 16.0575
-4.03264 -4.36789 22.3844
-9.75314 -10.6161 12.4671
-6.28274 -10.8068 16.0575
-9.75314 -10.6161 12.4671
-5.06244 -17.4363 13.321
-6.28274 -10.8068 16.0575
-5.06244 -17.4363 13.321
-4.03264 -4.36789 22.3844
-1.87498 -17.2155 16.86
3.47014 -29.8424 14.8745
-5.06244 -17.4363 13.321
-1.87498 -17.2155 16.86
-5.06244 -17.4363 13.321
-4.03264 -4.36789 22.3844
-1.87498 -17.2155 16.86
-4.03264 -4.36789 22.3844
3.47014 -29.8424 14.8745
-4.60727 -2.70083 13.8851
-4.03264 -4.36789 22.3844
-9.75314 -10.6161 12.4671
-4.60727 -2.70083 13.8851
-9.75314 -10.6161 12.4671
-0.0360279 6.88153 6.80372
-4.60727 -2.70083 13.8851
-0.0360279 6.88153 6.80372
-4.03264 -4.36789 22.3844
-4.99765 3.9795 15.5893
-0.0360279 6.88153 6.80372
-4.03264 -4.36789 22.3844
-4.99765 3.9795 15.5893
-4.03264 -4.36789 22.3844
-10.9243 9.42488 17.5798
-4.99765 3.9795 15.5893
-10.9243 9.42488 17.5798
-0.0360279 6.88153 6.80372
-11.3803 2.023 22.8549
-10.9243 9.42488 17.5798
-4.03264 -4.36789 22.3844
-11.3803 2.023 22.8549
-4.03264 -4.36789 22.3844
-19.1838 1.012 28.6005
-11.3803 2.023 22.8549
-19.1838 1.012 28.6005
-10.9243 9.42488 17.5798
-28.1475 -9.45555 29.626
-28.0584 -28.2198 25.9499
-29.8956 1.6363 32.3776
-28.1475 -9.45555 29.626
-29.8956 1.6363 32.3776
-26.4884 -1.78314 30.5504
-28.1475 -9.45555 29.626
-26.4884 -1.78314 30.5504
-28.0584 -28.2198 25.9499
-18.8655 2.88458 25.5769
-26.4884 -1.78314 30.5504
-10.9243 9.42488 17.5798
-18.8655 2.88458 25.5769
-10.9243 9.42488 17.5798
-19.1838 1.012 28.6005
-18.8655 2.88458 25.5769
-19.1838 1.012 28.6005
-26.4884 -1.78314 30.5504
-22.4361 3.09268 26.8359
-26.4884 -1.78314 30.5504
-29.8956 1.6363 32.3776
-22.4361 3.09268 26.8359
-29.8956 1.6363 32.3776
-10.9243 9.42488 17.5798
-22.4361 3.09268 26.8359
-10.9243 9.42488 17.5798
-26.4884 -1.78314 30.5504
-20.6448 8.2592 23.203
-10.9243 9.42488 17.5798
-21.1144 13.7164 19.6518
-20.6448 8.2592 23.203
-21.1144 13.7164 19.6518
-29.8956 1.6363 32.3776
-20.6448 8.2592 23.203
-29.8956 1.6363 32.3776
-10.9243 9.42488 17.5798
-25.7808 9.67596 24.1403
-29.8956 1.6363 32.3776
-26.3323 13.6752 20.3916
-25.7808 9.67596 24.1403
-26.3323 13.6752 20.3916
-21.1144 13.7164 19.6518
-25.7808 9.67596 24.1403
-21.1144 13.7164 19.6518
-29.8956 1.6363 32.3776
-26.5913 0.604347 16.8661
-26.3323 13.6752 20.3916
-29.8956 1.6363 32.3776
-26.5913 0.604347 16.8661
-29.8956 1.6363 32.3776
-23.546 -13.4984 -2.17084
-26.5913 0.604347 16.8661
-23.546 -13.4984 -2.17084
-26.3323 13.6752 20.3916
-25.2356 18.513 11.9053
-26.4124 16.8275 10.1346
-22.9622 25.0363 5.18985
-25.2356 18.513 11.9053
-22.9622 25.0363 5.18985
-26.3323 13.6752 20.3916
-25.2356 18.513 11.9053
-26.3323 13.6752 20.3916
-26.4124 16.8275 10.1346
23.2017 10.9533 -18.9572
20.7131 -3.88397 -20.5733
20.8428 -4.73063 -20.4308
23.2017 10.9533 -18.9572
20.8428 -4.73063 -20.4308
28.0493 41.4744 -15.8676
23.2017 10.9533 -18.9572
28.0493 41.4744 -15.8676
20.7131 -3.88397 -20.5733
21.4161 22.6102 -20.9191
28.0493 41.4744 -15.8676
15.4859 30.2403 -26.3165
21.4161 22.6102 -20.9191
15.4859 30.2403 -26.3165
20.7131 -3.88397 -20.5733
21.4161 22.6102 -20.9191
20.7131 -3.88397 -20.5733
28.0493 41.4744 -15.8676
23.0151 40.1878 -20.1701
28.0493 41.4744 -15.8676
15.4859 30.2403 -26.3165
23.0151 40.1878 -20.1701
15.4859 30.2403 -26.3165
25.5102 48.8486 -18.3263
23.0151 40.1878 -20.1701
25.5102 48.8486 -18.3263
28.0493 41.4744 -15.8676
24.969 46.4344 -17.2006
28.0493 41.4744 -15.8676
25.5102 48.8486 -18.3263
24.969 46.4344 -17.2006
25.5102 48.8486 -18.3263
21.3475 48.9802 -17.4081
24.969 46.4344 -17.2006
21.3475 48.9802 -17.4081
28.0493 41.4744 -15.8676
23.5028 45.4885 -14.0751
21.3475 48.9802 -17.4081
28.0493 41.4744 -15.8676
23.5028 45.4885 -14.0751
28.0493 41.4744 -15.8676
21.1117 46.0108 -8.94966
23.5028 45.4885 -14.0751
21.1117 46.0108 -8.94966
21.3475 48.9802 -17.4081
25.717 42.8596 -13.5741
21.1117 46.0108 -8.94966
28.0493 41.4744 -15.8676
25.717 42.8596 -13.5741
28.0493 41.4744 -15.8676
27.9899 41.0936 -15.9052
25.717 42.8596 -13.5741
27.9899 41.0936 -15.9052
21.1117 46.0108 -8.94966
21.7482 45.235 -3.03592
21.1117 46.0108 -8.94966
21.3475 48.9802 -17.4081
21.7482 45.235 -3.03592
21.3475 48.9802 -17.4081
22.7855 40.714 17.25
21.7482 45.235 -3.03592
22.7855 40.714 17.25
21.1117 46.0108 -8.94966
23.1501 43.4992 3.8513
22.7855 40.714 17.25
25.553 43.7728 3.2536
23.1501 43.4992 3.8513
25.553 43.7728 3.2536
21.1117 46.0108 -8.94966
23.1501 43.4992 3.8513
21.1117 46.0108 -8.94966
22.7855 40.714 17.25
19.6206 41.1645 -1.01363
22.5777 41.9088 12.2405
15.1724 35.5738 -6.3317
19.6206 41.1645 -1.01363
15.1724 35.5738 -6.3317
21.1117 46.0108 -8.94966
19.6206 41.1645 -1.01363
21.1117 46.0108 -8.94966
22.5777 41.9088 12.2405
7.3186 17.3969 -3.87961
9.44325 25.5062 -3.80641
9.44165 12.3763 -6.83481
7.3186 17.3969 -3.87961
9.44165 12.3763 -6.83481
3.0709 14.3083 -0.997593
7.3186 17.3969 -3.87961
3.0709 14.3083 -0.997593
9.44325 25.5062 -3.80641
4.69001 12.6838 -2.41366
3.0709 14.3083 -0.997593
1.55749 11.3669 0.591422
4.69001 12.6838 -2.41366
1.55749 11.3669 0.591422
9.44165 12.3763 -6.83481
4.69001 12.6838 -2.41366
9.44165 12.3763 -6.83481
3.0709 14.3083 -0.997593
14.6954 7.54678 -5.72852
1.55749 11.3669 0.591422
22.3328 -1.46845 -1.92546
14.6954 7.54678 -5.72852
22.3328 -1.46845 -1.92546
20.1959 12.7419 -15.8515
14.6954 7.54678 -5.72852
20.1959 12.7419 -15.8515
1.55749 11.3669 0.591422
24.4169 4.32322 -9.96828
20.1959 12.7419 -15.8515
22.3328 -1.46845 -1.92546
24.4169 4.32322 -9.96828
22.3328 -1.46845 -1.92546
30.7219 1.69619 -12.1279
24.4169 4.32322 -9.96828
30.7219 1.69619 -12.1279
20.1959 12.7419 -15.8515
24.9815 10.0406 -15.4647
30.7219 1.69619 -12.1279
20.1959 12.7419 -15.8515
24.9815 10.0406 -15.4647
20.1959 12.7419 -15.8515
24.0268 15.6837 -18.4147
24.9815 10.0406 -15.4647
24.0268 15.6837 -18.4147
30.7219 1.69619 -12.1279
10.3984 12.1617 -7.36497
1.55749 11.3669 0.591422
9.44165 12.3763 -6.83481
10.3984 12.1617 -7.36497
9.44165 12.3763 -6.83481
20.1959 12.7419 -15.8515
10.3984 12.1617 -7.36497
20.1959 12.7419 -15.8515
1.55749 11.3669 0.591422
6.47445 -18.1383 9.59332
3.47014 -29.8424 14.8745
-5.06244 -17.4363 13.321
6.47445 -18.1383 9.59332
-5.06244 -17.4363 13.321
21.0156 -7.13628 0.584442
6.47445 -18.1383 9.59332
21.0156 -7.13628 0.584442
3.47014 -29.8424 14.8745
13.9096 -20.1166 7.74425
21.0156 -7.13628 0.584442
17.2429 -23.3712 7.77382
13.9096 -20.1166 7.74425
17.2429 -23.3712 7.77382
3.47014 -29.8424 14.8745
13.9096 -20.1166 7.74425
3.47014 -29.8424 14.8745
21.0156 -7.13628 0.584442
-25.4302 5.66807 9.45177
-23.546 -13.4984 -2.17084
-26.3323 13.6752 20.3916
-25.4302 5.66807 9.45177
-26.3323 13.6752 20.3916
-26.4124 16.8275 10.1346
-25.4302 5.66807 9.45177
-26.4124 16.8275 10.1346
-23.546 -13.4984 -2.17084
3 0 1 2
3 3 4 5
3 6 7 8
3 9 10 11
3 12 13 14
3 15 16 17
3 18 19 20
3 21 22 23
3 24 25 26
3 27 28 29
3 30 31 32
3 33 34 35
3 36 37 38
3 39 40 41
3 42 43 44
3 45 46 47
3 48 49 50
3 51 52 53
3 54 55 56
3 57 58 59
3 60 61 62
3 63 64 65
3 66 67 68
3 69 70 71
3 72 73 74
3 75 76 77
3 78 79 80
3 81 82 83
3 84 85 86
3 87 88 89
3 90 91 92
3 93 94 95
3 96 97 98
3 99 100 101
3 102 103 104
3 105 106 107
3 108 109 110
3 111 112 113
3 114 115 116
3 117 118 119
3 120 121 122
3 123 124 125
3 126 127 128
3 129 130 131
3 132 133 134
3 135 136 137
3 138 139 140
3 141 142 143
3 144 145 146
3 147 148 149
3 150 151 152
3 153 154 155
3 156 157 158
3 159 160 161
3 162 163 164
3 165 166 167
3 168 169 170
3 171 172 173
3 174 175 176
3 177 178 179
3 180 181 182
3 183 184 185
3 186 187 188
3 189 190 191
3 192 193 194
3 195 196 197
3 198 199 200
3 201 202 203
3 204 205 206
3 207 208 209
3 210 211 212
3 213 214 215
3 216 217 218
3 219 220 221
3 222 223 224
3 225 226 227
3 228 229 230
3 231 232 233
3 234 235 236
3 237 238 239
3 240 241 242
3 243 244 245
3 246 247 248
3 249 250 251
3 252 253 254
3 255 256 257
3 258 259 260
3 261 262 263
3 264 265 266
3 267 268 269
3 270 271 272
3 273 274 275
3 276 277 278
3 279 280 281
3 282 283 284
3 285 286 287
3 288 289 290
3 291 292 293
3 294 295 296
3 297 298 299
3 300 301 302
3 303 304 305
3 306 307 308
3 309 310 311
3 312 313 314
3 315 316 317
3 318 319 320
3 321 322 323
3 324 325 326
3 327 328 329
3 330 331 332
3 333 334 335
3 336 337 338
3 339 340 341
3 342 343 344
3 345 346 347
3 348 349 350
3 351 352 353
3 354 355 356
3 357 358 359
3 360 361 362
3 363 364 365
3 366 367 368
3 369 370 371
3 372 373 374
3 375 376 377
3 378 379 380
3 381 382 383
3 384 385 386
3 387 388 389
3 390 391 392
3 393 394 395
3 396 397 398
3 399 400 401
3 402 403 404
3 405 406 407
3 408 409 410
3 411 412 413
3 414 415 416
3 417 418 419
3 420 421 422
3 423 424 425
3 426 427 428
3 429 430 431
3 432 433 434
3 435 436 437
3 438 439 440
3 441 442 443
3 444 445 446
3 447 448 449
3 450 451 452
3 453 454 455
3 456 457 458
3 459 460 461
3 462 463 464
3 465 466 467
3 468 469 470
3 471 472 473
3 474 475 476
3 477 478 479
3 480 481 482
3 483 484 485
3 486 487 488
3 489 490 491
3 492 493 494
3 495 496 497
3 498 499 500
3 501 502 503
3 504 505 506
3 507 508 509
3 510 511 512
3 513 514 515
3 516 517 518
3 519 520 521
3 522 523 524
3 525 526 527
3 528 529 530
3 531 532 533
3 534 535 536
3 537 538 539
3 540 541 542
3 543 544 545
3 546 547 548
3 549 550 551
3 552 553 554
3 555 556 557
3 558 559 560
3 561 562 563
3 564 565 566
3 567 568 569
3 570 571 572
3 573 574 575
3 576 577 578
3 579 580 581
3 582 583 584
3 585 586 587
3 588 589 590
3 591 592 593
3 594 595 596
3 597 598 599
3 600 601 602
3 603 604 605
3 606 607 608
3 609 610 611
3 612 613 614
3 615 616 617
3 618 619 620
3 621 622 623
3 624 625 626
3 627 628 629
3 630 631 632
3 633 634 635
3 636 637 638
3 639 640 641
3 642 643 644
3 645 646 647
3 648 649 650
3 651 652 653
3 654 655 656
3 657 658 659
3 660 661 662
3 663 664 665
3 666 667 668
3 669 670 671
3 672 673 674
3 675 676 677
3 678 679 680
3 681 682 683
3 684 685 686
3 687 688 689
3 690 691 692
3 693 694 695
3 696 697 698
3 699 700 701
3 702 703 704
3 705 706 707
3 708 709 710
3 711 712 713
3 714 715 716
3 717 718 719
3 720 721 722
3 723 724 725
3 726 727 728
3 729 730 731
3 732 733 734
3 735 736 737
3 738 739 740
3 741 742 743
3 744 745 746
3 747 748 749
3 750 751 752
3 753 754 755
3 756 757 758
3 759 760 761
3 762 763 764
3 765 766 767
3 768 769 770
3 771 772 773
3 774 775 776
3 777 778 779
3 780 781 782
3 783 784 785
3 786 787 788
3 789 790 791
3 792 793 794
3 795 796 797
3 798 799 800
3 801 802 803
3 804 805 806
3 807 808 809
3 810 811 812
3 813 814 815
3 816 817 818
3 819 820 821
3 822 823 824
3 825 826 827
3 828 829 830
3 831 832 833
3 834 835 836
3 837 838 839
3 840 841 842
3 843 844 845
3 846 847 848
3 849 850 851
3 852 853 854
3 855 856 857
3 858 859 860
3 861 862 863
3 864 865 866
3 867 868 869
3 870 871 872
3 873 874 875
3 876 877 878
3 879 880 881
3 882 883 884
3 885 886 887
3 888 889 890
3 891 892 893
3 894 895 896
3 897 898 899
3 900 901 902
3 903 904 905
3 906 907 908
3 909 910 911
3 912 913 914
3 915 916 917
3 918 919 920
3 921 922 923
3 924 925 926
3 927 928 929
3 930 931 932
