ply
format ascii 1.0
element vertex 489
property float x
property float y
property float z
element face 163
property list uchar int vertex_indices
end_header
13.0901 -10.7774 -21.2801
11.0975 -30.7921 -31.6941
49.2905 -30.7921 -21.0504
13.0901 -10.7774 -21.2801
49.2905 -30.7921 -21.0504
45.512 -1.12929 -7.49215
13.0901 -10.7774 -21.2801
45.512 -1.12929 -7.49215
3.77976 4.03899 -16.5765
13.0901 -10.7774 -21.2801
3.77976 4.03899 -16.5765
-2.38872 -0.347155 -20.456
13.0901 -10.7774 -21.2801
-2.38872 -0.347155 -20.456
-6.88483 -4.81478 -23.9097
13.0901 -10.7774 -21.2801
-6.88483 -4.81478 -23.9097
-8.77576 -11.6055 -27.7816
13.0901 -10.7774 -21.2801
-8.77576 -11.6055 -27.7816
11.0975 -30.7921 -31.6941
23.5522 28.766 -23.1314
9.08924 13.4086 -27.562
2.2198 4.23218 -16.916
23.5522 28.766 -23.1314
2.2198 4.23218 -16.916
34.9654 36.7703 8.23715
23.5522 28.766 -23.1314
34.9654 36.7703 8.23715
37.2247 43.6574 -21.473
23.5522 28.766 -23.1314
37.2247 43.6574 -21.473
34.1958 41.9061 -32.3245
23.5522 28.766 -23.1314
34.1958 41.9061 -32.3245
24.8114 32.0751 -36.1043
23.5522 28.766 -23.1314
24.8114 32.0751 -36.1043
22.3592 29.312 -35.7773
23.5522 28.766 -23.1314
22.3592 29.312 -35.7773
9.08924 13.4086 -27.562
22.083 23.7908 -22.3161
9.08924 13.4086 -27.562
3.77976 4.03898 -16.5765
22.083 23.7908 -22.3161
3.77976 4.03898 -16.5765
32.6917 24.597 1.60723
22.083 23.7908 -22.3161
32.6917 24.597 1.60723
34.7855 34.9231 -19.7047
22.083 23.7908 -22.3161
34.7855 34.9231 -19.7047
28.5063 34.9231 -35.0866
22.083 23.7908 -22.3161
28.5063 34.9231 -35.0866
23.6458 30.8539 -36.5738
22.083 23.7908 -22.3161
23.6458 30.8539 -36.5738
9.08924 13.4086 -27.562
-2.43047 13.5611 -28.5268
9.08923 13.4086 -27.562
2.2198 4.23218 -16.916
-2.43047 13.5611 -28.5268
2.2198 4.23218 -16.916
-4.14611 5.02055 -18.3018
-2.43047 13.5611 -28.5268
-4.14611 5.02055 -18.3018
-22.1912 14.4328 -30.9206
-2.43047 13.5611 -28.5268
-22.1912 14.4328 -30.9206
-14.3136 20.8582 -38.1672
-2.43047 13.5611 -28.5268
-14.3136 20.8582 -38.1672
14.759 23.4141 -39.293
-2.43047 13.5611 -28.5268
14.759 23.4141 -39.293
9.08923 13.4086 -27.562
1.07213 -10.9925 -19.0101
15.4462 -17.4442 -8.61555
-6.74586 -27.7868 -31.3198
1.07213 -10.9925 -19.0101
-6.74586 -27.7868 -31.3198
-9.51342 -14.2546 -29.2921
1.07213 -10.9925 -19.0101
-9.51342 -14.2546 -29.2921
-6.88483 -4.81476 -23.9097
1.07213 -10.9925 -19.0101
-6.88483 -4.81476 -23.9097
0.856589 2.41115 -14.8034
1.07213 -10.9925 -19.0101
0.856589 2.41115 -14.8034
13.2742 -4.06582 -6.11985
1.07213 -10.9925 -19.0101
13.2742 -4.06582 -6.11985
15.4462 -17.4442 -8.61555
-17.8702 -32.4152 -20.5219
-2.26152 -49.7132 -34.6055
-17.8569 -53.3503 -19.5956
-17.8702 -32.4152 -20.5219
-17.8569 -53.3503 -19.5956
-20.1425 -51.906 -17.4845
-17.8702 -32.4152 -20.5219
-20.1425 -51.906 -17.4845
-26.4634 -33.3665 -12.2986
-17.8702 -32.4152 -20.5219
-26.4634 -33.3665 -12.2986
-26.9505 -11.6211 -12.8102
-17.8702 -32.4152 -20.5219
-26.9505 -11.6211 -12.8102
-13.5466 5.46587 -26.337
-17.8702 -32.4152 -20.5219
-13.5466 5.46587 -26.337
-2.26152 -49.7132 -34.6055
-28.6404 -27.3715 -2.26323
-24.5841 -39.8408 6.49316
-17.948 -58.3427 -19.285
-28.6404 -27.3715 -2.26323
-17.948 -58.3427 -19.285
-34.3911 -10.1141 -5.79434
-28.6404 -27.3715 -2.26323
-34.3911 -10.1141 -5.79434
-34.8548 -9.05221 0.885847
-28.6404 -27.3715 -2.26323
-34.8548 -9.05221 0.885847
-31.4242 -19.5076 6.38424
-28.6404 -27.3715 -2.26323
-31.4242 -19.5076 6.38424
-24.5841 -39.8408 6.49316
19.0082 -10.9235 27.1126
34.3694 -29.3734 18.163
14.5867 -21.5105 39.7839
19.0082 -10.9235 27.1126
14.5867 -21.5105 39.7839
13.9539 -20.626 40.0735
19.0082 -10.9235 27.1126
13.9539 -20.626 40.0735
6.96074 14.409 27.2337
19.0082 -10.9235 27.1126
6.96074 14.409 27.2337
25.1705 2.48368 10.3087
19.0082 -10.9235 27.1126
25.1705 2.48368 10.3087
34.3694 -29.3734 18.163
14.3277 29.0391 24.9356
11.9091 15.7475 31.0441
31.9158 32.2368 16.0777
14.3277 29.0391 24.9356
31.9158 32.2368 16.0777
7.33441 43.1938 22.5876
14.3277 29.0391 24.9356
7.33441 43.1938 22.5876
6.15148 24.9783 30.0329
14.3277 29.0391 24.9356
6.15148 24.9783 30.0329
11.9091 15.7475 31.0441
31.0748 46.3607 -7.68977
34.9275 36.6547 8.73601
37.8766 45.6447 -30.0464
31.0748 46.3607 -7.68977
37.8766 45.6447 -30.0464
27.0107 51.5716 -9.29214
31.0748 46.3607 -7.68977
27.0107 51.5716 -9.29214
24.4843 51.5716 -0.156614
31.0748 46.3607 -7.68977
24.4843 51.5716 -0.156614
34.9275 36.6547 8.73601
18.1113 46.7892 10.1915
7.91445 42.9352 22.434
31.9158 32.2368 16.0777
18.1113 46.7892 10.1915
31.9158 32.2368 16.0777
34.9275 36.6547 8.736
18.1113 46.7892 10.1915
34.9275 36.6547 8.736
17.8418 61.0597 -5.81285
18.1113 46.7892 10.1915
17.8418 61.0597 -5.81285
-2.04296 61.0597 9.5228
18.1113 46.7892 10.1915
-2.04296 61.0597 9.5228
7.91445 42.9352 22.434
-13.8828 56.5294 13.3692
-27.0271 47.588 17.3507
-14.4227 34.1464 35.6347
-13.8828 56.5294 13.3692
-14.4227 34.1464 35.6347
-1.65528 28.9455 45.7077
-13.8828 56.5294 13.3692
-1.65528 28.9455 45.7077
-7.5743 80.5074 -8.30525
-13.8828 56.5294 13.3692
-7.5743 80.5074 -8.30525
-14.8014 75.5769 -6.1018
-13.8828 56.5294 13.3692
-14.8014 75.5769 -6.1018
-17.8163 72.4125 -4.07066
-13.8828 56.5294 13.3692
-17.8163 72.4125 -4.07066
-27.0271 47.588 17.3507
-24.5399 48.1047 -0.552922
-29.6311 32.846 8.27673
-25.3805 38.8304 -12.3274
-24.5399 48.1047 -0.552922
-25.3805 38.8304 -12.3274
-22.8445 48.8464 -11.994
-24.5399 48.1047 -0.552922
-22.8445 48.8464 -11.994
-17.8163 72.4125 -4.07066
-24.5399 48.1047 -0.552922
-17.8163 72.4125 -4.07066
-27.0271 47.588 17.3507
-24.5399 48.1047 -0.552922
-27.0271 47.588 17.3507
-29.6311 32.846 8.27673
-21.2704 34.7572 -22.79
-16.2826 20.6851 -38.091
-29.7993 10.4103 -26.5652
-21.2704 34.7572 -22.79
-29.7993 10.4103 -26.5652
-28.9472 20.2442 -21.6105
-21.2704 34.7572 -22.79
-28.9472 20.2442 -21.6105
-20.2037 61.2231 -7.83271
-21.2704 34.7572 -22.79
-20.2037 61.2231 -7.83271
-11.1189 61.2231 -19.8504
-21.2704 34.7572 -22.79
-11.1189 61.2231 -19.8504
-16.2826 20.6851 -38.091
17.1819 38.495 -32.5469
23.6458 30.8539 -36.5738
14.759 23.4141 -39.293
17.1819 38.495 -32.5469
14.759 23.4141 -39.293
-6.4482 21.5497 -38.4718
17.1819 38.495 -32.5469
-6.4482 21.5497 -38.4718
-5.4282 49.7317 -25.5875
17.1819 38.495 -32.5469
-5.4282 49.7317 -25.5875
29.2111 49.7317 -28.3298
17.1819 38.495 -32.5469
29.2111 49.7317 -28.3298
47.3521 55.6887 -27.0255
17.1819 38.495 -32.5469
47.3521 55.6887 -27.0255
23.6458 30.8539 -36.5738
-31.8156 15.7906 6.39099
-31.9967 9.74082 -2.90296
-32.5445 6.58801 -1.79551
-31.8156 15.7906 6.39099
-32.5445 6.58801 -1.79551
-33.4596 2.54037 2.40577
-31.8156 15.7906 6.39099
-33.4596 2.54037 2.40577
-34.4393 2.54037 15.2643
-31.8156 15.7906 6.39099
-34.4393 2.54037 15.2643
-29.2349 38.1538 15.6609
-31.8156 15.7906 6.39099
-29.2349 38.1538 15.6609
-29.2188 35.1801 9.71341
-31.8156 15.7906 6.39099
-29.2188 35.1801 9.71341
-31.9967 9.74082 -2.90296
-31.974 -3.41178 -22.725
-31.9465 -14.3696 -39.0503
-32.3163 -13.5655 -33.7848
-31.974 -3.41178 -22.725
-32.3163 -13.5655 -33.7848
-32.884 -13.5655 -27.5067
-31.974 -3.41178 -22.725
-32.884 -13.5655 -27.5067
-33.9161 -11.2019 -12.6378
-31.974 -3.41178 -22.725
-33.9161 -11.2019 -12.6378
-32.1508 8.32959 -3.60284
-31.974 -3.41178 -22.725
-32.1508 8.32959 -3.60284
-28.6302 23.9023 -19.7674
-31.974 -3.41178 -22.725
-28.6302 23.9023 -19.7674
-31.9465 -14.3696 -39.0503
-29.3185 -3.49423 11.3064
-32.3353 -17.2031 14.9023
-35.0557 -8.59227 3.77949
-29.3185 -3.49423 11.3064
-35.0557 -8.59227 3.77949
-34.0114 -2.27945 1.4611
-29.3185 -3.49423 11.3064
-34.0114 -2.27945 1.4611
-21.4707 9.62155 17.3952
-29.3185 -3.49423 11.3064
-21.4707 9.62155 17.3952
-23.7194 0.982114 18.994
-29.3185 -3.49423 11.3064
-23.7194 0.982114 18.994
-32.3353 -17.2031 14.9023
-24.6903 28.9599 15.8621
-30.4578 23.8334 4.08613
-19.3532 11.631 20.0857
-24.6903 28.9599 15.8621
-19.3532 11.631 20.0857
-18.6222 11.7403 21.4147
-24.6903 28.9599 15.8621
-18.6222 11.7403 21.4147
-23.4623 43.7865 22.5218
-24.6903 28.9599 15.8621
-23.4623 43.7865 22.5218
-27.0271 47.588 17.3507
-24.6903 28.9599 15.8621
-27.0271 47.588 17.3507
-29.2188 35.1801 9.71343
-24.6903 28.9599 15.8621
-29.2188 35.1801 9.71343
-30.4578 23.8334 4.08613
-4.4811 -13.3132 30.6968
13.9539 -20.626 40.0735
-3.74842 -31.3434 36.1739
-4.4811 -13.3132 30.6968
-3.74842 -31.3434 36.1739
-13.7747 -26.2944 30.7658
-4.4811 -13.3132 30.6968
-13.7747 -26.2944 30.7658
-16.5217 -13.4747 25.9933
-4.4811 -13.3132 30.6968
-16.5217 -13.4747 25.9933
-14.8905 3.13165 21.8585
-4.4811 -13.3132 30.6968
-14.8905 3.13165 21.8585
8.09473 8.72781 29.3157
-4.4811 -13.3132 30.6968
8.09473 8.72781 29.3157
13.9539 -20.626 40.0735
-27.0187 -6.2852 11.2303
-25.8462 -36.508 15.3246
-34.8548 -9.05222 0.885843
-27.0187 -6.2852 11.2303
-34.8548 -9.05222 0.885843
-34.0114 -2.27953 1.4611
-27.0187 -6.2852 11.2303
-34.0114 -2.27953 1.4611
-27.2901 4.0989 10.0011
-27.0187 -6.2852 11.2303
-27.2901 4.0989 10.0011
-20.2873 4.0989 19.4511
-27.0187 -6.2852 11.2303
-20.2873 4.0989 19.4511
-19.8227 1.93082 20.2583
-27.0187 -6.2852 11.2303
-19.8227 1.93082 20.2583
-25.8462 -36.508 15.3246
-2.21655 -45.6539 36.487
-10.6896 -50.3869 29.621
-6.91972 -50.3869 32.2405
-2.21655 -45.6539 36.487
-6.91972 -50.3869 32.2405
13.9417 -46.552 47.5288
-2.21655 -45.6539 36.487
13.9417 -46.552 47.5288
1.62364 -39.07 40.5165
-2.21655 -45.6539 36.487
1.62364 -39.07 40.5165
-9.03877 -41.8739 32.5281
-2.21655 -45.6539 36.487
-9.03877 -41.8739 32.5281
-10.6896 -50.3869 29.621
3.75777 -32.4342 35.9199
-8.38179 -41.7934 32.5655
18.2151 -38.5313 34.0778
3.75777 -32.4342 35.9199
18.2151 -38.5313 34.0778
14.5867 -21.5105 39.7838
3.75777 -32.4342 35.9199
14.5867 -21.5105 39.7838
13.9539 -20.626 40.0735
3.75777 -32.4342 35.9199
13.9539 -20.626 40.0735
-7.42877 -33.5716 35.3632
3.75777 -32.4342 35.9199
-7.42877 -33.5716 35.3632
-8.39851 -38.5723 33.6556
3.75777 -32.4342 35.9199
-8.39851 -38.5723 33.6556
-8.38179 -41.7934 32.5655
31.3149 -47.552 19.3347
40.901 -50.7795 8.92303
38.1747 -53.9439 11.428
31.3149 -47.552 19.3347
38.1747 -53.9439 11.428
21.5007 -53.9439 28.9109
31.3149 -47.552 19.3347
21.5007 -53.9439 28.9109
18.2151 -38.5313 34.0778
31.3149 -47.552 19.3347
18.2151 -38.5313 34.0778
37.7831 -40.5613 13.3337
31.3149 -47.552 19.3347
37.7831 -40.5613 13.3337
40.901 -50.7795 8.92303
36.0645 -33.9617 3.95929
37.7831 -40.5613 13.3337
38.2019 -41.5599 8.1773
36.0645 -33.9617 3.95929
38.2019 -41.5599 8.1773
38.6227 -41.1078 -14.7725
36.0645 -33.9617 3.95929
38.6227 -41.1078 -14.7725
38.3454 -40.1663 -14.7792
36.0645 -33.9617 3.95929
38.3454 -40.1663 -14.7792
29.0643 -11.0012 13.6334
36.0645 -33.9617 3.95929
29.0643 -11.0012 13.6334
34.3694 -29.3734 18.163
36.0645 -33.9617 3.95929
34.3694 -29.3734 18.163
37.7831 -40.5613 13.3337
24.9722 -32.6597 -19.2576
37.3335 -36.9865 -11.6815
38.6393 -41.0899 -15.679
24.9722 -32.6597 -19.2576
38.6393 -41.0899 -15.679
24.6259 -43.853 -34.3575
24.9722 -32.6597 -19.2576
24.6259 -43.853 -34.3575
-7.56275 -12.7766 -28.0204
24.9722 -32.6597 -19.2576
-7.56275 -12.7766 -28.0204
31.8249 -28.5924 -6.54982
24.9722 -32.6597 -19.2576
31.8249 -28.5924 -6.54982
37.3335 -36.9865 -11.6815
17.0527 -45.6497 -25.1227
-18.0715 -53.4003 -19.3892
38.2019 -41.5599 8.17733
17.0527 -45.6497 -25.1227
38.2019 -41.5599 8.17733
38.6393 -41.0899 -15.679
17.0527 -45.6497 -25.1227
38.6393 -41.0899 -15.679
13.3921 -46.0679 -49.3309
17.0527 -45.6497 -25.1227
13.3921 -46.0679 -49.3309
13.1015 -46.1303 -49.3917
17.0527 -45.6497 -25.1227
13.1015 -46.1303 -49.3917
-18.0715 -53.4003 -19.3892
3.31454 -44.1795 14.38
-18.0714 -53.4003 -19.3892
-38.3713 -51.7541 -0.137632
3.31454 -44.1795 14.38
-38.3713 -51.7541 -0.137632
-21.8827 -45.2515 22.9053
3.31454 -44.1795 14.38
-21.8827 -45.2515 22.9053
-9.03878 -41.874 32.5281
3.31454 -44.1795 14.38
-9.03878 -41.874 32.5281
10.1753 -39.5174 33.6206
3.31454 -44.1795 14.38
10.1753 -39.5174 33.6206
27.7202 -39.5174 24.0015
3.31454 -44.1795 14.38
27.7202 -39.5174 24.0015
37.7832 -40.5613 13.3337
3.31454 -44.1795 14.38
37.7832 -40.5613 13.3337
38.2019 -41.5599 8.17735
3.31454 -44.1795 14.38
38.2019 -41.5599 8.17735
-18.0714 -53.4003 -19.3892
-8.59356 15.6609 24.7875
-18.1192 12.8021 21.6536
-18.457 10.6463 21.3769
-8.59356 15.6609 24.7875
-18.457 10.6463 21.3769
-17.2358 2.56064 21.0976
-8.59356 15.6609 24.7875
-17.2358 2.56064 21.0976
15.2075 10.4595 31.6234
-8.59356 15.6609 24.7875
15.2075 10.4595 31.6234
-4.36327 41.8359 28.1863
-8.59356 15.6609 24.7875
-4.36327 41.8359 28.1863
-18.1192 12.8021 21.6536
3 0 1 2
3 3 4 5
3 6 7 8
3 9 10 11
3 12 13 14
3 15 16 17
3 18 19 20
3 21 22 23
3 24 25 26
3 27 28 29
3 30 31 32
3 33 34 35
3 36 37 38
3 39 40 41
3 42 43 44
3 45 46 47
3 48 49 50
3 51 52 53
3 54 55 56
3 57 58 59
3 60 61 62
3 63 64 65
3 66 67 68
3 69 70 71
3 72 73 74
3 75 76 77
3 78 79 80
3 81 82 83
3 84 85 86
3 87 88 89
3 90 91 92
3 93 94 95
3 96 97 98
3 99 100 101
3 102 103 104
3 105 106 107
3 108 109 110
3 111 112 113
3 114 115 116
3 117 118 119
3 120 121 122
3 123 124 125
3 126 127 128
3 129 130 131
3 132 133 134
3 135 136 137
3 138 139 140
3 141 142 143
3 144 145 146
3 147 148 149
3 150 151 152
3 153 154 155
3 156 157 158
3 159 160 161
3 162 163 164
3 165 166 167
3 168 169 170
3 171 172 173
3 174 175 176
3 177 178 179
3 180 181 182
3 183 184 185
3 186 187 188
3 189 190 191
3 192 193 194
3 195 196 197
3 198 199 200
3 201 202 203
3 204 205 206
3 207 208 209
3 210 211 212
3 213 214 215
3 216 217 218
3 219 220 221
3 222 223 224
3 225 226 227
3 228 229 230
3 231 232 233
3 234 235 236
3 237 238 239
3 240 241 242
3 243 244 245
3 246 247 248
3 249 250 251
3 252 253 254
3 255 256 257
3 258 259 260
3 261 262 263
3 264 265 266
3 267 268 269
3 270 271 272
3 273 274 275
3 276 277 278
3 279 280 281
3 282 283 284
3 285 286 287
3 288 289 290
3 291 292 293
3 294 295 296
3 297 298 299
3 300 301 302
3 303 304 305
3 306 307 308
3 309 310 311
3 312 313 314
3 315 316 317
3 318 319 320
3 321 322 323
3 324 325 326
3 327 328 329
3 330 331 332
3 333 334 335
3 336 337 338
3 339 340 341
3 342 343 344
3 345 346 347
3 348 349 350
3 351 352 353
3 354 355 356
3 357 358 359
3 360 361 362
3 363 364 365
3 366 367 368
3 369 370 371
3 372 373 374
3 375 376 377
3 378 379 380
3 381 382 383
3 384 385 386
3 387 388 389
3 390 391 392
3 393 394 395
3 396 397 398
3 399 400 401
3 402 403 404
3 405 406 407
3 408 409 410
3 411 412 413
3 414 415 416
3 417 418 419
3 420 421 422
3 423 424 425
3 426 427 428
3 429 430 431
3 432 433 434
3 435 436 437
3 438 439 440
3 441 442 443
3 444 445 446
3 447 448 449
3 450 451 452
3 453 454 455
3 456 457 458
3 459 460 461
3 462 463 464
3 465 466 467
3 468 469 470
3 471 472 473
3 474 475 476
3 477 478 479
3 480 481 482
3 483 484 485
3 486 487 488
