ply
format ascii 1.0
comment File exported by Rhinoceros Version 7.0
element vertex 47
property float x
property float y
property float z
property float nx
property float ny
property float nz
property uchar red
property uchar green
property uchar blue
element face 19
property list uchar uint vertex_indices
end_header
760.689270019531 3991.3115234375 182.197738647461 0.03985152 0.06885547 0.9968303 136 123 115
1120.35400390625 3046.0439453125 185.052795410156 0.1625983 -0.0155996 0.986569 154 147 130
1691.42346191406 3816.080078125 104.740142822266 0.144306 0.4652652 0.8733293 154 142 119
725.181091308594 4115.14892578125 96.1632232666016 0.1379708 0.4157876 0.8989353 3 12 33
1934.28625488281 3979.76489257813 69.5092010498047 -0.006387701 -0.2352115 0.9719232 184 149 104
1934.28625488281 3979.76489257813 69.5092010498047 0.1362141 -0.8535812 0.5028366 0 0 0
745.146911621094 4221.50537109375 159.108123779297 -0.1042853 -0.4109123 0.9056907 30 38 48
725.181091308594 4115.14892578125 96.1632232666016 -0.05982744 -0.1955165 0.9788738 100 100 102
-1193.109375 1094.74291992188 125.87166595459 0.1639539 -0.2480969 0.9547602 110 99 137
-2011.23486328125 638.558471679688 100.323165893555 0.2111287 -0.2343542 0.9489483 79 105 92
-1165.60021972656 995.423217773438 76.2737121582031 -0.007964147 -0.1788967 0.9838356 169 157 125
-1193.109375 1094.74291992188 125.87166595459 -0.0002396665 -0.03227365 0.9994791 145 144 149
-2146.14770507813 1428.47290039063 89.5153198242188 -0.09048356 0.1038588 0.9904676 254 251 242
-2011.23486328125 638.558471679688 100.323165893555 0.02459027 -0.1312257 0.9910475 138 129 116
1934.28625488281 3979.76489257813 69.5092010498047 0.07577918 -0.004714668 0.9971135 176 162 154
1811.51513671875 4472.72021484375 87.167594909668 0.06707272 0.03876898 0.9969946 135 120 105
745.146911621094 4221.50537109375 159.108123779297 0.02938748 0.07424544 0.9968069 0 0 2
159.924072265625 1930.14477539063 150.992553710938 0.02444778 -0.1092167 0.9937173 64 61 65
1120.35400390625 3046.0439453125 185.052795410156 0.2854596 -0.2149707 0.9339703 250 221 193
260.672882080078 2672.18310546875 195.872512817383 -0.07719041 -0.04565974 0.9959703 103 100 101
-710.31005859375 2390.66015625 99.8129959106445 -0.2000228 0.08147498 0.9763978 120 114 104
-1253.14904785156 1984.20874023438 139.433944702148 -0.04110192 0.08059285 0.9958993 86 102 117
-49.3295440673828 2745.048828125 167.504364013672 -0.3226139 0.3529175 0.8782765 67 73 89
-1253.14904785156 1984.20874023438 139.433944702148 -0.06907866 -0.02165197 0.9973762 131 135 141
-1193.109375 1094.74291992188 125.87166595459 -0.02343906 -0.001582188 0.999724 229 216 187
-49.3295440673828 2745.048828125 167.504364013672 0.02286007 -0.04438128 0.9987531 0 8 34
159.924072265625 1930.14477539063 150.992553710938 -0.03307842 -0.00932457 0.9994093 45 41 40
260.672882080078 2672.18310546875 195.872512817383 -0.08305121 -0.04147586 0.9956818 0 0 0
-1832.28308105469 2567.22900390625 147.754684448242 0.51911 0.1031689 0.848458 0 0 0
-1253.14904785156 1984.20874023438 139.433944702148 -0.09047443 0.04421176 0.9949169 107 112 97
-710.31005859375 2390.66015625 99.8129959106445 -0.06633425 -0.0660008 0.9956122 163 168 188
-1612.60827636719 3680.2431640625 175.881713867188 0.5194106 0.01264503 0.8544313 153 68 0
760.689270019531 3991.3115234375 182.197738647461 -0.1130871 0.1579719 0.9809465 94 88 85
260.672882080078 2672.18310546875 195.872512817383 -0.0302119 0.008487633 0.9995075 182 164 144
1120.35400390625 3046.0439453125 185.052795410156 0.1457209 -0.08127055 0.985982 138 127 121
-2011.23486328125 638.558471679688 100.323165893555 -0.2934054 0.5659686 0.7704497 255 236 144
-970.717041015625 424.94775390625 87.4813690185547 0.5561308 -0.3386215 0.7589822 0 0 2
-1165.60021972656 995.423217773438 76.2737121582031 -0.004468851 -0.3755802 0.9267791 242 255 255
-2279.99072265625 3421.72143554688 203.450668334961 0.1534376 -0.1628116 0.9746534 80 76 62
-1832.28308105469 2567.22900390625 147.754684448242 -0.04153889 0.1153544 0.9924555 17 16 21
-1612.60827636719 3680.2431640625 175.881713867188 0.06952941 -0.07016695 0.9951092 142 135 132
-49.3295440673828 2745.048828125 167.504364013672 -0.07408058 -0.02489464 0.9969415 4 24 44
260.672882080078 2672.18310546875 195.872512817383 -0.06149871 0.01280439 0.998025 73 72 75
760.689270019531 3991.3115234375 182.197738647461 0.01278306 -0.05771317 0.9982514 255 255 255
-1193.109375 1094.74291992188 125.87166595459 -0.006195742 -0.02752329 0.999602 71 68 68
-1253.14904785156 1984.20874023438 139.433944702148 -0.06172846 -0.01376531 0.9979981 217 207 205
-2146.14770507813 1428.47290039063 89.5153198242188 -0.1059831 0.1666595 0.9803021 122 128 126
3 0 1 2
3 2 3 0
3 2 4 3
3 5 6 7
3 8 9 10
3 11 12 13
3 14 15 16
3 17 18 19
3 20 21 22
3 24 26 23
3 25 26 27
3 28 29 30
3 30 31 28
3 32 33 34
3 35 36 37
3 38 39 40
3 41 42 43
3 44 45 46
3 26 25 23
