ply
format ascii 1.0
comment File exported by Rhinoceros Version 6.0
element vertex 618
property float x
property float y
property float z
element face 1024
property list uchar uint vertex_index
end_header
-50 40.14064 2.752197
-50 37.877 3.570068
-48.31691 40.36551 2.976501
-49.91622 37.79936 3.612793
-50 41.34055 2.295959
-50 37.79269 3.599823
-50 37.67635 3.642548
-50 35.1945 4.539764
-49.2223 34.99709 4.751862
-50 34.14107 4.93573
-50 32.52002 5.498779
-48.99841 32.26729 5.732239
-46.8168 33.69246 5.567444
-50 30.3237 6.377686
-47.69165 30.21002 6.756866
-50 30.0479 6.489838
-50 29.50145 6.714905
-49.35262 27.14664 7.776917
-46.68195 27.1041 8.265961
-50 27.3389 7.567871
-50 26.60304 7.831085
-49.8671 23.96899 8.857239
-50 24.0121 8.809937
-50 23.86694 8.860291
-50 21.56783 9.542358
-47.15517 22.5793 9.682739
-50 23.68137 8.921326
-50 19.49168 10.10922
-47.64249 18.92538 10.58911
-48.87297 17.01747 10.87903
-50 18.71768 10.3053
-50 17.09148 10.7005
-50 15.20148 11.21091
-49.86503 14.97508 11.29025
-50 19.14053 10.20306
-50 15.00179 11.26508
-50 14.68059 11.35815
-50 12.55809 12.04327
-50 11.44115 12.42322
-47.40634 12.2016 12.69101
-48.71883 9.700882 13.27618
-50 9.827713 12.94278
-47.64247 14.87303 11.71216
-50 6.770996 14.00555
-48.18218 3.769211 15.49176
-47.81408 5.652908 14.93176
-50 5.994324 14.27945
-50 3.204636 15.25372
-46.75303 7.360184 14.62277
-50 6.334976 14.16272
-50 6.208908 14.20544
-50 2.297119 15.58331
-50 0.4260101 16.32108
-49.21718 1.889526 15.92206
-50 0.2856293 16.38211
-46.05243 0.9993591 17.27551
-48.43898 -2.122208 17.74472
-50 -1.403137 16.97644
-50 -2.188965 17.24576
-50 -4.417892 18.14145
-49.91088 -4.527756 18.21545
-50 0.149826 16.43323
-50 -4.530426 18.18646
-50 -4.701126 18.26199
-48.18795 -7.96785 20.48825
-47.16592 -4.470535 19.2294
-50 -7.787979 19.69785
-50 -9.838196 20.61719
-48.91307 -10.66446 21.46176
-50 -10.70566 21.02765
-50 -12.4381 21.91113
-47.4215 -11.13347 22.43146
-50 -12.66412 22.03397
-50 -13.033 22.24835
-48.86777 -14.2785 23.53314
-50 -14.80511 23.27832
-50 -16.58105 24.39908
-50 -17.46205 24.96747
-47.30029 -15.25163 25.02164
-50 -21.18214 27.56451
-48.99905 -20.72801 27.86053
-50 -20.64638 27.17542
-50 -17.90398 25.27722
-46.77949 -17.22974 26.71765
-50 -19.17848 26.1752
-50 -23.2007 29.12167
-48.5414 -23.86464 30.57584
-46.09935 -21.84914 30.59186
-50 -24.4008 30.03568
-50 -27.20708 32.38324
-46.70892 -26.0089 33.64438
-50 -27.57539 32.69376
-50 -27.72987 32.8349
-47.42455 -28.4648 35.37625
-50 -30.52034 35.44797
-50 -30.74864 35.67609
-46.55964 -30.60561 38.17929
-50 -33.1725 38.26932
-50 -33.31059 38.41885
-50 -36.11363 41.65372
-45.22576 -33.20836 42.05045
-50 -36.18498 41.7384
-50 -38.71642 44.84509
-45.96219 -36.55959 45.42645
-50 -39.43071 45.77435
-47.66872 -40.17799 48.70251
-50 -41.05385 47.8999
-50 -42.47807 49.8988
-47.67204 -41.42638 50.5
-44.06617 42.67989 2.865875
-46.30053 41.56314 2.885712
-45.14442 39.46887 3.8638
-46.86439 37.24814 4.384125
-41.78288 39.39772 4.382599
-43.42637 42.88817 2.894867
-43.80102 35.5464 5.446899
-40.47387 35.72112 5.875671
-33.44765 42.27209 4.48407
-36.14288 42.88817 3.888977
-37.49394 41.97627 4.018677
-36.86375 40.52267 4.523743
-38.72778 42.88817 3.568542
-38.6601 38.64622 5.057037
-35.93144 39.31189 5.153168
-32.56705 38.33438 6.257141
-30.01652 41.35944 5.549896
-36.36555 36.16649 6.354797
-38.30125 33.13628 7.134521
-44.97466 31.15894 6.842316
-41.63509 32.20358 6.972778
-30.62985 39.06813 6.33725
-28.95303 39.78262 6.354034
-26.52259 41.25606 6.354797
-28.07908 42.88817 5.331696
-29.98023 36.086 7.680023
-29.79808 37.51155 7.09256
-34.67648 33.26331 7.723511
-31.84946 34.65129 7.786835
-29.06232 38.58768 6.747711
-26.68445 38.92032 7.171906
-27.77333 37.66394 7.341278
-23.06542 39.59761 8.271301
-23.68026 42.33752 6.789673
-38.74025 29.51308 8.401764
-43.31114 28.70952 8.114136
-27.60937 36.11288 8.146942
-36.08852 31.60487 8.075989
-25.46973 37.46939 8.201874
-25.17908 38.55411 7.769287
-35.05482 30.03513 8.785522
-33.26526 31.40517 8.558167
-44.99421 26.052 8.915222
-42.42179 25.57745 9.285248
-25.70107 35.27747 9.226501
-28.84324 34.44701 8.530701
-22.4082 36.07341 10.24655
-20.79475 37.96568 10.04361
-21.1904 42.67836 7.618225
-19.40379 41.79584 8.832825
-18.72258 38.97772 10.54562
-31.83155 32.57018 8.400238
-29.76756 32.89061 8.736694
-27.51765 33.64134 9.253204
-27.28801 34.73235 8.876312
-32.77176 29.26761 9.470642
-28.05984 32.39566 9.385193
-30.25968 31.07539 9.195984
-35.41885 28.24451 9.366119
-16.4583 41.9364 10.22595
-43.17768 22.30846 10.19391
-30.97906 28.05777 10.56851
-29.07131 29.45453 10.4968
-37.96291 26.40125 9.589661
-37.13319 24.68425 10.35641
-34.27663 26.15691 10.48077
-40.03608 24.14066 10.02835
-40.40005 21.92203 10.73407
-38.32736 23.17992 10.73254
-19.8643 37.06142 10.91183
-42.59849 20.73032 10.70355
-44.78802 19.51094 10.81952
-27.49841 31.09885 10.20764
-25.19286 33.13342 10.38007
-24.72684 29.6899 12.23477
-15.0619 38.7704 12.56665
-12.97534 42.80959 11.73352
-21.49639 32.37105 12.47968
-18.24303 35.42624 12.57504
-36.18274 22.66284 11.50616
-35.44593 24.31479 10.95914
-32.12142 24.3909 11.96164
-29.09615 25.92764 12.33929
-27.44088 28.79401 11.50998
-38.34436 20.26625 11.84949
-36.46443 19.89661 12.53461
-41.37759 19.30362 11.42224
-45.70263 16.69226 11.55042
-42.7891 17.36784 11.89526
-34.24134 23.66553 11.63663
-34.35221 21.06105 12.68872
-42.66195 15.74374 12.55673
-44.80226 14.04468 12.65363
-11.50308 39.03914 14.6037
-8.858943 42.81187 14.39923
-26.04146 26.10294 13.50735
-22.70808 26.42928 14.8631
-21.12412 29.36717 14.14288
-31.17576 21.27467 13.71106
-27.34895 23.0939 14.68152
-37.39085 17.29918 13.27771
-41.87951 13.52321 13.55771
-39.55722 13.60007 14.17035
-40.10892 16.53204 12.84512
-14.24861 35.54106 14.73874
-44.1056 11.7549 13.64163
-45.08853 9.840683 14.11847
-38.38167 15.14751 13.89569
-36.0065 18.61754 13.14877
-43.76419 10.77376 14.08719
-42.89574 10.79245 14.30386
-34.60288 17.6982 13.98648
-30.67524 17.56544 15.58255
-27.8259 20.32558 15.7916
-37.53233 13.58195 14.80359
-36.17058 15.15799 14.5686
-45.81797 5.55983 15.46353
-43.21227 7.973587 15.29645
-16.91687 31.51083 15.34604
-18.77294 27.25478 16.48129
-40.97176 10.93207 14.77002
-38.1547 11.09724 15.62833
-33.01492 14.80933 15.90527
-5.9834 39.50987 18.09262
-25.90005 21.83429 16.34778
-14.85155 27.68317 18.61142
-10.51955 33.48438 18.30243
-35.22265 12.77419 15.96478
-40.41362 8.768753 15.82593
-43.59501 5.200684 16.20892
-41.11967 6.311707 16.63159
-45.55488 3.719818 16.23029
-35.08904 9.586823 17.50363
-27.15921 17.2946 17.30298
-24.66822 19.21893 17.79889
-38.17837 7.504181 17.21753
-29.01966 14.09198 17.98199
-31.86238 11.4194 18.02853
-44.32047 3.323471 16.78113
-24.03605 22.98671 16.21884
-21.74315 20.12263 18.62744
-19.9152 23.32259 17.93622
-17.24446 25.14011 18.46494
-39.47845 4.129898 18.2803
-37.201 4.817688 18.88531
-42.52012 3.390793 17.41666
-25.58084 14.75859 19.35147
-22.00027 16.28752 20.49207
-44.37928 -2.498901 19.43463
-41.52882 0.79776 19.04019
-19.36009 19.54298 20.20367
-27.7184 10.8428 20.33795
-5.851984 29.02232 23.97794
-3.62556 34.93758 22.19571
-11.3724 24.39032 22.77859
-16.36274 22.11905 20.67288
-37.8504 1.527512 20.26471
-35.63304 3.7612 20.12509
-35.22659 6.411469 18.98068
-32.77237 4.149536 21.37784
-31.75776 8.138184 19.74286
-40.55714 -1.862228 20.76749
-37.5572 -1.734253 22.15985
-45.3772 -5.818649 20.61032
-28.35937 6.885635 22.2247
-29.33326 2.262024 24.41968
-18.67976 17.24521 21.89282
-35.42924 1.229584 21.58841
-23.88344 12.62904 21.43964
-44.98327 -8.898819 22.42307
-20.36104 13.56746 22.99527
-42.81287 -5.562103 21.6731
-16.13441 17.10425 23.65979
-22.38326 11.49359 22.98306
-24.24679 9.211075 23.24399
-39.97426 -5.29718 22.95331
-37.24255 -4.597366 24.0054
-34.08249 -0.9776001 23.61554
2.317047 40.64894 23.12421
-0.6124735 42.88817 19.97861
-2.309895 30.62735 25.50916
2.141953 32.61023 27.45007
-25.54002 5.33725 24.79352
-45.55981 -12.29008 24.08932
-42.08226 -10.21298 24.80954
-11.60705 15.49007 27.74304
-5.901575 21.90219 28.03372
-38.33794 -8.170029 25.65335
-20.62182 10.20499 24.85913
-21.49577 5.459122 27.27917
-31.25288 -2.792252 26.42697
-34.61897 -5.946823 26.42773
-44.67549 -14.08643 25.79678
-28.13597 -1.280869 27.37302
-42.784 -14.96838 27.60495
-38.46631 -12.35399 28.47928
-16.99192 11.87048 26.19733
-17.78817 8.24176 27.94522
-0.5104303 25.69209 29.58859
-35.63788 -9.417816 28.17181
-13.11026 7.386887 31.64853
-31.42943 -6.219955 28.55939
-28.5517 -5.154312 29.70914
-32.89139 -8.999725 29.61072
-25.25213 1.946167 27.07852
-22.62721 1.085571 29.31775
-19.74912 1.691162 30.88025
-17.37032 4.58728 30.60025
-25.24598 -2.040375 29.72211
6.448579 37.76465 27.50653
5.523014 27.75755 32.47098
7.621813 33.57878 30.59109
-5.850291 16.62646 31.13583
-34.85749 -11.80791 30.40494
-45.1386 -19.04457 29.08582
-40.76538 -17.18282 30.54761
-43.15131 -20.75758 31.70804
9.821725 38.5152 29.33224
12.20641 36.44763 31.99033
13.32078 40.78227 30.29431
-1.305342 19.59544 32.64035
4.92835 21.89647 35.50214
-21.36347 -1.808258 32.19098
-24.07978 -6.190964 33.52917
-27.68695 -8.466614 32.69376
16.42051 38.52512 33.53833
17.56031 42.88817 31.57071
-36.76751 -15.5341 31.92853
-33.12776 -13.29698 32.65942
-38.8063 -20.2115 34.2532
10.87677 31.69414 33.75424
-43.90442 -23.61076 33.54749
-16.05668 0.8299866 34.00372
-7.282567 11.39136 33.15915
-30.29926 -8.797729 31.1366
-29.50449 -12.39842 34.46149
-10.06341 2.241043 37.05243
-7.449436 6.332504 36.08121
-35.70103 -17.22516 33.93964
-18.4334 -4.435623 36.14529
11.44865 26.88551 36.94257
1.127768 17.36575 35.53723
-33.29845 -17.75388 36.1041
-25.10278 -10.84851 36.35281
-3.102589 12.19341 35.53647
-2.772093 15.24364 34.09833
-18.65156 -9.506882 39.81732
14.53648 35.03848 34.22345
19.66691 37.97504 36.40546
19.97545 40.87573 34.35162
17.19897 35.68068 35.70966
-40.25359 -25.02602 37.46213
-44.22657 -27.39952 36.7709
15.90621 31.63882 37.07074
-35.94165 -22.01128 37.8558
23.92402 41.06914 36.8533
11.1269 22.8282 39.14746
4.524612 17.94157 37.39575
-4.552889 9.187988 36.27194
-1.259661 10.39839 37.77264
1.457882 12.23384 38.4631
-0.2579927 14.02904 36.38943
2.753091 15.22322 37.63837
19.9275 34.02034 38.76523
-3.503275 6.562912 38.5806
-5.685592 2.726654 39.63574
-27.75557 -15.6167 38.32349
-12.9456 -2.4991 38.46539
-15.69021 -6.070801 39.23215
-22.2568 -14.09634 40.98004
-41.95857 -27.88802 38.91858
-43.01043 -30.00993 40.28195
27.54381 39.53658 39.77307
27.8013 42.55992 37.58878
23.52586 36.76749 40.05307
20.44883 29.82512 40.94495
15.22107 24.11624 41.12195
17.19081 27.283 40.44141
5.49767 16.06856 38.95901
8.418202 18.65683 39.61514
-39.90965 -28.31697 40.89917
31.54934 42.52864 39.4473
1.727438 7.888138 41.34778
-31.17676 -21.07857 40.54135
-35.81157 -25.46263 41.17535
4.212213 13.10492 39.7662
-12.24902 -6.780518 42.09698
-7.559204 -2.518936 42.10538
-2.603769 3.785995 41.00674
25.4545 32.19577 42.82254
13.2921 19.5365 42.52423
34.89835 40.20396 42.52347
33.97918 42.88817 40.47269
31.73604 38.84021 41.83453
10.02736 15.47461 42.53568
7.034922 15.0714 40.56958
7.339263 8.273804 45.04041
7.053137 11.90062 42.5311
-17.52071 -14.31398 44.47888
-12.68466 -11.06442 45.13196
28.96056 35.81839 42.68674
-40.72104 -31.27202 43.38025
-25.68405 -18.43062 42.20151
-27.39382 -22.11333 44.24924
-36.78155 -29.32957 44.35529
-33.14891 -26.93166 44.61011
17.21256 21.10339 44.27975
19.16246 24.03822 43.75409
-31.358 -24.54842 43.59845
-0.07879734 2.605545 43.55878
-3.238034 -0.1963501 43.336
-3.744268 -4.882706 46.41599
-7.784128 -8.0737 46.1131
-24.44096 -20.21321 44.66351
-21.45355 -17.96693 44.83594
35.0522 36.29027 44.97861
38.14499 39.78262 44.53229
11.82592 11.96872 46.00934
30.4359 31.0136 45.72247
31.01621 33.179 44.8306
20.62495 26.61848 42.96521
25.07994 28.24545 44.53229
0.7389545 -0.921524 46.58688
-41.73064 -34.16298 45.90253
4.223537 0.7481689 47.78165
4.500175 3.65744 46.03146
-28.75817 -25.85115 46.87604
21.31722 20.7822 47.30481
22.49701 24.72754 45.42722
12.7809 15.83263 44.34689
16.58945 16.64249 46.6319
-12.99019 -14.88866 48.13718
41.6338 40.22685 46.07877
39.39226 42.24272 43.70068
40.56363 37.41217 47.1301
37.83116 34.19543 47.63211
-36.07149 -31.56615 47.41391
-33.06639 -29.10622 47.01566
-23.26121 -22.38606 47.56955
34.12366 32.00903 47.04846
34.05235 33.19141 46.27179
-19.0881 -22.17796 50.5
-17.49148 -18.86397 48.47592
10.36925 6.117737 48.6308
14.19778 9.680466 49.19461
-7.538843 -12.19759 49.65771
-42.93256 -37.33147 48.89554
-44.72244 -39.63536 50.5
24.56784 23.53735 47.60464
26.06072 26.05429 46.66776
30.94652 28.95041 47.36127
-38.64112 -32.19688 46.06274
-40.75267 -37.1291 50.5
-38.34362 -34.28468 48.82611
16.61382 12.66852 49.19537
6.784463 1.345932 49.22589
41.93073 42.32359 44.8985
43.17443 35.4045 49.57761
45.07027 39.45952 48.06241
-6.01635 -11.92235 50.5
-3.224397 -8.40062 49.50436
45.03622 42.55534 46.28171
-0.04048347 -4.892059 48.98404
19.34028 14.59799 50.00867
21.30993 17.09872 49.7485
29.18825 24.79811 49.41891
-30.76255 -29.24471 48.98404
-28.08533 -28.44914 50.18491
35.60538 31.47937 48.20508
38.81166 31.77463 49.68671
25.99249 20.92505 50.34131
23.40906 19.04898 49.92245
34.07133 27.01541 50.5
34.48267 27.79857 50.1521
-33.97174 -32.1248 49.76758
46.99409 41.87633 47.47876
-25.5218 -25.9366 49.43036
3.685999 -1.853836 49.31744
48.30706 40.91312 48.68726
47.70932 37.67577 50.39166
-34.60386 -33.12672 50.5
-1.029801 -7.690903 50.5
6.392646 -0.7973633 50.5
3.140616 -3.885925 50.5
47.61624 37.42725 50.5
38.26227 30.13469 50.5
-32.7028 -31.88255 50.5
50 42.12981 48.9375
50 42.31978 48.82535
49.93195 42.12256 48.90546
50 39.81181 50.28867
50 41.81796 49.12137
-49.61598 42.88817 1.760376
-50 42.88817 1.68866
-50 42.75923 1.742065
-48.34387 42.88817 1.987732
-47.77436 42.88817 2.089203
-44.11361 42.88817 2.777374
-44.91508 42.88817 2.624786
-43.92807 42.88817 2.813995
-47.18599 42.88817 2.199829
-40.5416 42.88817 3.357208
-33.10997 42.88817 4.333008
-33.619 42.88817 4.243744
-37.03249 42.88817 3.778351
-32.40156 42.88817 4.455078
-29.55341 42.88817 5.040253
-26.60995 42.88817 5.65213
-25.25578 42.88817 6.042755
-24.13101 42.88817 6.402863
-23.26448 42.88817 6.715668
-20.85168 42.88817 7.675446
-21.27519 42.88817 7.494629
-18.99407 42.88817 8.516968
-12.96465 42.88817 11.70071
-13.06958 42.88817 11.6412
-15.98952 42.88817 10.01004
-17.22458 42.88817 9.394348
-12.89859 42.88817 11.74115
-8.891702 42.88817 14.33743
-8.81393 42.88817 14.38931
-8.528566 42.88817 14.58463
-3.488731 42.88817 18.03082
2.700448 42.88817 22.18732
4.068136 42.88817 23.05936
7.668734 42.88817 25.41608
9.18932 42.88817 26.42773
9.658384 42.88817 26.74054
10.66248 42.88817 27.38675
13.74221 42.88817 29.32462
17.84651 42.88817 31.74313
21.81625 42.88817 34.06934
18.06324 42.88817 31.88199
23.77534 42.88817 35.38235
25.5306 42.88817 36.34824
28.08154 42.88817 37.51096
27.77009 42.88817 37.35303
31.74782 42.88817 39.31989
31.33466 42.88817 39.10626
36.0641 42.88817 41.5347
39.74194 42.88817 43.47028
39.21826 42.88817 43.19562
37.28404 42.88817 42.18625
40.43581 42.88817 43.81589
41.39006 42.88817 44.28433
36.39324 42.88817 41.71246
42.29309 42.88817 44.73065
45.30544 42.88817 46.21457
44.76509 42.88817 45.94449
46.63992 42.88817 46.84857
47.94411 42.88817 47.43527
48.26658 42.88817 47.60541
48.76988 42.88817 47.87396
48.90635 42.88817 47.94339
50 42.88817 48.49576
-50 -42.8069 50.37259
-49.83218 -42.78917 50.5
-49.37494 -42.50078 50.5
-50 -42.88817 50.5
-20.30632 -23.1183 50.5
-16.70346 -20.36427 50.5
-14.5345 -18.72911 50.5
13.95199 7.286362 50.5
12.24258 5.424408 50.5
-45.70072 -40.25258 50.5
-39.03468 -36.00816 50.5
-36.80129 -34.58794 50.5
-28.78821 -29.20045 50.5
-30.90131 -30.64412 50.5
1.169538 -5.720413 50.5
16.20786 10.03256 50.5
16.81712 10.78616 50.5
7.541251 0.3287354 50.5
9.05745 1.92424 50.5
4.992247 -2.186478 50.5
-2.796102 -9.224594 50.5
42.9219 33.74129 50.5
39.88218 31.3325 50.5
21.60068 16.33139 50.5
22.57536 17.33313 50.5
19.95499 14.55489 50.5
35.24127 27.84949 50.5
34.58371 27.37914 50.5
30.59685 24.39185 50.5
-28.128 -28.74916 50.5
-27.68936 -28.45412 50.5
25.80631 20.52679 50.5
23.77076 18.58778 50.5
26.44691 21.08203 50.5
26.20852 20.89244 50.5
17.97509 12.26416 50.5
14.64655 8.097946 50.5
-42.6317 -38.30116 50.5
10.13601 3.094772 50.5
-23.18108 -25.2057 50.5
-24.1482 -25.94194 50.5
-25.59409 -26.96199 50.5
-13.02128 -17.51833 50.5
-8.481169 -13.9081 50.5
-10.67522 -15.68097 50.5
19.2944 13.79729 50.5
29.53105 23.60945 50.5
-33.69486 -32.54326 50.5
44.51172 34.97038 50.5
26.06587 20.77533 50.5
-7.120681 -12.80087 50.5
48.48359 38.16939 50.5
50 39.4744 50.5
47.80216 37.58002 50.5
3 0 1 2
3 3 2 1
3 4 0 2
3 1 5 3
3 5 6 3
3 7 8 6
3 3 6 8
3 8 7 9
3 9 10 11
3 11 12 8
3 10 13 11
3 14 13 15
3 13 14 11
3 15 16 14
3 17 18 14
3 17 16 19
3 19 20 17
3 21 17 20
3 20 22 21
3 22 23 21
3 24 25 26
3 21 26 25
3 23 26 21
3 27 28 24
3 29 30 31
3 31 32 29
3 33 29 32
3 34 28 27
3 33 32 35
3 30 28 34
3 28 30 29
3 35 36 33
3 37 38 39
3 39 38 40
3 40 38 41
3 39 42 36
3 36 37 39
3 40 41 43
3 44 45 46
3 40 43 48
3 49 45 43
3 50 45 49
3 51 52 53
3 45 50 46
3 53 47 51
3 47 53 44
3 53 52 54
3 54 55 53
3 56 57 58
3 58 59 56
3 60 56 59
3 61 56 54
3 60 59 62
3 61 57 56
3 62 63 60
3 64 65 63
3 63 66 64
3 66 67 64
3 68 67 69
3 67 68 64
3 69 70 68
3 71 70 72
3 70 71 68
3 72 73 71
3 71 73 74
3 75 74 73
3 75 76 74
3 77 78 76
3 74 76 78
3 79 80 81
3 77 82 83
3 83 82 84
3 84 80 83
3 79 85 80
3 86 87 80
3 84 81 80
3 85 88 86
3 88 89 86
3 90 89 91
3 89 90 86
3 92 93 90
3 92 94 93
3 93 94 95
3 95 96 93
3 95 97 96
3 97 98 96
3 98 99 100
3 101 102 103
3 102 104 103
3 103 104 105
3 101 103 99
3 105 104 106
3 107 108 105
3 109 110 111
3 2 3 112
3 113 114 111
3 111 110 2
3 115 116 113
3 111 112 115
3 117 118 120
3 119 121 122
3 113 116 122
3 117 120 123
3 117 123 124
3 8 112 3
3 122 120 119
3 122 126 123
3 116 127 126
3 123 120 122
3 123 126 124
3 112 8 12
3 115 12 128
3 125 130 131
3 132 133 131
3 124 130 125
3 124 134 135
3 126 136 137
3 131 130 138
3 132 131 139
3 138 130 135
3 138 140 139
3 12 11 14
3 132 139 141
3 129 116 115
3 129 143 127
3 129 128 144
3 135 130 124
3 135 140 138
3 145 140 134
3 127 116 129
3 127 146 136
3 139 131 138
3 139 140 147
3 139 148 141
3 136 126 127
3 146 149 150
3 137 134 124
3 144 143 129
3 128 14 18
3 144 151 152
3 147 140 145
3 145 134 154
3 147 148 139
3 155 156 141
3 18 151 144
3 18 17 21
3 18 21 25
3 141 157 142
3 141 158 157
3 141 148 147
3 141 156 158
3 160 137 136
3 143 146 127
3 137 161 154
3 154 162 163
3 150 160 136
3 150 149 164
3 161 137 160
3 161 165 154
3 161 160 166
3 143 167 146
3 158 159 168
3 163 153 145
3 163 145 154
3 25 169 151
3 166 160 150
3 166 165 161
3 166 164 170
3 153 155 147
3 162 153 163
3 152 172 143
3 167 143 172
3 172 173 174
3 164 166 150
3 164 149 167
3 164 167 174
3 175 172 152
3 175 176 177
3 156 155 178
3 169 176 175
3 169 179 176
3 25 28 180
3 166 171 181
3 181 182 165
3 181 183 182
3 168 184 185
3 155 186 187
3 173 172 175
3 173 177 188
3 182 155 153
3 182 153 162
3 182 162 165
3 182 183 186
3 174 170 164
3 190 191 170
3 174 173 189
3 171 192 181
3 191 192 170
3 159 184 168
3 177 173 175
3 193 194 188
3 177 176 193
3 176 179 195
3 180 179 169
3 180 28 196
3 180 196 197
3 196 28 29
3 29 33 42
3 178 159 156
3 178 187 159
3 189 198 174
3 189 188 198
3 180 197 195
3 188 199 198
3 192 183 181
3 200 197 196
3 196 42 201
3 198 190 174
3 202 203 185
3 193 176 195
3 183 204 205
3 191 204 192
3 191 190 207
3 191 207 208
3 186 155 182
3 186 183 206
3 194 199 188
3 194 193 209
3 210 211 212
3 187 213 184
3 201 214 210
3 201 42 39
3 199 207 190
3 39 215 214
3 40 48 215
3 212 209 193
3 212 195 197
3 212 197 200
3 212 211 216
3 217 199 194
3 209 217 194
3 204 183 192
3 214 201 39
3 214 218 219
3 220 221 207
3 207 221 222
3 216 209 212
3 216 223 224
3 216 211 223
3 220 199 217
3 220 217 209
3 220 209 224
3 215 218 214
3 48 225 226
3 227 187 186
3 206 205 228
3 211 210 229
3 211 229 230
3 219 229 210
3 219 218 215
3 219 215 226
3 224 209 216
3 224 231 220
3 202 232 203
3 202 184 213
3 208 204 191
3 208 207 222
3 208 222 233
3 213 187 227
3 227 234 235
3 223 236 224
3 45 225 48
3 226 237 219
3 226 238 239
3 226 225 238
3 44 240 225
3 44 53 55
3 230 236 223
3 230 241 236
3 222 221 242
3 243 233 222
3 237 230 229
3 244 241 230
3 231 221 220
3 245 221 231
3 236 231 224
3 236 241 246
3 240 247 238
3 204 208 248
3 248 249 250
3 240 55 247
3 233 248 208
3 233 243 248
3 228 227 206
3 205 248 250
3 228 251 234
3 239 244 237
3 252 253 244
3 247 254 238
3 247 55 254
3 255 256 243
3 242 221 245
3 254 252 239
3 55 257 258
3 56 60 65
3 243 249 248
3 243 256 249
3 250 251 228
3 250 249 259
3 245 255 242
3 246 260 245
3 235 232 202
3 235 202 213
3 235 261 262
3 234 227 228
3 263 261 235
3 234 251 264
3 249 256 259
3 253 265 266
3 253 252 265
3 267 241 244
3 267 244 253
3 267 268 269
3 267 253 266
3 258 265 252
3 270 271 265
3 65 272 257
3 257 55 56
3 257 270 258
3 257 56 65
3 241 267 269
3 269 273 260
3 268 274 273
3 266 268 267
3 259 275 264
3 259 256 275
3 265 276 266
3 260 277 255
3 64 272 65
3 278 272 64
3 277 279 256
3 272 280 257
3 250 259 264
3 264 263 234
3 264 281 263
3 277 282 279
3 277 260 283
3 68 71 64
3 276 268 266
3 280 284 270
3 275 281 264
3 275 256 279
3 271 276 265
3 284 285 271
3 271 285 286
3 287 288 262
3 262 232 235
3 262 261 289
3 262 289 290
3 283 260 273
3 278 280 272
3 278 292 293
3 71 292 278
3 74 78 292
3 294 295 263
3 293 296 284
3 282 297 279
3 279 281 275
3 283 282 277
3 283 297 282
3 283 291 298
3 286 268 276
3 286 276 271
3 274 268 286
3 300 299 286
3 292 78 301
3 274 291 273
3 274 299 302
3 293 280 278
3 293 303 304
3 293 292 301
3 297 305 279
3 297 306 305
3 261 295 307
3 296 285 284
3 300 285 296
3 296 304 308
3 301 303 293
3 301 78 83
3 305 281 279
3 305 306 309
3 299 310 311
3 312 310 300
3 83 303 301
3 313 291 274
3 313 314 298
3 298 306 297
3 298 314 315
3 302 313 274
3 302 311 317
3 290 318 287
3 290 289 307
3 319 320 290
3 294 281 305
3 295 261 263
3 295 294 321
3 308 304 322
3 310 299 300
3 323 303 83
3 80 87 323
3 324 303 323
3 313 302 317
3 326 327 328
3 326 318 320
3 307 329 330
3 295 321 329
3 312 308 322
3 317 331 314
3 317 332 331
3 311 333 332
3 334 335 328
3 322 304 336
3 322 336 337
3 324 336 304
3 324 325 338
3 320 318 290
3 320 339 327
3 87 325 323
3 86 90 87
3 316 306 298
3 316 315 341
3 321 294 342
3 343 311 310
3 343 310 312
3 343 344 333
3 309 342 294
3 309 306 316
3 309 341 345
3 336 347 337
3 338 347 336
3 331 315 314
3 331 332 348
3 319 339 320
3 319 349 339
3 329 350 330
3 337 344 343
3 337 312 322
3 337 347 351
3 333 311 343
3 333 352 332
3 342 353 354
3 355 348 332
3 334 327 356
3 334 357 358
3 334 356 359
3 340 325 87
3 338 325 340
3 90 93 361
3 339 349 362
3 341 309 316
3 331 348 341
3 354 329 321
3 354 350 329
3 356 327 339
3 338 360 363
3 358 357 364
3 344 352 333
3 330 365 349
3 330 350 366
3 353 342 367
3 368 369 370
3 350 371 366
3 359 357 334
3 359 356 362
3 359 362 372
3 346 342 309
3 346 373 367
3 374 373 346
3 351 375 344
3 338 363 347
3 348 376 341
3 348 377 376
3 367 368 353
3 367 342 346
3 352 378 355
3 370 350 354
3 370 354 353
3 370 371 350
3 361 360 340
3 361 340 90
3 361 379 360
3 361 93 96
3 380 379 361
3 364 381 382
3 364 357 383
3 362 356 339
3 362 384 372
3 349 385 386
3 366 387 388
3 360 379 389
3 382 381 390
3 371 387 366
3 368 391 369
3 363 392 351
3 360 389 393
3 96 100 380
3 375 352 344
3 375 378 352
3 369 371 370
3 369 391 394
3 376 345 341
3 376 395 396
3 373 368 367
3 373 397 391
3 372 357 359
3 398 383 372
3 365 330 388
3 365 399 385
3 377 395 376
3 400 401 402
3 388 330 366
3 388 403 399
3 388 387 404
3 388 404 403
3 374 397 373
3 345 376 396
3 394 387 371
3 394 371 369
3 391 405 406
3 381 402 390
3 355 377 348
3 355 395 377
3 355 378 407
3 408 395 355
3 383 381 364
3 383 357 372
3 383 398 409
3 380 410 389
3 380 100 410
3 386 384 362
3 392 411 375
3 392 412 411
3 404 387 394
3 389 379 380
3 413 414 393
3 385 349 365
3 385 415 416
3 385 399 415
3 393 417 392
3 393 414 417
3 391 397 418
3 396 419 374
3 396 420 419
3 421 420 396
3 411 378 375
3 411 412 422
3 411 422 423
3 400 424 425
3 400 402 424
3 406 404 394
3 426 403 406
3 403 404 406
3 409 402 381
3 409 381 383
3 398 427 409
3 384 429 430
3 398 430 427
3 429 384 386
3 386 385 416
3 419 397 374
3 419 431 418
3 410 413 389
3 100 103 432
3 418 397 419
3 431 433 434
3 417 412 392
3 417 414 435
3 436 437 416
3 399 438 439
3 438 399 403
3 407 378 423
3 407 440 408
3 425 441 442
3 425 443 441
3 424 444 443
3 413 445 446
3 422 412 447
3 428 424 409
3 427 448 428
3 423 378 411
3 423 422 447
3 447 450 451
3 424 402 409
3 452 453 426
3 391 418 434
3 408 440 454
3 103 455 432
3 105 456 455
3 437 430 429
3 437 429 416
3 437 457 458
3 430 458 459
3 432 460 410
3 455 461 462
3 426 438 403
3 426 463 439
3 426 453 463
3 434 464 452
3 460 413 410
3 441 465 442
3 443 466 467
3 421 395 408
3 454 468 469
3 449 424 428
3 441 467 470
3 420 471 431
3 439 472 473
3 458 430 437
3 458 474 459
3 435 412 417
3 446 475 435
3 435 475 476
3 448 477 449
3 444 478 466
3 436 457 437
3 439 473 436
3 479 457 480
3 459 448 427
3 474 481 459
3 445 413 460
3 445 483 446
3 445 460 462
3 484 470 467
3 435 485 447
3 457 479 474
3 444 424 449
3 433 464 434
3 433 431 486
3 467 487 484
3 467 488 487
3 459 482 448
3 407 423 451
3 462 460 432
3 462 489 445
3 469 490 471
3 463 472 439
3 486 491 433
3 471 492 486
3 469 420 421
3 466 493 467
3 478 444 477
3 482 494 477
3 473 480 436
3 483 495 475
3 476 485 435
3 496 497 498
3 488 499 487
3 498 500 496
3 498 487 500
3 499 500 487
3 501 502 503
3 501 503 4
3 4 504 501
3 2 504 4
3 2 110 504
3 506 507 109
3 508 506 109
3 114 508 109
3 110 109 507
3 507 509 110
3 113 510 114
3 110 509 505
3 510 113 121
3 117 511 512
3 118 513 119
3 513 121 119
3 514 511 117
3 118 117 512
3 133 515 125
3 516 133 132
3 514 117 125
3 125 515 514
3 132 517 516
3 132 142 517
3 518 517 142
3 519 518 142
3 520 521 157
3 519 157 521
3 142 157 519
3 520 157 158
3 158 522 520
3 523 524 185
3 525 526 168
3 158 168 526
3 158 526 522
3 524 525 168
3 168 185 524
3 527 523 185
3 527 203 528
3 203 527 185
3 529 528 203
3 232 530 203
3 232 531 530
3 530 529 203
3 288 287 532
3 288 531 232
3 533 532 287
3 287 534 533
3 318 534 287
3 318 326 535
3 536 535 326
3 537 328 538
3 537 326 328
3 326 537 536
3 328 335 538
3 539 335 334
3 358 540 541
3 334 358 539
3 364 540 358
3 542 540 364
3 543 542 364
3 382 544 545
3 543 364 382
3 382 545 543
3 390 546 547
3 382 390 547
3 382 547 544
3 401 546 390
3 400 548 401
3 442 549 550
3 551 442 550
3 465 552 442
3 552 465 553
3 551 425 442
3 554 400 551
3 549 442 552
3 553 465 555
3 556 557 470
3 470 557 465
3 555 465 557
3 400 554 548
3 558 556 470
3 558 470 484
3 484 559 558
3 560 559 484
3 487 561 484
3 487 498 561
3 562 497 563
3 497 562 498
3 561 498 562
3 564 565 107
3 566 107 565
3 107 566 108
3 567 565 564
3 450 447 568
3 569 570 451
3 450 569 451
3 571 452 572
3 456 105 573
3 574 575 462
3 461 574 462
3 576 476 475
3 475 577 576
3 471 578 492
3 579 580 463
3 463 453 579
3 581 582 464
3 491 581 464
3 486 583 491
3 471 490 578
3 468 584 469
3 478 585 466
3 478 586 585
3 494 586 478
3 587 588 473
3 589 587 473
3 472 589 473
3 475 495 577
3 494 482 590
3 591 590 482
3 474 592 481
3 593 594 476
3 576 593 476
3 480 595 479
3 480 596 595
3 597 479 598
3 463 580 599
3 579 453 600
3 571 453 452
3 600 453 571
3 456 601 455
3 602 572 452
3 452 464 602
3 582 602 464
3 447 603 568
3 485 603 447
3 604 603 485
3 485 605 604
3 570 440 451
3 606 440 570
3 454 440 607
3 608 607 440
3 440 606 608
3 588 480 473
3 596 480 588
3 472 463 609
3 599 609 463
3 479 597 474
3 610 474 597
3 575 489 462
3 483 489 611
3 612 493 466
3 481 591 482
3 610 592 474
3 611 495 483
3 486 492 583
3 485 476 605
3 594 605 476
3 601 461 455
3 108 573 105
3 609 589 472
3 466 585 612
3 613 598 479
3 479 595 613
3 584 490 469
3 614 468 454
3 454 607 614
3 499 488 615
3 615 616 499
3 488 617 615
3 493 617 488
3 11 8 9
3 17 14 16
3 28 25 24
3 42 33 36
3 44 46 47
3 45 48 43
3 56 55 54
3 65 60 63
3 77 83 78
3 86 80 85
3 92 90 91
3 98 100 96
3 103 100 99
3 107 105 106
3 2 112 111
3 114 109 111
3 115 113 111
3 118 119 120
3 121 113 122
3 117 124 125
3 116 126 122
3 112 12 115
3 115 128 129
3 133 125 131
3 126 137 124
3 12 14 128
3 132 141 142
3 140 135 134
3 146 150 136
3 128 18 144
3 147 145 153
3 155 141 147
3 18 25 151
3 156 159 158
3 137 154 134
3 165 162 154
3 167 149 146
3 169 152 151
3 166 170 171
3 152 143 144
3 172 174 167
3 169 175 152
3 25 180 169
3 166 181 165
3 155 187 178
3 173 188 189
3 190 170 174
3 192 171 170
3 193 188 177
3 196 29 42
3 180 195 179
3 200 196 201
3 202 185 184
3 183 205 206
3 210 212 200
3 187 184 159
3 201 210 200
3 199 190 198
3 40 215 39
3 212 193 195
3 220 207 199
3 48 226 215
3 227 186 206
3 211 230 223
3 219 210 214
3 227 235 213
3 237 229 219
3 226 239 237
3 44 225 45
3 44 55 240
3 243 222 242
3 244 230 237
3 245 231 246
3 236 246 231
3 240 238 225
3 204 248 205
3 205 250 228
3 252 244 239
3 255 243 242
3 254 239 238
3 55 258 254
3 263 235 234
3 258 252 254
3 270 265 258
3 241 269 246
3 269 260 246
3 268 273 269
3 260 255 245
3 278 64 71
3 277 256 255
3 250 264 251
3 280 270 257
3 284 271 270
3 288 232 262
3 283 273 291
3 74 292 71
3 294 263 281
3 293 284 280
3 283 298 297
3 274 286 299
3 300 286 285
3 293 304 296
3 261 307 289
3 300 296 308
3 299 311 302
3 312 300 308
3 313 298 291
3 298 315 316
3 290 287 262
3 319 290 307
3 80 323 83
3 324 323 325
3 313 317 314
3 307 330 319
3 295 329 307
3 311 332 317
3 334 328 327
3 324 304 303
3 320 327 326
3 90 340 87
3 309 294 305
3 309 345 346
3 338 336 324
3 337 343 312
3 342 354 321
3 355 332 352
3 338 340 360
3 331 341 315
3 330 349 319
3 368 370 353
3 374 346 345
3 351 344 337
3 363 351 347
3 380 361 96
3 349 386 362
3 360 393 363
3 373 391 368
3 398 372 384
3 401 390 402
3 388 399 365
3 345 396 374
3 391 406 394
3 408 355 407
3 392 375 351
3 413 393 389
3 393 392 363
3 421 396 395
3 426 406 405
3 427 428 409
3 384 430 398
3 386 416 429
3 100 432 410
3 431 434 418
3 436 416 415
3 399 439 415
3 424 443 425
3 413 446 414
3 448 449 428
3 447 451 423
3 452 426 405
3 391 434 405
3 408 454 421
3 105 455 103
3 430 459 427
3 455 462 432
3 426 439 438
3 434 452 405
3 443 467 441
3 454 469 421
3 441 470 465
3 420 431 419
3 446 435 414
3 477 444 449
3 444 466 443
3 439 436 415
3 457 436 480
3 481 482 459
3 435 447 412
3 457 474 458
3 482 477 448
3 407 451 440
3 489 483 445
3 469 471 420
3 491 464 433
3 471 486 431
3 493 488 467
3 494 478 477
3 483 475 446
3 110 505 504
3 318 535 534
3 358 541 539
3 400 425 551
3 561 560 484
