ply
format ascii 1.0
element vertex 352
property float x
property float y
property float z
property float nx
property float ny
property float nz
element face 700
property list uchar int vertex_indices
end_header
6.16613 -8.02291 -67.5173 0.402128 0.566234 -0.719494
-0.0687361 -7.78366 -67.0663 -0.123787 -0.0346246 -0.991705
-6.69371 -12.1351 -66.659 -0.124422 -0.351824 -0.92776
-14.0427 -15.0016 -64.155 -0.320663 -0.679691 -0.659694
-20.9008 -17.01 -55.7055 -0.316993 -0.60636 -0.729276
-27.4492 -20.0504 -53.4016 -0.864215 -0.48977 -0.115143
1.80457 -2.99878 -66.4926 0.524307 0.143123 -0.839415
-3.59058 -3.78943 -63.9121 -0.0652834 0.158019 -0.985276
-9.47876 -5.9607 -65.4213 -0.0735743 0.094005 -0.992849
-17.5046 -9.93466 -64.1271 -0.394352 -0.285062 -0.873628
-24.1682 -9.67904 -58.1509 -0.517592 -0.434201 -0.73727
-30.6199 -12.7361 -54.2805 -0.883223 -0.389044 0.261844
-0.359499 4.57229 -68.0534 0.385709 0.110738 -0.915951
-8.72211 1.58887 -64.2551 -0.215569 -0.0809541 -0.973127
-13.792 0.728765 -65.3395 -0.0225799 0.160844 -0.986722
-22.5633 -3.9136 -64.3848 -0.296113 -0.197676 -0.934474
-28.7855 -5.12623 -58.1381 -0.484506 -0.603534 -0.633246
-33.4849 -5.16044 -54.6784 -0.748648 -0.641956 0.165585
-3.96745 11.9573 -68.2838 0.394636 0.55161 -0.734839
-12.3278 9.67779 -63.8923 -0.343844 -0.0262339 -0.93866
-18.8165 8.25263 -62.5123 -0.0828994 0.214708 -0.973154
-27.848 4.34239 -62.8235 -0.189662 0.0876518 -0.977929
-33.4448 -0.437846 -59.8869 -0.339196 -0.402985 -0.850029
-38.1984 -2.46755 -55.6768 -0.485644 -0.874067 0.0124997
-7.83557 21.5871 -62.2469 0.111426 0.97822 -0.175126
-15.9068 16.9937 -61.5804 -0.497506 0.776581 -0.386536
-21.383 14.2614 -60.8936 -0.274326 0.873362 -0.402472
-27.6023 11.9767 -61.4014 -0.3029 0.784984 -0.540419
-36.3588 7.05411 -60.9258 -0.577624 0.582016 -0.57237
-42.8672 1.19198 -58.4464 -0.953051 -0.179788 -0.243661
10.1046 -6.63377 -60.839 0.7624 0.560436 -0.323508
5.67053 -1.34203 -56.8922 0.734229 0.545744 -0.40382
2.96383 5.60103 -58.7819 0.891054 0.330947 -0.310639
0.200908 12.2533 -56.9871 0.690378 0.67702 -0.254993
-7.23403 17.5202 -53.1213 0.458713 0.888584 -0.00097435
17.7388 -14.4985 -56.2185 0.765901 -0.580808 -0.275787
12.3521 -8.52436 -50.9023 0.774977 0.547438 -0.315789
11.6814 -3.50115 -51.2989 0.791924 0.469815 -0.390038
5.5524 5.01526 -50.0951 0.77343 0.547922 -0.318728
1.95147 13.0125 -49.3819 0.766381 0.626259 -0.143039
-5.10858 17.2487 -46.7293 0.115078 0.993355 0.00164709
17.1801 -15.8281 -46.0979 0.590474 -0.769803 -0.242373
17.4442 -9.32893 -46.5931 0.802622 0.413017 -0.430367
15.0827 -5.57058 -43.9463 0.737856 0.464324 -0.489868
11.5868 4.90359 -40.934 0.657283 0.651788 -0.378353
2.46663 12.114 -39.2622 0.701083 0.694144 -0.16324
-2.23452 17.5077 -39.7877 0.189395 0.981638 -0.0227133
20.8025 -17.0472 -33.3994 0.529704 -0.824209 -0.200233
22.0947 -10.87 -39.7007 0.900525 -0.101244 -0.422854
20.3367 -4.57517 -38.1234 0.724702 0.546839 -0.419255
16.9048 5.84119 -32.0183 0.654753 0.721334 -0.225777
3.73922 13.3337 -31.313 0.571757 0.805692 -0.15477
0.00261307 16.4979 -29.3866 0.223785 0.97439 -0.0219916
23.7549 -16.9338 -21.5984 0.462195 -0.881351 -0.0979569
25.8155 -11.2697 -28.8544 0.895905 -0.321947 -0.30611
26.3172 -4.38681 -28.7173 0.772136 0.495143 -0.398296
18.76 3.82164 -23.1908 0.582992 0.787633 -0.199385
5.99262 10.8345 -22.8373 0.604014 0.796972 -0.00132842
2.13511 17.234 -21.0656 0.233466 0.972188 0.0185266
26.9452 -16.1095 -17.4241 0.446407 -0.890542 -0.0874998
29.6008 -11.8092 -17.9193 0.911851 -0.265683 -0.312954
29.9862 -4.30509 -18.611 0.889555 0.340316 -0.304756
23.7883 4.09921 -16.7694 0.536946 0.782076 -0.316301
10.148 8.82117 -17.3462 0.459732 0.829652 -0.31674
4.29526 15.2672 -15.8871 0.333806 0.937746 -0.0959438
28.6187 -16.407 -2.98521 0.48868 -0.859908 -0.14748
33.0855 -8.75921 -9.2424 0.908015 -0.362848 -0.209402
32.6189 -3.15518 -8.46994 0.859006 0.395554 -0.325032
27.1646 4.50419 -6.72075 0.637237 0.731666 -0.24206
17.7799 9.81881 -8.36902 0.468265 0.820454 -0.327998
8.64029 15.2292 -7.60054 0.275406 0.931662 -0.236976
29.4829 -17.4435 3.17883 0.338513 -0.937475 0.0809306
34.1433 -11.8332 2.59849 0.899205 -0.421862 -0.116032
35.6543 -1.89231 -0.293041 0.925097 0.267693 -0.269326
28.8628 5.4661 -0.0840116 0.582358 0.751422 -0.310201
19.7946 10.1465 -0.50997 0.567725 0.791971 -0.224657
15.2141 15.693 -0.560858 0.295683 0.950317 -0.0973098
28.3163 -16.4166 11.3449 0.412503 -0.910955 0.00147673
33.7193 -10.8552 9.78858 0.842224 -0.530841 0.0941599
37.4975 -2.42155 8.15189 0.984886 0.141846 -0.0993909
31.2553 6.94807 7.1375 0.662739 0.710369 -0.236966
22.5288 11.1545 7.12097 0.449892 0.839818 -0.303813
18.1492 13.7951 6.41708 0.277068 0.956857 -0.0875096
30.998 -16.5461 19.5597 0.442236 -0.896883 -0.00538334
33.4459 -10.1002 17.7506 0.877287 -0.476564 -0.0570442
37.7105 -1.90393 16.7666 0.998179 0.0321451 -0.051049
32.9075 6.97067 15.5219 0.737332 0.668214 -0.0991485
24.7692 12.8594 14.3286 0.586693 0.790576 -0.175447
21.0832 14.61 14.1054 0.136094 0.96134 -0.239383
31.9552 -15.6993 26.9664 0.363417 -0.925231 0.108979
34.4456 -9.76454 25.7992 0.922471 -0.385903 0.0112468
38.3826 -1.52483 25.2803 0.999995 0.000996812 -0.00300414
33.8697 7.69305 23.9207 0.753272 0.646494 -0.120944
26.0402 11.6091 22.6485 0.722831 0.670289 -0.168015
23.5688 17.136 21.5302 0.194747 0.940957 -0.276899
32.3853 -15.1019 37.1831 0.480509 -0.876975 -0.00501386
34.5418 -8.31947 35.1751 0.960551 -0.260586 0.0971447
37.2042 -0.313959 33.453 0.98511 0.011708 0.171525
33.973 8.17899 31.766 0.841027 0.54099 -0.00165683
27.7361 12.9726 30.5613 0.804747 0.549354 -0.224929
25.3751 20.0153 28.5714 0.292815 0.893846 -0.339556
32.6929 -15.7634 44.3102 0.533177 -0.845508 0.0289668
33.6718 -8.3756 44.1362 0.991366 -0.0992737 0.0856652
34.5984 1.0296 42.3105 0.974699 0.0737718 0.210996
32.6239 8.57517 40.2221 0.923268 0.364335 0.121802
28.7741 14.9622 38.5455 0.905424 0.394397 -0.157031
27.0977 22.1462 36.4011 0.403282 0.860987 -0.309942
33.0503 -14.5326 50.6787 0.657658 -0.752144 0.042007
33.3924 -6.44364 51.0848 0.999994 -0.000161613 -0.00356427
32.867 1.73984 50.2829 0.991766 0.121332 0.0409685
30.8905 8.65398 47.5459 0.980002 0.19774 0.0222565
29.9228 16.4599 46.1304 0.972556 0.193986 -0.128473
28.2864 23.9106 44.1576 0.536753 0.794373 -0.284372
33.6916 -13.8799 59.3227 0.372029 -0.631484 0.680311
33.5126 -5.2877 58.4467 0.736524 0.0863159 0.670882
32.9853 3.25711 57.2835 0.717191 0.224414 0.659754
31.8644 10.142 55.2571 0.738388 0.280742 0.613162
31.0921 17.9425 53.6757 0.744977 0.248063 0.619253
29.8494 25.5895 52.1003 0.765419 0.622158 0.164482
-11.1507 15.4911 -53.1151 -0.38157 0.90747 0.175792
-18.3127 12.161 -49.9084 -0.267043 0.958914 0.0957726
-24.4436 12.7885 -50.4613 -0.0922126 0.99468 0.0459234
-32.3707 11.2265 -50.7054 -0.472566 0.878508 -0.0700385
-39.2886 5.80282 -48.9269 -0.932169 0.347962 0.0999181
-11.9103 15.1825 -45.3982 -0.13032 0.98059 0.14649
-18.7213 14.3781 -42.0684 -0.288174 0.954005 -0.0826398
-23.2533 11.6627 -40.7629 -0.13116 0.988845 -0.0705856
-31.4751 12.2333 -41.5345 -0.296593 0.954866 -0.0162317
-37.6737 7.2658 -40.8629 -0.932041 0.356677 0.0638867
-8.25683 13.3652 -37.4969 -0.247344 0.967159 0.0585138
-16.6409 13.5976 -34.0183 0.029065 0.997574 0.0632584
-22.7094 13.919 -33.6857 -0.146616 0.987958 -0.0494298
-29.3247 12.4896 -33.4228 -0.23863 0.969301 -0.0592521
-36.9353 9.24085 -32.1926 -0.894641 0.43738 0.0911904
-5.81943 15.889 -28.8454 -0.246881 0.968666 0.0271424
-13.3626 13.628 -24.2717 -0.0962287 0.993013 -0.0683021
-20.4814 13.582 -24.8598 -0.000963366 0.995702 -0.0926058
-27.4401 13.0025 -26.111 -0.18978 0.975173 -0.114108
-34.9346 11.0711 -24.9356 -0.836744 0.543345 0.0680838
-5.804 14.059 -20.7064 -0.126412 0.98917 0.0745797
-12.1258 14.0495 -14.5981 0.0431209 0.999059 -0.00454546
-17.1947 15.1587 -15.2939 0.094918 0.988639 -0.116546
-25.4169 15.4349 -16.5656 -0.08019 0.983234 -0.163769
-33.8625 13.2673 -16.6376 -0.768915 0.638163 -0.0389547
-3.49055 14.0914 -12.0287 -0.114198 0.993075 0.0275941
-9.59749 14.332 -6.51197 0.0467573 0.997623 -0.0506229
-15.7554 15.4199 -7.80616 0.163334 0.985465 -0.0467085
-21.8988 15.995 -8.34808 0.0425504 0.9949 -0.0914533
-31.4241 15.7471 -8.42129 -0.622485 0.780669 0.0553857
-1.18658 14.9252 -4.73227 -0.0430874 0.999049 -0.00669703
-7.03951 15.0671 0.697083 -0.0131217 0.998886 -0.0453239
-13.7903 15.0647 0.687796 0.122427 0.992288 -0.0193783
-20.4158 16.3934 -0.266753 0.17383 0.983345 -0.0530601
-27.4124 17.3449 -0.0014627 -0.546652 0.834455 0.069691
4.50059 14.7197 -0.674213 -0.0247895 0.999418 0.0234311
-3.55031 14.8981 3.26522 0.0173045 0.999631 -0.0209259
-11.8471 14.945 7.73261 0.0438863 0.998502 -0.0326896
-17.8733 15.8972 6.79236 0.24313 0.96663 -0.0807159
-25.8948 18.2269 8.20646 -0.44499 0.891676 0.0830533
7.69317 14.6017 6.33888 0.0248398 0.999479 0.0206203
1.23254 14.9277 8.70364 0.0316873 0.998705 -0.0397905
-9.17671 15.4903 11.6842 0.0277064 0.996575 -0.0779173
-14.3693 15.4913 12.9643 0.221797 0.960851 -0.166044
-22.486 18.7946 15.1478 -0.299109 0.951988 0.065207
9.93073 15.0714 13.8056 0.0327513 0.99166 -0.124648
3.84666 15.3334 16.3272 0.00530031 0.993474 -0.113937
-5.50418 15.6394 18.6769 0.0591375 0.98992 -0.128689
-11.991 16.6156 20.0255 0.169883 0.963546 -0.206683
-19.161 19.3683 22.4576 -0.308112 0.951207 0.0164768
13.492 16.2475 22.0146 -0.0153425 0.988689 -0.149196
5.91094 16.548 23.8294 0.0261414 0.984349 -0.174278
-2.66249 16.8964 25.819 0.0294445 0.974727 -0.221449
-9.17886 18.217 27.4644 0.15195 0.962337 -0.225429
-16.6802 20.261 30.0725 -0.389604 0.920762 0.0201734
15.8106 16.9242 29.8993 -0.142208 0.974084 -0.175892
8.61779 17.4856 31.8709 0.096899 0.979003 -0.179345
-0.10819 19.1834 33.2686 0.0479743 0.972978 -0.225858
-7.05751 19.5263 35.0227 0.0898312 0.974627 -0.205018
-14.0033 21.2536 37.6318 -0.502544 0.860892 0.0794657
17.9157 18.8797 36.7853 -0.232789 0.937575 -0.258384
10.7424 18.8547 38.8282 0.0267669 0.960708 -0.276268
2.65107 20.7455 41.1603 0.0656135 0.973522 -0.218975
-4.78774 20.9652 42.8461 0.0250826 0.984551 -0.173289
-12.2937 21.9777 45.1162 -0.609763 0.788728 0.0780891
20.3281 22.1307 44.4376 -0.196095 0.941565 -0.273867
12.5836 21.6393 46.0318 -0.075197 0.95026 -0.302246
4.8903 22.3977 48.5165 -0.00410952 0.972367 -0.233421
-2.74216 22.3255 50.5461 -0.0312759 0.985596 -0.166198
-10.5068 22.7495 52.8894 -0.666899 0.741602 0.0726132
22.0435 24.6016 52.0005 -0.052825 0.868353 0.493126
14.4995 24.222 54.1301 0.0644764 0.902465 0.42591
6.65565 23.9729 56.092 0.115956 0.87756 0.465234
-1.07257 23.7577 58.0191 0.115423 0.8374 0.534265
-8.60042 23.5206 60.4888 -0.157071 0.767861 0.621063
-35.9356 0.225034 -48.552 -0.64282 -0.747035 0.169476
-28.5955 -1.85336 -48.6974 -0.415004 -0.902816 0.112671
-25.3124 -6.5469 -50.2173 -0.812977 -0.38824 0.43398
-18.3662 -16.9474 -47.4396 -0.799871 -0.24154 0.549422
-35.3712 0.88057 -38.3609 -0.858779 -0.492644 0.140716
-29.9468 -5.18137 -36.1412 -0.399762 -0.912072 -0.0911809
-20.1027 -6.98196 -34.2281 -0.795445 -0.601459 0.0742551
-17.2929 -19.2208 -35.3123 -0.881779 -0.454559 0.125866
-13.4998 -23.0257 -37.1979 -0.14378 -0.989479 -0.0160577
-34.522 2.82072 -29.8698 -0.914316 -0.373279 0.157125
-30.593 -3.34965 -29.2118 -0.622547 -0.780525 0.0567074
-19.481 -8.55836 -26.1434 -0.67451 -0.73641 -0.052313
-17.2227 -17.2267 -26.6731 -0.874517 -0.476123 0.092342
-12.5708 -22.1517 -29.4926 -0.222369 -0.969696 0.101196
-33.1306 4.28082 -21.0506 -0.945714 -0.236252 0.223181
-30.6006 -2.89796 -20.6698 -0.75947 -0.634176 0.145003
-21.6709 -8.873 -17.1556 -0.653839 -0.756519 0.0131856
-17.1636 -16.0446 -17.3249 -0.767604 -0.628423 0.125971
-12.1345 -19.9487 -18.3655 -0.260472 -0.902288 0.343555
-31.8949 6.68647 -13.999 -0.959857 -0.229538 0.161203
-29.3302 -1.32736 -12.1871 -0.809684 -0.550321 0.203859
-21.1851 -7.99954 -9.89671 -0.661 -0.714793 0.228365
-16.0865 -14.1829 -9.65112 -0.664993 -0.696695 0.269075
-11.6429 -15.1776 -10.6696 -0.137146 -0.970288 0.199328
-31.549 8.61475 -6.99644 -0.988042 -0.0987522 0.11841
-29.1879 0.387011 -4.94233 -0.832418 -0.552795 0.0387052
-20.3431 -7.01429 -3.95889 -0.628576 -0.775423 0.0601038
-13.5508 -12.196 -3.92346 -0.739116 -0.645371 0.192882
-10.5337 -16.903 -5.1504 -0.32402 -0.914703 -0.241517
-30.1494 9.76438 1.1547 -0.953805 0.188445 0.233975
-30.586 2.34013 2.50628 -0.868999 -0.450906 0.203775
-22.8468 -5.97633 2.34688 -0.676005 -0.724652 0.133775
-13.6043 -12.4584 0.761917 -0.725028 -0.688056 -0.0302417
-10.4744 -18.9521 0.472863 -0.480069 -0.87722 0.00427327
-27.882 11.214 9.18152 -0.94929 0.212882 0.231365
-28.4767 3.16661 10.1262 -0.872178 -0.420977 0.249166
-20.4386 -3.36841 9.11218 -0.636827 -0.681184 0.361165
-15.0057 -11.3391 9.58932 -0.811684 -0.515636 0.274389
-10.8455 -17.5093 8.10647 -0.47126 -0.880259 0.0553029
-25.4149 12.3046 16.9816 -0.917382 0.27087 0.291615
-26.4409 3.65782 17.7857 -0.919082 -0.319297 0.23095
-19.5616 -2.88743 16.826 -0.508332 -0.856107 0.0931686
-11.992 -6.42475 15.2627 -0.829666 -0.412625 0.376024
-11.5686 -17.1257 16.9274 -0.599872 -0.722702 0.343301
-22.6641 13.0608 24.715 -0.887689 0.336352 0.314445
-24.1461 4.26272 25.5285 -0.932881 -0.167807 0.318707
-18.9702 -3.80054 24.9914 -0.551693 -0.833209 0.0373804
-10.5042 -4.97882 23.0779 -0.728555 -0.682356 0.0599796
-10.0899 -12.7179 23.2459 -0.640978 -0.684312 0.347657
-19.9082 13.5643 32.2252 -0.887105 0.324459 0.328285
-20.936 5.40113 32.9406 -0.915792 -0.0850028 0.392555
-17.5344 -3.80217 32.9302 -0.730196 -0.649653 0.211577
-10.0755 -6.49537 31.0796 -0.711134 -0.701531 -0.0462904
-8.91826 -13.9484 31.1333 -0.389423 -0.915582 -0.100297
-16.8573 13.908 39.2813 -0.881545 0.270518 0.386909
-17.6223 6.02431 40.1805 -0.90056 -0.0430083 0.4326
-14.9811 -2.66168 40.4339 -0.836681 -0.442545 0.322673
-9.74897 -8.38894 38.8866 -0.815367 -0.575332 0.0645766
-7.7448 -15.3436 38.1046 -0.373141 -0.920858 -0.113075
-13.202 14.0782 47.0573 -0.915859 0.136196 0.377693
-13.2424 6.01603 47.9347 -0.880326 -0.00421161 0.474351
-12.2323 -1.81536 47.9054 -0.887834 -0.257483 0.381384
-8.77215 -8.8476 46.9428 -0.899984 -0.414399 0.135286
-6.55098 -15.8705 45.7527 -0.459131 -0.886279 -0.0609002
-10.3171 14.8972 54.2485 -0.956424 -0.00655054 0.291909
-9.42952 6.78665 54.6853 -0.931144 -0.0494993 0.361275
-8.8046 -0.940666 54.8493 -0.9322 -0.0999565 0.347867
-7.73551 -8.69449 54.5987 -0.957338 -0.213183 0.195084
-6.12753 -16.4749 53.8395 -0.550034 -0.834569 0.0309399
-8.3682 15.6975 61.5969 -0.490572 0.0596072 0.86936
-7.44179 7.47406 61.9765 -0.496823 -0.0115396 0.867775
-6.90913 -0.367002 62.4009 -0.500517 0.0145537 0.865604
-6.309 -8.37256 62.5267 -0.56473 -0.0991108 0.819303
-5.47359 -16.2501 61.9495 -0.677674 -0.544774 0.493943
-22.7384 -26.0461 -51.654 -0.040938 -0.998862 -0.0244499
-14.4493 -23.2372 -51.7825 0.0668688 -0.861817 -0.502792
-8.6056 -21.1215 -55.7311 -0.000550923 -0.933796 -0.357804
-2.36831 -19.825 -59.72 0.019587 -0.935972 -0.351529
4.1288 -18.6238 -64.1407 0.0641908 -0.835247 -0.546116
12.677 -15.8423 -68.482 0.433848 -0.154564 -0.88763
-19.5202 -23.1754 -45.8185 -0.385751 -0.618457 0.684622
-11.2678 -20.9259 -44.7286 0.0414672 -0.954461 0.29544
-5.90529 -21.7498 -46.8781 0.200879 -0.978363 -0.0495314
1.38049 -18.0587 -51.1942 0.285512 -0.95494 -0.0810654
6.97914 -17.3901 -54.9675 0.264357 -0.964215 0.0201338
14.3203 -14.0501 -60.5428 0.914349 -0.35557 -0.193742
-9.32295 -18.0237 -39.0353 0.286308 -0.957681 0.0295751
-6.13495 -21.1724 -37.8015 -0.0992959 -0.96162 0.255789
3.80094 -19.5396 -43.3986 0.26395 -0.956714 -0.122591
10.2618 -15.9471 -46.8381 0.217117 -0.97098 -0.100293
-7.32548 -19.2276 -31.0293 0.461366 -0.864736 -0.198429
-1.69724 -17.1337 -31.7912 -0.118289 -0.953182 0.278302
3.67388 -20.1124 -33.6364 0.0791207 -0.991703 0.10132
12.8437 -17.0885 -38.9979 0.195399 -0.968959 -0.151453
-4.95534 -20.926 -22.0579 0.232168 -0.966431 0.110045
0.99669 -16.9589 -24.2208 0.202926 -0.976303 -0.0751861
6.73792 -18.2195 -26.4213 -0.0767783 -0.979529 0.186087
13.1366 -18.6765 -30.1511 0.12158 -0.992514 0.0115914
-5.80315 -15.8743 -13.3175 -0.101846 -0.923481 0.369878
-0.0561309 -18.1976 -14.815 0.00240357 -0.999656 0.0261043
8.42614 -17.35 -18.614 0.0193122 -0.998017 -0.0599071
15.1404 -17.1326 -21.7354 0.0509453 -0.996512 0.0660951
-3.53025 -15.6514 -7.9494 -0.0467841 -0.967287 -0.249333
-0.533772 -17.5933 -6.44109 -0.30414 -0.949623 0.0755945
7.58588 -18.7752 -9.46019 -0.0185354 -0.992889 -0.117593
16.7505 -17.5908 -13.4 0.115657 -0.987642 -0.105762
-2.78155 -19.4406 -1.71707 0.128326 -0.978183 -0.16337
1.69332 -17.0577 -1.08032 -0.0468511 -0.992455 0.113309
7.49188 -19.782 -1.83807 -0.0661398 -0.983931 0.165847
16.3276 -19.1502 -5.35208 0.119442 -0.992508 -0.0257409
-3.32897 -17.9674 5.98515 0.0524978 -0.990001 0.130924
2.9094 -16.6623 5.71167 0.132766 -0.990601 0.0328968
10.0715 -16.9443 4.58924 -0.0706554 -0.981821 0.176166
17.6184 -17.0354 2.21088 0.0371176 -0.988843 0.14426
-2.84782 -16.8502 14.141 0.053271 -0.977552 0.203851
4.64927 -16.9868 13.5742 0.116968 -0.96815 0.221367
12.0948 -16.194 12.296 -0.0615193 -0.967912 0.243644
19.1418 -17.5866 10.4386 -0.0178966 -0.997589 0.0670525
-1.91823 -14.6906 21.9003 0.0126975 -0.921933 0.387141
6.04105 -13.6198 20.9295 0.119839 -0.963726 0.238477
14.1968 -12.1796 19.7624 -0.0627976 -0.954786 0.290586
20.5545 -15.7928 18.1598 -0.206026 -0.93722 0.281376
-0.109179 -10.3757 29.9532 0.0657146 -0.990556 0.120336
7.56544 -11.7495 29.0498 -0.0712716 -0.982775 0.170511
15.5703 -12.0781 28.1235 -0.0751575 -0.997155 -0.00574631
22.2148 -13.6693 26.6773 -0.226968 -0.967776 0.109062
0.322449 -11.3102 37.6116 0.221834 -0.954892 -0.197411
8.3433 -11.1587 36.7914 -0.113668 -0.993182 -0.0258831
16.6859 -13.3544 35.8842 -0.172646 -0.984833 0.0172202
23.5299 -14.2401 34.8281 -0.144933 -0.988732 -0.0374529
0.69885 -13.0483 44.6379 0.204216 -0.948083 -0.243794
9.07939 -12.5589 44.2067 0.0229294 -0.973585 -0.227169
17.0464 -12.4706 43.7872 -0.106254 -0.993025 -0.0510947
24.4813 -14.0649 43.0912 -0.176016 -0.981128 0.0800371
1.45541 -15.2654 52.3923 0.133308 -0.982819 -0.127653
9.6136 -14.6412 51.8383 0.0605553 -0.986529 -0.151963
17.3857 -14.1111 51.3323 0.0465319 -0.991813 -0.118916
25.3587 -13.7941 51.0665 -0.059863 -0.998189 0.00586496
2.247 -15.5129 60.7743 0.162066 -0.742881 0.64951
10.1337 -14.8922 60.0325 0.112155 -0.768444 0.630012
18.1914 -14.2648 59.3303 0.101184 -0.762727 0.638756
26.0734 -13.5536 59.2071 0.0535554 -0.737686 0.673016
25.3999 -5.93167 59.1774 0.0968624 0.0628816 0.993309
24.9152 2.3762 58.4678 0.13863 0.189389 0.972067
23.8552 9.92268 56.2451 0.156744 0.290192 0.944044
22.9844 17.1109 54.3283 0.138737 0.27075 0.9526
17.7691 -6.64126 60.2171 0.0770231 0.00820526 0.996996
17.2016 1.3734 59.8351 0.0978957 0.117187 0.988273
16.2289 9.62776 58.0803 0.179227 0.257815 0.949426
15.3397 16.7934 55.9722 0.212494 0.274716 0.937751
9.83094 -7.11652 60.9279 0.0780293 0.0142459 0.996849
8.60829 0.896544 59.9027 0.0509155 0.0766232 0.995759
8.05746 8.93002 59.4908 0.112004 0.142669 0.983413
7.63873 16.646 57.8756 0.19951 0.240806 0.949847
1.80433 -7.72894 61.4798 0.121362 0.00658284 0.992586
1.03206 0.315685 60.4484 0.144807 0.0939698 0.984988
0.299006 8.09029 60.2701 0.154502 0.0670763 0.985713
-0.342343 16.0581 59.5675 0.20753 0.163429 0.96448
3 273 272 1
3 272 271 2
3 271 270 3
3 270 269 4
3 269 268 5
3 0 1 7
3 1 2 8
3 2 3 9
3 3 4 10
3 4 5 11
3 6 7 13
3 7 8 14
3 8 9 15
3 9 10 16
3 10 11 17
3 12 13 19
3 13 14 20
3 14 15 21
3 15 16 22
3 16 17 23
3 18 19 25
3 19 20 26
3 20 21 27
3 21 22 28
3 22 23 29
3 273 0 30
3 0 6 31
3 6 12 32
3 12 18 33
3 18 24 34
3 279 30 36
3 30 31 37
3 31 32 38
3 32 33 39
3 33 34 40
3 35 36 42
3 36 37 43
3 37 38 44
3 38 39 45
3 39 40 46
3 41 42 48
3 42 43 49
3 43 44 50
3 44 45 51
3 45 46 52
3 47 48 54
3 48 49 55
3 49 50 56
3 50 51 57
3 51 52 58
3 53 54 60
3 54 55 61
3 55 56 62
3 56 57 63
3 57 58 64
3 59 60 66
3 60 61 67
3 61 62 68
3 62 63 69
3 63 64 70
3 65 66 72
3 66 67 73
3 67 68 74
3 68 69 75
3 69 70 76
3 71 72 78
3 72 73 79
3 73 74 80
3 74 75 81
3 75 76 82
3 77 78 84
3 78 79 85
3 79 80 86
3 80 81 87
3 81 82 88
3 83 84 90
3 84 85 91
3 85 86 92
3 86 87 93
3 87 88 94
3 89 90 96
3 90 91 97
3 91 92 98
3 92 93 99
3 93 94 100
3 95 96 102
3 96 97 103
3 97 98 104
3 98 99 105
3 99 100 106
3 101 102 108
3 102 103 109
3 103 104 110
3 104 105 111
3 105 106 112
3 107 108 114
3 108 109 115
3 109 110 116
3 110 111 117
3 111 112 118
3 24 25 119
3 25 26 120
3 26 27 121
3 27 28 122
3 28 29 123
3 34 119 124
3 119 120 125
3 120 121 126
3 121 122 127
3 122 123 128
3 40 124 129
3 124 125 130
3 125 126 131
3 126 127 132
3 127 128 133
3 46 129 134
3 129 130 135
3 130 131 136
3 131 132 137
3 132 133 138
3 52 134 139
3 134 135 140
3 135 136 141
3 136 137 142
3 137 138 143
3 58 139 144
3 139 140 145
3 140 141 146
3 141 142 147
3 142 143 148
3 64 144 149
3 144 145 150
3 145 146 151
3 146 147 152
3 147 148 153
3 70 149 154
3 149 150 155
3 150 151 156
3 151 152 157
3 152 153 158
3 76 154 159
3 154 155 160
3 155 156 161
3 156 157 162
3 157 158 163
3 82 159 164
3 159 160 165
3 160 161 166
3 161 162 167
3 162 163 168
3 88 164 169
3 164 165 170
3 165 166 171
3 166 167 172
3 167 168 173
3 94 169 174
3 169 170 175
3 170 171 176
3 171 172 177
3 172 173 178
3 100 174 179
3 174 175 180
3 175 176 181
3 176 177 182
3 177 178 183
3 106 179 184
3 179 180 185
3 180 181 186
3 181 182 187
3 182 183 188
3 112 184 189
3 184 185 190
3 185 186 191
3 186 187 192
3 187 188 193
3 29 23 194
3 23 17 195
3 17 11 196
3 11 5 197
3 5 268 274
3 123 194 198
3 194 195 199
3 195 196 200
3 196 197 201
3 197 274 202
3 128 198 203
3 198 199 204
3 199 200 205
3 200 201 206
3 201 202 207
3 133 203 208
3 203 204 209
3 204 205 210
3 205 206 211
3 206 207 212
3 138 208 213
3 208 209 214
3 209 210 215
3 210 211 216
3 211 212 217
3 143 213 218
3 213 214 219
3 214 215 220
3 215 216 221
3 216 217 222
3 148 218 223
3 218 219 224
3 219 220 225
3 220 221 226
3 221 222 227
3 153 223 228
3 223 224 229
3 224 225 230
3 225 226 231
3 226 227 232
3 158 228 233
3 228 229 234
3 229 230 235
3 230 231 236
3 231 232 237
3 163 233 238
3 233 234 239
3 234 235 240
3 235 236 241
3 236 237 242
3 168 238 243
3 238 239 244
3 239 240 245
3 240 241 246
3 241 242 247
3 173 243 248
3 243 244 249
3 244 245 250
3 245 246 251
3 246 247 252
3 178 248 253
3 248 249 254
3 249 250 255
3 250 251 256
3 251 252 257
3 183 253 258
3 253 254 259
3 254 255 260
3 255 256 261
3 256 257 262
3 188 258 263
3 258 259 264
3 259 260 265
3 260 261 266
3 261 262 267
3 268 269 275
3 269 270 276
3 270 271 277
3 271 272 278
3 272 273 279
3 274 275 280
3 275 276 281
3 276 277 282
3 277 278 283
3 278 279 35
3 202 280 284
3 280 281 285
3 281 282 286
3 282 283 287
3 283 35 41
3 207 284 288
3 284 285 289
3 285 286 290
3 286 287 291
3 287 41 47
3 212 288 292
3 288 289 293
3 289 290 294
3 290 291 295
3 291 47 53
3 217 292 296
3 292 293 297
3 293 294 298
3 294 295 299
3 295 53 59
3 222 296 300
3 296 297 301
3 297 298 302
3 298 299 303
3 299 59 65
3 227 300 304
3 300 301 305
3 301 302 306
3 302 303 307
3 303 65 71
3 232 304 308
3 304 305 309
3 305 306 310
3 306 307 311
3 307 71 77
3 237 308 312
3 308 309 313
3 309 310 314
3 310 311 315
3 311 77 83
3 242 312 316
3 312 313 317
3 313 314 318
3 314 315 319
3 315 83 89
3 247 316 320
3 316 317 321
3 317 318 322
3 318 319 323
3 319 89 95
3 252 320 324
3 320 321 325
3 321 322 326
3 322 323 327
3 323 95 101
3 257 324 328
3 324 325 329
3 325 326 330
3 326 327 331
3 327 101 107
3 262 328 332
3 328 329 333
3 329 330 334
3 330 331 335
3 331 107 113
3 113 114 336
3 114 115 337
3 115 116 338
3 116 117 339
3 117 118 189
3 335 336 340
3 336 337 341
3 337 338 342
3 338 339 343
3 339 189 190
3 334 340 344
3 340 341 345
3 341 342 346
3 342 343 347
3 343 190 191
3 333 344 348
3 344 345 349
3 345 346 350
3 346 347 351
3 347 191 192
3 332 348 266
3 348 349 265
3 349 350 264
3 350 351 263
3 351 192 193
3 273 1 0
3 272 2 1
3 271 3 2
3 270 4 3
3 269 5 4
3 0 7 6
3 1 8 7
3 2 9 8
3 3 10 9
3 4 11 10
3 6 13 12
3 7 14 13
3 8 15 14
3 9 16 15
3 10 17 16
3 12 19 18
3 13 20 19
3 14 21 20
3 15 22 21
3 16 23 22
3 18 25 24
3 19 26 25
3 20 27 26
3 21 28 27
3 22 29 28
3 273 30 279
3 0 31 30
3 6 32 31
3 12 33 32
3 18 34 33
3 279 36 35
3 30 37 36
3 31 38 37
3 32 39 38
3 33 40 39
3 35 42 41
3 36 43 42
3 37 44 43
3 38 45 44
3 39 46 45
3 41 48 47
3 42 49 48
3 43 50 49
3 44 51 50
3 45 52 51
3 47 54 53
3 48 55 54
3 49 56 55
3 50 57 56
3 51 58 57
3 53 60 59
3 54 61 60
3 55 62 61
3 56 63 62
3 57 64 63
3 59 66 65
3 60 67 66
3 61 68 67
3 62 69 68
3 63 70 69
3 65 72 71
3 66 73 72
3 67 74 73
3 68 75 74
3 69 76 75
3 71 78 77
3 72 79 78
3 73 80 79
3 74 81 80
3 75 82 81
3 77 84 83
3 78 85 84
3 79 86 85
3 80 87 86
3 81 88 87
3 83 90 89
3 84 91 90
3 85 92 91
3 86 93 92
3 87 94 93
3 89 96 95
3 90 97 96
3 91 98 97
3 92 99 98
3 93 100 99
3 95 102 101
3 96 103 102
3 97 104 103
3 98 105 104
3 99 106 105
3 101 108 107
3 102 109 108
3 103 110 109
3 104 111 110
3 105 112 111
3 107 114 113
3 108 115 114
3 109 116 115
3 110 117 116
3 111 118 117
3 24 119 34
3 25 120 119
3 26 121 120
3 27 122 121
3 28 123 122
3 34 124 40
3 119 125 124
3 120 126 125
3 121 127 126
3 122 128 127
3 40 129 46
3 124 130 129
3 125 131 130
3 126 132 131
3 127 133 132
3 46 134 52
3 129 135 134
3 130 136 135
3 131 137 136
3 132 138 137
3 52 139 58
3 134 140 139
3 135 141 140
3 136 142 141
3 137 143 142
3 58 144 64
3 139 145 144
3 140 146 145
3 141 147 146
3 142 148 147
3 64 149 70
3 144 150 149
3 145 151 150
3 146 152 151
3 147 153 152
3 70 154 76
3 149 155 154
3 150 156 155
3 151 157 156
3 152 158 157
3 76 159 82
3 154 160 159
3 155 161 160
3 156 162 161
3 157 163 162
3 82 164 88
3 159 165 164
3 160 166 165
3 161 167 166
3 162 168 167
3 88 169 94
3 164 170 169
3 165 171 170
3 166 172 171
3 167 173 172
3 94 174 100
3 169 175 174
3 170 176 175
3 171 177 176
3 172 178 177
3 100 179 106
3 174 180 179
3 175 181 180
3 176 182 181
3 177 183 182
3 106 184 112
3 179 185 184
3 180 186 185
3 181 187 186
3 182 188 187
3 112 189 118
3 184 190 189
3 185 191 190
3 186 192 191
3 187 193 192
3 29 194 123
3 23 195 194
3 17 196 195
3 11 197 196
3 5 274 197
3 123 198 128
3 194 199 198
3 195 200 199
3 196 201 200
3 197 202 201
3 128 203 133
3 198 204 203
3 199 205 204
3 200 206 205
3 201 207 206
3 133 208 138
3 203 209 208
3 204 210 209
3 205 211 210
3 206 212 211
3 138 213 143
3 208 214 213
3 209 215 214
3 210 216 215
3 211 217 216
3 143 218 148
3 213 219 218
3 214 220 219
3 215 221 220
3 216 222 221
3 148 223 153
3 218 224 223
3 219 225 224
3 220 226 225
3 221 227 226
3 153 228 158
3 223 229 228
3 224 230 229
3 225 231 230
3 226 232 231
3 158 233 163
3 228 234 233
3 229 235 234
3 230 236 235
3 231 237 236
3 163 238 168
3 233 239 238
3 234 240 239
3 235 241 240
3 236 242 241
3 168 243 173
3 238 244 243
3 239 245 244
3 240 246 245
3 241 247 246
3 173 248 178
3 243 249 248
3 244 250 249
3 245 251 250
3 246 252 251
3 178 253 183
3 248 254 253
3 249 255 254
3 250 256 255
3 251 257 256
3 183 258 188
3 253 259 258
3 254 260 259
3 255 261 260
3 256 262 261
3 188 263 193
3 258 264 263
3 259 265 264
3 260 266 265
3 261 267 266
3 268 275 274
3 269 276 275
3 270 277 276
3 271 278 277
3 272 279 278
3 274 280 202
3 275 281 280
3 276 282 281
3 277 283 282
3 278 35 283
3 202 284 207
3 280 285 284
3 281 286 285
3 282 287 286
3 283 41 287
3 207 288 212
3 284 289 288
3 285 290 289
3 286 291 290
3 287 47 291
3 212 292 217
3 288 293 292
3 289 294 293
3 290 295 294
3 291 53 295
3 217 296 222
3 292 297 296
3 293 298 297
3 294 299 298
3 295 59 299
3 222 300 227
3 296 301 300
3 297 302 301
3 298 303 302
3 299 65 303
3 227 304 232
3 300 305 304
3 301 306 305
3 302 307 306
3 303 71 307
3 232 308 237
3 304 309 308
3 305 310 309
3 306 311 310
3 307 77 311
3 237 312 242
3 308 313 312
3 309 314 313
3 310 315 314
3 311 83 315
3 242 316 247
3 312 317 316
3 313 318 317
3 314 319 318
3 315 89 319
3 247 320 252
3 316 321 320
3 317 322 321
3 318 323 322
3 319 95 323
3 252 324 257
3 320 325 324
3 321 326 325
3 322 327 326
3 323 101 327
3 257 328 262
3 324 329 328
3 325 330 329
3 326 331 330
3 327 107 331
3 262 332 267
3 328 333 332
3 329 334 333
3 330 335 334
3 331 113 335
3 113 336 335
3 114 337 336
3 115 338 337
3 116 339 338
3 117 189 339
3 335 340 334
3 336 341 340
3 337 342 341
3 338 343 342
3 339 190 343
3 334 344 333
3 340 345 344
3 341 346 345
3 342 347 346
3 343 191 347
3 333 348 332
3 344 349 348
3 345 350 349
3 346 351 350
3 347 192 351
3 332 266 267
3 348 265 266
3 349 264 265
3 350 263 264
3 351 193 263
