ply
format ascii 1.0
element vertex 352
property float x
property float y
property float z
property float nx
property float ny
property float nz
element face 700
property list uchar int vertex_indices
end_header
-17.2384 49.7034 -10.2447 -0.101683 0.831441 -0.546229
-23.073 52.0035 0.808735 -0.259868 0.949851 -0.173931
-23.8134 51.5172 8.82578 -0.186641 0.981259 0.0479255
-24.0449 52.0182 13.9002 0.0974599 0.911185 -0.400305
-25.2171 54.7371 16.2873 -0.102564 0.958611 -0.265603
-30.3078 53.7494 23.6806 -0.433813 0.743566 0.508837
-11.9612 52.3957 -7.5144 -0.190742 0.820446 -0.538968
-12.7039 51.563 -1.65449 -0.0958247 0.994665 -0.0381913
-15.7517 51.6575 4.45052 -0.0487259 0.99014 0.131336
-18.0323 48.3841 13.8864 0.0452139 0.992953 -0.109545
-19.0993 52.7981 19.2735 0.210972 0.918816 -0.333569
-20.3237 54.8934 27.3945 -0.132437 0.745546 0.653162
-4.26092 54.7401 -9.0423 -0.179471 0.79088 -0.585063
-5.32373 52.6385 -1.53136 -0.243762 0.961438 0.127344
-6.09966 52.1541 4.39912 -0.187483 0.982224 0.00927477
-10.1967 51.0728 14.9675 -0.259371 0.965353 -0.0286309
-10.7351 52.9311 20.1915 -0.09348 0.96672 -0.238145
-10.9261 53.812 29.1873 -0.0260828 0.799579 0.599994
0.503223 56.634 -7.59389 -0.272824 0.70102 -0.658891
-0.187731 54.3857 -1.66292 -0.512068 0.850954 0.116891
-0.979543 53.9333 5.0847 -0.435467 0.899578 -0.0335857
-4.21459 53.458 13.5148 -0.362066 0.930184 -0.0605508
-4.60358 54.4678 21.4886 -0.233173 0.971658 -0.0388585
-4.71649 54.0021 30.3906 -0.195717 0.734094 0.650231
7.51839 60.6834 -7.17077 0.373755 0.905949 -0.198906
5.70509 59.0802 -0.401535 0.0669459 0.963888 0.257757
4.68657 57.8786 7.46874 0.187076 0.975397 0.116632
4.33456 57.5359 15.8703 0.186988 0.974187 0.126473
3.51812 56.2923 24.7997 0.417474 0.897666 0.141111
2.67923 55.0032 32.1072 0.0903619 0.644804 0.758987
-14.6679 42.6033 -12.9462 -0.0856156 0.00547237 -0.996313
-8.83823 45.285 -13.0019 -0.0266881 0.370042 -0.928631
-0.522385 47.823 -11.5597 0.0702331 0.409014 -0.909821
7.2674 50.9568 -8.85522 0.178864 0.318806 -0.93079
13.2949 54.4876 -7.0576 0.665534 0.515956 -0.539309
-18.7183 33.3941 -8.98606 -0.594396 -0.56766 -0.56961
-10.3422 35.6003 -12.4127 -0.200061 -0.35052 -0.914938
-4.18211 38.8054 -13.6162 -0.0733482 -0.062275 -0.99536
4.00566 40.4398 -14.2442 0.204222 0.21546 -0.954919
12.9276 43.8118 -9.99478 0.322281 0.239745 -0.915782
17.3384 47.1224 -7.25844 0.784919 0.444034 -0.432129
-13.0911 28.3694 -9.37469 -0.538881 -0.841439 -0.039841
-5.17069 30.624 -9.95837 -0.188852 -0.495374 -0.847903
0.559599 32.9014 -13.4013 -0.144671 -0.282476 -0.948302
9.07135 34.3937 -13.7121 0.24569 0.157341 -0.956494
16.7294 35.5936 -8.75197 0.425916 0.193735 -0.883777
21.9936 38.0125 -6.63076 0.831449 0.359337 -0.423756
-3.45638 22.7374 -6.25525 -0.816512 -0.516857 -0.257231
0.130713 24.9125 -6.71134 -0.260243 -0.361944 -0.895137
5.32103 26.3422 -11.5427 -0.322235 -0.370483 -0.871153
15.1993 26.9274 -13.4962 0.160751 0.0683853 -0.984623
21.6644 28.9321 -8.89157 0.455608 0.346183 -0.820109
25.7771 30.9743 -5.85499 0.875396 0.423273 -0.233501
-1.51422 13.2831 -4.50714 -0.576452 0.456361 -0.677818
1.03754 16.682 -6.91172 -0.492279 0.228889 -0.839804
8.55172 18.4938 -9.97763 -0.379624 0.0771842 -0.921915
18.7859 19.0913 -13.8039 -0.0228356 -0.0320823 -0.999224
24.4231 22.2896 -10.0021 0.450122 0.280711 -0.847698
29.8109 24.4616 -6.45526 0.897418 0.429312 -0.101645
-4.95191 14.6292 -13.8175 0.0563244 0.939898 -0.336777
-0.00193834 11.2222 -9.36835 -0.159661 0.924187 -0.346969
7.93423 13.9023 -14.2512 -0.194506 0.748686 -0.633748
19.1325 15.0714 -13.7693 0.0742464 0.477014 -0.875754
24.7372 17.6618 -11.2156 0.438231 0.262402 -0.859709
31.7396 18.4035 -7.32282 0.945801 0.247249 -0.210544
-11.0831 9.0651 -15.2308 -0.463525 0.522325 -0.715766
-0.352046 11.2225 -16.2983 -0.204314 0.665173 -0.718192
8.01992 11.4643 -20.3419 0.0458909 0.781413 -0.622324
21.4823 10.0672 -17.4305 0.349912 0.623168 -0.699445
26.6251 10.9537 -13.1371 0.510981 0.339232 -0.789823
32.3024 10.4744 -9.01562 0.943745 0.184014 -0.274743
-11.8621 2.22363 -18.1407 -0.757351 0.0998032 -0.645336
-4.14725 3.48884 -20.0168 -0.314912 0.318496 -0.894087
10.5884 4.1246 -26.1497 -0.070526 0.333724 -0.940029
22.7727 2.37432 -22.3086 0.491803 0.40738 -0.769526
27.1222 2.67736 -15.0904 0.680092 0.284031 -0.675871
33.0436 2.11101 -11.4837 0.943247 0.089186 -0.319892
-9.29727 -4.61426 -21.2452 -0.817346 -0.0165974 -0.575908
-4.6016 -4.71066 -21.8043 -0.286416 0.0808377 -0.954689
8.95828 -6.05984 -26.3664 -0.128424 0.0363038 -0.991055
21.2642 -5.82951 -24.1255 0.395341 0.0358321 -0.917835
27.9304 -6.19882 -18.4425 0.720456 0.109725 -0.684765
32.1358 -6.09382 -13.9338 0.953381 -0.0963935 -0.285961
-6.84845 -13.1203 -25.0146 -0.549159 0.194833 -0.81269
-1.39892 -12.3593 -21.8897 -0.0560839 0.0703948 -0.995941
7.74012 -13.8914 -25.4408 -0.157968 -0.135522 -0.9781
19.6023 -14.0776 -24.8636 0.29233 -0.0761826 -0.953278
26.7047 -13.9532 -19.336 0.630888 0.0183027 -0.775658
29.9363 -14.4173 -16.1568 0.994779 -0.0215697 -0.0997459
-6.03228 -20.9363 -27.6327 -0.420378 0.219719 -0.880344
0.389726 -21.1033 -23.2413 0.23422 0.21112 -0.948983
8.92611 -21.724 -24.2916 -0.0787722 -0.01785 -0.996733
18.071 -21.503 -23.6772 0.207433 -0.0762551 -0.975273
25.6541 -22.0936 -20.5224 0.490239 0.00241937 -0.871585
31.6353 -22.263 -16.5626 0.983865 0.114513 -0.137465
-5.36604 -28.3421 -29.6848 -0.378402 0.286918 -0.880051
1.14322 -28.9728 -25.3023 0.358687 0.292866 -0.886326
9.19442 -29.4836 -24.5093 0.0680096 0.13841 -0.988037
17.8079 -29.2665 -24.1073 0.215051 0.0481011 -0.975417
24.9428 -29.7583 -20.9615 0.415089 0.0546709 -0.908137
32.0531 -30.1309 -17.5248 0.952955 0.0244572 -0.302123
-5.42602 -35.6816 -31.9769 -0.345999 0.296319 -0.890213
1.4202 -36.0475 -28.0813 0.391605 0.321242 -0.862235
9.23633 -36.8686 -26.3347 0.234699 0.244861 -0.940723
17.2416 -37.5446 -24.5815 0.257569 0.107211 -0.960294
24.7292 -37.8223 -21.7758 0.390759 0.0873631 -0.916338
31.9514 -38.0342 -18.4482 0.932257 0.0287724 -0.360652
-5.16615 -43.3881 -34.2469 -0.366439 0.232433 -0.900943
1.91587 -43.7444 -31.0678 0.397404 0.281831 -0.873293
9.48843 -44.6016 -28.405 0.340984 0.241714 -0.908463
17.0164 -45.2077 -25.5599 0.341177 0.158585 -0.926525
24.5472 -45.8483 -22.7576 0.375016 0.118364 -0.919431
31.9394 -46.0852 -19.5789 0.931054 0.0535017 -0.360938
-4.67821 -51.3449 -36.2124 -0.437294 -0.518226 -0.734994
2.59104 -51.7941 -33.087 0.30998 -0.501436 -0.807759
9.92671 -52.5912 -30.0012 0.291542 -0.527171 -0.798182
17.2031 -52.9548 -26.9103 0.289792 -0.568438 -0.769999
24.5715 -53.5504 -23.8521 0.265968 -0.612669 -0.744244
31.9379 -54.0958 -20.732 0.698464 -0.324141 -0.638029
11.5574 53.8492 0.493881 0.718281 0.639286 0.274566
9.11642 52.297 7.93499 0.72873 0.622236 0.285964
7.78599 51.2115 17.0655 0.832666 0.433731 0.344302
5.04571 48.7903 24.0256 0.937236 0.19257 0.290698
3.56844 47.1634 30.4072 0.557459 -0.0284159 0.829718
16.0619 46.7556 0.161483 0.862485 0.480305 0.159456
15.1422 46.0427 7.94498 0.787217 0.502881 0.356932
11.494 44.1321 17.0372 0.775656 0.336082 0.534234
5.91224 41.1392 23.7819 0.860419 0.127001 0.493508
4.56222 38.7662 29.5809 0.524513 -0.175815 0.833052
20.0379 38.7614 0.17794 0.896524 0.416286 0.151493
19.3759 38.5883 7.83844 0.857726 0.345056 0.381106
14.2931 36.3892 16.1948 0.751591 0.17328 0.636463
8.13091 33.6191 21.5894 0.766458 0.0369678 0.64123
5.27972 30.675 27.2914 0.334877 -0.279912 0.899726
23.3195 31.3104 0.0661039 0.922234 0.332889 0.196645
22.3639 30.8723 7.02556 0.849529 0.248538 0.465328
16.2301 29.0719 14.7482 0.723152 0.0575293 0.688289
9.91941 26.9747 19.7166 0.676663 -0.0240716 0.735899
6.04279 23.4909 24.195 0.169796 -0.413619 0.894476
25.0546 23.4364 -0.519364 0.908404 0.273664 0.316085
25.0667 23.1165 6.77152 0.861788 0.204879 0.464055
18.6184 21.2228 12.2214 0.633773 0.0748156 0.769893
11.8726 19.9899 17.9038 0.645974 -0.0511648 0.761643
7.47599 17.4969 21.4153 0.00333323 -0.300951 0.953634
27.7716 17.1903 -1.40381 0.879055 0.251363 0.405066
26.8989 15.2431 5.14605 0.852893 0.200645 0.48199
20.5858 13.7775 12.6329 0.5858 0.12574 0.800642
13.1411 13.811 16.0578 0.535733 0.0476754 0.843041
9.30737 12.0539 19.5573 -0.0831883 -0.231439 0.969286
29.9166 9.48344 -1.78743 0.945697 0.0753472 0.316197
29.1625 7.07998 5.22917 0.903001 0.0727895 0.423428
22.9614 4.56426 12.2334 0.608283 0.0836996 0.789295
14.3437 5.16416 16.6096 0.468003 0.0754146 0.880503
9.52462 4.99279 19.059 -0.29083 -0.0234853 0.956486
31.0714 1.19557 -3.42503 0.953909 0.00627263 0.30003
28.4284 -0.394502 3.03213 0.915904 -0.108045 0.386582
24.402 -3.54158 11.2351 0.741297 -0.15653 0.652669
16.707 -3.44977 15.4089 0.53774 -0.00315674 0.843104
10.0055 -3.01603 20.123 -0.234625 0.0268088 0.971716
31.13 -7.03335 -5.50266 0.971664 -0.196379 0.131548
29.0422 -8.38074 2.02538 0.877792 -0.0804959 0.472231
22.9361 -9.6723 8.78839 0.760573 -0.160297 0.629153
17.6256 -11.2469 14.1928 0.682058 -0.135023 0.718725
11.5584 -11.237 19.7805 -0.0819063 -0.151286 0.985091
28.0162 -15.1717 -8.75236 0.956654 -0.266861 0.116615
28.264 -16.3662 0.0334466 0.931281 -0.299597 0.20726
23.2894 -17.6192 8.06933 0.754023 -0.131648 0.64352
17.4228 -18.3731 12.5166 0.731154 -0.0876257 0.676561
12.9063 -19.0905 18.4765 -0.0503154 -0.126916 0.990636
28.0507 -22.9032 -9.4141 0.909191 0.0419103 0.414265
24.8412 -23.9687 -2.74937 0.958839 -0.161157 0.233788
22.8066 -25.3368 6.00851 0.864234 -0.191364 0.465274
17.585 -26.0762 11.665 0.768524 -0.0714202 0.635823
13.2852 -26.4467 17.7092 0.0564733 -0.078869 0.995284
28.8803 -30.9684 -10.3252 0.903361 -0.0207217 0.428379
25.4188 -31.7785 -3.24066 0.926371 -0.0216958 0.375988
22.8221 -33.1551 4.77581 0.899862 -0.0568333 0.432456
17.939 -33.8843 10.5202 0.813411 -0.0231406 0.581229
13.7739 -34.2336 17.3508 0.17304 -0.0288881 0.984491
28.8063 -39.1238 -11.4156 0.907756 -0.0614187 0.414979
25.2464 -39.9111 -4.32673 0.914952 -0.0593689 0.399173
22.3779 -40.984 3.30702 0.913594 -0.0770685 0.399258
18.3596 -41.6799 9.93529 0.858395 -0.00418451 0.512972
14.6108 -42.146 16.8223 0.274901 -0.0192735 0.961279
28.633 -46.7894 -12.3946 0.912771 -0.0387331 0.406632
25.3666 -47.768 -5.23802 0.91169 -0.0204567 0.41037
22.2023 -48.8948 2.05265 0.91904 -0.0283247 0.393146
18.8838 -49.5785 9.36079 0.899097 0.00732557 0.437688
15.4304 -50.1978 16.4247 0.310823 -0.0367891 0.949756
28.9124 -54.8578 -13.4018 0.658203 -0.725599 0.200686
25.789 -55.5709 -6.05649 0.666682 -0.716403 0.205673
22.6236 -56.5814 1.19313 0.675548 -0.710796 0.195967
19.4261 -57.4962 8.44476 0.687548 -0.69319 0.216252
16.2031 -58.2586 15.8229 0.515384 -0.671514 0.532399
-4.01102 46.7611 29.7567 -0.0230468 -0.0834501 0.996245
-10.3223 45.8647 29.7886 0.00722146 0.0227411 0.999715
-18.4699 43.9631 30.7071 -0.0951032 0.0827184 0.992025
-27.659 43.3565 29.1333 -0.377218 0.124672 0.917695
-2.56363 37.9914 29.0209 0.0498283 -0.327759 0.943447
-9.91367 36.7988 30.3979 0.155996 -0.309365 0.938061
-18.2784 34.5693 30.0928 -0.025589 -0.2214 0.974847
-25.933 33.6326 28.4907 -0.403183 -0.185545 0.896112
-30.0668 33.7279 24.1704 -0.996859 0.0736408 0.0291339
-1.75506 31.6831 24.9878 -0.115922 -0.447967 0.886503
-7.82419 30.936 24.3027 0.189406 -0.530847 0.826031
-17.179 27.9232 26.3906 0.188933 -0.544093 0.817476
-26.0744 26.5197 25.7497 -0.317112 -0.47737 0.819487
-30.5926 26.683 21.2924 -0.985238 0.116341 0.12558
-1.70844 24.5388 20.9339 -0.0920518 -0.53248 0.841422
-7.98912 23.3504 21.5953 0.0872827 -0.424753 0.901092
-17.1933 19.8923 20.4957 0.161617 -0.477099 0.863861
-23.9349 19.999 22.1061 -0.265523 -0.523292 0.80973
-31.3746 22.4408 16.4239 -0.963851 -0.180802 0.195708
-0.0469279 19.4588 16.6772 -0.198242 -0.511391 0.83617
-7.77615 16.0592 17.469 0.228705 -0.593636 0.771551
-19.4773 12.2745 17.3417 0.140756 -0.516858 0.84442
-22.6949 13.1762 17.8992 -0.189185 -0.480894 0.856125
-30.292 15.4235 14.5065 -0.90999 -0.264376 0.319411
0.850589 13.4062 15.6207 -0.348114 -0.233777 0.907835
-7.74015 10.7826 12.3592 -0.0331004 -0.344914 0.93805
-18.0333 8.84524 13.3456 0.296472 -0.580129 0.758653
-19.4772 7.75066 14.1925 0.0652841 -0.364629 0.928861
-28.5811 8.30739 13.6989 -0.774423 -0.385788 0.501435
2.43436 6.05361 13.6356 -0.310285 -0.232474 0.92178
-6.52675 4.4146 13.2859 -0.179627 -0.212097 0.960598
-17.4377 3.39182 10.3805 0.0818265 -0.255216 0.963416
-18.5957 1.07956 11.8219 0.322544 -0.265226 0.908637
-26.3125 0.364051 12.7952 -0.705142 -0.27674 0.652833
3.74951 -2.46891 12.4467 -0.516985 -0.0363914 0.85522
-4.67002 -3.29956 10.8288 -0.222444 -0.206987 0.95272
-14.904 -3.11516 8.08581 -0.0205678 -0.27165 0.962176
-19.1765 -5.30679 10.0922 0.343295 -0.23548 0.909229
-25.5237 -6.72335 11.0114 -0.736913 -0.112076 0.666632
4.40827 -10.5777 13.7266 -0.540492 -0.13956 0.829694
-3.17753 -11.3329 10.9339 -0.331268 -0.0856265 0.939643
-11.4087 -11.3675 6.67131 -0.115075 -0.0608305 0.991492
-20.3834 -12.2913 8.6803 0.143408 -0.13169 0.980863
-25.6483 -14.0511 8.94552 -0.741607 -0.204016 0.639059
5.57434 -18.4859 11.771 -0.548723 -0.145255 0.823289
-1.59827 -19.372 9.02716 -0.233087 -0.155447 0.959951
-10.1345 -19.3763 7.44314 -0.134187 -0.0275139 0.990574
-17.9954 -20.9239 8.19317 -0.0329656 -0.055988 0.997887
-25.8226 -21.3787 6.30368 -0.761908 -0.20744 0.613567
6.07212 -26.433 12.3017 -0.555259 -0.0439309 0.830517
-0.753326 -27.2659 8.58408 -0.250892 -0.0281362 0.967606
-9.01939 -27.5499 7.98038 -0.118057 -0.0185385 0.992834
-17.2007 -28.7453 7.26499 -0.106402 -0.113298 0.987847
-24.3917 -30.305 5.7299 -0.817149 -0.197222 0.541637
7.10464 -34.5787 12.2449 -0.528874 -0.0125692 0.848607
-0.0489807 -35.1055 8.61125 -0.301883 -0.000718522 0.953345
-8.41926 -35.7052 8.01263 -0.14762 -0.0653118 0.986885
-16.2173 -36.8199 6.26689 -0.213355 -0.142486 0.966529
-23.3154 -37.9196 4.09571 -0.838054 -0.226294 0.496444
7.72421 -42.3058 12.9603 -0.470394 -0.00748517 0.882425
0.625727 -42.8935 9.71376 -0.372677 0.0324102 0.927395
-7.49545 -43.8486 7.32943 -0.259109 -0.0768411 0.962786
-15.1169 -44.6996 5.06492 -0.268506 -0.184584 0.945428
-22.3639 -45.6592 2.62736 -0.877551 -0.226874 0.422413
8.13807 -50.3633 13.0352 -0.412578 -0.0722099 0.908056
0.966482 -51.124 10.0321 -0.38907 -0.0571833 0.919432
-6.4952 -52.0593 6.93022 -0.363719 -0.100379 0.926084
-13.9357 -52.3711 3.75636 -0.342319 -0.170431 0.923997
-21.2326 -53.2761 1.04615 -0.905426 -0.197495 0.375765
8.90372 -58.688 12.4511 -0.226921 -0.762067 0.606432
1.6196 -59.0824 9.32776 -0.205232 -0.772762 0.600599
-5.62222 -59.8316 6.02684 -0.19313 -0.79818 0.570621
-12.9212 -60.3512 2.79139 -0.180828 -0.808588 0.559898
-20.2446 -60.8911 -0.357391 -0.607077 -0.578871 0.544394
-32.7191 49.9918 26.5862 -0.997407 -0.0274134 0.0665471
-31.6777 50.6812 16.0081 -0.929083 0.303187 -0.211852
-30.0148 48.5992 9.87883 -0.773265 0.43661 -0.459818
-27.6467 47.8926 3.2813 -0.867378 0.33211 -0.370619
-24.6698 47.8579 -4.18556 -0.951724 0.0989139 -0.290582
-21.677 46.8348 -13.2227 -0.608302 0.351815 -0.711473
-30.7134 42.2525 26.989 -0.958557 -0.221197 0.179553
-30.4847 42.7893 16.5147 -0.856564 -0.480255 -0.188822
-29.6683 41.8136 9.83533 -0.674056 -0.717977 -0.17366
-26.2813 41.7472 3.24877 -0.724342 -0.648996 -0.232665
-21.9959 41.2239 -4.29679 -0.870546 -0.433701 -0.232492
-19.4497 39.205 -10.7729 -0.672048 -0.347253 -0.654039
-25.8463 34.7637 18.9171 -0.702857 -0.0422623 -0.710075
-18.7649 36.9604 13.9129 -0.618185 -0.625689 -0.475774
-17.163 37.7991 5.38315 -0.509583 -0.854391 -0.101698
-16.4992 35.4621 -3.89794 -0.549468 -0.791492 0.267629
-26.8236 28.1497 14.5451 -0.412272 0.598119 -0.687231
-17.2174 28.3195 13.0746 -0.451923 0.301754 -0.83947
-12.4044 30.4861 7.69133 -0.760925 -0.258124 -0.595285
-7.91408 32.3433 0.751363 -0.7193 -0.688584 0.0919788
-27.6366 24.1904 9.04958 -0.486659 0.624485 -0.610885
-19.4398 22.0168 9.00056 0.0100819 0.692996 -0.720871
-12.6272 21.9019 7.35283 -0.51596 0.323599 -0.793139
-5.96709 24.7079 1.62059 -0.828224 -0.10399 -0.550664
-27.7102 17.6517 6.84655 -0.856721 0.106019 -0.504767
-23.4025 17.6199 3.00624 -0.142771 0.575927 -0.804938
-13.8334 16.3816 3.05772 -0.177981 0.771454 -0.610886
-5.73829 16.598 0.481328 -0.317505 0.785516 -0.531182
-27.6931 9.75511 5.70104 -0.954093 -0.0715997 -0.290825
-23.8145 10.3123 0.987763 -0.548633 0.372341 -0.748575
-17.0347 10.7894 -1.49899 -0.472762 0.578937 -0.664325
-10.3109 13.2113 -8.45507 -0.521622 0.784377 -0.335654
-25.1983 2.55842 5.5608 -0.983196 -0.176391 -0.0470202
-25.6287 2.84421 -2.64733 -0.783444 0.292495 -0.548326
-18.8139 4.6143 -5.49722 -0.495407 0.407642 -0.767072
-12.9578 7.26237 -11.0254 -0.864086 0.229776 -0.447838
-24.5318 -4.95512 4.00859 -0.998464 0.0498806 -0.0241217
-26.0219 -4.01927 -6.11527 -0.909614 0.134385 -0.39312
-18.9039 -2.64363 -9.80126 -0.330426 0.392159 -0.858504
-10.805 -0.359821 -11.1181 -0.819704 -0.0109557 -0.572683
-26.91 -13.3715 0.768081 -0.995518 0.0455849 -0.0828575
-25.3053 -11.1023 -8.95051 -0.87305 0.027524 -0.486853
-17.5354 -9.37582 -13.0865 -0.336747 0.277752 -0.899697
-9.99654 -8.41171 -13.0616 -0.742509 0.147131 -0.653478
-26.1859 -21.0955 -1.46686 -0.976526 -0.143222 -0.160888
-23.2748 -19.2529 -9.1178 -0.799499 -0.117038 -0.589155
-15.8891 -16.8555 -14.5508 -0.49772 0.0405493 -0.866389
-9.46165 -15.4743 -16.6476 -0.742183 0.160979 -0.650576
-23.895 -28.3712 -2.72354 -0.96105 -0.179223 -0.210386
-21.2367 -26.7842 -9.83778 -0.801152 -0.0946661 -0.590926
-14.8553 -24.829 -15.2271 -0.629328 0.0475896 -0.775682
-8.59921 -23.018 -19.3932 -0.793347 0.123941 -0.59602
-22.441 -36.4721 -3.67025 -0.953158 -0.164702 -0.2537
-19.7418 -34.3461 -11.2142 -0.840505 -0.0705843 -0.537186
-13.8057 -32.3296 -16.8442 -0.727845 0.084752 -0.680485
-8.76714 -30.6083 -22.2305 -0.825922 0.168743 -0.537939
-20.3038 -44.3209 -5.26862 -0.931218 -0.184159 -0.314513
-17.5318 -42.7274 -12.6437 -0.870365 -0.147528 -0.469787
-13.0193 -40.03 -18.8907 -0.811337 0.035433 -0.583505
-8.74429 -37.7793 -24.8643 -0.864305 0.125078 -0.487168
-18.3143 -51.6355 -6.34061 -0.918792 -0.10389 -0.380827
-15.2114 -49.9929 -13.4855 -0.899047 -0.13207 -0.417459
-12.0252 -48.0988 -20.5827 -0.883375 -0.0386025 -0.467074
-8.48615 -45.5421 -27.2777 -0.891096 0.0592025 -0.449936
-17.2449 -59.5906 -7.61062 -0.552525 -0.736949 -0.389388
-14.1324 -57.5325 -14.8818 -0.533151 -0.731763 -0.424586
-11.055 -55.5672 -22.015 -0.544853 -0.720233 -0.429418
-7.98849 -53.5265 -29.1086 -0.579703 -0.67044 -0.463093
-0.609398 -53.8271 -25.9892 0.0524902 -0.971609 -0.230697
6.70712 -54.2495 -22.8688 0.0367205 -0.978672 -0.202119
14.0613 -54.5224 -19.7636 0.0503181 -0.984947 -0.165371
21.5026 -54.6211 -16.6343 0.0277083 -0.990962 -0.131251
-3.74551 -55.5878 -18.6934 0.0700622 -0.975713 -0.207546
3.63566 -55.7579 -15.5961 0.0687672 -0.980879 -0.182063
10.9431 -55.7779 -12.4764 0.0709727 -0.987334 -0.141893
18.3238 -55.5655 -9.27109 0.0602158 -0.991121 -0.11855
-6.80599 -57.2195 -11.5669 0.0913398 -0.97793 -0.187912
0.506837 -57.4248 -8.47561 0.08595 -0.982196 -0.167046
7.86044 -57.0065 -5.28013 0.105238 -0.98514 -0.135737
15.1727 -56.6817 -2.01988 0.0808542 -0.990028 -0.115356
-9.88926 -58.9321 -4.41002 0.126342 -0.979096 -0.1594
-2.59204 -58.7514 -1.19547 0.092463 -0.987817 -0.125175
4.76338 -58.3714 2.04317 0.10482 -0.989513 -0.0993799
12.0863 -57.7896 5.21891 0.0990579 -0.990393 -0.0964834
3 273 272 1
3 272 271 2
3 271 270 3
3 270 269 4
3 269 268 5
3 0 1 7
3 1 2 8
3 2 3 9
3 3 4 10
3 4 5 11
3 6 7 13
3 7 8 14
3 8 9 15
3 9 10 16
3 10 11 17
3 12 13 19
3 13 14 20
3 14 15 21
3 15 16 22
3 16 17 23
3 18 19 25
3 19 20 26
3 20 21 27
3 21 22 28
3 22 23 29
3 273 0 30
3 0 6 31
3 6 12 32
3 12 18 33
3 18 24 34
3 279 30 36
3 30 31 37
3 31 32 38
3 32 33 39
3 33 34 40
3 35 36 42
3 36 37 43
3 37 38 44
3 38 39 45
3 39 40 46
3 41 42 48
3 42 43 49
3 43 44 50
3 44 45 51
3 45 46 52
3 47 48 54
3 48 49 55
3 49 50 56
3 50 51 57
3 51 52 58
3 53 54 60
3 54 55 61
3 55 56 62
3 56 57 63
3 57 58 64
3 59 60 66
3 60 61 67
3 61 62 68
3 62 63 69
3 63 64 70
3 65 66 72
3 66 67 73
3 67 68 74
3 68 69 75
3 69 70 76
3 71 72 78
3 72 73 79
3 73 74 80
3 74 75 81
3 75 76 82
3 77 78 84
3 78 79 85
3 79 80 86
3 80 81 87
3 81 82 88
3 83 84 90
3 84 85 91
3 85 86 92
3 86 87 93
3 87 88 94
3 89 90 96
3 90 91 97
3 91 92 98
3 92 93 99
3 93 94 100
3 95 96 102
3 96 97 103
3 97 98 104
3 98 99 105
3 99 100 106
3 101 102 108
3 102 103 109
3 103 104 110
3 104 105 111
3 105 106 112
3 107 108 114
3 108 109 115
3 109 110 116
3 110 111 117
3 111 112 118
3 24 25 119
3 25 26 120
3 26 27 121
3 27 28 122
3 28 29 123
3 34 119 124
3 119 120 125
3 120 121 126
3 121 122 127
3 122 123 128
3 40 124 129
3 124 125 130
3 125 126 131
3 126 127 132
3 127 128 133
3 46 129 134
3 129 130 135
3 130 131 136
3 131 132 137
3 132 133 138
3 52 134 139
3 134 135 140
3 135 136 141
3 136 137 142
3 137 138 143
3 58 139 144
3 139 140 145
3 140 141 146
3 141 142 147
3 142 143 148
3 64 144 149
3 144 145 150
3 145 146 151
3 146 147 152
3 147 148 153
3 70 149 154
3 149 150 155
3 150 151 156
3 151 152 157
3 152 153 158
3 76 154 159
3 154 155 160
3 155 156 161
3 156 157 162
3 157 158 163
3 82 159 164
3 159 160 165
3 160 161 166
3 161 162 167
3 162 163 168
3 88 164 169
3 164 165 170
3 165 166 171
3 166 167 172
3 167 168 173
3 94 169 174
3 169 170 175
3 170 171 176
3 171 172 177
3 172 173 178
3 100 174 179
3 174 175 180
3 175 176 181
3 176 177 182
3 177 178 183
3 106 179 184
3 179 180 185
3 180 181 186
3 181 182 187
3 182 183 188
3 112 184 189
3 184 185 190
3 185 186 191
3 186 187 192
3 187 188 193
3 29 23 194
3 23 17 195
3 17 11 196
3 11 5 197
3 5 268 274
3 123 194 198
3 194 195 199
3 195 196 200
3 196 197 201
3 197 274 202
3 128 198 203
3 198 199 204
3 199 200 205
3 200 201 206
3 201 202 207
3 133 203 208
3 203 204 209
3 204 205 210
3 205 206 211
3 206 207 212
3 138 208 213
3 208 209 214
3 209 210 215
3 210 211 216
3 211 212 217
3 143 213 218
3 213 214 219
3 214 215 220
3 215 216 221
3 216 217 222
3 148 218 223
3 218 219 224
3 219 220 225
3 220 221 226
3 221 222 227
3 153 223 228
3 223 224 229
3 224 225 230
3 225 226 231
3 226 227 232
3 158 228 233
3 228 229 234
3 229 230 235
3 230 231 236
3 231 232 237
3 163 233 238
3 233 234 239
3 234 235 240
3 235 236 241
3 236 237 242
3 168 238 243
3 238 239 244
3 239 240 245
3 240 241 246
3 241 242 247
3 173 243 248
3 243 244 249
3 244 245 250
3 245 246 251
3 246 247 252
3 178 248 253
3 248 249 254
3 249 250 255
3 250 251 256
3 251 252 257
3 183 253 258
3 253 254 259
3 254 255 260
3 255 256 261
3 256 257 262
3 188 258 263
3 258 259 264
3 259 260 265
3 260 261 266
3 261 262 267
3 268 269 275
3 269 270 276
3 270 271 277
3 271 272 278
3 272 273 279
3 274 275 280
3 275 276 281
3 276 277 282
3 277 278 283
3 278 279 35
3 202 280 284
3 280 281 285
3 281 282 286
3 282 283 287
3 283 35 41
3 207 284 288
3 284 285 289
3 285 286 290
3 286 287 291
3 287 41 47
3 212 288 292
3 288 289 293
3 289 290 294
3 290 291 295
3 291 47 53
3 217 292 296
3 292 293 297
3 293 294 298
3 294 295 299
3 295 53 59
3 222 296 300
3 296 297 301
3 297 298 302
3 298 299 303
3 299 59 65
3 227 300 304
3 300 301 305
3 301 302 306
3 302 303 307
3 303 65 71
3 232 304 308
3 304 305 309
3 305 306 310
3 306 307 311
3 307 71 77
3 237 308 312
3 308 309 313
3 309 310 314
3 310 311 315
3 311 77 83
3 242 312 316
3 312 313 317
3 313 314 318
3 314 315 319
3 315 83 89
3 247 316 320
3 316 317 321
3 317 318 322
3 318 319 323
3 319 89 95
3 252 320 324
3 320 321 325
3 321 322 326
3 322 323 327
3 323 95 101
3 257 324 328
3 324 325 329
3 325 326 330
3 326 327 331
3 327 101 107
3 262 328 332
3 328 329 333
3 329 330 334
3 330 331 335
3 331 107 113
3 113 114 336
3 114 115 337
3 115 116 338
3 116 117 339
3 117 118 189
3 335 336 340
3 336 337 341
3 337 338 342
3 338 339 343
3 339 189 190
3 334 340 344
3 340 341 345
3 341 342 346
3 342 343 347
3 343 190 191
3 333 344 348
3 344 345 349
3 345 346 350
3 346 347 351
3 347 191 192
3 332 348 266
3 348 349 265
3 349 350 264
3 350 351 263
3 351 192 193
3 273 1 0
3 272 2 1
3 271 3 2
3 270 4 3
3 269 5 4
3 0 7 6
3 1 8 7
3 2 9 8
3 3 10 9
3 4 11 10
3 6 13 12
3 7 14 13
3 8 15 14
3 9 16 15
3 10 17 16
3 12 19 18
3 13 20 19
3 14 21 20
3 15 22 21
3 16 23 22
3 18 25 24
3 19 26 25
3 20 27 26
3 21 28 27
3 22 29 28
3 273 30 279
3 0 31 30
3 6 32 31
3 12 33 32
3 18 34 33
3 279 36 35
3 30 37 36
3 31 38 37
3 32 39 38
3 33 40 39
3 35 42 41
3 36 43 42
3 37 44 43
3 38 45 44
3 39 46 45
3 41 48 47
3 42 49 48
3 43 50 49
3 44 51 50
3 45 52 51
3 47 54 53
3 48 55 54
3 49 56 55
3 50 57 56
3 51 58 57
3 53 60 59
3 54 61 60
3 55 62 61
3 56 63 62
3 57 64 63
3 59 66 65
3 60 67 66
3 61 68 67
3 62 69 68
3 63 70 69
3 65 72 71
3 66 73 72
3 67 74 73
3 68 75 74
3 69 76 75
3 71 78 77
3 72 79 78
3 73 80 79
3 74 81 80
3 75 82 81
3 77 84 83
3 78 85 84
3 79 86 85
3 80 87 86
3 81 88 87
3 83 90 89
3 84 91 90
3 85 92 91
3 86 93 92
3 87 94 93
3 89 96 95
3 90 97 96
3 91 98 97
3 92 99 98
3 93 100 99
3 95 102 101
3 96 103 102
3 97 104 103
3 98 105 104
3 99 106 105
3 101 108 107
3 102 109 108
3 103 110 109
3 104 111 110
3 105 112 111
3 107 114 113
3 108 115 114
3 109 116 115
3 110 117 116
3 111 118 117
3 24 119 34
3 25 120 119
3 26 121 120
3 27 122 121
3 28 123 122
3 34 124 40
3 119 125 124
3 120 126 125
3 121 127 126
3 122 128 127
3 40 129 46
3 124 130 129
3 125 131 130
3 126 132 131
3 127 133 132
3 46 134 52
3 129 135 134
3 130 136 135
3 131 137 136
3 132 138 137
3 52 139 58
3 134 140 139
3 135 141 140
3 136 142 141
3 137 143 142
3 58 144 64
3 139 145 144
3 140 146 145
3 141 147 146
3 142 148 147
3 64 149 70
3 144 150 149
3 145 151 150
3 146 152 151
3 147 153 152
3 70 154 76
3 149 155 154
3 150 156 155
3 151 157 156
3 152 158 157
3 76 159 82
3 154 160 159
3 155 161 160
3 156 162 161
3 157 163 162
3 82 164 88
3 159 165 164
3 160 166 165
3 161 167 166
3 162 168 167
3 88 169 94
3 164 170 169
3 165 171 170
3 166 172 171
3 167 173 172
3 94 174 100
3 169 175 174
3 170 176 175
3 171 177 176
3 172 178 177
3 100 179 106
3 174 180 179
3 175 181 180
3 176 182 181
3 177 183 182
3 106 184 112
3 179 185 184
3 180 186 185
3 181 187 186
3 182 188 187
3 112 189 118
3 184 190 189
3 185 191 190
3 186 192 191
3 187 193 192
3 29 194 123
3 23 195 194
3 17 196 195
3 11 197 196
3 5 274 197
3 123 198 128
3 194 199 198
3 195 200 199
3 196 201 200
3 197 202 201
3 128 203 133
3 198 204 203
3 199 205 204
3 200 206 205
3 201 207 206
3 133 208 138
3 203 209 208
3 204 210 209
3 205 211 210
3 206 212 211
3 138 213 143
3 208 214 213
3 209 215 214
3 210 216 215
3 211 217 216
3 143 218 148
3 213 219 218
3 214 220 219
3 215 221 220
3 216 222 221
3 148 223 153
3 218 224 223
3 219 225 224
3 220 226 225
3 221 227 226
3 153 228 158
3 223 229 228
3 224 230 229
3 225 231 230
3 226 232 231
3 158 233 163
3 228 234 233
3 229 235 234
3 230 236 235
3 231 237 236
3 163 238 168
3 233 239 238
3 234 240 239
3 235 241 240
3 236 242 241
3 168 243 173
3 238 244 243
3 239 245 244
3 240 246 245
3 241 247 246
3 173 248 178
3 243 249 248
3 244 250 249
3 245 251 250
3 246 252 251
3 178 253 183
3 248 254 253
3 249 255 254
3 250 256 255
3 251 257 256
3 183 258 188
3 253 259 258
3 254 260 259
3 255 261 260
3 256 262 261
3 188 263 193
3 258 264 263
3 259 265 264
3 260 266 265
3 261 267 266
3 268 275 274
3 269 276 275
3 270 277 276
3 271 278 277
3 272 279 278
3 274 280 202
3 275 281 280
3 276 282 281
3 277 283 282
3 278 35 283
3 202 284 207
3 280 285 284
3 281 286 285
3 282 287 286
3 283 41 287
3 207 288 212
3 284 289 288
3 285 290 289
3 286 291 290
3 287 47 291
3 212 292 217
3 288 293 292
3 289 294 293
3 290 295 294
3 291 53 295
3 217 296 222
3 292 297 296
3 293 298 297
3 294 299 298
3 295 59 299
3 222 300 227
3 296 301 300
3 297 302 301
3 298 303 302
3 299 65 303
3 227 304 232
3 300 305 304
3 301 306 305
3 302 307 306
3 303 71 307
3 232 308 237
3 304 309 308
3 305 310 309
3 306 311 310
3 307 77 311
3 237 312 242
3 308 313 312
3 309 314 313
3 310 315 314
3 311 83 315
3 242 316 247
3 312 317 316
3 313 318 317
3 314 319 318
3 315 89 319
3 247 320 252
3 316 321 320
3 317 322 321
3 318 323 322
3 319 95 323
3 252 324 257
3 320 325 324
3 321 326 325
3 322 327 326
3 323 101 327
3 257 328 262
3 324 329 328
3 325 330 329
3 326 331 330
3 327 107 331
3 262 332 267
3 328 333 332
3 329 334 333
3 330 335 334
3 331 113 335
3 113 336 335
3 114 337 336
3 115 338 337
3 116 339 338
3 117 189 339
3 335 340 334
3 336 341 340
3 337 342 341
3 338 343 342
3 339 190 343
3 334 344 333
3 340 345 344
3 341 346 345
3 342 347 346
3 343 191 347
3 333 348 332
3 344 349 348
3 345 350 349
3 346 351 350
3 347 192 351
3 332 266 267
3 348 265 266
3 349 264 265
3 350 263 264
3 351 193 263
