ply
format ascii 1.0
element vertex 352
property float x
property float y
property float z
property float nx
property float ny
property float nz
element face 700
property list uchar int vertex_indices
end_header
-19.1554 50.0485 -14.8737 0.0546502 0.612101 -0.788889
-19.9922 52.4299 -9.31799 -0.0531031 0.971046 -0.232915
-21.3125 54.1091 -0.113794 -0.26861 0.960455 -0.0733093
-16.5794 52.2348 7.40981 -0.570637 -0.598468 0.562325
-12.4179 55.8942 10.0556 0.0954134 -0.99488 0.0333079
2.67664 55.3262 11.2894 -0.36056 -0.916418 -0.173708
-11.3341 51.5452 -14.072 0.020823 0.637505 -0.770165
-10.886 52.502 -6.25377 -0.104599 0.98115 -0.162494
-10.4764 53.379 1.99219 -8.10581e-05 0.915631 -0.402021
-14.7431 59.4433 8.63655 -0.32241 0.936458 -0.138199
-11.7571 57.3107 16.4194 -0.781181 0.271033 0.562403
-7.81754 57.5367 20.5682 -0.704862 -0.612047 -0.358564
-1.61338 52.2321 -12.9309 -0.0872866 0.675868 -0.731836
-3.05201 54.0494 -4.83062 -0.113165 0.974564 -0.193437
-3.06048 55.5088 2.21599 -0.0957805 0.951958 -0.290865
-2.38822 59.6808 9.06232 0.0544524 0.960135 -0.274181
-4.83869 59.7319 20.8795 -0.0718719 0.992296 0.100914
-4.66169 58.6685 26.766 -0.617652 0.31908 0.718814
5.76713 55.0848 -12.4375 -0.0742809 0.714935 -0.695234
5.59794 55.1403 -4.78361 -0.185635 0.969401 -0.160625
4.10498 56.1172 2.10845 -0.183361 0.964949 -0.187755
4.3098 57.6474 9.83503 -0.0140802 0.9777 -0.209534
6.86504 59.1393 19.6903 0.0535119 0.998521 0.00957668
3.2136 58.2555 27.2958 -0.0423397 0.638123 0.76877
13.1981 55.7942 -11.0356 0.771823 0.528193 -0.353979
13.492 56.3549 -3.59354 0.603745 0.788747 -0.115631
13.184 58.5696 2.41447 0.533359 0.834319 -0.139432
11.3264 59.6737 10.1632 0.461182 0.88665 -0.0340915
11.3793 59.5397 19.2233 0.644974 0.763839 -0.0236387
12.6079 58.604 27.3642 0.231817 0.680085 0.695518
-16.7688 43.006 -15.3292 0.137322 -0.0080594 -0.990494
-9.88467 44.1787 -13.614 0.23319 -0.0954859 -0.967732
-0.918219 45.7586 -11.5057 0.0779884 -0.179404 -0.98068
5.64363 47.7453 -12.2599 0.027499 -0.0888426 -0.995666
14.4249 49.605 -11.6314 0.730235 0.155223 -0.665329
-28.9057 30.1574 -10.6311 -0.517759 -0.498944 -0.694968
-13.0181 33.1937 -14.8186 0.0847695 -0.346814 -0.934096
-8.37344 36.5614 -11.6775 0.365353 -0.203708 -0.908306
0.404249 38.3839 -9.39707 0.0453092 -0.259125 -0.96478
6.59643 39.9776 -11.2393 -0.0834001 -0.138978 -0.986777
14.9569 42.6874 -11.3983 0.628807 0.0926995 -0.772016
-24.0578 23.0359 -8.60905 0.591118 0.340991 -0.730961
-13.603 22.6088 -7.85112 0.0702515 -0.293126 -0.953489
-6.32279 28.3189 -7.33578 0.259026 -0.204365 -0.944002
1.65813 31.1169 -6.8413 -0.0713089 -0.201588 -0.976871
8.11019 32.6143 -10.4179 -0.214679 -0.174806 -0.960914
16.4325 34.9922 -11.2254 0.567588 0.0718182 -0.820175
-23.2632 16.8265 -14.666 0.902191 0.421513 0.091536
-12.7082 17.1128 -9.2029 0.170121 0.523333 -0.834974
-5.2732 20.5665 -7.85949 0.0307952 0.263737 -0.964103
2.6044 23.1888 -7.64088 -0.0824547 0.0733635 -0.993891
10.8658 25.4027 -9.82803 -0.204419 -0.126155 -0.97072
18.1661 27.0099 -10.9176 0.540623 0.044707 -0.840076
-17.3922 16.3994 -25.6763 0.744209 0.496504 0.446807
-10.2692 9.92746 -13.974 0.399193 0.867154 -0.297807
-2.69261 13.1961 -11.6663 0.133557 0.554076 -0.821683
5.34875 14.0553 -9.36467 0.129442 0.292884 -0.947346
12.6468 16.7217 -8.76233 -0.0621397 -0.0491247 -0.996858
20.3221 19.1666 -9.78828 0.609671 -0.00775531 -0.792616
-10.6772 11.243 -29.7862 0.762848 0.556851 -0.328603
-4.46837 6.00718 -23.2716 0.59331 0.7776 -0.208135
0.477012 6.65518 -16.9376 0.345749 0.729514 -0.590141
9.35568 6.11635 -12.015 0.408002 0.489089 -0.770925
14.4752 8.87714 -8.50116 0.101769 0.0954297 -0.99022
22.5788 12.0215 -9.05947 0.699784 0.0380796 -0.713339
-11.9574 4.23235 -30.8144 -0.358344 0.219715 -0.907367
-5.44134 1.839 -26.3716 0.535073 0.352414 -0.76779
1.90978 2.42702 -21.4579 0.470728 0.688327 -0.551925
12.7279 -0.366354 -14.3003 0.481914 0.6809 -0.551484
16.1963 1.96616 -8.6846 0.261654 0.326266 -0.908343
24.0642 5.11926 -9.44487 0.737365 0.212487 -0.641204
-13.2346 -2.84929 -30.9874 -0.652554 0.0038878 -0.757732
-8.23518 -2.40382 -29.515 0.258212 0.179649 -0.949238
1.64562 -2.20895 -26.728 0.42197 0.439164 -0.793144
15.24 -4.04796 -18.527 0.558503 0.566705 -0.605738
19.426 -1.77258 -11.3662 0.495579 0.532264 -0.686364
24.8626 -1.6186 -9.44183 0.870225 0.299328 -0.391295
-11.6951 -9.92217 -31.1607 -0.664623 -0.0272955 -0.74668
-8.86945 -10.3057 -29.6476 0.132918 -0.0490944 -0.98991
0.18077 -9.56088 -29.5964 0.320072 0.0626814 -0.945317
16.7256 -11.0351 -21.095 0.59015 0.215917 -0.777883
21.6521 -9.46585 -13.7497 0.707761 0.262462 -0.655887
26.0387 -8.89535 -10.4281 0.911284 0.157814 -0.380337
-11.4042 -19.2477 -31.1769 -0.46352 -0.0562058 -0.884302
-7.22779 -17.7196 -28.5767 0.355287 -0.193743 -0.914459
-0.929931 -17.0956 -28.5376 0.214169 -0.405722 -0.88855
15.9599 -18.5555 -22.28 0.459529 -0.27496 -0.84453
21.5266 -17.2122 -15.3294 0.724609 -0.0282256 -0.688582
25.2673 -16.5365 -11.913 0.910014 0.00414149 -0.414558
-11.8961 -27.1815 -29.7446 -0.327248 -0.108127 -0.938732
-5.27788 -26.1429 -26.0615 0.538196 -0.144838 -0.830282
-0.655892 -23.9382 -23.7319 0.341034 -0.36152 -0.867755
11.7291 -24.8051 -18.4431 0.312709 -0.445231 -0.839037
18.8648 -24.726 -15.4744 0.426592 -0.233964 -0.873659
24.3244 -24.6815 -13.0229 0.881121 -0.0645635 -0.468463
-11.8023 -34.6369 -29.1292 -0.289579 -0.0474931 -0.955975
-5.18353 -33.8356 -25.1188 0.585717 -0.0320748 -0.809881
0.407989 -31.6262 -20.65 0.433811 -0.115921 -0.893516
9.45406 -32.9791 -17.2364 0.327738 -0.0951032 -0.93997
16.8102 -32.2088 -14.7983 0.24505 -0.0207062 -0.969289
24.7952 -32.8562 -13.8963 0.851502 0.0196531 -0.523982
-11.8888 -42.0626 -28.6077 -0.349654 -0.0777644 -0.933646
-4.79065 -41.4641 -25.2254 0.521808 0.0769234 -0.849588
1.27302 -40.1974 -19.5574 0.437642 0.147178 -0.887022
9.6886 -40.3264 -17.9386 0.259929 0.116899 -0.958526
17.3911 -40.542 -16.0667 0.257666 0.12544 -0.958057
25.4692 -40.4527 -14.1668 0.834528 0.0795159 -0.545198
-11.9371 -49.6059 -27.9628 -0.389363 -0.0663699 -0.91869
-4.36181 -49.1335 -25.2194 0.367428 0.00947126 -0.930004
2.73352 -48.3692 -22.2074 0.387855 0.160771 -0.907591
10.7373 -48.5972 -19.7367 0.294079 0.167947 -0.94091
18.2536 -48.8398 -17.0479 0.316854 0.118403 -0.941055
25.7067 -48.7944 -14.4738 0.875713 0.0594041 -0.479164
-11.8096 -57.7292 -27.7907 -0.469411 -0.702246 -0.535261
-4.1918 -57.2008 -25.217 0.269944 -0.689228 -0.67238
3.35777 -56.7036 -22.6531 0.269016 -0.660481 -0.700996
10.9333 -56.6824 -20.061 0.249444 -0.650979 -0.716941
18.4313 -56.6803 -17.5092 0.231986 -0.685126 -0.690496
25.795 -56.9253 -14.8504 0.664942 -0.361992 -0.65331
13.0196 50.1579 -3.97593 0.978642 0.203037 0.0321751
13.2658 50.5266 3.02734 0.97887 0.191544 -0.0715785
13.4346 52.649 10.7312 0.95194 0.302172 0.0500222
12.6686 53.2174 19.6824 0.965297 0.242029 0.0981033
12.4027 51.863 28.5782 0.673303 0.0105879 0.739291
15.784 42.909 -3.19154 0.955541 0.294843 0.00281273
15.8957 43.1184 3.33645 0.958243 0.266013 -0.104914
16.9765 44.7588 11.9354 0.958137 0.285813 0.0168395
15.2843 45.2929 21.3163 0.9314 0.264292 0.250287
12.8273 43.8582 28.4529 0.465368 0.0765053 0.881805
18.6919 35.371 -3.21878 0.970432 0.236566 -0.0479425
17.7366 35.2021 4.28794 0.990126 0.109148 0.087964
18.6278 36.4041 12.47 0.998766 -0.0229483 -0.044036
16.9234 36.1758 21.8805 0.932699 0.127037 0.33754
13.6227 35.3377 27.5047 0.337831 0.0260592 0.940846
20.1943 27.0963 -3.32398 0.975599 0.205153 -0.0782229
18.908 27.3499 4.89327 0.915764 0.249897 0.314528
15.0461 27.7224 11.1931 0.996855 -0.0693135 0.0384158
17.7607 26.6969 21.8699 0.981966 -0.112592 0.151878
13.3172 26.3893 27.8109 0.278138 0.0543577 0.959002
21.3256 21.0264 -2.41885 0.986859 0.0887272 -0.135044
21.2708 20.1925 5.54585 0.924954 0.199818 0.323316
17.1646 19.7572 13.1069 0.932593 0.134599 0.334894
16.1412 18.4028 21.318 0.982108 -0.0913154 0.164696
13.0621 18.9001 28.5012 0.288285 -0.103769 0.951905
20.5853 13.2374 -1.76107 0.994598 -0.0179743 -0.102235
22.6928 13.4144 5.48249 0.966208 0.0203098 0.256961
17.231 12.143 12.5693 0.907966 0.0162007 0.418731
15.1346 11.7268 21.1209 0.956972 -0.0588066 0.28416
12.1795 11.7495 27.9434 0.25217 -0.137125 0.957918
19.6374 6.16392 -3.13473 0.987929 0.129577 0.0848926
22.5479 5.55362 4.20748 0.988026 0.0724829 0.136202
17.4222 4.82844 12.0802 0.885955 0.10469 0.451801
15.4459 5.11009 19.552 0.946506 0.0389759 0.320324
12.3455 5.14206 27.4882 0.304305 -0.0721198 0.949841
22.3345 -0.870018 -2.68832 0.940794 0.299631 0.158518
23.4187 -2.35074 3.87486 0.950539 0.272102 0.149787
19.5686 -2.47006 12.9514 0.857017 0.255009 0.447763
16.0475 -0.988603 20.6195 0.902081 0.130927 0.411227
13.0276 -1.71749 26.2622 0.262777 0.0129435 0.96477
24.9209 -8.58971 -3.17817 0.976476 0.212696 0.0354398
25.9675 -9.93161 4.22419 0.954892 0.245111 0.167637
22.7979 -10.8698 14.0768 0.835269 0.225287 0.501569
16.5537 -9.26423 20.7587 0.82776 0.105576 0.551061
13.3769 -9.7952 26.2563 0.238272 -0.020657 0.970979
26.268 -16.9695 -3.90326 0.995899 0.0301869 -0.0852873
27.7267 -18.3491 4.38114 0.992043 0.0261899 0.123148
24.1692 -19.5083 13.7588 0.846277 0.0258427 0.532116
18.001 -17.9739 19.2833 0.776898 -0.000293446 0.629627
13.8961 -18.0222 25.8085 0.287734 -0.0470507 0.956554
26.3407 -25.182 -4.60079 0.97776 -0.170134 -0.122634
26.698 -26.3408 3.14305 0.96645 -0.241747 0.0867958
23.3953 -26.8636 13.0353 0.86034 -0.210721 0.464124
18.1335 -26.6074 18.1138 0.799347 -0.103897 0.591819
14.7767 -26.6308 24.407 0.332523 -0.104947 0.937238
23.9061 -32.9903 -5.85077 0.988396 -0.144668 0.0463091
23.2994 -33.6642 1.89331 0.950746 -0.29844 0.0837548
21.6298 -34.3303 11.0291 0.897052 -0.2847 0.338
17.4436 -34.4422 16.9083 0.860718 -0.158966 0.483627
14.6546 -34.747 24.1745 0.335436 -0.0814482 0.938536
23.481 -40.8957 -6.48184 0.973898 -0.0364165 0.224045
21.7214 -41.5859 1.14185 0.970418 -0.152867 0.186872
20.0898 -42.3817 9.40366 0.94078 -0.20599 0.269259
16.7664 -42.2866 16.3273 0.905957 -0.122229 0.405341
14.0301 -42.4847 23.7549 0.382303 -0.0711972 0.92129
23.3883 -48.864 -6.97589 0.956338 -0.00826828 0.292148
21.025 -49.3498 0.541992 0.95692 -0.0502911 0.285962
18.6705 -49.7241 8.143 0.954178 -0.110312 0.278164
16.1994 -50.0124 15.7962 0.938727 -0.0908466 0.332474
13.6142 -50.2809 23.3838 0.423732 -0.0633495 0.90357
23.4848 -56.9401 -7.23521 0.678016 -0.708329 0.196379
20.978 -57.3577 0.320476 0.661123 -0.72647 0.187505
18.4651 -57.7991 7.84704 0.655043 -0.734514 0.177222
15.9523 -57.9086 15.4663 0.64589 -0.738575 0.193218
13.3159 -58.1357 23.0989 0.504643 -0.708842 0.492826
5.21091 50.9986 27.6283 -0.116318 -0.123838 0.985462
-4.5216 49.7224 25.9951 -0.437831 -0.17223 0.882406
-8.50949 49.5467 19.8278 -0.952887 0.226478 -0.201776
1.45882 48.022 12.0867 -0.680577 0.343534 -0.647147
5.92445 43.2779 25.403 -0.250923 -0.107014 0.962074
-2.28087 43.0059 23.9616 -0.3822 -0.216658 0.898322
-8.15359 42.0832 18.9814 -0.895778 -0.0379207 0.442881
-7.62299 42.4165 12.194 -0.656185 0.58631 -0.475039
-2.56981 41.6649 9.97256 -0.686023 0.681547 -0.254686
5.57204 34.9833 25.471 -0.334663 -0.0658576 0.940034
-2.51299 35.0801 23.2799 -0.425462 -0.155082 0.89159
-8.37706 34.8015 17.9293 -0.786464 -0.0195227 0.617327
-11.2957 36.535 10.2433 -0.86641 0.217988 0.449239
-14.2038 36.9776 7.71517 -0.412253 0.722589 -0.554899
4.7712 26.465 25.3139 -0.463045 -0.00950777 0.886284
-1.39414 26.6368 20.677 -0.502122 -0.242853 0.829998
-8.16821 26.7866 16.6417 -0.613419 -0.228433 0.755999
-13.5359 27.6976 10.7529 -0.773841 0.0697331 0.629529
-17.189 30.4308 5.384 -0.957874 0.287085 -0.007738
4.29285 19.7523 25.3207 -0.562039 -0.0745887 0.823741
-0.779969 19.1022 18.7883 -0.64254 -0.132369 0.754732
-6.31243 19.5767 14.5749 -0.554755 -0.163075 0.815876
-13.2597 19.485 10.2029 -0.59104 -0.0735198 0.803285
-19.542 21.7709 5.20126 -0.990052 0.140606 -0.00516613
4.94895 12.9483 23.8575 -0.57623 -0.0921283 0.812079
-0.229325 10.8538 17.2928 -0.671734 -0.0422394 0.739587
-6.82631 11.1255 14.2926 -0.538271 -0.0908998 0.837855
-13.4108 12.3288 9.71965 -0.510338 -0.0740412 0.856781
-20.7519 13.4262 5.80433 -0.997132 0.0256786 0.0711884
5.86802 6.25009 23.0719 -0.486443 0.0160583 0.873565
-1.6146 4.14899 18.4461 -0.648318 0.322287 0.689793
-6.10759 3.24498 13.6623 -0.619558 0.270286 0.736949
-12.5966 4.11405 8.82049 -0.513216 0.020996 0.858002
-20.0231 5.14896 5.57261 -0.968947 -0.0366767 0.244534
5.65567 -1.43599 22.9937 -0.281489 0.0423919 0.958628
-2.51878 -1.94588 21.7188 -0.438093 0.301208 0.846964
-9.89592 -2.97128 16.4917 -0.646528 0.443715 0.62058
-14.8287 -1.45955 9.49985 -0.588207 0.360955 0.723688
-20.7252 -0.870352 6.18021 -0.966886 0.232751 0.104679
5.32597 -9.05364 23.5587 -0.159998 -0.0130727 0.987031
-3.08411 -9.83132 23.6618 -0.279755 0.0942342 0.955436
-11.8896 -11.1556 18.8618 -0.649064 0.221184 0.727869
-17.2535 -8.97617 10.8526 -0.695545 0.27919 0.66202
-21.7979 -8.2299 6.95362 -0.94983 0.269708 0.158367
5.49954 -17.1088 22.8481 -0.191773 -0.0974149 0.976593
-2.65206 -18.0115 23.3976 -0.158294 -0.185853 0.969743
-12.1038 -18.9735 19.4144 -0.582903 -0.106166 0.805576
-18.2276 -17.3207 12.3423 -0.673625 0.0428624 0.73783
-23.4318 -16.3918 8.14327 -0.961448 0.112024 0.251134
5.86298 -25.5426 22.8542 -0.277158 -0.159953 0.947417
-1.76731 -25.4673 20.8168 -0.202447 -0.293886 0.934155
-10.7634 -25.9066 17.8803 -0.461833 -0.274514 0.843417
-15.7615 -25.5167 12.4465 -0.551731 -0.112832 0.826354
-23.6517 -25.0765 9.47891 -0.934061 -0.0352282 0.355371
6.36755 -33.7604 21.3333 -0.348709 -0.0845134 0.933413
-0.784595 -33.5202 17.7399 -0.323802 -0.176887 0.929443
-9.14755 -33.4163 15.8869 -0.334479 -0.217982 0.916847
-15.4363 -33.1769 12.2115 -0.432875 -0.0561088 0.899706
-23.1158 -33.1042 9.96356 -0.905745 0.00680116 0.423769
6.16612 -41.6841 20.7383 -0.351673 -0.0184789 0.93594
-1.08306 -41.4302 17.9289 -0.372563 0.025238 0.927664
-8.42892 -41.2289 14.9845 -0.333682 -0.000674206 0.942685
-15.9377 -40.9917 12.2144 -0.345689 0.0104528 0.938291
-23.6444 -40.7824 10.0011 -0.888605 0.0498869 0.455953
5.98929 -49.836 20.7097 -0.337632 -0.00795418 0.941244
-1.50489 -49.3193 17.9991 -0.334165 0.00972632 0.942464
-9.12084 -49.3672 15.4219 -0.34018 0.0357365 0.939681
-16.4968 -49.1572 12.6358 -0.341095 0.0529074 0.938539
-24.0163 -48.7885 9.93498 -0.88852 0.0492454 0.456187
5.82344 -57.9242 20.51 -0.243403 -0.725569 0.643664
-1.69108 -57.7002 17.9543 -0.255904 -0.705253 0.661159
-9.33059 -57.2138 15.3346 -0.257943 -0.705129 0.660499
-16.7942 -56.9993 12.7628 -0.259982 -0.709755 0.654719
-24.2313 -56.8298 10.1592 -0.676172 -0.376685 0.633167
-0.167609 58.751 5.94897 -0.765772 0.0790997 0.638229
-4.76094 56.5846 -0.160929 -0.0614173 -0.961995 0.266071
-15.4906 55.1821 0.861552 0.386423 -0.717798 0.579174
-23.2488 50.9798 1.84897 -0.520235 -0.22351 0.824256
-27.7337 51.4871 -4.72775 -0.865517 0.489893 0.104331
-27.0565 48.9813 -15.6575 -0.400876 0.541124 -0.739245
0.753167 50.3302 7.23027 -0.823681 0.179244 0.537978
-5.65835 50.655 1.86767 -0.769199 -0.00145069 0.639008
-9.96326 50.322 -2.81961 0.212591 -0.577579 0.788167
-21.9054 42.7104 0.0657976 0.299062 -0.566686 0.767743
-26.3187 42.6963 -5.23961 -0.849816 -0.161143 0.501842
-28.93 41.4082 -14.9932 -0.672127 -0.142215 -0.72665
-4.62143 43.1779 2.50611 -0.93044 0.125357 0.344336
-9.03178 45.0943 -7.11487 -0.646171 -0.404215 0.647359
-17.7659 41.4449 -10.1817 0.500274 -0.576929 0.645662
-24.2529 34.1534 -7.58288 0.212924 -0.412876 0.885549
-8.07221 33.2316 2.26721 -0.736158 0.54521 -0.401022
-6.82498 35.1755 -7.084 -0.949507 -0.0823894 0.302734
-13.1281 35.6938 -15.3741 -0.054166 -0.512209 0.857151
-22.2807 27.5846 -11.0896 0.732819 -0.297721 0.611833
-13.9848 28.1134 -0.332527 -0.54602 0.441315 -0.712112
-6.34396 25.6532 -6.50706 -0.973205 0.161012 -0.164155
-10.4094 28.4704 -16.5962 -0.810879 -0.301758 0.501415
-15.7771 27.1779 -20.9298 0.56034 -0.463473 0.686448
-14.2733 21.0111 -1.00397 -0.783441 0.175606 -0.59614
-8.90274 19.18 -6.87246 -0.800337 0.331252 -0.499733
-7.53193 20.1895 -16.0982 -0.972674 0.0160749 0.23162
-12.0405 21.6327 -23.9262 -0.561772 -0.403459 0.722242
-14.0888 12.9729 -2.04319 -0.893235 0.126323 -0.431478
-13.072 12.4287 -8.10144 -0.777375 0.478805 -0.407964
-9.23071 11.4352 -14.259 -0.889669 0.45553 -0.0313104
-11.8273 14.2444 -24.7717 -0.971056 0.21139 0.111197
-14.9836 5.62461 -1.51549 -0.971886 0.10349 -0.21149
-16.9752 5.62895 -8.1705 -0.919781 0.39242 -0.00312292
-15.4863 5.34083 -15.2098 -0.821981 0.517037 -0.238791
-15.0788 5.05882 -24.0165 -0.941053 0.318134 -0.114938
-15.3541 -1.02033 -1.10702 -0.979504 0.149785 -0.13467
-19.7017 -2.3445 -6.57585 -0.94615 0.190358 0.261849
-19.5702 -1.78221 -15.3732 -0.911943 0.29914 -0.280847
-15.6523 -1.81431 -22.931 -0.933469 0.0936683 -0.346212
-18.084 -8.43118 -0.837684 -0.923593 0.288324 -0.252676
-19.6965 -9.98121 -6.5712 -0.952744 0.140804 0.26917
-21.8147 -10.4558 -14.9093 -0.960809 0.127741 -0.246025
-16.3155 -9.67357 -22.7849 -0.851611 0.0667753 -0.519903
-21.728 -16.6558 0.124805 -0.972458 0.083301 -0.217684
-21.4664 -17.472 -6.70554 -0.994919 -0.0245394 0.0976414
-22.6122 -18.1769 -15.0303 -0.976251 -0.026702 -0.21499
-17.0774 -17.9545 -22.5469 -0.824106 0.0139883 -0.566262
-21.1995 -24.6757 1.10414 -0.962389 -0.07684 -0.260584
-18.9665 -25.284 -6.36302 -0.987822 -0.154884 -0.0148024
-20.3581 -25.8518 -15.2028 -0.974325 -0.198433 -0.106376
-16.8269 -25.8858 -22.3138 -0.846607 -0.0716418 -0.527374
-20.4779 -32.6097 1.6168 -0.959665 -0.0413289 -0.278092
-18.6277 -33.1038 -5.99865 -0.991874 -0.0709165 -0.105623
-19.2688 -33.7793 -14.3194 -0.986697 -0.138747 -0.0847233
-16.7298 -33.9619 -22.0249 -0.889913 -0.0898692 -0.44719
-20.991 -40.7719 2.29501 -0.950281 0.0501441 -0.30733
-18.5347 -40.9099 -5.39699 -0.975753 0.000597728 -0.218874
-17.8268 -41.8261 -13.55 -0.982204 -0.134972 -0.13061
-15.7999 -42.3535 -21.1739 -0.926377 -0.1355 -0.351376
-21.4648 -48.7116 2.46196 -0.950558 0.0375083 -0.308273
-19.2585 -49.1514 -5.00356 -0.954765 0.0340478 -0.295405
-16.8572 -49.5222 -12.8656 -0.96699 -0.0477277 -0.250304
-14.7865 -49.9706 -20.5543 -0.949236 -0.102551 -0.297378
-21.778 -56.5995 2.56833 -0.7002 -0.678636 -0.221751
-19.3639 -57.0847 -4.93315 -0.691069 -0.69773 -0.188669
-16.893 -57.6078 -12.5211 -0.672664 -0.715454 -0.18881
-14.248 -57.7579 -20.2518 -0.635762 -0.748027 -0.190426
-6.67041 -57.2952 -17.6541 0.0406893 -0.999067 0.0144893
0.804124 -57.1063 -15.1338 0.0182998 -0.999822 -0.0045319
8.593 -57.1641 -12.5209 0.0229228 -0.999628 -0.0147557
15.9918 -56.7943 -9.87836 0.00614594 -0.999701 -0.0236828
-9.24404 -57.2227 -10.1948 0.0272271 -0.999271 0.0267464
-1.76975 -56.9918 -7.66859 0.0106602 -0.999928 0.00551623
5.94544 -56.9787 -4.9191 0.00384535 -0.999974 -0.00612755
13.4424 -56.813 -2.29256 -0.00714387 -0.999445 -0.0325512
-11.8527 -56.9574 -2.5382 -0.000128316 -0.999916 0.0129588
-4.32656 -57.024 -0.0482091 0.00107394 -0.999852 -0.0171867
3.32546 -57.1278 2.6779 -0.00751559 -0.999461 -0.0319457
10.8904 -57.3482 5.20094 -0.0141831 -0.998719 -0.0485708
-14.4016 -57.0218 5.05223 -0.0356299 -0.999365 0.000268364
-6.81324 -57.3537 7.60564 -0.0241404 -0.999456 -0.0224867
0.753376 -57.4677 10.2284 -0.00776631 -0.999171 -0.0399595
8.29257 -57.679 12.7847 -0.0143721 -0.999001 -0.0423141
3 273 272 1
3 272 271 2
3 271 270 3
3 270 269 4
3 269 268 5
3 0 1 7
3 1 2 8
3 2 3 9
3 3 4 10
3 4 5 11
3 6 7 13
3 7 8 14
3 8 9 15
3 9 10 16
3 10 11 17
3 12 13 19
3 13 14 20
3 14 15 21
3 15 16 22
3 16 17 23
3 18 19 25
3 19 20 26
3 20 21 27
3 21 22 28
3 22 23 29
3 273 0 30
3 0 6 31
3 6 12 32
3 12 18 33
3 18 24 34
3 279 30 36
3 30 31 37
3 31 32 38
3 32 33 39
3 33 34 40
3 35 36 42
3 36 37 43
3 37 38 44
3 38 39 45
3 39 40 46
3 41 42 48
3 42 43 49
3 43 44 50
3 44 45 51
3 45 46 52
3 47 48 54
3 48 49 55
3 49 50 56
3 50 51 57
3 51 52 58
3 53 54 60
3 54 55 61
3 55 56 62
3 56 57 63
3 57 58 64
3 59 60 66
3 60 61 67
3 61 62 68
3 62 63 69
3 63 64 70
3 65 66 72
3 66 67 73
3 67 68 74
3 68 69 75
3 69 70 76
3 71 72 78
3 72 73 79
3 73 74 80
3 74 75 81
3 75 76 82
3 77 78 84
3 78 79 85
3 79 80 86
3 80 81 87
3 81 82 88
3 83 84 90
3 84 85 91
3 85 86 92
3 86 87 93
3 87 88 94
3 89 90 96
3 90 91 97
3 91 92 98
3 92 93 99
3 93 94 100
3 95 96 102
3 96 97 103
3 97 98 104
3 98 99 105
3 99 100 106
3 101 102 108
3 102 103 109
3 103 104 110
3 104 105 111
3 105 106 112
3 107 108 114
3 108 109 115
3 109 110 116
3 110 111 117
3 111 112 118
3 24 25 119
3 25 26 120
3 26 27 121
3 27 28 122
3 28 29 123
3 34 119 124
3 119 120 125
3 120 121 126
3 121 122 127
3 122 123 128
3 40 124 129
3 124 125 130
3 125 126 131
3 126 127 132
3 127 128 133
3 46 129 134
3 129 130 135
3 130 131 136
3 131 132 137
3 132 133 138
3 52 134 139
3 134 135 140
3 135 136 141
3 136 137 142
3 137 138 143
3 58 139 144
3 139 140 145
3 140 141 146
3 141 142 147
3 142 143 148
3 64 144 149
3 144 145 150
3 145 146 151
3 146 147 152
3 147 148 153
3 70 149 154
3 149 150 155
3 150 151 156
3 151 152 157
3 152 153 158
3 76 154 159
3 154 155 160
3 155 156 161
3 156 157 162
3 157 158 163
3 82 159 164
3 159 160 165
3 160 161 166
3 161 162 167
3 162 163 168
3 88 164 169
3 164 165 170
3 165 166 171
3 166 167 172
3 167 168 173
3 94 169 174
3 169 170 175
3 170 171 176
3 171 172 177
3 172 173 178
3 100 174 179
3 174 175 180
3 175 176 181
3 176 177 182
3 177 178 183
3 106 179 184
3 179 180 185
3 180 181 186
3 181 182 187
3 182 183 188
3 112 184 189
3 184 185 190
3 185 186 191
3 186 187 192
3 187 188 193
3 29 23 194
3 23 17 195
3 17 11 196
3 11 5 197
3 5 268 274
3 123 194 198
3 194 195 199
3 195 196 200
3 196 197 201
3 197 274 202
3 128 198 203
3 198 199 204
3 199 200 205
3 200 201 206
3 201 202 207
3 133 203 208
3 203 204 209
3 204 205 210
3 205 206 211
3 206 207 212
3 138 208 213
3 208 209 214
3 209 210 215
3 210 211 216
3 211 212 217
3 143 213 218
3 213 214 219
3 214 215 220
3 215 216 221
3 216 217 222
3 148 218 223
3 218 219 224
3 219 220 225
3 220 221 226
3 221 222 227
3 153 223 228
3 223 224 229
3 224 225 230
3 225 226 231
3 226 227 232
3 158 228 233
3 228 229 234
3 229 230 235
3 230 231 236
3 231 232 237
3 163 233 238
3 233 234 239
3 234 235 240
3 235 236 241
3 236 237 242
3 168 238 243
3 238 239 244
3 239 240 245
3 240 241 246
3 241 242 247
3 173 243 248
3 243 244 249
3 244 245 250
3 245 246 251
3 246 247 252
3 178 248 253
3 248 249 254
3 249 250 255
3 250 251 256
3 251 252 257
3 183 253 258
3 253 254 259
3 254 255 260
3 255 256 261
3 256 257 262
3 188 258 263
3 258 259 264
3 259 260 265
3 260 261 266
3 261 262 267
3 268 269 275
3 269 270 276
3 270 271 277
3 271 272 278
3 272 273 279
3 274 275 280
3 275 276 281
3 276 277 282
3 277 278 283
3 278 279 35
3 202 280 284
3 280 281 285
3 281 282 286
3 282 283 287
3 283 35 41
3 207 284 288
3 284 285 289
3 285 286 290
3 286 287 291
3 287 41 47
3 212 288 292
3 288 289 293
3 289 290 294
3 290 291 295
3 291 47 53
3 217 292 296
3 292 293 297
3 293 294 298
3 294 295 299
3 295 53 59
3 222 296 300
3 296 297 301
3 297 298 302
3 298 299 303
3 299 59 65
3 227 300 304
3 300 301 305
3 301 302 306
3 302 303 307
3 303 65 71
3 232 304 308
3 304 305 309
3 305 306 310
3 306 307 311
3 307 71 77
3 237 308 312
3 308 309 313
3 309 310 314
3 310 311 315
3 311 77 83
3 242 312 316
3 312 313 317
3 313 314 318
3 314 315 319
3 315 83 89
3 247 316 320
3 316 317 321
3 317 318 322
3 318 319 323
3 319 89 95
3 252 320 324
3 320 321 325
3 321 322 326
3 322 323 327
3 323 95 101
3 257 324 328
3 324 325 329
3 325 326 330
3 326 327 331
3 327 101 107
3 262 328 332
3 328 329 333
3 329 330 334
3 330 331 335
3 331 107 113
3 113 114 336
3 114 115 337
3 115 116 338
3 116 117 339
3 117 118 189
3 335 336 340
3 336 337 341
3 337 338 342
3 338 339 343
3 339 189 190
3 334 340 344
3 340 341 345
3 341 342 346
3 342 343 347
3 343 190 191
3 333 344 348
3 344 345 349
3 345 346 350
3 346 347 351
3 347 191 192
3 332 348 266
3 348 349 265
3 349 350 264
3 350 351 263
3 351 192 193
3 273 1 0
3 272 2 1
3 271 3 2
3 270 4 3
3 269 5 4
3 0 7 6
3 1 8 7
3 2 9 8
3 3 10 9
3 4 11 10
3 6 13 12
3 7 14 13
3 8 15 14
3 9 16 15
3 10 17 16
3 12 19 18
3 13 20 19
3 14 21 20
3 15 22 21
3 16 23 22
3 18 25 24
3 19 26 25
3 20 27 26
3 21 28 27
3 22 29 28
3 273 30 279
3 0 31 30
3 6 32 31
3 12 33 32
3 18 34 33
3 279 36 35
3 30 37 36
3 31 38 37
3 32 39 38
3 33 40 39
3 35 42 41
3 36 43 42
3 37 44 43
3 38 45 44
3 39 46 45
3 41 48 47
3 42 49 48
3 43 50 49
3 44 51 50
3 45 52 51
3 47 54 53
3 48 55 54
3 49 56 55
3 50 57 56
3 51 58 57
3 53 60 59
3 54 61 60
3 55 62 61
3 56 63 62
3 57 64 63
3 59 66 65
3 60 67 66
3 61 68 67
3 62 69 68
3 63 70 69
3 65 72 71
3 66 73 72
3 67 74 73
3 68 75 74
3 69 76 75
3 71 78 77
3 72 79 78
3 73 80 79
3 74 81 80
3 75 82 81
3 77 84 83
3 78 85 84
3 79 86 85
3 80 87 86
3 81 88 87
3 83 90 89
3 84 91 90
3 85 92 91
3 86 93 92
3 87 94 93
3 89 96 95
3 90 97 96
3 91 98 97
3 92 99 98
3 93 100 99
3 95 102 101
3 96 103 102
3 97 104 103
3 98 105 104
3 99 106 105
3 101 108 107
3 102 109 108
3 103 110 109
3 104 111 110
3 105 112 111
3 107 114 113
3 108 115 114
3 109 116 115
3 110 117 116
3 111 118 117
3 24 119 34
3 25 120 119
3 26 121 120
3 27 122 121
3 28 123 122
3 34 124 40
3 119 125 124
3 120 126 125
3 121 127 126
3 122 128 127
3 40 129 46
3 124 130 129
3 125 131 130
3 126 132 131
3 127 133 132
3 46 134 52
3 129 135 134
3 130 136 135
3 131 137 136
3 132 138 137
3 52 139 58
3 134 140 139
3 135 141 140
3 136 142 141
3 137 143 142
3 58 144 64
3 139 145 144
3 140 146 145
3 141 147 146
3 142 148 147
3 64 149 70
3 144 150 149
3 145 151 150
3 146 152 151
3 147 153 152
3 70 154 76
3 149 155 154
3 150 156 155
3 151 157 156
3 152 158 157
3 76 159 82
3 154 160 159
3 155 161 160
3 156 162 161
3 157 163 162
3 82 164 88
3 159 165 164
3 160 166 165
3 161 167 166
3 162 168 167
3 88 169 94
3 164 170 169
3 165 171 170
3 166 172 171
3 167 173 172
3 94 174 100
3 169 175 174
3 170 176 175
3 171 177 176
3 172 178 177
3 100 179 106
3 174 180 179
3 175 181 180
3 176 182 181
3 177 183 182
3 106 184 112
3 179 185 184
3 180 186 185
3 181 187 186
3 182 188 187
3 112 189 118
3 184 190 189
3 185 191 190
3 186 192 191
3 187 193 192
3 29 194 123
3 23 195 194
3 17 196 195
3 11 197 196
3 5 274 197
3 123 198 128
3 194 199 198
3 195 200 199
3 196 201 200
3 197 202 201
3 128 203 133
3 198 204 203
3 199 205 204
3 200 206 205
3 201 207 206
3 133 208 138
3 203 209 208
3 204 210 209
3 205 211 210
3 206 212 211
3 138 213 143
3 208 214 213
3 209 215 214
3 210 216 215
3 211 217 216
3 143 218 148
3 213 219 218
3 214 220 219
3 215 221 220
3 216 222 221
3 148 223 153
3 218 224 223
3 219 225 224
3 220 226 225
3 221 227 226
3 153 228 158
3 223 229 228
3 224 230 229
3 225 231 230
3 226 232 231
3 158 233 163
3 228 234 233
3 229 235 234
3 230 236 235
3 231 237 236
3 163 238 168
3 233 239 238
3 234 240 239
3 235 241 240
3 236 242 241
3 168 243 173
3 238 244 243
3 239 245 244
3 240 246 245
3 241 247 246
3 173 248 178
3 243 249 248
3 244 250 249
3 245 251 250
3 246 252 251
3 178 253 183
3 248 254 253
3 249 255 254
3 250 256 255
3 251 257 256
3 183 258 188
3 253 259 258
3 254 260 259
3 255 261 260
3 256 262 261
3 188 263 193
3 258 264 263
3 259 265 264
3 260 266 265
3 261 267 266
3 268 275 274
3 269 276 275
3 270 277 276
3 271 278 277
3 272 279 278
3 274 280 202
3 275 281 280
3 276 282 281
3 277 283 282
3 278 35 283
3 202 284 207
3 280 285 284
3 281 286 285
3 282 287 286
3 283 41 287
3 207 288 212
3 284 289 288
3 285 290 289
3 286 291 290
3 287 47 291
3 212 292 217
3 288 293 292
3 289 294 293
3 290 295 294
3 291 53 295
3 217 296 222
3 292 297 296
3 293 298 297
3 294 299 298
3 295 59 299
3 222 300 227
3 296 301 300
3 297 302 301
3 298 303 302
3 299 65 303
3 227 304 232
3 300 305 304
3 301 306 305
3 302 307 306
3 303 71 307
3 232 308 237
3 304 309 308
3 305 310 309
3 306 311 310
3 307 77 311
3 237 312 242
3 308 313 312
3 309 314 313
3 310 315 314
3 311 83 315
3 242 316 247
3 312 317 316
3 313 318 317
3 314 319 318
3 315 89 319
3 247 320 252
3 316 321 320
3 317 322 321
3 318 323 322
3 319 95 323
3 252 324 257
3 320 325 324
3 321 326 325
3 322 327 326
3 323 101 327
3 257 328 262
3 324 329 328
3 325 330 329
3 326 331 330
3 327 107 331
3 262 332 267
3 328 333 332
3 329 334 333
3 330 335 334
3 331 113 335
3 113 336 335
3 114 337 336
3 115 338 337
3 116 339 338
3 117 189 339
3 335 340 334
3 336 341 340
3 337 342 341
3 338 343 342
3 339 190 343
3 334 344 333
3 340 345 344
3 341 346 345
3 342 347 346
3 343 191 347
3 333 348 332
3 344 349 348
3 345 350 349
3 346 351 350
3 347 192 351
3 332 266 267
3 348 265 266
3 349 264 265
3 350 263 264
3 351 193 263
