ply
format ascii 1.0
element vertex 352
property float x
property float y
property float z
property float nx
property float ny
property float nz
element face 700
property list uchar int vertex_indices
end_header
-5.98786 52.6406 -23.7507 0.36825 0.529634 -0.76412
-10.0745 55.814 -17.1278 -0.0305124 0.940289 -0.339008
-15.3108 57.3991 -10.7777 -0.0663629 0.971601 -0.227129
-18.9005 58.2767 -4.1092 -0.0945189 0.995486 0.00854638
-22.3557 57.0684 4.47274 0.0816396 0.995441 0.0493149
-26.8568 57.2135 10.6197 -0.363018 0.632297 0.684411
0.361872 54.0487 -19.5985 0.390817 0.541188 -0.744566
-3.33731 56.7644 -13.2564 0.0561756 0.962058 -0.267
-7.59091 58.3991 -6.50294 0.0182002 0.995006 -0.0981466
-12.0782 58.5268 0.977757 -0.0750539 0.987334 0.139781
-14.4452 55.2715 7.98214 0.0307671 0.989734 0.139569
-20.2809 56.2873 14.6276 -0.261987 0.710892 0.652684
8.47599 55.0117 -14.6495 0.322297 0.627261 -0.708991
4.15768 57.5317 -8.71234 0.0767536 0.974285 -0.211846
-0.139801 58.2052 -2.08113 0.0129457 0.999725 -0.0195565
-4.44168 57.687 4.83876 -0.0522742 0.990004 0.130992
-9.09491 54.9607 11.3401 -0.138087 0.985566 0.0979412
-13.4085 55.6345 17.8998 -0.328121 0.643243 0.691792
14.5384 57.4869 -10.7138 0.204161 0.706381 -0.677749
11.4724 57.468 -3.93861 -0.0664015 0.97966 -0.18936
7.80991 58.2048 1.28569 -0.117764 0.989584 -0.0827929
2.54505 57.3232 8.66104 -0.155938 0.987748 0.0060614
-1.66596 56.8109 15.5288 -0.167268 0.985889 0.0065704
-8.36577 56.6012 20.5818 -0.45079 0.706385 0.545719
20.9356 58.7851 -6.64967 0.805944 0.591935 -0.00824067
17.2584 58.8959 -0.305414 0.511897 0.834813 0.202603
13.7889 60.3486 5.26748 0.516893 0.818893 0.249472
9.18206 59.9563 12.3463 0.274807 0.910648 0.308547
4.33686 58.4737 19.7392 0.289634 0.891909 0.347291
-0.297393 56.9602 26.6224 -0.30329 0.666613 0.680913
-5.54858 45.3356 -21.9844 0.490014 -0.447579 -0.748037
0.744882 47.0889 -18.1958 0.517092 -0.340783 -0.785164
8.60693 48.4374 -13.2792 0.450594 -0.220829 -0.864985
14.8378 50.2221 -10.4757 0.44276 -0.0232627 -0.896338
21.9995 52.3493 -6.8721 0.89852 0.21481 -0.382777
-10.0987 34.379 -20.1429 0.0431445 -0.694855 -0.717854
-4.42713 39.2104 -14.8284 0.574001 -0.446699 -0.686281
1.1467 40.9991 -12.7743 0.399856 -0.538707 -0.74156
9.26953 41.8651 -9.8533 0.190324 -0.455025 -0.869902
15.667 42.7382 -9.86772 0.264408 -0.0741583 -0.961555
23.2091 45.3025 -6.95518 0.848586 0.188734 -0.494249
-6.41951 30.4016 -9.59756 0.110965 -0.49411 -0.862289
-4.21733 31.6176 -9.5588 0.432799 -0.314844 -0.844723
2.13504 33.3906 -7.84755 0.324733 -0.21852 -0.920216
9.17698 34.5869 -5.62855 -0.0053561 -0.257684 -0.966214
17.1923 35.9865 -9.26348 0.00322314 -0.142033 -0.989857
25.0676 37.6176 -7.15356 0.826631 0.171463 -0.535987
-6.61961 22.7814 -14.8985 0.401436 0.482411 -0.778543
-4.77439 23.9469 -8.82866 0.399573 0.378455 -0.834933
2.81426 24.1523 -8.14093 0.162951 0.257907 -0.952329
9.61141 26.7343 -6.49543 0.0220271 0.155275 -0.987626
19.1384 28.2191 -8.65004 -0.0453219 -0.0345328 -0.998375
27.0941 29.4112 -6.75516 0.782214 0.0815216 -0.617653
-8.47105 17.0459 -20.976 0.0827259 0.400026 -0.912763
-4.3034 17.0013 -14.6632 0.487568 0.365273 -0.793003
3.67636 16.8817 -12.5432 0.240271 0.449122 -0.860558
12.02 17.6072 -9.76153 0.217243 0.311575 -0.925055
20.222 19.4649 -8.16674 0.0888307 0.053663 -0.9946
27.47 21.3371 -6.68869 0.80517 0.00202031 -0.59304
-8.88401 9.46086 -21.4454 -0.279488 0.162814 -0.946244
-4.88301 8.91064 -16.4827 0.435473 0.202968 -0.877022
4.22111 8.97359 -15.6997 0.273401 0.280959 -0.919953
14.6022 8.80511 -11.6284 0.417022 0.242097 -0.87606
20.3176 11.2255 -8.01566 0.231748 0.058812 -0.970996
28.256 13.9956 -6.93444 0.849772 -0.0280531 -0.526404
-10.3903 2.21439 -23.3219 -0.21225 0.518207 -0.828499
-6.1248 2.49015 -19.069 0.328965 0.569099 -0.753597
3.68652 2.58743 -17.7491 0.270179 0.580343 -0.768248
16.3862 0.624728 -12.5228 0.445713 0.42504 -0.787833
20.5433 3.2766 -7.76981 0.329058 0.163817 -0.929992
28.536 6.26803 -7.73711 0.842161 0.0775306 -0.533623
-11.5434 -3.61397 -27.084 -0.535773 0.243858 -0.808381
-7.99631 -1.90083 -25.3005 0.153719 0.466609 -0.871003
2.90554 -1.52317 -23.6794 0.29286 0.551472 -0.781097
18.3682 -3.42906 -16.4722 0.491891 0.570188 -0.657974
22.663 -1.055 -9.81588 0.500384 0.437719 -0.747006
28.494 -0.947919 -7.81458 0.906858 0.211422 -0.364568
-9.29858 -10.3282 -28.0165 -0.564612 0.00599232 -0.825335
-7.36142 -10.2027 -26.8226 0.112154 0.0820798 -0.990295
1.87773 -9.04559 -26.6865 0.265896 0.149722 -0.952304
19.8198 -10.5053 -19.126 0.53106 0.245857 -0.810882
24.6258 -8.82993 -11.9911 0.690902 0.260975 -0.6742
29.1798 -8.23122 -8.7471 0.922804 0.145497 -0.35674
-8.12637 -19.5589 -28.7448 -0.35853 -0.0441755 -0.932472
-4.88778 -17.6229 -26.3043 0.331894 -0.126716 -0.934767
1.50632 -16.756 -26.4559 0.215227 -0.321052 -0.922281
19.2011 -18.1001 -20.3765 0.439235 -0.213888 -0.872539
24.7736 -16.6138 -13.6385 0.71297 -0.0015838 -0.701193
28.6328 -15.8502 -10.2172 0.922509 0.029898 -0.384817
-7.92389 -27.7294 -27.8842 -0.229656 -0.0765349 -0.970258
-2.05479 -26.1697 -23.9659 0.550466 -0.0605608 -0.832658
2.30877 -23.871 -22.1851 0.330851 -0.318061 -0.888467
15.3124 -24.5108 -16.7281 0.322486 -0.408496 -0.853893
22.3067 -24.1868 -13.805 0.429485 -0.216047 -0.87685
27.8362 -24.0206 -11.358 0.890104 -0.0375268 -0.45421
-7.43543 -35.394 -27.7917 -0.210914 -0.00925064 -0.977461
-1.32683 -34.1151 -23.5936 0.610182 0.0529116 -0.790492
3.99101 -31.6278 -19.1145 0.435585 -0.0778422 -0.896776
13.3687 -32.7523 -15.5539 0.332647 -0.0856517 -0.939154
20.4913 -31.7242 -13.092 0.252479 -0.014107 -0.9675
28.5272 -32.1009 -12.1415 0.853881 0.046153 -0.518419
-7.12247 -42.8991 -27.6309 -0.277737 -0.0513569 -0.959283
-0.311024 -41.9616 -23.9625 0.545491 0.152091 -0.824201
5.48897 -40.3863 -18.0482 0.452353 0.202808 -0.868473
13.8239 -40.0115 -16.1319 0.268258 0.141847 -0.952847
21.5167 -39.9305 -14.3262 0.26164 0.138709 -0.955146
29.6074 -39.5556 -12.3042 0.84013 0.117343 -0.52954
-6.69082 -50.4372 -27.3495 -0.330457 -0.0537778 -0.942288
0.697211 -49.5317 -24.305 0.400192 0.0771678 -0.913177
7.60605 -48.3439 -20.9726 0.407471 0.223238 -0.885512
15.4988 -48.1573 -18.2311 0.312907 0.218376 -0.924338
22.9321 -48.1687 -15.3717 0.334286 0.15323 -0.929932
30.2985 -47.8655 -12.5542 0.884788 0.108076 -0.453288
-5.95503 -58.5778 -27.4599 -0.369927 -0.712545 -0.596183
1.5337 -57.6077 -24.5606 0.351601 -0.633839 -0.68893
8.93945 -56.6456 -21.6545 0.347177 -0.608993 -0.713159
16.2752 -56.2368 -18.7512 0.315629 -0.612649 -0.724596
23.6071 -55.9816 -15.9266 0.286273 -0.663793 -0.690961
30.792 -56.0015 -12.9772 0.70725 -0.321462 -0.629651
18.515 52.2054 -1.17693 0.854424 0.314679 0.413445
15.8392 52.8021 5.09448 0.820761 0.352946 0.4492
10.7979 53.2561 13.0964 0.75484 0.330717 0.56643
5.61852 52.5197 19.7767 0.746084 0.202986 0.634157
1.1958 50.9108 26.6349 0.00573826 -0.079331 0.996832
21.7844 44.972 0.828514 0.893759 0.344505 0.287247
19.835 44.9005 6.68654 0.810621 0.414947 0.413174
14.3096 45.3041 14.7733 0.693057 0.393181 0.604219
7.11706 44.8999 22.0892 0.585837 0.29774 0.753754
1.76608 43.245 24.9494 -0.139368 0.0313016 0.989746
24.4352 37.1523 1.27881 0.947905 0.223458 0.227032
22.2521 36.6678 8.35338 0.889971 0.151234 0.430208
17.8012 36.248 16.8304 0.744902 0.171781 0.64468
9.46748 35.6675 22.9069 0.568874 0.182508 0.801918
2.75056 36.058 26.2805 -0.207016 0.0548263 0.9768
26.1896 28.7013 1.08266 0.953542 0.148198 0.262289
22.8937 28.4652 8.21909 0.844627 0.0390971 0.533925
16.9814 27.4424 15.9764 0.7631 -0.134061 0.632223
11.1096 27.296 21.866 0.680763 -0.0934815 0.726514
4.92342 27.667 26.6328 -0.119271 -0.0542178 0.99138
26.745 22.3171 0.741291 0.97287 -0.0184256 0.230619
23.3993 21.3277 8.27977 0.789331 -0.0119221 0.613852
16.4747 19.7409 14.6082 0.680563 -0.11232 0.724029
10.8348 19.0251 18.6744 0.761437 -0.142661 0.632346
6.71619 20.399 25.8882 0.0260184 -0.25159 0.967484
25.6376 14.6356 0.276161 0.973522 -0.1188 0.195297
23.992 14.3002 7.24148 0.806579 -0.0580016 0.588274
16.3705 12.1405 13.0554 0.663495 -0.0653838 0.745318
11.0172 11.5983 17.8306 0.788829 0.0198472 0.614293
7.52129 12.8736 24.6074 0.113155 -0.0319004 0.993065
23.9593 7.36959 -1.72562 0.966744 -0.0133731 0.255398
24.4966 6.36793 5.70286 0.891141 0.0608588 0.449625
16.7457 4.80343 12.4368 0.685247 0.180654 0.70555
12.2361 5.16385 17.5237 0.78251 0.243721 0.572956
8.90926 5.93807 24.473 0.195441 0.126558 0.972515
25.359 -0.253291 -1.23475 0.941494 0.209354 0.264121
25.3551 -1.58516 5.36782 0.904233 0.263636 0.335943
19.443 -2.04622 13.982 0.723864 0.333192 0.604156
14.0809 -0.461025 20.6866 0.735801 0.352009 0.578521
10.2689 -0.739188 25.1726 0.0859178 0.217309 0.972314
27.5334 -7.75838 -1.45736 0.973629 0.198614 0.112244
27.9182 -9.06251 5.91103 0.917361 0.272914 0.289771
23.1401 -9.9383 15.5399 0.742912 0.288257 0.604143
15.8114 -8.69157 21.7331 0.723663 0.223833 0.652848
11.9739 -9.1354 26.5416 0.0796217 0.0869756 0.993024
29.0277 -16.0786 -2.03917 0.997993 0.0613489 -0.0157151
29.9624 -17.3021 6.34358 0.97416 0.0756758 0.212805
25.3606 -18.5434 15.5055 0.779135 0.102345 0.618446
18.3466 -17.3098 20.6967 0.699558 0.0875833 0.709188
13.5567 -17.4728 26.5689 0.165105 -0.0089632 0.986235
29.5327 -24.3347 -2.70207 0.990321 -0.123667 -0.0630197
29.4532 -25.3773 5.06977 0.968688 -0.190776 0.158893
25.4041 -26.0049 14.869 0.827681 -0.151535 0.540353
19.454 -25.932 19.7429 0.741449 -0.0306734 0.670308
15.4701 -26.0347 25.376 0.215651 -0.0644981 0.974338
27.6676 -32.1722 -3.94972 0.991628 -0.0989946 0.08291
26.5564 -32.8555 3.67325 0.956666 -0.244547 0.158074
24.1888 -33.4993 12.7146 0.881234 -0.232611 0.411484
19.458 -33.7529 18.3115 0.828568 -0.101433 0.550624
16.2216 -34.1825 25.3403 0.238474 -0.0495345 0.969885
27.5135 -40.1688 -4.59649 0.968359 -0.000223291 0.249561
25.4433 -40.9207 2.93547 0.962931 -0.110749 0.245965
23.2365 -41.6939 11.0742 0.928994 -0.148866 0.338835
19.4136 -41.6981 17.7594 0.882555 -0.0532666 0.467181
16.2494 -41.9585 25.0098 0.310773 -0.0279471 0.950073
27.7282 -48.1063 -5.12112 0.944465 0.0376868 0.326445
25.0253 -48.6807 2.29147 0.943472 -0.00456267 0.331421
22.3073 -49.1275 9.77124 0.94197 -0.0532686 0.331444
19.4366 -49.4635 17.2877 0.922817 -0.020335 0.384702
16.5015 -49.7627 24.717 0.375538 -0.0183946 0.926625
28.2436 -56.0797 -5.36674 0.704611 -0.674931 0.219069
25.4655 -56.6238 2.11606 0.693093 -0.687306 0.21733
22.6532 -57.1888 9.52331 0.695048 -0.68684 0.212505
19.8178 -57.3859 17.0116 0.685623 -0.68743 0.239504
16.8347 -57.6551 24.5198 0.525882 -0.662471 0.533462
-6.61998 50.6211 19.74 -0.536236 -0.105101 0.837499
-13.2284 47.5909 15.595 -0.485035 0.0169772 0.87433
-19.0851 48.4812 13.1093 -0.542437 -0.0981692 0.834341
-23.7062 49.1375 9.85904 -0.441785 -0.155836 0.883482
-5.80443 43.3146 19.1898 -0.417602 -0.0422168 0.907649
-14.273 41.9149 17.7987 -0.436992 0.12821 0.890281
-20.073 40.8793 14.0572 -0.647564 0.145502 0.747991
-23.5033 41.7955 8.77458 -0.472993 0.036942 0.880291
-32.2497 42.168 7.08889 -0.793186 -0.00284164 0.608973
-4.35967 35.9035 20.1004 -0.434997 -0.05096 0.898989
-12.6494 34.7561 19.2577 -0.299649 -0.0632243 0.951952
-19.8548 33.0455 14.1824 -0.599353 0.0162248 0.80032
-24.7012 33.6036 9.69678 -0.540617 0.0975377 0.835595
-31.7235 33.5702 7.20162 -0.811684 0.0211341 0.583714
-3.32777 27.8646 20.098 -0.535312 -0.0798966 0.840867
-10.1577 26.4714 17.2128 -0.270772 -0.157162 0.949728
-18.7201 25.7751 14.8018 -0.440358 -0.146372 0.88581
-25.3574 25.1308 10.3578 -0.490094 -0.0225988 0.871377
-31.6426 24.6599 7.53155 -0.871778 -0.0325683 0.488818
-2.1591 20.4462 20.2986 -0.454444 -0.226892 0.861395
-8.43345 18.8555 17.3482 -0.345952 -0.120379 0.930498
-17.0271 19.04 14.2391 -0.400284 -0.130928 0.90699
-23.5347 17.7256 10.1475 -0.42124 -0.123733 0.898469
-31.0743 16.295 7.32458 -0.86777 -0.141919 0.476271
0.221583 12.7846 17.8661 -0.496993 -0.15168 0.854395
-5.90538 11.022 16.4418 -0.267175 -0.163691 0.949643
-14.9561 11.1515 13.9995 -0.372048 -0.161908 0.913984
-21.8214 10.5969 10.0933 -0.403144 -0.1367 0.904869
-29.776 8.69008 7.17192 -0.83055 -0.295306 0.472209
1.24029 6.95051 19.7976 -0.519213 0.157728 0.839964
-4.84418 3.60739 16.4612 -0.44543 0.276477 0.851559
-11.4686 3.15703 13.8978 -0.439575 0.0747857 0.895087
-19.7057 3.15064 9.75602 -0.422838 -0.0844283 0.902264
-27.0483 1.4396 6.97892 -0.855886 -0.352017 0.378871
1.98541 -0.713987 21.3682 -0.296551 0.153052 0.942673
-5.20404 -2.50279 20.5361 -0.402516 0.321673 0.857034
-12.7961 -4.47517 17.0473 -0.587314 0.307724 0.748578
-18.838 -3.78341 10.6914 -0.583926 0.148002 0.798202
-24.8777 -4.51971 7.39611 -0.973711 -0.109113 0.199952
3.05929 -8.5202 22.8993 -0.209983 0.0589313 0.975927
-4.81341 -10.397 22.9616 -0.261833 0.117247 0.957965
-13.0931 -13.127 19.2998 -0.612035 0.115395 0.782366
-19.1895 -11.8764 11.8854 -0.693052 0.10546 0.713132
-24.1986 -11.979 7.94576 -0.986071 0.0430479 0.160656
4.45981 -16.8418 22.8737 -0.228474 -0.0829638 0.970009
-3.27569 -18.7609 23.33 -0.129714 -0.144468 0.980971
-12.1955 -21.0528 19.7636 -0.544603 -0.146671 0.825769
-18.456 -20.2601 13.0608 -0.655294 -0.0720901 0.751926
-23.9875 -20.154 8.82451 -0.970239 -0.0641434 0.233499
6.08506 -25.3513 22.9903 -0.30135 -0.173379 0.937618
-1.35161 -26.204 20.9182 -0.147337 -0.287471 0.946389
-10.2833 -27.9942 18.5217 -0.411871 -0.303203 0.85932
-15.1054 -28.1799 13.1551 -0.548532 -0.178598 0.816832
-22.9572 -28.675 9.82943 -0.927115 -0.166628 0.335698
7.68521 -33.6888 21.7578 -0.378964 -0.115412 0.918187
0.650829 -34.2258 18.1997 -0.285709 -0.201979 0.93679
-7.89284 -35.1708 16.5837 -0.296917 -0.253214 0.920719
-13.8645 -35.7342 12.7543 -0.452923 -0.126912 0.88247
-21.337 -36.5264 10.1905 -0.910471 -0.117538 0.39652
8.37718 -41.5528 21.2028 -0.40248 -0.0340038 0.914797
1.38635 -42.0442 18.2455 -0.372099 -0.0124913 0.928109
-6.15535 -42.8346 15.5785 -0.327687 -0.0556734 0.943145
-13.416 -43.4126 12.5595 -0.380721 -0.0487731 0.923403
-20.9362 -44.1022 10.0487 -0.908628 -0.0620711 0.412968
9.07516 -49.6223 21.559 -0.387433 -0.0122108 0.921817
1.71497 -49.9406 18.6264 -0.362618 0.0035002 0.931931
-5.85828 -50.9629 15.8813 -0.358129 -0.000463694 0.933672
-13.1 -51.5549 12.8736 -0.380841 0.00358846 0.924634
-20.489 -52.0472 9.84457 -0.909539 -0.0551751 0.41194
9.63627 -57.8372 21.6453 -0.224872 -0.724545 0.651511
2.25408 -58.4113 18.7753 -0.212891 -0.711643 0.669509
-5.29501 -58.8026 15.8292 -0.202552 -0.723804 0.659607
-12.5749 -59.3971 12.9524 -0.203397 -0.733118 0.648974
-19.812 -60.0423 10.0338 -0.656799 -0.451996 0.603584
-32.0419 57.4997 5.98043 -0.947568 0.286286 0.141968
-29.5539 58.0319 -1.09633 -0.554111 0.789435 -0.264109
-25.967 56.6656 -8.53724 -0.537055 0.736305 -0.411615
-21.0141 55.3166 -15.4331 -0.519395 0.637687 -0.568845
-16.3565 52.9577 -21.5653 -0.575723 0.574575 -0.581728
-12.2454 50.9807 -27.6043 -0.0114477 0.358391 -0.933501
-30.7914 50.0673 6.70534 -0.871517 -0.010614 0.490251
-30.5531 50.2675 -0.0444022 -0.965602 0.0732516 -0.249494
-27.6856 49.4492 -7.35641 -0.820823 0.121729 -0.558061
-21.2644 48.3276 -15.4436 -0.705282 -0.0272303 -0.708403
-15.8619 46.1534 -20.2457 -0.795238 -0.254889 -0.550116
-12.9541 43.1508 -24.6055 -0.043186 -0.462928 -0.885343
-31.4019 41.9386 0.0437009 -0.982504 0.0165666 -0.185506
-29.1228 41.2959 -8.415 -0.794231 -0.0482986 -0.605693
-21.6081 40.2819 -15.2622 -0.547431 -0.255016 -0.797048
-14.1551 39.1389 -17.907 -0.529977 -0.551014 -0.644599
-30.7818 33.3102 0.384775 -0.982045 -0.0330912 -0.185723
-28.5927 33.1254 -7.92802 -0.771253 0.0398057 -0.635283
-18.6725 32.9418 -11.7548 -0.227124 -0.097561 -0.968967
-12.251 31.6893 -11.1346 -0.111877 -0.304214 -0.946011
-30.6604 24.7599 0.487908 -0.98652 -0.073552 -0.14618
-29.1394 25.2117 -7.40056 -0.842511 -0.0507863 -0.53628
-22.3492 26.1272 -13.4933 -0.224426 0.104385 -0.968884
-12.1826 24.5377 -10.8202 -0.123656 0.299081 -0.946182
-29.2806 16.7232 0.905424 -0.975167 -0.168419 -0.143824
-28.7778 17.62 -7.27815 -0.852462 -0.087654 -0.515389
-21.12 18.7014 -12.2841 -0.391361 -0.00872613 -0.920196
-12.7777 18.1057 -13.8578 -0.463879 0.149489 -0.873195
-27.4827 9.05182 -0.0392845 -0.950548 -0.293618 -0.101228
-27.2201 9.29355 -6.96528 -0.886316 -0.147014 -0.439125
-20.6577 10.9761 -13.7869 -0.514122 0.0946362 -0.85248
-12.7679 10.2023 -14.6289 -0.450214 0.304919 -0.839245
-23.6248 2.90737 0.277107 -0.901976 -0.431674 -0.00986103
-26.3042 1.74143 -6.59556 -0.955048 -0.216444 -0.202573
-20.2373 3.05613 -13.7777 -0.71522 0.0614451 -0.696193
-14.516 4.01762 -18.6561 -0.577802 0.340811 -0.741615
-20.4338 -3.92027 0.988047 -0.950983 -0.281566 -0.127873
-23.3067 -5.63601 -5.82022 -0.941079 -0.313536 0.126748
-21.3431 -5.08233 -14.7826 -0.842118 -0.017132 -0.539022
-15.5296 -3.5224 -20.0554 -0.758832 0.0956868 -0.644219
-20.0922 -11.626 0.757279 -0.945666 0.0360919 -0.323131
-20.2511 -12.9398 -5.38931 -0.983984 -0.134367 0.117133
-20.8939 -13.2631 -14.4499 -0.930017 -0.104769 -0.352268
-15.5951 -11.6202 -20.8744 -0.744318 -0.00594962 -0.667799
-21.6419 -19.9124 0.914677 -0.94494 -0.0957256 -0.31293
-20.5019 -20.5231 -5.91052 -0.978404 -0.206696 -0.00162436
-20.7295 -21.0348 -14.535 -0.939137 -0.147133 -0.310441
-14.9388 -19.6993 -21.2196 -0.749425 -0.0713729 -0.658232
-20.2131 -27.7764 1.63949 -0.9157 -0.178645 -0.359971
-16.6494 -27.7891 -5.65409 -0.956354 -0.27232 -0.105969
-17.6944 -28.4243 -14.6343 -0.936461 -0.299542 -0.182525
-13.4774 -27.7362 -21.2741 -0.778216 -0.125427 -0.615343
-18.6251 -35.6455 2.0522 -0.92908 -0.138769 -0.342862
-15.7246 -35.6267 -5.45624 -0.968907 -0.139997 -0.204009
-15.9465 -36.1108 -13.8903 -0.966043 -0.21358 -0.145412
-12.8339 -35.8345 -21.3028 -0.83972 -0.132508 -0.526604
-18.1054 -43.7599 2.31437 -0.936889 -0.0541107 -0.345415
-15.2515 -43.5207 -5.10039 -0.955162 -0.080985 -0.284794
-13.9288 -44.1618 -13.261 -0.958861 -0.201202 -0.200261
-11.3304 -44.0876 -20.7471 -0.887085 -0.187896 -0.421634
-17.6787 -51.7514 2.37176 -0.935986 -0.062303 -0.34648
-15.0146 -51.6393 -4.97938 -0.938396 -0.0630541 -0.33976
-12.3634 -51.8164 -12.6644 -0.944165 -0.136641 -0.299802
-9.76882 -51.7342 -20.2639 -0.918807 -0.168913 -0.356737
-17.072 -59.7254 2.43284 -0.614152 -0.750113 -0.24525
-14.3471 -59.6692 -4.97483 -0.607417 -0.757691 -0.238638
-11.5548 -59.6621 -12.4495 -0.584738 -0.778622 -0.227662
-8.58322 -59.404 -20.0351 -0.548146 -0.799416 -0.245908
-1.18337 -58.3661 -17.0974 0.132038 -0.990978 -0.0229754
6.1746 -57.545 -14.2407 0.105175 -0.993866 -0.0341908
13.7591 -57.0793 -11.2815 0.0953806 -0.994848 -0.0343552
20.9589 -56.2965 -8.32275 0.062006 -0.997557 -0.032175
-4.10457 -58.6719 -9.80255 0.114169 -0.99336 0.0142269
3.22999 -57.8534 -6.92597 0.0943072 -0.995536 -0.00365413
10.7779 -57.2442 -3.84888 0.0833825 -0.996398 -0.0154329
18.1071 -56.5192 -0.880182 0.0631165 -0.99734 -0.0364458
-7.06938 -58.7993 -2.21813 0.103286 -0.994649 0.00252134
0.349782 -58.1129 0.631675 0.0902565 -0.995804 -0.0151012
7.84335 -57.6246 3.62679 0.0693804 -0.997305 -0.0238513
15.2938 -57.2873 6.50286 0.0579727 -0.997491 -0.040636
-9.89551 -59.2158 5.24515 0.0808575 -0.996726 -0.000585427
-2.42553 -58.6815 8.14567 0.0810784 -0.996571 -0.0165014
4.97633 -58.0789 11.0879 0.0791306 -0.996616 -0.0222232
12.37 -57.6443 13.9884 0.0511701 -0.998471 -0.0209022
3 273 272 1
3 272 271 2
3 271 270 3
3 270 269 4
3 269 268 5
3 0 1 7
3 1 2 8
3 2 3 9
3 3 4 10
3 4 5 11
3 6 7 13
3 7 8 14
3 8 9 15
3 9 10 16
3 10 11 17
3 12 13 19
3 13 14 20
3 14 15 21
3 15 16 22
3 16 17 23
3 18 19 25
3 19 20 26
3 20 21 27
3 21 22 28
3 22 23 29
3 273 0 30
3 0 6 31
3 6 12 32
3 12 18 33
3 18 24 34
3 279 30 36
3 30 31 37
3 31 32 38
3 32 33 39
3 33 34 40
3 35 36 42
3 36 37 43
3 37 38 44
3 38 39 45
3 39 40 46
3 41 42 48
3 42 43 49
3 43 44 50
3 44 45 51
3 45 46 52
3 47 48 54
3 48 49 55
3 49 50 56
3 50 51 57
3 51 52 58
3 53 54 60
3 54 55 61
3 55 56 62
3 56 57 63
3 57 58 64
3 59 60 66
3 60 61 67
3 61 62 68
3 62 63 69
3 63 64 70
3 65 66 72
3 66 67 73
3 67 68 74
3 68 69 75
3 69 70 76
3 71 72 78
3 72 73 79
3 73 74 80
3 74 75 81
3 75 76 82
3 77 78 84
3 78 79 85
3 79 80 86
3 80 81 87
3 81 82 88
3 83 84 90
3 84 85 91
3 85 86 92
3 86 87 93
3 87 88 94
3 89 90 96
3 90 91 97
3 91 92 98
3 92 93 99
3 93 94 100
3 95 96 102
3 96 97 103
3 97 98 104
3 98 99 105
3 99 100 106
3 101 102 108
3 102 103 109
3 103 104 110
3 104 105 111
3 105 106 112
3 107 108 114
3 108 109 115
3 109 110 116
3 110 111 117
3 111 112 118
3 24 25 119
3 25 26 120
3 26 27 121
3 27 28 122
3 28 29 123
3 34 119 124
3 119 120 125
3 120 121 126
3 121 122 127
3 122 123 128
3 40 124 129
3 124 125 130
3 125 126 131
3 126 127 132
3 127 128 133
3 46 129 134
3 129 130 135
3 130 131 136
3 131 132 137
3 132 133 138
3 52 134 139
3 134 135 140
3 135 136 141
3 136 137 142
3 137 138 143
3 58 139 144
3 139 140 145
3 140 141 146
3 141 142 147
3 142 143 148
3 64 144 149
3 144 145 150
3 145 146 151
3 146 147 152
3 147 148 153
3 70 149 154
3 149 150 155
3 150 151 156
3 151 152 157
3 152 153 158
3 76 154 159
3 154 155 160
3 155 156 161
3 156 157 162
3 157 158 163
3 82 159 164
3 159 160 165
3 160 161 166
3 161 162 167
3 162 163 168
3 88 164 169
3 164 165 170
3 165 166 171
3 166 167 172
3 167 168 173
3 94 169 174
3 169 170 175
3 170 171 176
3 171 172 177
3 172 173 178
3 100 174 179
3 174 175 180
3 175 176 181
3 176 177 182
3 177 178 183
3 106 179 184
3 179 180 185
3 180 181 186
3 181 182 187
3 182 183 188
3 112 184 189
3 184 185 190
3 185 186 191
3 186 187 192
3 187 188 193
3 29 23 194
3 23 17 195
3 17 11 196
3 11 5 197
3 5 268 274
3 123 194 198
3 194 195 199
3 195 196 200
3 196 197 201
3 197 274 202
3 128 198 203
3 198 199 204
3 199 200 205
3 200 201 206
3 201 202 207
3 133 203 208
3 203 204 209
3 204 205 210
3 205 206 211
3 206 207 212
3 138 208 213
3 208 209 214
3 209 210 215
3 210 211 216
3 211 212 217
3 143 213 218
3 213 214 219
3 214 215 220
3 215 216 221
3 216 217 222
3 148 218 223
3 218 219 224
3 219 220 225
3 220 221 226
3 221 222 227
3 153 223 228
3 223 224 229
3 224 225 230
3 225 226 231
3 226 227 232
3 158 228 233
3 228 229 234
3 229 230 235
3 230 231 236
3 231 232 237
3 163 233 238
3 233 234 239
3 234 235 240
3 235 236 241
3 236 237 242
3 168 238 243
3 238 239 244
3 239 240 245
3 240 241 246
3 241 242 247
3 173 243 248
3 243 244 249
3 244 245 250
3 245 246 251
3 246 247 252
3 178 248 253
3 248 249 254
3 249 250 255
3 250 251 256
3 251 252 257
3 183 253 258
3 253 254 259
3 254 255 260
3 255 256 261
3 256 257 262
3 188 258 263
3 258 259 264
3 259 260 265
3 260 261 266
3 261 262 267
3 268 269 275
3 269 270 276
3 270 271 277
3 271 272 278
3 272 273 279
3 274 275 280
3 275 276 281
3 276 277 282
3 277 278 283
3 278 279 35
3 202 280 284
3 280 281 285
3 281 282 286
3 282 283 287
3 283 35 41
3 207 284 288
3 284 285 289
3 285 286 290
3 286 287 291
3 287 41 47
3 212 288 292
3 288 289 293
3 289 290 294
3 290 291 295
3 291 47 53
3 217 292 296
3 292 293 297
3 293 294 298
3 294 295 299
3 295 53 59
3 222 296 300
3 296 297 301
3 297 298 302
3 298 299 303
3 299 59 65
3 227 300 304
3 300 301 305
3 301 302 306
3 302 303 307
3 303 65 71
3 232 304 308
3 304 305 309
3 305 306 310
3 306 307 311
3 307 71 77
3 237 308 312
3 308 309 313
3 309 310 314
3 310 311 315
3 311 77 83
3 242 312 316
3 312 313 317
3 313 314 318
3 314 315 319
3 315 83 89
3 247 316 320
3 316 317 321
3 317 318 322
3 318 319 323
3 319 89 95
3 252 320 324
3 320 321 325
3 321 322 326
3 322 323 327
3 323 95 101
3 257 324 328
3 324 325 329
3 325 326 330
3 326 327 331
3 327 101 107
3 262 328 332
3 328 329 333
3 329 330 334
3 330 331 335
3 331 107 113
3 113 114 336
3 114 115 337
3 115 116 338
3 116 117 339
3 117 118 189
3 335 336 340
3 336 337 341
3 337 338 342
3 338 339 343
3 339 189 190
3 334 340 344
3 340 341 345
3 341 342 346
3 342 343 347
3 343 190 191
3 333 344 348
3 344 345 349
3 345 346 350
3 346 347 351
3 347 191 192
3 332 348 266
3 348 349 265
3 349 350 264
3 350 351 263
3 351 192 193
3 273 1 0
3 272 2 1
3 271 3 2
3 270 4 3
3 269 5 4
3 0 7 6
3 1 8 7
3 2 9 8
3 3 10 9
3 4 11 10
3 6 13 12
3 7 14 13
3 8 15 14
3 9 16 15
3 10 17 16
3 12 19 18
3 13 20 19
3 14 21 20
3 15 22 21
3 16 23 22
3 18 25 24
3 19 26 25
3 20 27 26
3 21 28 27
3 22 29 28
3 273 30 279
3 0 31 30
3 6 32 31
3 12 33 32
3 18 34 33
3 279 36 35
3 30 37 36
3 31 38 37
3 32 39 38
3 33 40 39
3 35 42 41
3 36 43 42
3 37 44 43
3 38 45 44
3 39 46 45
3 41 48 47
3 42 49 48
3 43 50 49
3 44 51 50
3 45 52 51
3 47 54 53
3 48 55 54
3 49 56 55
3 50 57 56
3 51 58 57
3 53 60 59
3 54 61 60
3 55 62 61
3 56 63 62
3 57 64 63
3 59 66 65
3 60 67 66
3 61 68 67
3 62 69 68
3 63 70 69
3 65 72 71
3 66 73 72
3 67 74 73
3 68 75 74
3 69 76 75
3 71 78 77
3 72 79 78
3 73 80 79
3 74 81 80
3 75 82 81
3 77 84 83
3 78 85 84
3 79 86 85
3 80 87 86
3 81 88 87
3 83 90 89
3 84 91 90
3 85 92 91
3 86 93 92
3 87 94 93
3 89 96 95
3 90 97 96
3 91 98 97
3 92 99 98
3 93 100 99
3 95 102 101
3 96 103 102
3 97 104 103
3 98 105 104
3 99 106 105
3 101 108 107
3 102 109 108
3 103 110 109
3 104 111 110
3 105 112 111
3 107 114 113
3 108 115 114
3 109 116 115
3 110 117 116
3 111 118 117
3 24 119 34
3 25 120 119
3 26 121 120
3 27 122 121
3 28 123 122
3 34 124 40
3 119 125 124
3 120 126 125
3 121 127 126
3 122 128 127
3 40 129 46
3 124 130 129
3 125 131 130
3 126 132 131
3 127 133 132
3 46 134 52
3 129 135 134
3 130 136 135
3 131 137 136
3 132 138 137
3 52 139 58
3 134 140 139
3 135 141 140
3 136 142 141
3 137 143 142
3 58 144 64
3 139 145 144
3 140 146 145
3 141 147 146
3 142 148 147
3 64 149 70
3 144 150 149
3 145 151 150
3 146 152 151
3 147 153 152
3 70 154 76
3 149 155 154
3 150 156 155
3 151 157 156
3 152 158 157
3 76 159 82
3 154 160 159
3 155 161 160
3 156 162 161
3 157 163 162
3 82 164 88
3 159 165 164
3 160 166 165
3 161 167 166
3 162 168 167
3 88 169 94
3 164 170 169
3 165 171 170
3 166 172 171
3 167 173 172
3 94 174 100
3 169 175 174
3 170 176 175
3 171 177 176
3 172 178 177
3 100 179 106
3 174 180 179
3 175 181 180
3 176 182 181
3 177 183 182
3 106 184 112
3 179 185 184
3 180 186 185
3 181 187 186
3 182 188 187
3 112 189 118
3 184 190 189
3 185 191 190
3 186 192 191
3 187 193 192
3 29 194 123
3 23 195 194
3 17 196 195
3 11 197 196
3 5 274 197
3 123 198 128
3 194 199 198
3 195 200 199
3 196 201 200
3 197 202 201
3 128 203 133
3 198 204 203
3 199 205 204
3 200 206 205
3 201 207 206
3 133 208 138
3 203 209 208
3 204 210 209
3 205 211 210
3 206 212 211
3 138 213 143
3 208 214 213
3 209 215 214
3 210 216 215
3 211 217 216
3 143 218 148
3 213 219 218
3 214 220 219
3 215 221 220
3 216 222 221
3 148 223 153
3 218 224 223
3 219 225 224
3 220 226 225
3 221 227 226
3 153 228 158
3 223 229 228
3 224 230 229
3 225 231 230
3 226 232 231
3 158 233 163
3 228 234 233
3 229 235 234
3 230 236 235
3 231 237 236
3 163 238 168
3 233 239 238
3 234 240 239
3 235 241 240
3 236 242 241
3 168 243 173
3 238 244 243
3 239 245 244
3 240 246 245
3 241 247 246
3 173 248 178
3 243 249 248
3 244 250 249
3 245 251 250
3 246 252 251
3 178 253 183
3 248 254 253
3 249 255 254
3 250 256 255
3 251 257 256
3 183 258 188
3 253 259 258
3 254 260 259
3 255 261 260
3 256 262 261
3 188 263 193
3 258 264 263
3 259 265 264
3 260 266 265
3 261 267 266
3 268 275 274
3 269 276 275
3 270 277 276
3 271 278 277
3 272 279 278
3 274 280 202
3 275 281 280
3 276 282 281
3 277 283 282
3 278 35 283
3 202 284 207
3 280 285 284
3 281 286 285
3 282 287 286
3 283 41 287
3 207 288 212
3 284 289 288
3 285 290 289
3 286 291 290
3 287 47 291
3 212 292 217
3 288 293 292
3 289 294 293
3 290 295 294
3 291 53 295
3 217 296 222
3 292 297 296
3 293 298 297
3 294 299 298
3 295 59 299
3 222 300 227
3 296 301 300
3 297 302 301
3 298 303 302
3 299 65 303
3 227 304 232
3 300 305 304
3 301 306 305
3 302 307 306
3 303 71 307
3 232 308 237
3 304 309 308
3 305 310 309
3 306 311 310
3 307 77 311
3 237 312 242
3 308 313 312
3 309 314 313
3 310 315 314
3 311 83 315
3 242 316 247
3 312 317 316
3 313 318 317
3 314 319 318
3 315 89 319
3 247 320 252
3 316 321 320
3 317 322 321
3 318 323 322
3 319 95 323
3 252 324 257
3 320 325 324
3 321 326 325
3 322 327 326
3 323 101 327
3 257 328 262
3 324 329 328
3 325 330 329
3 326 331 330
3 327 107 331
3 262 332 267
3 328 333 332
3 329 334 333
3 330 335 334
3 331 113 335
3 113 336 335
3 114 337 336
3 115 338 337
3 116 339 338
3 117 189 339
3 335 340 334
3 336 341 340
3 337 342 341
3 338 343 342
3 339 190 343
3 334 344 333
3 340 345 344
3 341 346 345
3 342 347 346
3 343 191 347
3 333 348 332
3 344 349 348
3 345 350 349
3 346 351 350
3 347 192 351
3 332 266 267
3 348 265 266
3 349 264 265
3 350 263 264
3 351 193 263
