ply
format ascii 1.0
element vertex 352
property float x
property float y
property float z
property float nx
property float ny
property float nz
element face 700
property list uchar int vertex_indices
end_header
3.07882 46.7443 -15.151 0.322156 0.211712 -0.92271
-0.473083 51.215 -10.4122 -0.0597548 0.752501 -0.655875
-6.24763 55.4342 -5.12715 -0.00832379 0.819418 -0.573136
-12.0917 58.9462 0.942353 -0.0047797 0.934355 -0.356311
-18.1627 60.7153 8.10176 -0.0210026 0.996911 -0.0756794
-24.2938 60.2352 14.8669 -0.409172 0.808117 0.423704
9.14907 50.2817 -11.0696 0.27809 0.454884 -0.846018
5.76473 53.3559 -5.60458 0.0647487 0.871576 -0.485967
0.988131 57.2532 -0.0666344 0.142376 0.932217 -0.332715
-5.00064 59.8745 6.87576 0.114223 0.986129 -0.120426
-10.9157 59.918 13.9173 0.0300829 0.986041 0.163763
-16.9261 57.4915 20.1954 -0.3168 0.550701 0.772248
15.7533 53.3067 -7.41989 0.280793 0.560838 -0.778855
11.6606 55.5615 -1.58674 -0.0347254 0.94495 -0.325367
7.02907 57.5587 4.87457 0.0887355 0.982063 -0.166366
1.32759 58.4192 11.8795 0.137639 0.989334 0.0476926
-4.48127 58.3128 18.0159 0.0679966 0.960581 0.269557
-10.3185 55.403 23.9616 -0.352022 0.449053 0.821238
22.5394 56.8506 -2.42382 0.33198 0.687125 -0.646257
17.6874 57.2626 3.63683 -0.0941443 0.982339 -0.1617
13.1589 57.5123 10.0826 -0.00867948 0.998783 -0.0485426
7.78111 57.4324 16.306 0.018655 0.995282 0.0952119
1.58528 56.3255 22.3402 0.00226216 0.973275 0.229633
-4.58581 54.3304 27.735 -0.438137 0.536226 0.721455
27.9299 58.6462 3.00424 0.75758 0.633474 0.157428
23.0657 57.9872 9.63466 0.4468 0.802342 0.39575
18.3279 57.7878 15.7935 0.493348 0.714619 0.49591
13.2858 57.043 21.4213 0.480233 0.654173 0.584324
7.24004 55.5959 27.407 0.458832 0.604939 0.650785
1.43349 53.8365 33.094 -0.273032 0.537065 0.798132
3.97429 39.9662 -10.3535 0.368429 -0.673498 -0.640828
10.8716 44.4396 -8.53159 0.429618 -0.245131 -0.869102
17.955 46.4784 -5.23609 0.495532 0.0403174 -0.867653
24.2017 48.8131 -1.15874 0.616224 0.0917695 -0.782206
29.8181 51.3061 4.0246 0.959851 0.242525 -0.140954
-1.36316 31.2941 -6.95329 -0.543109 -0.822611 0.168356
4.73038 35.9089 -0.866011 0.276368 -0.797525 -0.536261
12.5661 38.145 -5.65605 0.0538721 -0.661262 -0.748218
21.334 41.1398 -5.15422 0.348557 -0.00800987 -0.937253
27.5102 42.4982 -0.823244 0.630554 0.262691 -0.730339
32.5263 43.7175 5.04626 0.957771 0.287083 -0.0160618
4.36255 34.5776 7.37782 -0.425192 -0.766705 -0.481015
8.12313 34.0228 5.40178 -0.253372 -0.73039 -0.634297
13.9867 32.4038 1.83184 -0.377397 -0.590057 -0.713726
24.03 34.8482 -3.50974 0.0287194 -0.25673 -0.966057
30.9606 34.9788 -0.645949 0.653206 0.138811 -0.744348
34.307 35.5155 4.79051 0.970523 0.198031 0.137364
2.73016 25.3212 9.15603 0.0665629 0.0229788 -0.997518
8.04834 25.349 7.91037 -0.452356 0.0288073 -0.891372
15.4938 25.6307 3.54353 -0.597581 0.0226901 -0.801487
23.9569 27.3842 -3.52113 -0.229772 0.0531753 -0.971791
30.8096 27.1527 -1.64254 0.611606 0.095975 -0.78532
35.7513 26.5835 5.01615 0.987282 0.0721683 0.141652
1.80789 15.3658 6.94652 0.118094 0.497442 -0.859421
7.01537 16.6403 6.49398 -0.406606 0.548966 -0.730279
14.5613 18.3959 1.36649 -0.527025 0.404974 -0.747155
23.1137 20.3863 -5.53463 -0.208909 0.232944 -0.949786
31.5712 19.2351 -2.43469 0.603124 0.120893 -0.788432
36.2147 17.64 3.98579 0.993439 0.0178011 0.112967
2.25418 8.08571 0.935422 -0.0130288 0.67264 -0.739855
6.85585 10.9105 -2.837 -0.420571 0.682513 -0.597742
14.1404 13.1225 -4.96843 -0.260411 0.603268 -0.753826
23.7935 12.7578 -7.00348 0.0633684 0.309298 -0.948851
31.7679 11.3131 -3.1107 0.6286 0.0834395 -0.77324
36.238 9.38093 3.15034 0.986115 -0.0958393 0.135618
1.47567 1.33353 -4.14667 -0.0790191 0.683804 -0.725375
6.50844 6.25432 -8.58961 -0.414819 0.631414 -0.655165
13.8631 6.04 -8.7875 -1.64587e-05 0.507572 -0.861609
23.4883 4.3022 -9.09852 0.249451 0.284422 -0.925677
30.9974 3.45773 -4.32811 0.673451 0.0870085 -0.734093
35.3697 1.97958 1.98039 0.97658 -0.142138 0.161519
2.08845 -3.58871 -10.5644 0.167903 0.862848 -0.476762
5.71785 0.359273 -13.7758 -0.290043 0.618135 -0.730605
13.9573 -0.262651 -12.5984 0.229919 0.459782 -0.857751
23.7816 -2.48916 -11.1158 0.383444 0.238082 -0.89235
29.4299 -3.76714 -6.72172 0.71644 0.0697687 -0.694151
34.6771 -5.57458 0.586734 0.981873 -0.154813 0.109353
1.68507 -5.27627 -20.7946 0.120163 0.771197 -0.625153
5.4848 -5.37553 -18.8156 0.144672 0.609709 -0.77931
13.7723 -7.45623 -16.8827 0.422381 0.424464 -0.80089
22.9986 -10.5313 -12.6586 0.531215 0.175058 -0.828954
28.075 -12.0997 -8.10152 0.701499 -0.0113879 -0.712579
33.2125 -13.9307 -1.9718 0.978872 -0.20395 0.0146448
0.728275 -12.0453 -25.6812 0.047948 0.503287 -0.862788
5.48072 -12.5289 -22.1953 0.395345 0.30357 -0.866919
13.7778 -14.2409 -20.5695 0.469033 0.25809 -0.844629
22.0911 -18.0446 -14.5803 0.687703 0.14362 -0.711645
26.0677 -19.4831 -9.26211 0.730747 -0.0158881 -0.682464
31.2679 -21.3218 -4.03286 0.980205 -0.197539 -0.0132969
0.339344 -19.6795 -29.333 -0.0146718 0.303475 -0.952726
5.55946 -21.1556 -24.876 0.532773 0.195777 -0.823301
13.1568 -22.7658 -21.8659 0.47797 0.0666603 -0.875843
21.2598 -25.5415 -16.382 0.667834 -0.0189543 -0.744069
24.7941 -27.2243 -10.6313 0.770101 0.000372817 -0.637921
30.1221 -29.1719 -5.25342 0.987707 -0.153495 -0.0295541
0.165656 -27.4252 -32.1828 -0.0335356 0.334023 -0.941968
5.29988 -29.4248 -26.6526 0.646576 0.161192 -0.745625
11.9782 -31.1657 -22.8831 0.595752 0.0321776 -0.802523
17.8748 -32.9481 -17.3133 0.631317 -0.0801344 -0.771374
23.5543 -34.8957 -11.9113 0.715043 -0.0344833 -0.69823
28.8759 -37.0405 -6.80275 0.984427 -0.174359 -0.0224105
-0.522112 -34.9437 -34.882 0.0140205 0.338403 -0.940897
4.72116 -36.6826 -29.1728 0.713625 0.175741 -0.678126
10.8765 -38.843 -24.2228 0.695041 0.116735 -0.70943
15.4201 -40.6201 -18.5191 0.69789 0.0382137 -0.715184
21.9513 -42.6788 -13.7203 0.672637 0.0169231 -0.739779
27.5161 -44.5771 -8.06412 0.985033 -0.170025 -0.028294
-0.897642 -42.1997 -37.1425 0.0273042 0.285115 -0.958104
4.41441 -44.4246 -31.8104 0.731011 0.14614 -0.666533
10.0848 -46.5974 -26.3901 0.717509 0.111071 -0.687636
15.4168 -48.2468 -20.6286 0.746639 0.106136 -0.656708
20.7583 -50.4587 -15.2534 0.706041 0.0656645 -0.70512
26.2493 -52.5217 -9.69893 0.988675 -0.149281 -0.0154198
-1.2618 -50.0374 -39.2426 -0.219631 -0.424367 -0.87845
4.06938 -52.197 -33.634 0.464507 -0.586512 -0.663503
9.29607 -54.56 -28.0563 0.456936 -0.608629 -0.648676
14.5977 -56.1524 -22.353 0.469508 -0.626405 -0.622237
19.877 -58.1575 -16.7543 0.4103 -0.653879 -0.635685
25.0513 -60.382 -11.2072 0.809048 -0.465386 -0.358966
25.657 50.126 9.63244 0.717106 0.239697 0.65445
20.2436 49.2929 15.3561 0.667453 0.130188 0.733183
13.9616 48.5041 20.8281 0.644962 -0.0109977 0.764135
7.70584 48.0649 25.9055 0.640334 -0.114124 0.759571
0.603775 46.7622 31.5333 -0.090758 -0.269886 0.958605
27.6362 42.7913 10.3125 0.670969 0.211587 0.710656
22.3778 41.593 15.2789 0.575988 0.10875 0.810192
14.6153 40.654 20.0597 0.552405 -0.00553789 0.833557
7.67929 40.3552 24.4925 0.563739 -0.0984763 0.820062
0.911098 39.5026 29.495 -0.1728 -0.235567 0.956373
29.1817 34.7064 10.8754 0.687429 0.119891 0.716287
23.1461 33.8399 15.5437 0.486454 0.0871712 0.869347
15.0635 32.5467 19.4147 0.476696 -0.0731918 0.876016
7.50523 31.7965 24.2194 0.52723 -0.130693 0.839612
1.12157 31.9031 27.505 -0.210484 -0.0776675 0.974507
29.8652 25.9653 10.7351 0.685995 -0.0155197 0.727441
24.3238 25.0404 16.2752 0.471009 -0.0923562 0.87728
14.819 24.8496 18.8837 0.299071 -0.162744 0.94025
7.60946 24.372 21.497 0.548368 -0.277876 0.788719
1.10662 23.5872 26.4317 -0.0625051 -0.245399 0.967405
30.1164 17.3736 10.1237 0.603602 -0.0870648 0.792518
23.6835 17.0889 13.809 0.384497 -0.262228 0.885098
14.6742 17.3232 16.713 0.215843 -0.352619 0.910534
7.34147 17.5404 17.6398 0.533975 -0.339568 0.774315
1.8943 16.115 24.1469 0.0491246 -0.372856 0.926588
29.9821 9.52027 9.19048 0.557922 -0.192254 0.807317
22.9284 9.43569 12.3366 0.232492 -0.242116 0.94198
13.7843 9.88191 13.0886 0.195346 -0.319195 0.927337
6.88424 10.1425 14.8332 0.558204 -0.27815 0.781691
1.78225 9.02458 21.8796 0.00400236 -0.301762 0.953375
28.8934 1.8107 7.2137 0.5045 -0.253546 0.825345
21.5607 1.97419 10.2416 0.223138 -0.262313 0.93883
12.7255 1.76247 10.6571 0.224791 -0.219537 0.949354
6.19559 2.20724 13.501 0.614299 -0.162454 0.77217
1.18943 2.2814 20.8534 -0.0606886 -0.112435 0.991804
28.0041 -6.02962 5.44724 0.480941 -0.224115 0.847625
20.7769 -5.69921 8.22624 0.279582 -0.184878 0.942154
11.9628 -5.73079 9.55536 0.338329 -0.0696231 0.938449
5.53084 -5.18774 13.5806 0.630344 -0.0231045 0.775972
-0.0693643 -4.82955 20.4748 -0.0485097 -0.00318153 0.998818
26.9982 -13.969 3.86729 0.574424 -0.200245 0.793687
19.7519 -13.5117 6.96986 0.343588 -0.0535139 0.937595
11.4167 -13.5612 10.0698 0.431282 -0.0530211 0.900658
4.7365 -12.9858 15.3786 0.633784 -0.0254458 0.773092
-0.641711 -12.6856 19.9356 -0.120868 0.0274587 0.992289
25.907 -21.5034 2.20976 0.703942 -0.244163 0.666971
20.1005 -21.7384 7.96378 0.41493 -0.0953856 0.90484
10.8906 -21.3122 10.2939 0.375027 -0.0705002 0.924329
4.3192 -20.6579 14.0205 0.639777 -0.129478 0.757575
-1.17496 -20.801 19.8116 -0.0561202 -0.0310801 0.99794
24.8791 -29.5106 0.791218 0.713952 -0.241776 0.657128
19.2172 -29.6908 6.67644 0.47582 -0.235835 0.847335
9.89105 -28.8699 8.94806 0.364269 -0.172194 0.915236
3.98243 -28.719 12.5607 0.647686 -0.133699 0.750085
-1.54709 -28.9256 19.0544 0.0881876 -0.117664 0.98913
23.5342 -37.2684 -0.734793 0.686255 -0.271777 0.674679
17.6386 -37.3861 4.58743 0.543924 -0.251865 0.800444
9.3233 -36.8015 7.69318 0.437295 -0.111611 0.892366
3.34904 -36.6345 12.2593 0.662742 -0.0804679 0.744512
-2.13163 -37.0548 18.454 0.0611424 -0.0766888 0.995179
21.9365 -45.1501 -2.42461 0.671913 -0.269315 0.68993
15.8429 -45.0608 2.76412 0.617294 -0.263406 0.741326
9.31294 -44.7845 7.88811 0.558879 -0.122796 0.820107
2.99506 -44.3979 12.3281 0.640076 -0.0520936 0.766543
-2.7834 -44.7682 17.9658 -0.00257418 -0.0646138 0.997907
20.5292 -52.8117 -4.22582 0.672927 -0.254058 0.694711
14.6567 -52.839 1.24959 0.649542 -0.234906 0.723128
8.40917 -52.7261 6.67986 0.641655 -0.188948 0.743355
2.45986 -52.669 11.9056 0.648807 -0.13174 0.749462
-3.32392 -52.8677 17.1645 -0.0273 -0.103931 0.99421
19.3139 -60.3984 -5.62255 0.365648 -0.859832 0.356357
13.4692 -60.6152 -0.167497 0.372973 -0.851831 0.367797
7.65805 -60.656 5.36905 0.383211 -0.829512 0.406275
1.87521 -60.5966 10.7929 0.403755 -0.81157 0.422297
-3.94589 -60.8655 16.1925 0.164598 -0.76508 0.622543
-4.67583 48.4198 25.351 -0.680886 -0.285121 0.674612
-10.7203 47.9936 19.8524 -0.484348 -0.348069 0.802655
-15.9606 48.6948 17.617 -0.365131 -0.186985 0.911985
-24.7008 53.0447 14.614 -0.595635 0.0407852 0.802219
-3.93299 41.0672 21.9783 -0.711974 -0.187664 0.676665
-9.96214 41.574 17.181 -0.400346 -0.142514 0.905214
-16.7228 42.4543 16.2799 -0.163432 -0.0959756 0.981875
-25.6491 44.5354 15.9657 -0.506784 0.0277814 0.861625
-31.9079 45.4295 8.3881 -0.980167 0.193503 -0.0427618
-4.15337 34.1448 20.4039 -0.648922 0.0236309 0.760488
-10.8897 34.0846 17.6432 -0.317248 0.022651 0.948072
-19.1398 34.2973 16.7424 -0.208949 -0.0303987 0.977454
-26.8787 35.9706 14.6878 -0.523333 -0.0782612 0.848527
-33.2975 36.8057 7.31286 -0.994889 0.0808718 -0.0604567
-5.68459 25.4668 21.4811 -0.587074 -0.081136 0.805457
-12.4991 26.0709 18.1322 -0.357437 -0.0818116 0.930347
-19.9735 26.2543 15.4974 -0.321078 -0.135622 0.937292
-27.2852 27.324 12.7744 -0.586219 -0.173093 0.791446
-33.2239 28.7827 5.79114 -0.998206 0.0501808 -0.0326555
-5.09232 17.5674 19.4283 -0.567661 -0.358059 0.74132
-12.0212 18.703 15.3226 -0.312367 -0.417641 0.853231
-20.3357 18.8707 13.6144 -0.31044 -0.320484 0.89494
-27.288 19.1877 10.3764 -0.597831 -0.234054 0.766692
-33.028 20.8317 3.98609 -0.999757 0.0218009 0.00312776
-4.7914 10.8414 15.6923 -0.628999 -0.308153 0.713724
-10.6316 11.4941 10.826 -0.317191 -0.408346 0.855946
-19.567 11.4939 10.528 -0.194806 -0.401356 0.894966
-27.1889 11.8768 7.77237 -0.554371 -0.291597 0.779515
-33.1397 13.0208 1.61415 -0.999809 -0.0162952 -0.0107773
-4.36389 3.69843 12.9065 -0.684787 -0.120009 0.718794
-11.1181 3.89745 8.60855 -0.381026 -0.181664 0.906542
-18.97 3.69504 7.50032 -0.193968 -0.272448 0.942416
-27.0791 4.46787 5.21777 -0.51833 -0.259948 0.814715
-32.8728 5.7489 -0.457597 -0.999555 -0.0298337 0.00078013
-4.50823 -4.05783 12.6677 -0.718463 0.102288 0.688003
-11.0278 -3.45787 8.30915 -0.449862 0.0169357 0.892938
-19.0371 -2.98209 6.25687 -0.27772 -0.159012 0.94741
-26.6976 -2.87057 3.65865 -0.52848 -0.186246 0.828264
-32.7598 -1.75287 -2.42851 -0.998848 -0.0357463 0.0320228
-5.76281 -11.7223 13.2316 -0.652164 0.14098 0.744854
-12.1772 -11.5316 9.28492 -0.594853 0.167023 0.786291
-19.0998 -10.629 4.86609 -0.408387 -0.130832 0.903384
-26.7286 -10.4728 1.81233 -0.527308 -0.184968 0.829297
-32.2879 -9.72645 -3.48534 -0.997383 -0.0550252 0.0468907
-6.66775 -19.7907 13.4908 -0.590378 0.0654381 0.80447
-14.7443 -19.5881 10.8372 -0.645616 0.120816 0.754045
-18.362 -18.325 3.3748 -0.63565 -0.00111295 0.771977
-26.5819 -18.2671 0.14939 -0.521477 -0.193098 0.831128
-31.8254 -17.5504 -4.88559 -0.998897 -0.0357376 0.0304699
-7.89465 -28.0652 14.0851 -0.617606 -0.0248042 0.786097
-14.7301 -27.4923 9.73611 -0.637833 -0.10447 0.763056
-19.8984 -26.3157 3.27051 -0.72696 -0.0510009 0.684783
-26.2388 -25.8191 -1.50956 -0.601126 -0.137838 0.787178
-31.8813 -25.4923 -6.62779 -0.997536 -0.0532645 0.0456494
-8.00134 -36.0309 12.9071 -0.651002 -0.0646038 0.756322
-14.2093 -35.4017 8.09438 -0.681994 -0.125106 0.720578
-19.386 -34.2162 1.9638 -0.704981 -0.131567 0.696916
-25.8674 -33.7653 -2.91008 -0.649214 -0.162084 0.743136
-31.4371 -33.0425 -8.28281 -0.99737 -0.0658578 0.0302714
-8.30715 -43.7913 12.291 -0.69437 -0.0259833 0.719149
-14.3455 -43.1687 6.90566 -0.699334 -0.0688944 0.711467
-19.5691 -42.2347 1.06815 -0.724039 -0.0730183 0.685883
-25.5591 -41.4825 -4.31382 -0.677737 -0.136351 0.722552
-31.2185 -40.782 -9.81828 -0.999174 -0.0377709 -0.0150123
-8.88735 -52.0721 11.5165 -0.714853 -0.0429641 0.697954
-14.5956 -51.1269 5.86375 -0.716894 -0.0707856 0.69358
-20.0359 -50.1934 0.017485 -0.736517 -0.076052 0.67213
-25.4303 -49.3747 -5.68962 -0.719025 -0.11231 0.68585
-30.9987 -48.641 -11.4228 -0.999686 -0.0197749 -0.0153783
-9.34624 -59.9672 10.3712 -0.533166 -0.749538 0.392335
-14.8209 -59.2267 4.60233 -0.523616 -0.760825 0.383369
-20.1534 -58.1768 -1.25469 -0.541197 -0.75963 0.36065
-25.5061 -57.2103 -7.03147 -0.511272 -0.780212 0.360376
-30.8399 -56.4769 -12.8852 -0.86795 -0.458528 0.190829
-28.2935 60.8793 7.48721 -0.728689 0.520031 -0.445623
-22.5684 58.1389 1.35837 -0.396512 0.635256 -0.662743
-17.0494 55.5783 -3.57482 -0.534973 0.354056 -0.767104
-11.5194 50.9986 -8.79876 -0.586119 0.313154 -0.747261
-8.15591 45.7195 -12.2638 -0.595938 0.353538 -0.721019
-5.30715 41.9916 -17.2986 -0.0865801 -0.0927487 -0.991918
-30.2889 53.2226 8.24587 -0.971162 0.194009 -0.138582
-23.9296 50.8392 3.30653 -0.468388 -0.0522294 -0.881978
-17.7897 49.6686 0.695509 -0.501308 -0.505978 -0.701909
-9.86537 46.2695 -4.68874 -0.691713 -0.662089 -0.288395
-6.65085 40.8656 -9.4293 -0.87255 -0.464133 0.152434
-5.20094 35.9298 -11.1177 0.0609331 -0.778162 -0.625101
-25.3584 43.9367 2.79787 -0.26922 0.138856 -0.953016
-17.2248 42.6892 4.27742 0.114276 -0.12276 -0.985835
-9.20295 41.663 4.81524 -0.338422 -0.611037 -0.715614
-2.84371 39.9503 -0.00579119 -0.71813 -0.695673 -0.0181278
-25.7051 36.7557 2.09784 -0.386395 0.164363 -0.90757
-18.7401 35.4125 2.21773 0.435103 0.210341 -0.875467
-11.3248 33.8867 6.58209 0.217703 -0.0436289 -0.975039
-3.94633 34.3744 6.56466 -0.00602764 -0.339245 -0.940679
-25.989 29.1415 1.67967 -0.413059 0.228003 -0.881701
-18.0553 29.2497 -1.08875 0.414805 0.359987 -0.835671
-12.3334 24.699 5.98926 0.48797 0.310044 -0.81594
-4.62604 25.4786 6.73643 0.235106 0.165537 -0.95777
-26.9663 21.7196 -1.20007 -0.432794 0.360508 -0.826271
-18.2611 22.3971 -3.34656 0.196123 0.437008 -0.877815
-11.1211 18.0835 1.85508 0.536407 0.542843 -0.646211
-4.50977 17.4077 2.97757 0.402164 0.543635 -0.736699
-27.2226 14.5392 -4.39167 -0.549391 0.307301 -0.777004
-19.3696 15.2306 -7.0058 0.0275574 0.473415 -0.880409
-10.9366 12.8488 -3.84987 0.405292 0.583091 -0.70409
-4.09757 11.922 -2.86419 0.460755 0.585907 -0.666647
-26.9463 6.98617 -6.84385 -0.63452 0.219393 -0.741115
-20.3146 7.89146 -10.3318 -0.171845 0.392007 -0.903769
-11.5388 7.2244 -9.4047 0.243663 0.566238 -0.787403
-4.11782 5.49977 -7.41456 0.480421 0.602041 -0.637764
-27.1982 -0.414205 -8.61583 -0.663955 0.176321 -0.726688
-20.9337 0.425515 -12.8931 -0.336284 0.28023 -0.899102
-12.2306 0.555606 -13.5441 0.00757157 0.461245 -0.887241
-4.14614 -0.0699377 -13.0595 0.229893 0.69559 -0.680664
-27.1883 -8.02165 -10.4451 -0.690341 0.137698 -0.71026
-20.8529 -7.41551 -14.4823 -0.382971 0.166901 -0.908558
-12.7587 -6.77723 -16.7861 -0.261449 0.277736 -0.924395
-4.85301 -6.62846 -17.7385 -0.24147 0.558742 -0.79341
-27.0402 -15.6348 -12.0708 -0.72272 0.10896 -0.682498
-20.7714 -14.9111 -16.28 -0.315084 0.197022 -0.928388
-12.0972 -14.9052 -17.2196 -0.411657 0.101571 -0.905661
-6.05454 -13.024 -22.2964 -0.53823 0.281076 -0.794547
-27.0531 -23.9685 -13.2312 -0.722502 0.094991 -0.684812
-20.2949 -22.5472 -18.0813 -0.363981 0.19471 -0.910827
-11.6362 -22.8097 -18.6616 -0.350164 0.255617 -0.901136
-5.50968 -21.3539 -23.3876 -0.684568 0.167281 -0.709496
-26.5578 -31.7444 -14.4667 -0.71946 0.0647752 -0.691506
-20.1653 -30.5719 -19.3549 -0.481523 0.18024 -0.8577
-11.8208 -30.0786 -21.5414 -0.390566 0.347391 -0.852513
-5.78984 -28.9099 -26.1173 -0.66647 0.304887 -0.68034
-25.6059 -39.6923 -15.7681 -0.709428 0.0585515 -0.702342
-19.7448 -38.6093 -20.9632 -0.606348 0.1169 -0.78656
-12.8428 -37.1816 -24.8231 -0.509927 0.307665 -0.803316
-6.35423 -35.937 -29.1725 -0.63279 0.329489 -0.700724
-25.2325 -47.7488 -16.8797 -0.687044 0.103095 -0.719265
-19.1441 -46.3288 -22.076 -0.663619 0.106818 -0.740405
-13.1057 -45.1299 -27.2355 -0.627623 0.190124 -0.754946
-6.91176 -43.6279 -32.0147 -0.636375 0.257012 -0.727304
-25.004 -55.4133 -18.2605 -0.46545 -0.627012 -0.62467
-19.1272 -54.2571 -23.6428 -0.462033 -0.59882 -0.654171
-13.1626 -52.7595 -28.9219 -0.471795 -0.574257 -0.669058
-7.28197 -51.5427 -34.1248 -0.483267 -0.529753 -0.697004
-1.91311 -53.4203 -28.4491 -0.0524896 -0.966513 -0.251193
3.50261 -55.2231 -22.7172 -0.104855 -0.970782 -0.21584
8.77715 -56.99 -17.0432 -0.09351 -0.977368 -0.189755
14.1648 -58.4384 -11.2776 -0.117131 -0.973714 -0.195348
-7.9055 -54.4114 -23.1055 -0.0292788 -0.976034 -0.215639
-2.42898 -55.5891 -17.1549 -0.0551955 -0.984502 -0.16646
2.89386 -57.0985 -11.5813 -0.136573 -0.976207 -0.16843
8.27213 -58.7977 -5.86029 -0.118262 -0.977526 -0.17452
-13.8284 -55.3331 -17.7577 -0.00815046 -0.98019 -0.197891
-8.39602 -56.517 -11.8918 0.0165884 -0.985768 -0.167293
-2.91257 -56.9841 -6.21462 -0.0555848 -0.983455 -0.172413
2.35732 -59.145 -0.438147 -0.12884 -0.976977 -0.170045
-19.6513 -56.259 -12.4731 -8.27661e-05 -0.985016 -0.172461
-14.3023 -57.4457 -6.66691 -0.0105064 -0.985405 -0.169899
-8.87464 -58.3325 -0.834118 0.0184688 -0.986528 -0.162549
-3.46827 -59.3946 4.96638 -0.0574192 -0.985191 -0.16156
3 273 272 1
3 272 271 2
3 271 270 3
3 270 269 4
3 269 268 5
3 0 1 7
3 1 2 8
3 2 3 9
3 3 4 10
3 4 5 11
3 6 7 13
3 7 8 14
3 8 9 15
3 9 10 16
3 10 11 17
3 12 13 19
3 13 14 20
3 14 15 21
3 15 16 22
3 16 17 23
3 18 19 25
3 19 20 26
3 20 21 27
3 21 22 28
3 22 23 29
3 273 0 30
3 0 6 31
3 6 12 32
3 12 18 33
3 18 24 34
3 279 30 36
3 30 31 37
3 31 32 38
3 32 33 39
3 33 34 40
3 35 36 42
3 36 37 43
3 37 38 44
3 38 39 45
3 39 40 46
3 41 42 48
3 42 43 49
3 43 44 50
3 44 45 51
3 45 46 52
3 47 48 54
3 48 49 55
3 49 50 56
3 50 51 57
3 51 52 58
3 53 54 60
3 54 55 61
3 55 56 62
3 56 57 63
3 57 58 64
3 59 60 66
3 60 61 67
3 61 62 68
3 62 63 69
3 63 64 70
3 65 66 72
3 66 67 73
3 67 68 74
3 68 69 75
3 69 70 76
3 71 72 78
3 72 73 79
3 73 74 80
3 74 75 81
3 75 76 82
3 77 78 84
3 78 79 85
3 79 80 86
3 80 81 87
3 81 82 88
3 83 84 90
3 84 85 91
3 85 86 92
3 86 87 93
3 87 88 94
3 89 90 96
3 90 91 97
3 91 92 98
3 92 93 99
3 93 94 100
3 95 96 102
3 96 97 103
3 97 98 104
3 98 99 105
3 99 100 106
3 101 102 108
3 102 103 109
3 103 104 110
3 104 105 111
3 105 106 112
3 107 108 114
3 108 109 115
3 109 110 116
3 110 111 117
3 111 112 118
3 24 25 119
3 25 26 120
3 26 27 121
3 27 28 122
3 28 29 123
3 34 119 124
3 119 120 125
3 120 121 126
3 121 122 127
3 122 123 128
3 40 124 129
3 124 125 130
3 125 126 131
3 126 127 132
3 127 128 133
3 46 129 134
3 129 130 135
3 130 131 136
3 131 132 137
3 132 133 138
3 52 134 139
3 134 135 140
3 135 136 141
3 136 137 142
3 137 138 143
3 58 139 144
3 139 140 145
3 140 141 146
3 141 142 147
3 142 143 148
3 64 144 149
3 144 145 150
3 145 146 151
3 146 147 152
3 147 148 153
3 70 149 154
3 149 150 155
3 150 151 156
3 151 152 157
3 152 153 158
3 76 154 159
3 154 155 160
3 155 156 161
3 156 157 162
3 157 158 163
3 82 159 164
3 159 160 165
3 160 161 166
3 161 162 167
3 162 163 168
3 88 164 169
3 164 165 170
3 165 166 171
3 166 167 172
3 167 168 173
3 94 169 174
3 169 170 175
3 170 171 176
3 171 172 177
3 172 173 178
3 100 174 179
3 174 175 180
3 175 176 181
3 176 177 182
3 177 178 183
3 106 179 184
3 179 180 185
3 180 181 186
3 181 182 187
3 182 183 188
3 112 184 189
3 184 185 190
3 185 186 191
3 186 187 192
3 187 188 193
3 29 23 194
3 23 17 195
3 17 11 196
3 11 5 197
3 5 268 274
3 123 194 198
3 194 195 199
3 195 196 200
3 196 197 201
3 197 274 202
3 128 198 203
3 198 199 204
3 199 200 205
3 200 201 206
3 201 202 207
3 133 203 208
3 203 204 209
3 204 205 210
3 205 206 211
3 206 207 212
3 138 208 213
3 208 209 214
3 209 210 215
3 210 211 216
3 211 212 217
3 143 213 218
3 213 214 219
3 214 215 220
3 215 216 221
3 216 217 222
3 148 218 223
3 218 219 224
3 219 220 225
3 220 221 226
3 221 222 227
3 153 223 228
3 223 224 229
3 224 225 230
3 225 226 231
3 226 227 232
3 158 228 233
3 228 229 234
3 229 230 235
3 230 231 236
3 231 232 237
3 163 233 238
3 233 234 239
3 234 235 240
3 235 236 241
3 236 237 242
3 168 238 243
3 238 239 244
3 239 240 245
3 240 241 246
3 241 242 247
3 173 243 248
3 243 244 249
3 244 245 250
3 245 246 251
3 246 247 252
3 178 248 253
3 248 249 254
3 249 250 255
3 250 251 256
3 251 252 257
3 183 253 258
3 253 254 259
3 254 255 260
3 255 256 261
3 256 257 262
3 188 258 263
3 258 259 264
3 259 260 265
3 260 261 266
3 261 262 267
3 268 269 275
3 269 270 276
3 270 271 277
3 271 272 278
3 272 273 279
3 274 275 280
3 275 276 281
3 276 277 282
3 277 278 283
3 278 279 35
3 202 280 284
3 280 281 285
3 281 282 286
3 282 283 287
3 283 35 41
3 207 284 288
3 284 285 289
3 285 286 290
3 286 287 291
3 287 41 47
3 212 288 292
3 288 289 293
3 289 290 294
3 290 291 295
3 291 47 53
3 217 292 296
3 292 293 297
3 293 294 298
3 294 295 299
3 295 53 59
3 222 296 300
3 296 297 301
3 297 298 302
3 298 299 303
3 299 59 65
3 227 300 304
3 300 301 305
3 301 302 306
3 302 303 307
3 303 65 71
3 232 304 308
3 304 305 309
3 305 306 310
3 306 307 311
3 307 71 77
3 237 308 312
3 308 309 313
3 309 310 314
3 310 311 315
3 311 77 83
3 242 312 316
3 312 313 317
3 313 314 318
3 314 315 319
3 315 83 89
3 247 316 320
3 316 317 321
3 317 318 322
3 318 319 323
3 319 89 95
3 252 320 324
3 320 321 325
3 321 322 326
3 322 323 327
3 323 95 101
3 257 324 328
3 324 325 329
3 325 326 330
3 326 327 331
3 327 101 107
3 262 328 332
3 328 329 333
3 329 330 334
3 330 331 335
3 331 107 113
3 113 114 336
3 114 115 337
3 115 116 338
3 116 117 339
3 117 118 189
3 335 336 340
3 336 337 341
3 337 338 342
3 338 339 343
3 339 189 190
3 334 340 344
3 340 341 345
3 341 342 346
3 342 343 347
3 343 190 191
3 333 344 348
3 344 345 349
3 345 346 350
3 346 347 351
3 347 191 192
3 332 348 266
3 348 349 265
3 349 350 264
3 350 351 263
3 351 192 193
3 273 1 0
3 272 2 1
3 271 3 2
3 270 4 3
3 269 5 4
3 0 7 6
3 1 8 7
3 2 9 8
3 3 10 9
3 4 11 10
3 6 13 12
3 7 14 13
3 8 15 14
3 9 16 15
3 10 17 16
3 12 19 18
3 13 20 19
3 14 21 20
3 15 22 21
3 16 23 22
3 18 25 24
3 19 26 25
3 20 27 26
3 21 28 27
3 22 29 28
3 273 30 279
3 0 31 30
3 6 32 31
3 12 33 32
3 18 34 33
3 279 36 35
3 30 37 36
3 31 38 37
3 32 39 38
3 33 40 39
3 35 42 41
3 36 43 42
3 37 44 43
3 38 45 44
3 39 46 45
3 41 48 47
3 42 49 48
3 43 50 49
3 44 51 50
3 45 52 51
3 47 54 53
3 48 55 54
3 49 56 55
3 50 57 56
3 51 58 57
3 53 60 59
3 54 61 60
3 55 62 61
3 56 63 62
3 57 64 63
3 59 66 65
3 60 67 66
3 61 68 67
3 62 69 68
3 63 70 69
3 65 72 71
3 66 73 72
3 67 74 73
3 68 75 74
3 69 76 75
3 71 78 77
3 72 79 78
3 73 80 79
3 74 81 80
3 75 82 81
3 77 84 83
3 78 85 84
3 79 86 85
3 80 87 86
3 81 88 87
3 83 90 89
3 84 91 90
3 85 92 91
3 86 93 92
3 87 94 93
3 89 96 95
3 90 97 96
3 91 98 97
3 92 99 98
3 93 100 99
3 95 102 101
3 96 103 102
3 97 104 103
3 98 105 104
3 99 106 105
3 101 108 107
3 102 109 108
3 103 110 109
3 104 111 110
3 105 112 111
3 107 114 113
3 108 115 114
3 109 116 115
3 110 117 116
3 111 118 117
3 24 119 34
3 25 120 119
3 26 121 120
3 27 122 121
3 28 123 122
3 34 124 40
3 119 125 124
3 120 126 125
3 121 127 126
3 122 128 127
3 40 129 46
3 124 130 129
3 125 131 130
3 126 132 131
3 127 133 132
3 46 134 52
3 129 135 134
3 130 136 135
3 131 137 136
3 132 138 137
3 52 139 58
3 134 140 139
3 135 141 140
3 136 142 141
3 137 143 142
3 58 144 64
3 139 145 144
3 140 146 145
3 141 147 146
3 142 148 147
3 64 149 70
3 144 150 149
3 145 151 150
3 146 152 151
3 147 153 152
3 70 154 76
3 149 155 154
3 150 156 155
3 151 157 156
3 152 158 157
3 76 159 82
3 154 160 159
3 155 161 160
3 156 162 161
3 157 163 162
3 82 164 88
3 159 165 164
3 160 166 165
3 161 167 166
3 162 168 167
3 88 169 94
3 164 170 169
3 165 171 170
3 166 172 171
3 167 173 172
3 94 174 100
3 169 175 174
3 170 176 175
3 171 177 176
3 172 178 177
3 100 179 106
3 174 180 179
3 175 181 180
3 176 182 181
3 177 183 182
3 106 184 112
3 179 185 184
3 180 186 185
3 181 187 186
3 182 188 187
3 112 189 118
3 184 190 189
3 185 191 190
3 186 192 191
3 187 193 192
3 29 194 123
3 23 195 194
3 17 196 195
3 11 197 196
3 5 274 197
3 123 198 128
3 194 199 198
3 195 200 199
3 196 201 200
3 197 202 201
3 128 203 133
3 198 204 203
3 199 205 204
3 200 206 205
3 201 207 206
3 133 208 138
3 203 209 208
3 204 210 209
3 205 211 210
3 206 212 211
3 138 213 143
3 208 214 213
3 209 215 214
3 210 216 215
3 211 217 216
3 143 218 148
3 213 219 218
3 214 220 219
3 215 221 220
3 216 222 221
3 148 223 153
3 218 224 223
3 219 225 224
3 220 226 225
3 221 227 226
3 153 228 158
3 223 229 228
3 224 230 229
3 225 231 230
3 226 232 231
3 158 233 163
3 228 234 233
3 229 235 234
3 230 236 235
3 231 237 236
3 163 238 168
3 233 239 238
3 234 240 239
3 235 241 240
3 236 242 241
3 168 243 173
3 238 244 243
3 239 245 244
3 240 246 245
3 241 247 246
3 173 248 178
3 243 249 248
3 244 250 249
3 245 251 250
3 246 252 251
3 178 253 183
3 248 254 253
3 249 255 254
3 250 256 255
3 251 257 256
3 183 258 188
3 253 259 258
3 254 260 259
3 255 261 260
3 256 262 261
3 188 263 193
3 258 264 263
3 259 265 264
3 260 266 265
3 261 267 266
3 268 275 274
3 269 276 275
3 270 277 276
3 271 278 277
3 272 279 278
3 274 280 202
3 275 281 280
3 276 282 281
3 277 283 282
3 278 35 283
3 202 284 207
3 280 285 284
3 281 286 285
3 282 287 286
3 283 41 287
3 207 288 212
3 284 289 288
3 285 290 289
3 286 291 290
3 287 47 291
3 212 292 217
3 288 293 292
3 289 294 293
3 290 295 294
3 291 53 295
3 217 296 222
3 292 297 296
3 293 298 297
3 294 299 298
3 295 59 299
3 222 300 227
3 296 301 300
3 297 302 301
3 298 303 302
3 299 65 303
3 227 304 232
3 300 305 304
3 301 306 305
3 302 307 306
3 303 71 307
3 232 308 237
3 304 309 308
3 305 310 309
3 306 311 310
3 307 77 311
3 237 312 242
3 308 313 312
3 309 314 313
3 310 315 314
3 311 83 315
3 242 316 247
3 312 317 316
3 313 318 317
3 314 319 318
3 315 89 319
3 247 320 252
3 316 321 320
3 317 322 321
3 318 323 322
3 319 95 323
3 252 324 257
3 320 325 324
3 321 326 325
3 322 327 326
3 323 101 327
3 257 328 262
3 324 329 328
3 325 330 329
3 326 331 330
3 327 107 331
3 262 332 267
3 328 333 332
3 329 334 333
3 330 335 334
3 331 113 335
3 113 336 335
3 114 337 336
3 115 338 337
3 116 339 338
3 117 189 339
3 335 340 334
3 336 341 340
3 337 342 341
3 338 343 342
3 339 190 343
3 334 344 333
3 340 345 344
3 341 346 345
3 342 347 346
3 343 191 347
3 333 348 332
3 344 349 348
3 345 350 349
3 346 351 350
3 347 192 351
3 332 266 267
3 348 265 266
3 349 264 265
3 350 263 264
3 351 193 263
